<svg xmlns="http://www.w3.org/2000/svg" viewBox="0 0 60 60"><path d="M50.014 7.09a13.062 13.062 0 0 0-18.467-.519 12.19 12.19 0 0 0-.521.521l-1.063.991-.956-.993a13.062 13.062 0 0 0-18.461-.525c-.182.17-.356.346-.524.525A13.939 13.939 0 0 0 6.3 18.13L13.077 57l16.908-13.727L46.977 57l6.684-38.308.04-.619A13.943 13.943 0 0 0 50.014 7.09zm-36.04 3.115a8.062 8.062 0 0 1 11.415.336l4.381 4.55 4.711-4.382.185-.189c.1-.108.207-.213.315-.315a8.063 8.063 0 0 1 11.391.31 8.944 8.944 0 0 1 2.357 7.042L45.781 34.69 30.136 19.041l-6.514 6.517L11.74 13.673a8.936 8.936 0 0 1 1.921-3.155c.099-.105.201-.207.313-.313zm16.006 26.61L16.536 47.861l-4.693-27.013 11.78 11.782 6.514-6.516 14.606 14.61-1.227 7.137z"/></svg>