<svg xmlns="http://www.w3.org/2000/svg" viewBox="0 0 60 60"><path fill="#231f20" d="M34.43 8.13c.45 0 .91.15 1.29.45.91.72 1.07 2.04.36 2.95a2.092 2.092 0 0 1-2.95.36 2.11 2.11 0 0 1-.36-2.95c.41-.53 1.03-.81 1.66-.81m0-5c-2.2 0-4.24.99-5.59 2.72a7.047 7.047 0 0 0-1.46 5.24 7.07 7.07 0 0 0 2.67 4.73c1.24.97 2.8 1.51 4.38 1.51 2.2 0 4.24-.99 5.59-2.72 2.41-3.08 1.87-7.56-1.21-9.97a7.154 7.154 0 0 0-4.38-1.51z"/><path fill="#231f20" d="M28.66 19.22c.42 0 .85.07 1.27.23l1.24.46c1.74.65 2.68 2.46 2.09 4.04l-4.51 12.13-7.55-2.8 4.51-12.13c.45-1.2 1.64-1.94 2.95-1.94m0-5c-3.42 0-6.49 2.09-7.64 5.2l-4.51 12.13-1.74 4.69 4.69 1.74 7.55 2.8 4.68 1.74 1.74-4.68 4.51-12.13c.77-2.08.62-4.41-.42-6.41a8.5 8.5 0 0 0-4.62-4.06l-1.24-.46c-.97-.36-1.98-.54-3-.54z"/><path fill="#231f20" d="M38.96 56.98l-4.84-1.22 2.84-11.28-8-3 1.75-4.68 12.19 4.56-3.94 15.62zM4.68 49.87l-1.66-4.71 9.55-3.37 3.6-9.09 4.64 1.84-4.43 11.21-11.7 4.12zM54.29 31.15L41.31 31l-9.39-10.86 3.79-3.27 7.91 9.16 10.72.12-.05 5z"/><path fill="#231f20" d="M48.31 23.72h4.57v6.4h-4.57zM12.2 28.93l-4.13-2.82 7.16-10.51 13.27-1.49.55 4.97-10.98 1.23-5.87 8.62zM52.03 21.7c-.67-.7-2.27-.71-2.96-.02l-3.54-3.53c1.27-1.28 3.1-2.01 5-2.01s3.82.77 5.1 2.11l-3.61 3.46zM53.31 14.33c-.7-.86-1.74-1.35-2.85-1.35s-2.07.46-2.77 1.26l-3.77-3.29c1.65-1.89 4.03-2.97 6.54-2.97s5.06 1.16 6.72 3.19l-3.87 3.17z"/></svg>