<svg xmlns="http://www.w3.org/2000/svg" viewBox="0 0 60 60"><path d="M3 41.162h14.448v4.994H3zM3 52.002h25.182v4.994H3zM45.643 14.766l-1.555-.14a9.412 9.412 0 0 1-5.791-2.7 7.992 7.992 0 0 1-2.444-5.309l-.086-.9L33.027 3 11.506 24.4l1.767 1.772.238.237 1.525 1.529.006-.006L44.26 57l2.847-2.854L57 44.471zm-1.388 35.178L18.586 24.406l13.274-13.2a12.965 12.965 0 0 0 2.907 4.259 14.441 14.441 0 0 0 7.283 3.9l1.893 4.952-6.5 2.353 1.7 4.694 6.576-2.381 1.368 3.579-6.617 2.395 1.706 4.694 6.7-2.424 2.283 5.973z"/></svg>