<svg xmlns="http://www.w3.org/2000/svg" viewBox="0 0 60 60"><g fill="#231f20"><path d="M44.93 20.88h5v17.06h-5z"/><path d="M38.7 26.92h17.47v5H38.7z"/></g><path fill="none" d="M39.15 27.21h5.86v5.02h-5.86zM49.99 37.9h.05v-5.68h5.87V27.2h-5.87v-5.68h-.79c.48 1.64.74 3.37.74 5.16v11.21z"/><path d="M45 41.92v3.09H15.09V26.69c0-8 6.96-14.5 14.96-14.5 4.52 0 8.71 2.08 11.49 5.33h6.01C44.5 12.1 38.9 8.2 32.54 7.38V2.93h-4.99v4.45C17.98 8.61 10.1 16.79 10.1 26.69v18.32h-4V50h21.45v6.78h4.99V50h21.45v-4.99h-4v-3.09H45z"/></svg>