<svg xmlns="http://www.w3.org/2000/svg" viewBox="0 0 60 60"><path d="M24.55 44.06l-4.95-.72c1.27-8.74 6.42-11.48 11.79-13.15 3.4-1.05 6.54-1.05 6.65-1.05l-.03 5s-2.5 0-5.14.83c-4.76 1.48-7.49 3.36-8.33 9.1z"/><path d="M32.37 43.66l-.77-4.94c7.44-1.15 10.47-4.84 11.43-6.37L47.27 35c-1.32 2.12-5.42 7.2-14.9 8.67z"/><path d="M55.5 26.3c-1.77-4.56-11.21-5.43-16.49-5.21-1.49.06-2.91.18-4.27.34-3.12-8.53-10-17.59-15.77-18.04C14.14 3 9.24 11.2 7.12 16.1 3.6 24.24 2.74 30.6 4.24 37.36 5.58 43.38 9.6 48.07 14.55 50.1c2.52 3.6 6.24 5.84 10.79 6.48.88.12 1.77.18 2.69.18 5.44 0 11.34-2.13 15.68-5.76 8.14-6.83 13.98-19.07 11.8-24.71zm-38.91 3.56c.05-.67.13-1.37.24-2.11.43-2.77 1.5-5.04 1.51-5.06l-4.5-2.18c-.06.12-1.41 2.94-1.96 6.49-.5 3.26-.63 6.61.76 9.82a16.49 16.49 0 0 0-.71 5.24 13.69 13.69 0 0 1-2.82-5.77c-1.25-5.65-.48-11.1 2.59-18.2 2.54-5.88 5.83-9.39 6.94-9.71 2.14.29 8.01 5.82 11.12 13.95-1.47.38-2.87.83-4.19 1.38-.1-4.56-1.57-7.63-2.43-9.02l-4.26 2.62c.76 1.24 2.17 4.3 1.55 9.22-.56.39-1.1.79-1.64 1.22-.81.65-1.54 1.36-2.21 2.11zm25.63 15.72c-2.21 1-7.4 2.39-15.45-1.04l-1.96 4.6c2.62 1.12 5.01 1.79 7.18 2.17-2.04.46-4.08.59-5.95.33-3.25-.46-5.78-1.99-7.51-4.55-.95-1.41-1.46-3.05-1.56-4.76-.11-1.95.31-3.99 1.21-5.89.85-1.79 2.11-3.46 3.76-4.79l.36-.27c.86-.67 1.75-1.27 2.68-1.8 3.8-2.18 8.26-3.25 14.23-3.49.48-.02.94-.03 1.4-.03 5.56 0 9.59 1.33 10.25 2.12.97 2.78-2.61 11.41-8.64 17.41z"/></svg>