<svg xmlns="http://www.w3.org/2000/svg" viewBox="0 0 60 60"><path d="M39.422 11.436l-.248.007a15.849 15.849 0 0 0-6.674 1.92V8.045L27.455 3l-3.536 3.535 3.581 3.581v3.239a16.023 16.023 0 0 0-6.722-1.915h-.243a14.344 14.344 0 0 0-14.316 14.3v7.484A23.847 23.847 0 0 0 30 57h.018a23.855 23.855 0 0 0 23.763-23.791v-7.49a14.36 14.36 0 0 0-14.359-14.283zm9.359 21.77A18.846 18.846 0 0 1 30.011 52a18.839 18.839 0 0 1-18.79-18.787v-7.475a9.322 9.322 0 0 1 9.245-9.3h.1a10.881 10.881 0 0 1 7.558 3.7l1.885 2.162 1.885-2.164a10.86 10.86 0 0 1 7.489-3.7h.1a9.335 9.335 0 0 1 9.3 9.29z"/></svg>