<svg xmlns="http://www.w3.org/2000/svg" viewBox="0 0 60 60"><path d="M38.75 46.9c-1.22 0-2.34-.74-2.82-1.87l-1.87-4.44c-1.16 1.06-2.97 1.07-4.13 0l-3.27-2.99-9.53 2.91-3.93 2.56c-.95.62-2.15.66-3.14.12l-4.36-2.4a3.066 3.066 0 0 1-1.34-3.9l1.02-2.37-2.09-9.62c-.27-1.25-.21-2.49.18-3.59.38-1.07.99-1.82 1.81-2.22l.18-.08 8.83-3.46 5.44-6.05c.85-.94 2.16-1.26 3.34-.82l3.31 1.23c.05.02.11.03.17.03h5.91c.53 0 1.06.14 1.52.4l2.95 1.68 1.39-4.5a3.042 3.042 0 0 1 2.77-2.16c1.29-.07 2.46.66 2.97 1.86L47.37 15l8.23 7.94c.53.51.86 1.19.92 1.92l.53 5.66-.11.82-.11.33-4.86 13.15c-.74 1.61-2.47 1.62-3.61 1.62h-.13l-9.33.44h-.14zm-.09-5zm-2.81-9.91l4.16 9.85 7.87-.37 4.11-11.14-.4-4.27-8-7.71c-.29-.28-.53-.62-.69-1l-1.39-3.27-1.66 5.39-7.92-4.51h-5.4c-.65 0-1.29-.12-1.91-.34l-2.08-.77-4.69 5.21c-.37.41-.81.74-1.31.98l-.18.08-8.27 3.24c0 .16.01.32.05.5l2.31 10.65-.1 1.06-.74 1.71 1.8.99 3.19-2.08c.23-.15.49-.27.77-.36l10.87-3.31c1.03-.31 2.17-.06 2.96.67l2.75 2.51 3.89-3.7zm-18.5 8.37zm8.48-3.5zm25.69-11.52zM31.49 14.7zm-10.17-1.32zM43.98 49.79h4.82c.61 0 1.08.55.97 1.15l-.9 5.17c-.08.47-.49.82-.97.82h-1.82a.98.98 0 0 1-.91-.61l-2.1-5.17a.98.98 0 0 1 .91-1.35z"/></svg>