<svg xmlns="http://www.w3.org/2000/svg" viewBox="0 0 60 60"><path d="M30 12.541a8.821 8.821 0 1 0 8.82 8.821A8.831 8.831 0 0 0 30 12.541zm0 12.641a3.821 3.821 0 1 1 3.82-3.82 3.824 3.824 0 0 1-3.82 3.82z"/><path d="M44.849 31.984a18.281 18.281 0 1 0-29.7 0L3 44l10.72 2.2 2.2 10.72 14.08-14 14.08 14 2.2-10.72L57 44zM18.94 46.82l-.98-4.86-4.84-.981 5.459-5.366a18.214 18.214 0 0 0 7.752 3.66l.119.118zM30 34.643a13.282 13.282 0 1 1 13.281-13.281A13.3 13.3 0 0 1 30 34.643zm12.04 7.317l-.98 4.86-7.51-7.429.119-.119a18.2 18.2 0 0 0 7.752-3.659l5.459 5.366z"/></svg>