<svg xmlns="http://www.w3.org/2000/svg" viewBox="0 0 60 60"><path d="M47.338 15h6.274v-5H6.5v5h6.164L3.058 34.6l.642 1.148a10.125 10.125 0 0 0 8.843 5.157l.277-.005.308.005a10.114 10.114 0 0 0 8.8-5.147l.649-1.153L12.861 15h14.645v30.038h-4.524v5.005h13.906v-5.005h-4.376V15h14.633l-9.61 19.6.642 1.145a10.027 10.027 0 0 0 8.785 5.158l.275-.005.309.005a10.207 10.207 0 0 0 8.863-5.147l.649-1.153zM16.841 34.3a5.075 5.075 0 0 1-3.68 1.6h-.651a5.1 5.1 0 0 1-3.722-1.614l4-8.16zm30.8 1.6h-.651a5.1 5.1 0 0 1-3.722-1.613l4-8.161 4.05 8.174a5.075 5.075 0 0 1-3.68 1.6z"/></svg>