<svg xmlns="http://www.w3.org/2000/svg" viewBox="0 0 60 60"><path d="M30 51.988a22.052 22.052 0 0 1-3.774-.331l-.89-27.826a11.507 11.507 0 0 0 3.551-1.341l19.242 19.933A21.978 21.978 0 0 1 30 51.988zM8.391 34.043a26.8 26.8 0 0 1 9.322-11.99 6.739 6.739 0 0 0 2.6 1.561l.849 26.512A22.058 22.058 0 0 1 8.391 34.043zM18.562 11.23l.5 1.131a9.422 9.422 0 0 0-1.707 1.817 7.148 7.148 0 0 0-1.233 2.886 32.494 32.494 0 0 0-7.054 6.2 22.093 22.093 0 0 1 9.494-12.034zm16.752-2.565a32.137 32.137 0 0 0-5.8 1.629 9.793 9.793 0 0 0-5.965-.2l-.436-.975a21.918 21.918 0 0 1 12.2-.459zM22.162 18.939a1.514 1.514 0 0 1-1.084-.66 1.512 1.512 0 0 1 .377-1.211 5.738 5.738 0 0 1 2.638-1.9 6.337 6.337 0 0 1 2.227-.431c1.15 0 1.945.382 2.092.771a1.522 1.522 0 0 1-.377 1.212 5.749 5.749 0 0 1-2.638 1.9 5.735 5.735 0 0 1-3.235.32zM51.988 30a21.881 21.881 0 0 1-1.411 7.741L32.5 19.019a6.234 6.234 0 0 0 .767-4.715 27.351 27.351 0 0 1 7.868-1.151 24.705 24.705 0 0 1 3.175.178A21.939 21.939 0 0 1 51.988 30zM30 3a27 27 0 1 0 27 27A27.03 27.03 0 0 0 30 3z"/></svg>