<svg xmlns="http://www.w3.org/2000/svg" viewBox="0 0 53.95 39.1"><path d="M43.42 18.02l6 2.69 4.55-5.26-3.08-4.4-1.92-4.38-.17-.23a9.87 9.87 0 0 0-1.83-1.83V.91h-6.06l-.14-.06c-3.62-1.71-7.8-.5-12.25.7a47.75 47.75 0 0 1-6.05 1.36 30.76 30.76 0 0 1-3.31-.27c-3.34-.39-7.13-.83-12.13 2.1-9 5.26-7.66 15.52-5.31 34.12v.26h8.1v-5H6.16c-1.84-15.2-2-21.84 3.41-25 3.54-2.09 6-1.81 9-1.45a33.42 33.42 0 0 0 4 .3h.31a49.72 49.72 0 0 0 6.88-1.51c3.54-.94 6.85-1.92 8.82-1a21.28 21.28 0 0 1 6 3.86l1.8 4.26.42.61-1.49-.67a10.72 10.72 0 0 0-10.06 1c-5.42 3.63-7.83 11.89-7.83 24.59h8.12v-5h-3c.43-6.56 1.71-10.45 3.08-12.76l4.73 17.7h8v-5h-4.12l-4.21-16.26a5.89 5.89 0 0 1 3.4.23z"/><path d="M17.09 23.42a9.05 9.05 0 0 1-5.75-.35l-1.58 4.74a18.5 18.5 0 0 0 3.21.74l2.46 10.47h8v-5h-4l-1.35-5.73h.21a12.59 12.59 0 0 0 6.68-3.93l-3.64-3.43a7.48 7.48 0 0 1-4.24 2.49z"/></svg>