<svg id="Icons" xmlns="http://www.w3.org/2000/svg" viewBox="0 0 60 60"><path d="M54.06,27.53c-3.08-3-7.84-3.8-12-4a13,13,0,0,0,.09-1.41,12.11,12.11,0,0,0-6.05-10.47A4.11,4.11,0,0,1,40.14,8V3a9.11,9.11,0,0,0-8.86,7.05C30.86,10,30.43,10,30,10s-.86,0-1.28.07a9.11,9.11,0,0,0-8.86-7V8a4.11,4.11,0,0,1,4.06,3.64,12.11,12.11,0,0,0-6.05,10.47A13,13,0,0,0,18,23.55c-4.17.18-8.94,1-12,4A10,10,0,0,0,3,35,11.69,11.69,0,0,0,16.37,46.63,15.86,15.86,0,0,0,27.5,54.29V57h5V54.29a15.82,15.82,0,0,0,11.13-7.66A11.69,11.69,0,0,0,57,35,10,10,0,0,0,54.06,27.53ZM30,15a7.14,7.14,0,0,1,7.13,7.13A6.75,6.75,0,0,1,37,23.5c-4.48,0-9.79,0-14,0A7.1,7.1,0,0,1,30,15Zm3.64,22a11.71,11.71,0,0,0,1.14,3.41H25.22A11.71,11.71,0,0,0,26.36,37Zm-7.09-8.53,6.9,0v1c0,.7,0,1.45,0,2.47H26.56c0-1,0-1.77,0-2.47ZM14.79,41.75A6.79,6.79,0,0,1,8,35,5.15,5.15,0,0,1,9.44,31.1c2.32-2.27,7.2-2.59,10.88-2.59h1.23v1c0,1.24,0,2.62,0,5.43A6.78,6.78,0,0,1,14.79,41.75ZM30,49.5a10.75,10.75,0,0,1-8.43-4.1H38.42A10.71,10.71,0,0,1,30,49.5Zm15.21-7.75A6.78,6.78,0,0,1,38.44,35c0-2.81,0-4.19,0-5.43v-1h.49l1.71,0h0c3.53.06,7.79.51,9.91,2.58A5.15,5.15,0,0,1,52,35,6.79,6.79,0,0,1,45.21,41.75Z"/></svg>