<svg xmlns="http://www.w3.org/2000/svg" viewBox="0 0 60 60"><path d="M21.927 44.025H8.711l1.222-24.486H20.6l.23 3.661h-2.357v16.451H21.7l.23 4.374zM8.293 51.964l.153-2.917H22.14l.154 2.917zm4.345-40.436h5.439v2.99h-5.439v-2.99zm10.856 16.691h12.828v6.411H23.494v-6.411zm15.906-8.68h10.7l1.19 24.486H38.073l.23-4.374h3.041V23.2H39.17l.229-3.659zm2.6-8.011h5.44v2.99H42v-2.99zm-4.267 40.436l.153-2.917h13.668l.153 2.917H37.733zM57 56.985l-2.149-42.467H52.46V6.507H36.978v8.011h-2.343l-.493 8.68h-8.284l-.494-8.68H23.1V6.507H7.616v8.011H5.18L3 56.985h24.556l-.831-17.334h6.55l-.831 17.334z"/></svg>