<svg xmlns="http://www.w3.org/2000/svg" viewBox="0 0 60 60"><path d="M49.059 22.08V10.92H37.918L30 3l-7.92 7.939h-11.2v11.216L3 30l7.937 7.918v11.216h11.141L30 57l7.921-7.94h11.213v-11.1L57 30zm-4.966 13.808v8.132h-8.266l-5.846 5.859-5.826-5.785h-8.177v-8.266L10.141 30l5.78-5.755v-8.27h8.249L30 10.133l5.829 5.827h8.188v8.212l5.87 5.855z"/><path d="M30.015 22.918a2.364 2.364 0 0 1 2.424 2.291h5.012a7.32 7.32 0 0 0-4.925-6.866V15.73h-5.013v2.61a7.281 7.281 0 0 0 2.5 14.172 2.295 2.295 0 1 1-2.422 2.288h-5.013a7.318 7.318 0 0 0 4.935 6.868v2.61h5.013v-2.609A7.281 7.281 0 0 0 30.015 27.5a2.295 2.295 0 1 1 0-4.582z"/></svg>