<svg xmlns="http://www.w3.org/2000/svg" viewBox="0 0 60 60"><path d="M48.1 22.011a6.425 6.425 0 0 0-1.267-3.83 12.284 12.284 0 0 0 .758-7.331A10.713 10.713 0 0 0 37.281 3H22.508c-6.192 0-10.686 5.166-10.686 12.284V27.32a18.859 18.859 0 0 0 4.387 12.047V57h26.947V40.079A17.989 17.989 0 0 0 48.1 27.761zm-31.278-6.727c0-4.356 2.285-7.284 5.686-7.284h14.773a5.7 5.7 0 0 1 5.482 4.17 7.732 7.732 0 0 1-.289 3.437 6.335 6.335 0 0 0-.843-.062h-7.748a6.974 6.974 0 0 0 0 13.947h4.144v-5h-4.144a1.974 1.974 0 0 1 0-3.947h7.748a1.466 1.466 0 0 1 1.469 1.466v5.75a13.107 13.107 0 0 1-7 11.508H23.808a13.682 13.682 0 0 1-6.986-11.949zm4.387 28.985h6.174V52h-6.174zM38.156 52h-5.773v-7.731h5.773z"/></svg>