<svg xmlns="http://www.w3.org/2000/svg" viewBox="0 0 60 60"><path d="M30.085 15.6a14.324 14.324 0 1 0 14.324 14.326A14.34 14.34 0 0 0 30.085 15.6zm0 23.648a9.324 9.324 0 1 1 9.324-9.321 9.334 9.334 0 0 1-9.324 9.324zM3 27.505h9.816v5H3zM47.183 27.505H57v5h-9.817zM9.14 12.68l3.534-3.535 6.942 6.942-3.535 3.535zM40.383 43.924l3.535-3.535 6.942 6.942-3.535 3.534zM27.44 3h5v9.82h-5zM27.44 47.18h5V57h-5zM40.32 16.085l6.944-6.944 3.535 3.535-6.944 6.943zM9.081 47.324l6.944-6.944 3.535 3.535-6.944 6.944z"/></svg>