<svg xmlns="http://www.w3.org/2000/svg" viewBox="0 0 54.11 37.47"><path d="M49.31 35.63c-.47-3.53-1.84-12.71-4-19.26 1.75.8 3 2.3 3.88 7.17l4.91-.93c-1.66-8.78-5-10.44-9.29-11.69a10.22 10.22 0 0 1-3.76-1.72c-4.76-3.31-19-9.21-27.09-9.21C8.48.05 5.07 7.1 4.3 9.56a20 20 0 0 0-.82 6.1V16L.05 18.26l4.13 1.54-2.93 1.86 5.22 1.93 1 2.6 4.92-1.14 1.83-2.51a18.62 18.62 0 0 0 1.67 2.3L11.55 33l-1 1.9-.1.2-1.26 2.36h5.67l5-9.37c.28.15.56.29.85.41v9h5V24.73l-2-.43c-2.7-.61-5-3.11-6.81-7.44l-1.69-4.13-2.61 3.6-2.36 3.24-1.79-4.5a14.66 14.66 0 0 1 .61-4c.64-2.07 3.07-6 4.91-6.05 7 0 20.74 5.83 24.21 8.3l.25.2a1.57 1.57 0 0 1 .19.15c1.73 1.5 4.17 11.82 5.52 21.06l.37 2.69h5l-.25-1.79z"/><path d="M31.23 18.73l-4.66 1.8a16.66 16.66 0 0 0 4.72 6.2 12.74 12.74 0 0 0 1.29.93l-2 4.81-2 5h5.41l3.23-7.84a13.42 13.42 0 0 0 2.24.42l.46-5a11.64 11.64 0 0 1-5.41-2.17 12.31 12.31 0 0 1-3.28-4.15z"/></svg>