<?xml version="1.0" encoding="utf-8"?>
<!-- Generator: Adobe Illustrator 23.0.1, SVG Export Plug-In . SVG Version: 6.00 Build 0)  -->
<svg version="1.1" id="Layer_1" xmlns="http://www.w3.org/2000/svg" xmlns:xlink="http://www.w3.org/1999/xlink" x="0px" y="0px"
	 viewBox="0 0 20 20" style="enable-background:new 0 0 20 20;" xml:space="preserve">
<style type="text/css">
	.st0{fill-rule:evenodd;clip-rule:evenodd;fill:#282B3E;}
</style>
<path class="st0" d="M5,2.5C6.5,1.5,8.2,1,10,1c2.4,0,4.7,1,6.4,2.6C18,5.3,19,7.6,19,10c0,1.8-0.5,3.5-1.5,5s-2.4,2.6-4,3.3
	c-1.6,0.7-3.5,0.9-5.2,0.5c-1.7-0.3-3.3-1.2-4.6-2.5s-2.1-2.9-2.5-4.6C0.8,10,1,8.2,1.7,6.6C2.4,4.9,3.5,3.5,5,2.5z M5.9,16.1
	c1.2,0.8,2.6,1.2,4.1,1.2c1.9,0,3.8-0.8,5.2-2.1c1.4-1.4,2.1-3.2,2.1-5.2c0-1.4-0.4-2.9-1.2-4.1c-0.8-1.2-1.9-2.1-3.3-2.7
	C11.5,2.7,10,2.5,8.6,2.8s-2.7,1-3.8,2c-1,1-1.7,2.3-2,3.8c-0.3,1.4-0.1,2.9,0.4,4.2C3.8,14.1,4.7,15.3,5.9,16.1z M10.4,10L7.9,7.4
	l1.2-1.2l3.7,3.8L9,13.6l-1.2-1.2L10.4,10z"/>
</svg>
