<?xml version="1.0" encoding="utf-8"?>
<!-- Generator: Adobe Illustrator 23.0.1, SVG Export Plug-In . SVG Version: 6.00 Build 0)  -->
<svg version="1.1" id="Layer_1" xmlns="http://www.w3.org/2000/svg" xmlns:xlink="http://www.w3.org/1999/xlink" x="0px" y="0px"
	 viewBox="0 0 20 20" style="enable-background:new 0 0 20 20;" xml:space="preserve">
<style type="text/css">
	.st0{fill-rule:evenodd;clip-rule:evenodd;fill:#282B3E;}
</style>
<path class="st0" d="M5.0019,2.4981c1.5-1,3.2-1.5,5-1.5c2.4,0,4.7,1,6.4,2.6c1.6,1.7,2.6,4,2.6,6.4c0,1.8-0.5,3.5-1.5,5
	s-2.4,2.6-4,3.3c-1.6,0.7-3.5,0.9-5.2,0.5c-1.7-0.3-3.3-1.2-4.6-2.5s-2.1-2.9-2.5-4.6c-0.4-1.7-0.2-3.5,0.5-5.1
	C2.4019,4.8981,3.5019,3.4981,5.0019,2.4981z M5.9019,16.0981c1.2,0.8,2.6,1.2,4.1,1.2c1.9,0,3.8-0.8,5.2-2.1
	c1.4-1.4,2.1-3.2,2.1-5.2c0-1.4-0.4-2.9-1.2-4.1s-1.9-2.1-3.3-2.7c-1.3-0.5-2.8-0.7-4.2-0.4s-2.7,1-3.8,2c-1,1-1.7,2.3-2,3.8
	c-0.3,1.4-0.1,2.9,0.4,4.2C3.8019,14.0981,4.7019,15.2981,5.9019,16.0981z M7.5019,12.0981l-1.2-1.2l3.7-3.7l3.7,3.7l-1.2,1.2
	l-2.5-2.5L7.5019,12.0981z"/>
</svg>
