<?xml version="1.0" encoding="utf-8"?>
<!-- Generator: Adobe Illustrator 23.0.1, SVG Export Plug-In . SVG Version: 6.00 Build 0)  -->
<svg version="1.1" id="Layer_1" xmlns="http://www.w3.org/2000/svg" xmlns:xlink="http://www.w3.org/1999/xlink" x="0px" y="0px"
	 viewBox="0 0 20 20" style="enable-background:new 0 0 20 20;" xml:space="preserve">
<style type="text/css">
	.st0{fill-rule:evenodd;clip-rule:evenodd;fill:#282B3E;}
</style>
<path class="st0" d="M15,17.5c-1.5,1-3.2,1.5-5,1.5c-2.4,0-4.7-1-6.4-2.6C2,14.7,1,12.4,1,10c0-1.8,0.5-3.5,1.5-5s2.4-2.6,4-3.3
	C8.2,1,10,0.8,11.8,1.2c1.7,0.3,3.3,1.2,4.6,2.5s2.1,2.9,2.5,4.6c0.3,1.7,0.2,3.6-0.5,5.2C17.6,15.1,16.5,16.5,15,17.5z M14.1,3.9
	c-1.2-0.8-2.6-1.2-4.1-1.2c-1.9,0-3.8,0.8-5.2,2.1C3.4,6.2,2.7,8.1,2.7,10c0,1.4,0.4,2.9,1.2,4.1s1.9,2.1,3.3,2.7
	c1.3,0.6,2.8,0.7,4.2,0.4s2.7-1,3.8-2s1.7-2.3,2-3.8s0.1-2.9-0.4-4.2C16.2,5.9,15.3,4.7,14.1,3.9z M10.7,6.4l1.2,1.2l-2.5,2.6
	l2.6,2.5l-1.2,1.2L7,10.1L10.7,6.4z"/>
</svg>
