<?xml version="1.0" encoding="utf-8"?>
<!-- Generator: Adobe Illustrator 23.0.1, SVG Export Plug-In . SVG Version: 6.00 Build 0)  -->
<svg version="1.1" id="Layer_1" xmlns="http://www.w3.org/2000/svg" xmlns:xlink="http://www.w3.org/1999/xlink" x="0px" y="0px"
	 viewBox="0 0 20 20" style="enable-background:new 0 0 20 20;" xml:space="preserve">
<style type="text/css">
	.st0{fill-rule:evenodd;clip-rule:evenodd;fill:#282B3E;}
</style>
<path class="st0" d="M1.0203,9.9981c0,1.8,0.5,3.5,1.5,5s2.4,2.6,4,3.3c1.6,0.7,3.5,0.9,5.2,0.5c1.7-0.3,3.3-1.2,4.6-2.5
	c1.3-1.3,2.1-2.9,2.5-4.6c0.3-1.7,0.2-3.6-0.5-5.2s-1.8-3.1-3.3-4c-1.5-1-3.2-1.5-5-1.5c-2.4,0-4.7,1-6.4,2.6
	C2.0203,5.2981,1.0203,7.5981,1.0203,9.9981z M6.2203,9.0981l1.2-1.2l2.6,2.5l2.5-2.6l1.1,1.2l-3.6,3.8L6.2203,9.0981z"/>
</svg>
