<?xml version="1.0" encoding="utf-8"?>
<!-- Generator: Adobe Illustrator 23.0.1, SVG Export Plug-In . SVG Version: 6.00 Build 0)  -->
<svg version="1.1" id="Layer_1" xmlns="http://www.w3.org/2000/svg" xmlns:xlink="http://www.w3.org/1999/xlink" x="0px" y="0px"
	 viewBox="0 0 20 20" style="enable-background:new 0 0 20 20;" xml:space="preserve">
<style type="text/css">
	.st0{fill-rule:evenodd;clip-rule:evenodd;fill:#282B3E;}
</style>
<path class="st0" d="M19,10c0-1.8-0.5-3.5-1.5-5s-2.4-2.6-4-3.3C11.8,1,10,0.8,8.2,1.2C6.5,1.5,4.9,2.4,3.6,3.6
	C2.4,4.9,1.5,6.5,1.2,8.2C0.8,10,1,11.8,1.7,13.4s1.8,3.1,3.3,4c1.5,1,3.2,1.5,5,1.5c2.4,0,4.7-1,6.4-2.6C18,14.7,19,12.4,19,10z
	 M13.8,10.9l-1.2,1.2L10,9.6l-2.5,2.6L6.4,11L10,7.2L13.8,10.9z"/>
</svg>
