<svg xmlns="http://www.w3.org/2000/svg" viewBox="0 0 60 60"><path d="M54.43 28.52a8.965 8.965 0 0 0-7.407-2.3v-4.075l-44.067-.063v17.6a17.321 17.321 0 0 0 17.3 17.3l9.463.064a17.322 17.322 0 0 0 16.4-11.833 11.04 11.04 0 0 0 7.523-3.159 10.515 10.515 0 0 0 3.311-7.465 8.334 8.334 0 0 0-2.523-6.069zM41.97 39.742a12.262 12.262 0 0 1-12.249 12.249l-9.463-.063A12.263 12.263 0 0 1 8.009 39.679V27.134l33.961.066zm8.167-1.33a6.22 6.22 0 0 1-3.131 1.648c0-.107.017-.211.017-.318v-8.4a4.142 4.142 0 0 1 3.9.823 3.3 3.3 0 0 1 .979 2.427 5.431 5.431 0 0 1-1.765 3.82zM19.333 12.28a4.418 4.418 0 0 1-2.222 3.853l2.288 4.5a9.473 9.473 0 0 0 4.986-8.357c0-3.162-1.786-5.037-3.09-6.4-1.145-1.2-1.7-1.825-1.7-2.919h-5.047c0 3.162 1.786 5.037 3.09 6.407 1.144 1.199 1.695 1.825 1.695 2.916zM29.605 12.28a4.418 4.418 0 0 1-2.222 3.853l2.289 4.5a9.473 9.473 0 0 0 4.986-8.357c0-3.162-1.786-5.037-3.091-6.4-1.144-1.2-1.694-1.825-1.694-2.919H24.82c0 3.162 1.786 5.037 3.09 6.407 1.145 1.199 1.695 1.825 1.695 2.916z"/></svg>