<svg xmlns="http://www.w3.org/2000/svg" viewBox="0 0 60 60"><path d="M49.775 21.375h3.693v-4.987l-6.341.022 9.869-9.876L53.459 3l-9.867 9.873.027-6.334h-5v14.849h11.156v-.013zM53.449 36.639A11.855 11.855 0 0 0 39.866 34.4l-.361.176L25.379 20.47l.176-.36A11.919 11.919 0 0 0 20.079 4.2 11.854 11.854 0 0 0 4.2 9.689a11.911 11.911 0 0 0 2.335 13.674L36.618 53.5a11.929 11.929 0 0 0 16.888 0 12.005 12.005 0 0 0 1.015-15.763zm-3.481 13.325a6.93 6.93 0 0 1-9.812 0L10.063 19.82A6.917 6.917 0 0 1 8.7 11.876 6.857 6.857 0 0 1 17.887 8.7a6.913 6.913 0 0 1 3.172 9.226l-1.734 3.566L38.5 40.641l3.568-1.751a6.858 6.858 0 0 1 7.858 1.3l.727.721a6.993 6.993 0 0 1-.685 9.053z"/></svg>