<svg xmlns="http://www.w3.org/2000/svg" viewBox="0 0 60 60"><path d="M57 17.268H46.763c-.127-.2-.253-.4-.39-.6l9.4-9.4-3.538-3.527-9.381 9.381c-.238-.17-.482-.331-.731-.486V3.083h-5v7.578a14.594 14.594 0 0 0-14.711 5.907L4.719 42.193a9.329 9.329 0 0 0 13.012 13l25.084-18.178a14.6 14.6 0 0 0 5.932-14.749H57zM39.906 32.951l-12.05 8.734-5.519-5.519L18.8 39.7l4.954 4.955-8.93 6.475a4.332 4.332 0 0 1-6.012-6.07L23.3 24.081l7.016 7.019 3.534-3.533-7.663-7.667.311-.451a9.654 9.654 0 1 1 13.408 13.5z"/></svg>