<svg xmlns="http://www.w3.org/2000/svg" viewBox="0 0 60 60"><path d="M21.059 3.023v22.771H57V3.023zM51.97 20.764H26.088V8.052H51.97z"/><path d="M39.029 17.878a3.47 3.47 0 1 0-3.47-3.47 3.474 3.474 0 0 0 3.47 3.47zM54.5 35.975H36.874a6.98 6.98 0 0 0 .065-.908 7.069 7.069 0 0 0-7.061-7.061h-12.9a2.489 2.489 0 0 0-.676.093L3 31.834l1.352 4.814 12.969-3.642h12.557a2.062 2.062 0 0 1 0 4.123H18.694v5h11.184a7.017 7.017 0 0 0 3.857-1.154h14.73l-11 11H3v5h35.5a2.5 2.5 0 0 0 1.768-.732l16-16a2.5 2.5 0 0 0-1.768-4.268z"/></svg>