<svg xmlns="http://www.w3.org/2000/svg" viewBox="0 0 60 60"><path d="M49.069 6.7a7.892 7.892 0 0 0-7.076 11.423l-3.1 3.1a12.452 12.452 0 0 0-15.691-1.7l-5.163-5.163a7.835 7.835 0 0 0 .8-3.453 7.93 7.93 0 1 0-4.3 7.03l5.088 5.089a12.469 12.469 0 0 0 1.6 15.861l-3.173 3.173a7.948 7.948 0 1 0 3.492 3.579l3.982-3.983a12.47 12.47 0 0 0 16.131-16.128l3.86-3.859A7.906 7.906 0 1 0 49.069 6.7zM14.438 52a2.91 2.91 0 1 1 2.91-2.91 2.913 2.913 0 0 1-2.91 2.91zm-3.507-38.18a2.91 2.91 0 1 1 2.91-2.91 2.913 2.913 0 0 1-2.91 2.91zM30 37.5a7.5 7.5 0 1 1 7.5-7.5 7.509 7.509 0 0 1-7.5 7.5zm19.069-19.98a2.91 2.91 0 1 1 2.91-2.91 2.913 2.913 0 0 1-2.91 2.91z"/></svg>