<svg xmlns="http://www.w3.org/2000/svg" viewBox="0 0 60 60"><g fill="#231f20"><path d="M43.64 18.07c.49 0 .98.17 1.37.53.82.74.86 1.99.1 2.79-.4.42-.94.63-1.48.63-.49 0-.98-.17-1.37-.53a1.94 1.94 0 0 1-.1-2.79c.4-.42.94-.63 1.48-.63m0-5c-1.92 0-3.78.8-5.1 2.18a6.898 6.898 0 0 0-1.91 5.04c.07 1.88.88 3.62 2.28 4.89A7.016 7.016 0 0 0 43.64 27c1.92 0 3.78-.8 5.1-2.18a6.898 6.898 0 0 0 1.91-5.04 6.906 6.906 0 0 0-2.28-4.89 7.016 7.016 0 0 0-4.73-1.82z"/><path d="M38.95 29.44c.27 0 .54.06.79.17l.71.32c.99.46 1.39 1.67.89 2.72l-3.85 8.01-4.31-1.97 3.85-8.01c.37-.78 1.14-1.25 1.92-1.25m0-5c-2.71 0-5.24 1.6-6.43 4.08l-3.85 8.01-2.21 4.59 4.63 2.12 4.31 1.97 4.46 2.04 2.13-4.42 3.85-8.01c.83-1.73.94-3.73.29-5.51a6.878 6.878 0 0 0-3.61-3.93l-.71-.32a6.78 6.78 0 0 0-2.87-.63z"/><path d="M43.45 56.92L38.8 55.1l2.74-7.01-4.83-2.26 2.13-4.53 9.06 4.26-4.45 11.36zM17.31 51.93l-.58-4.96 7.1-.84 3.58-6.88 4.44 2.31-4.8 9.23-9.74 1.14zM47.9 37.55L41 29.99l3.7-3.36 5.35 5.86 6.72-.17.13 4.99-9 .24zM25.85 36.32l-4.25-2.63 5.2-8.39 11.38-1.02.44 4.98-8.88.79-3.89 6.27z"/></g><path fill="#231f20" d="M16.04 21.81c-.83 0-1.66-.17-2.44-.51-1.51-.65-2.68-1.86-3.29-3.39s-.58-3.21.07-4.72a6.146 6.146 0 0 1 3.39-3.29 6.13 6.13 0 0 1 4.72.07c1.51.65 2.68 1.86 3.29 3.39a6.13 6.13 0 0 1-.07 4.72 6.146 6.146 0 0 1-3.39 3.29c-.74.29-1.51.44-2.28.44zm0-8.35c-.27 0-.54.05-.8.15-.54.21-.96.62-1.19 1.16-.23.53-.24 1.12-.02 1.66.21.54.62.96 1.16 1.19s1.12.24 1.66.02c.54-.21.96-.62 1.19-1.16.23-.53.24-1.12.02-1.66-.21-.54-.62-.96-1.16-1.19-.28-.12-.57-.18-.86-.18zM9.575 4.598l3.717-1.477 1.728 4.35-3.718 1.476zM17.473 7.587l1.815-4.314 3.687 1.55-1.815 4.314zM22.66 10.725l4.323-1.795 1.534 3.694-4.322 1.795zM22.617 20.422l1.623-3.656 4.68 2.077-1.624 3.656zM17.12 23.775l3.732-1.437 1.84 4.778-3.733 1.437zM9 26.868l2.078-4.68 3.656 1.623-2.077 4.68zM3.18 18.72l4.778-1.84 1.438 3.732-4.778 1.84zM3.175 12.314L4.8 8.658l4.68 2.079-1.624 3.655z"/></svg>