<svg xmlns="http://www.w3.org/2000/svg" viewBox="0 0 60 60"><path d="M30.344 24.709a1.4 1.4 0 0 1 1.395 1.391h5a6.4 6.4 0 0 0-3.895-5.883v-1.51h-5v1.513a6.394 6.394 0 0 0 2.5 12.28 1.4 1.4 0 1 1-1.4 1.4h-5a6.4 6.4 0 0 0 3.9 5.883v1.513h5V39.78a6.394 6.394 0 0 0-2.5-12.28 1.4 1.4 0 1 1 0-2.791z"/><path d="M15 18.713a3.709 3.709 0 0 1 3.7-3.705h21.853l-3.68 3.7 3.535 3.535L50 12.621 40.408 3l-3.535 3.535 3.456 3.473H18.7a8.715 8.715 0 0 0-8.7 8.705v8.349h5zM45 41.287a3.709 3.709 0 0 1-3.7 3.7H19.447l3.68-3.7-3.535-3.535L10 47.379 19.592 57l3.535-3.535-3.456-3.473H41.3a8.715 8.715 0 0 0 8.7-8.7v-8.354h-5z"/></svg>