<svg xmlns="http://www.w3.org/2000/svg" viewBox="0 0 60 60"><path d="M45.9 30.026a15.94 15.94 0 0 0-15.91-15.933h-2.5v13.435H14.036v2.5a15.933 15.933 0 1 0 31.866 0zm-26.582 2.5h13.17V19.378A10.939 10.939 0 1 1 19.32 32.524z"/><path d="M29.99 3a27.059 27.059 0 0 0-22 11.371v-5.6h-5v14.844h14.849v-5h-6.663a21.981 21.981 0 1 1 10.679 31.833l-1.849 4.645A27 27 0 1 0 29.99 3z"/><path d="M12.076 42.774l-4.068 2.907a27.066 27.066 0 0 0 5.758 5.9l3.007-3.995a22.089 22.089 0 0 1-4.697-4.812zM7.99 30h-5a26.907 26.907 0 0 0 1.664 9.35l4.69-1.731A21.923 21.923 0 0 1 7.99 30z"/></svg>