<svg xmlns="http://www.w3.org/2000/svg" viewBox="0 0 60 60"><path d="M51.535 43.824V26.079H32.5v-9.9a6.828 6.828 0 1 0-5 0v9.9H8.465v17.745a6.828 6.828 0 1 0 5 0V31.079H27.5v12.745a6.828 6.828 0 1 0 5 0V31.079h14.035v12.745a6.828 6.828 0 1 0 5 0zM10.965 52a1.828 1.828 0 1 1 1.828-1.828A1.83 1.83 0 0 1 10.965 52zM30 52a1.828 1.828 0 1 1 1.828-1.828A1.83 1.83 0 0 1 30 52zm0-40.344a1.828 1.828 0 1 1 1.828-1.828A1.83 1.83 0 0 1 30 11.656zM49.035 52a1.828 1.828 0 1 1 1.828-1.828A1.83 1.83 0 0 1 49.035 52z"/></svg>