<svg xmlns="http://www.w3.org/2000/svg" viewBox="0 0 60 60"><path d="M38.824 27.846l-4.866-12.579 6.73-2.6 4.865 12.58a3.147 3.147 0 0 1-1.8 4.071l-.859.332a3.148 3.148 0 0 1-4.071-1.8zm-17.649 0a3.147 3.147 0 0 1-4.071 1.8l-.858-.332a3.147 3.147 0 0 1-1.8-4.071l4.865-12.58 6.73 2.6-4.866 12.583zm34.106 13.928l-4.041 1.563-4.061-10.5A7.9 7.9 0 0 0 50 23.524L43.414 6.5 30 11.688 16.586 6.5 10 23.524a7.9 7.9 0 0 0 2.82 9.315L8.76 43.337l-4.042-1.563L3 46.22l12.527 4.846 1.72-4.446-4.041-1.563 4.061-10.5a8.017 8.017 0 0 0 .963.066 7.931 7.931 0 0 0 7.392-5.058L30 18.246l4.378 11.321a7.85 7.85 0 0 0 8.354 4.992l4.062 10.5-4.041 1.561 1.719 4.446L57 46.22l-1.719-4.446z"/></svg>