<svg xmlns="http://www.w3.org/2000/svg" viewBox="0 0 60 60"><path d="M45 52H15v-3.549h30zM27.066 29.086a7.114 7.114 0 0 0 3.194-1.413l-3.134-3.9a2.593 2.593 0 0 1-2.934 0L22.851 22.7l-8.42 4.912a3.708 3.708 0 0 1-.151-3.151l9.773-9.773a13.689 13.689 0 0 1 12.695 13.629h5A18.694 18.694 0 0 0 26.136 9.911V8.157a19.779 19.779 0 0 1 17.248 19.591 19.512 19.512 0 0 1-2.158 8.979 15.079 15.079 0 0 0-1.884 6.724H20.327c1.064-5.623 5.178-12.069 6.739-14.365zm17.282 14.365a10.207 10.207 0 0 1 1.328-4.444 24.472 24.472 0 0 0 2.708-11.259A24.776 24.776 0 0 0 23.636 3h-2.5v7.532l-10.39 10.391a6.969 6.969 0 0 0-1.735 5.3 8.168 8.168 0 0 0 2.2 5.352l2.336 2.34 7.193-4.2c-2.124 3.592-4.751 8.824-5.479 13.734H10V57h40V43.451z"/></svg>