<svg xmlns="http://www.w3.org/2000/svg" viewBox="0 0 60 60"><path d="M57 29.963a27 27 0 0 0-54 0v27h5V45.587a26.961 26.961 0 0 0 44 0v11.376h5V30.034v-.071zm-9.054-12.7a15.927 15.927 0 0 1-13.929-8.926 22.035 22.035 0 0 1 13.929 8.925zM25.992 8.336a15.933 15.933 0 0 1-13.939 8.927 22.031 22.031 0 0 1 13.939-8.927zM30 51.963A21.994 21.994 0 0 1 9.387 22.282h2.236A20.93 20.93 0 0 0 30 11.461a20.93 20.93 0 0 0 18.385 10.821h2.228A21.994 21.994 0 0 1 30 51.963z"/><path d="M18.861 24.043h4.779v5h-4.779zM36.258 24.043h4.777v5h-4.777zM29.949 41.477a6.094 6.094 0 0 1-6.088-6.086h-5a11.087 11.087 0 0 0 22.174 0h-5a6.093 6.093 0 0 1-6.086 6.086z"/></svg>