<svg xmlns="http://www.w3.org/2000/svg" viewBox="0 0 60 60"><path d="M30 3a27 27 0 1 0 27 27A27.03 27.03 0 0 0 30 3zm17.946 14.3a15.933 15.933 0 0 1-13.93-8.924 22.032 22.032 0 0 1 13.93 8.924zM25.993 8.372A15.934 15.934 0 0 1 12.054 17.3a22.032 22.032 0 0 1 13.939-8.928zM30 52A21.995 21.995 0 0 1 9.387 22.318h2.235A20.929 20.929 0 0 0 30 11.5a20.929 20.929 0 0 0 18.386 10.818h2.227A21.995 21.995 0 0 1 30 52z"/><path d="M18.861 24.079h4.778v5h-4.778zM36.257 24.079h4.779v5h-4.779zM29.949 41.513a6.094 6.094 0 0 1-6.088-6.087h-5a11.088 11.088 0 0 0 22.175 0h-5a6.094 6.094 0 0 1-6.087 6.087z"/></svg>