<svg xmlns="http://www.w3.org/2000/svg" viewBox="0 0 60 60"><path d="M30.152 8.006a2.037 2.037 0 1 1-2.038 2.037 2.039 2.039 0 0 1 2.038-2.037zM25.284 19.04a6.668 6.668 0 0 1 11.384 4.714h5.006a11.6 11.6 0 0 0-3.42-8.256 11.8 11.8 0 0 0-2.161-1.691 7.044 7.044 0 1 0-11.965-.133 11.744 11.744 0 0 0-2.385 1.826 11.594 11.594 0 0 0-3.417 8.255h5.006a6.62 6.62 0 0 1 1.952-4.715z"/><path d="M15.638 41.249a2.037 2.037 0 1 1-2.038 2.037 2.038 2.038 0 0 1 2.037-2.037zm28.724 0a2.037 2.037 0 1 1-2.037 2.037 2.039 2.039 0 0 1 2.037-2.037zm8.1 7.492A11.714 11.714 0 0 0 50.3 47.05a7.032 7.032 0 0 0-9.4-9.891l-8.4-8.388v-8.8h-5v8.8l-8.4 8.388a7.031 7.031 0 0 0-9.4 9.891A11.6 11.6 0 0 0 4.115 57h5.006a6.668 6.668 0 0 1 13.336 0h5.006a11.593 11.593 0 0 0-3.418-8.256 11.769 11.769 0 0 0-2.384-1.827 6.958 6.958 0 0 0 .64-5.9l7.713-7.706 7.686 7.711a6.958 6.958 0 0 0 .64 5.9 11.775 11.775 0 0 0-2.385 1.827A11.6 11.6 0 0 0 32.537 57h5.006a6.668 6.668 0 1 1 13.336 0h5.006a11.6 11.6 0 0 0-3.42-8.256z"/></svg>