<svg xmlns="http://www.w3.org/2000/svg" viewBox="0 0 60 60"><style></style><g id="Grid_1_"><path fill="#282b3e" d="M30.02 49.15H10.85V30.01c0-4.31 1.48-8.55 4.17-11.94 3.64-4.59 9.1-7.22 14.96-7.22 4.36 0 8.49 1.45 11.96 4.2 1.74 1.33 3.37 3.45 3.38 3.46 2.47 3.29 3.84 7.37 3.84 11.49-.01 10.56-8.59 19.15-19.14 19.15"/><g fill="#fff"><path d="M30.03 49.15H10.85V30.01c0-4.31 1.48-8.55 4.17-11.94 3.64-4.59 9.1-7.22 14.96-7.22 4.36 0 8.49 1.45 11.96 4.2 1.74 1.33 3.37 3.45 3.38 3.46 2.47 3.29 3.84 7.37 3.84 11.49-.01 10.56-8.59 19.15-19.13 19.15zM48.8 15.91c-.02-.03-1.95-2.59-4.19-4.29C40.4 8.27 35.34 6.5 29.98 6.5c-7.2 0-13.89 3.23-18.37 8.86-3.3 4.16-5.12 9.36-5.11 14.65V53.5h23.53c12.95 0 23.48-10.54 23.48-23.49-.01-5.06-1.68-10.07-4.71-14.1z"/><path d="M19.85 27.58h18.87v-4.35H19.85v4.35zM19.85 36.8h18.87v-4.35H19.85v4.35z"/></g></g></svg>