<svg xmlns="http://www.w3.org/2000/svg" viewBox="0 0 60 60"><path d="M30 12.44a6.485 6.485 0 0 0-2.5 12.469V57h5V24.909A6.485 6.485 0 0 0 30 12.44zM22.594 12.514L19.06 8.98a14.139 14.139 0 0 0 .14 20.032l3.534-3.534a9.147 9.147 0 0 1-.142-12.964z"/><path d="M16.6 6.536L13.067 3a22.592 22.592 0 0 0 .143 31.992l3.536-3.536a17.59 17.59 0 0 1-.146-24.92zM40.94 8.98l-3.534 3.534a9.147 9.147 0 0 1-.142 12.964l3.536 3.534a14.139 14.139 0 0 0 .14-20.032z"/><path d="M46.933 3L43.4 6.536a17.59 17.59 0 0 1-.143 24.92l3.536 3.536A22.592 22.592 0 0 0 46.933 3z"/></svg>