<svg xmlns="http://www.w3.org/2000/svg" viewBox="0 0 60 60"><path d="M56.8 37.541A2.5 2.5 0 0 0 54.488 36H36.862a6.952 6.952 0 0 0 .065-.907 7.069 7.069 0 0 0-7.061-7.062h-12.9a2.482 2.482 0 0 0-.675.093l-13.3 3.736 1.348 4.81 12.97-3.642h12.557a2.062 2.062 0 0 1 0 4.123H18.682v5h11.184A7.009 7.009 0 0 0 33.723 41h14.73l-11 11H2.988v5h35.5a2.5 2.5 0 0 0 1.768-.733l16-16a2.5 2.5 0 0 0 .544-2.726zM21.426 18.077v8.427h5v-8.427l4.464 4.464 3.535-3.535-10.499-10.5-10.5 10.5 3.535 3.535 4.465-4.464z"/><path d="M40 12.571v21.912h5V12.571l4.464 4.464L53 13.5 42.5 3 32 13.5l3.536 3.535L40 12.571z"/></svg>