<svg xmlns="http://www.w3.org/2000/svg" viewBox="0 0 60 60"><ellipse cx="45.67" cy="26.11" rx="4.04" ry="3.29" transform="rotate(-57.26 45.668 26.107)"/><ellipse cx="38.61" cy="36.21" rx="4.2" ry="3.29" transform="rotate(-48.94 38.62 36.222)"/><ellipse cx="28.56" cy="46.18" rx="4.2" ry="3.29" transform="rotate(-35.19 28.56 46.19)"/><path d="M18.86 28.9l-3.57-3.5c.24-.24.48-.48.73-.7l3.36 3.7c-.18.16-.35.33-.52.5zM11.52 22.71l-4.99-.32.62-9.59c.35-5.41 4.87-9.65 10.29-9.65s9.59 3.89 10.23 9.04L28.89 22l-4.96.62-1.22-9.81c-.33-2.65-2.6-4.66-5.27-4.66s-5.12 2.18-5.3 4.97l-.62 9.59z"/><path d="M11.13 12.33h4.7v4.78h-4.7zM16.09 17.84h3.88v3.94h-3.88z"/><path fill="none" d="M23.81 45.47h-2.09c-.31.63-.59 1.37-.84 2.28-.4 1.47-.7 2.58-.92 3.42 2.74.53 6.59 1.08 8.91.71 1.87-.29 3.26-1.97 4.73-3.76 1.03-1.25 2.1-2.55 3.45-3.48 1.63-1.13 3.18-1.7 4.42-2.17 1.95-.72 2.76-1.02 3.43-2.83.7-1.9 1.05-3.26 1.34-4.36.58-2.25 1.04-4.03 3.73-5.43 1.64-.85 1.78-2.02 1.76-4.91 0-.66 0-1.34.03-2.03.08-1.21.1-2.73.1-4-3.63.17-8.28.97-10.15 2.86-.8.81-.9 1.63-1.01 3.01-.12 1.52-.31 3.82-2.71 5.02-.45.22-.96.44-1.5.68-1.31.56-2.39 1.07-3.17 1.73v3.71c0 5.26-4.28 9.54-9.54 9.54z"/><path d="M33.35 26.42v-6.28l-2.64.15c-.33.02-8.2.51-13.93 5.71l3.36 3.7c2.61-2.37 5.93-3.48 8.21-4v4.62c1.31-1.99 3.28-3.12 5-3.91zM13.85 40.47v1.51l-2.58.15c.04.74.1 1.17.1 1.17l.29 2.18h4.69c.72-2.22 1.69-3.82 2.77-5h-5.27z"/><path fill="none" d="M8 25.71v10.22c0 2.5 2.04 4.54 4.54 4.54h7.58c-.01-2.7-.5-7.31-3.36-10.23-2.68-2.74-6.32-3.98-8.77-4.53z"/><path fill="none" d="M8 25.71v10.22c0 2.5 2.04 4.54 4.54 4.54h7.58c-.01-2.7-.5-7.31-3.36-10.23-2.68-2.74-6.32-3.98-8.77-4.53z"/><path d="M56.87 16.36L56.83 14l-2.36-.09c-1.18-.05-11.6-.96-16.13 3.8-1.96 2.06-2.39 6.08-2.59 6.69-.11.32-.14.51-.39.86-.37.5-1.61 1.02-1.99 1.19-.38.16.41-.21 0-.01v5.79c.79-.65 1.86-1.16 3.17-1.73.54-.23 1.05-.45 1.5-.68 2.4-1.2 2.58-3.5 2.71-5.02.11-1.38.21-2.2 1.01-3.01 1.86-1.9 6.52-2.7 10.15-2.86 0 1.27-.03 2.79-.1 4-.04.69-.04 1.37-.03 2.03.02 2.89-.13 4.06-1.76 4.91-2.69 1.4-3.15 3.18-3.73 5.43-.28 1.1-.64 2.47-1.34 4.36-.67 1.81-1.48 2.11-3.43 2.83-1.24.46-2.79 1.03-4.42 2.17-1.35.93-2.41 2.23-3.45 3.48-1.47 1.78-2.86 3.46-4.73 3.76-2.32.36-6.18-.19-8.91-.71.22-.83.52-1.95.92-3.42.25-.91.53-1.66.84-2.28H16.4c-.1.32-.2.64-.29.98-1.4 5.19-1.59 5.95-1.61 6.05l-.55 2.4 2.39.59c.72.18 6.24 1.51 10.82 1.51.9 0 1.76-.05 2.55-.17 3.75-.58 6.01-3.32 7.82-5.51.85-1.04 1.66-2.01 2.44-2.55 1.12-.77 2.18-1.17 3.31-1.59 2.3-.85 4.92-1.82 6.38-5.79.79-2.13 1.19-3.7 1.49-4.84.49-1.88 1-2.39 1.7-2.79 4.04-2.32 3.97-6.04 3.95-8.84 0-.57 0-1.14.02-1.68.17-2.72.1-6.7.1-6.87z"/><path d="M28.35 35.93v-5.6c-.55.84-.99 1.82-1.24 3-.75 3.51-1.12 3.62-2.52 3.99-1.77.48-3.76 1.28-5.47 3.14h4.69c2.5 0 4.54-2.04 4.54-4.54z"/><g><path fill="none" d="M8 25.71v10.22c0 2.5 2.04 4.54 4.54 4.54h7.58c-.01-2.7-.5-7.31-3.36-10.23-2.68-2.74-6.32-3.98-8.77-4.53z"/><path d="M12.54 40.47A4.55 4.55 0 0 1 8 35.93V25.71c2.44.55 6.08 1.79 8.77 4.53 2.86 2.92 3.34 7.53 3.36 10.23h3.69c.46 0 .89-.09 1.31-.22-.04-3.55-.78-9.43-4.78-13.51-5.77-5.89-14.34-6.43-14.7-6.45l-2.64-.15v15.78c0 5.26 4.28 9.54 9.54 9.54h3.81c.72-2.22 1.69-3.82 2.77-5h-6.58z"/><path d="M28.35 30.33v5.6c0 2.05-1.37 3.76-3.23 4.33.01.9-.02 1.63-.06 2.16.27-.1.55-.18.83-.26 4.02-1.08 5.17-3.37 6.11-7.78.2-.93.67-1.6 1.35-2.17v-5.79c-1.72.79-3.69 1.92-5 3.91z"/><path d="M25.12 40.25c-.42.13-.85.22-1.31.22h-4.69c-1.08 1.18-2.05 2.78-2.77 5h5.37c.92-1.87 2.09-2.62 3.34-3.05.04-.53.07-1.26.06-2.16z"/></g></svg>