<svg xmlns="http://www.w3.org/2000/svg" viewBox="0 0 60 60"><path d="M20.864 30.228l-4.975-.508 1.4-13.726a13.123 13.123 0 0 1 26.245-.006l1.4 13.132-4.972.529-1.427-13.521a8.123 8.123 0 1 0-16.246 0l-.013.254-1.412 13.846z"/><path d="M15.094 29.823v13.983A8.4 8.4 0 0 0 23.467 52l10.985-.078c-.9-12.288-8.5-20.948-19.358-22.1zM23.485 57a13.3 13.3 0 0 1-13.391-13.194V24.692h2.5c15.615 0 26.948 12.495 26.948 29.711v2.483L23.485 57z"/><path d="M35.453 56.915l-.036-5 3.646-.026a8.639 8.639 0 0 0 6.059-8.084V29.821a20.59 20.59 0 0 0-12.291 5.524l-3.474-3.595a26.033 26.033 0 0 1 18.265-7.058h2.5v19.114a13.572 13.572 0 0 1-10.1 13l-.294.075-4.275.03zM32.522 25.428h-5.031v-5.033h5.031v5.033zM27.075 18.925h-5.031v-5.034h5.031v5.034z"/></svg>