<svg xmlns="http://www.w3.org/2000/svg" viewBox="0 0 60 60"><path d="M30.036 12.269l.001.002 5.75-5.75L32.267 3l-2.231 2.231L27.805 3l-3.52 3.521 5.75 5.75.001-.002zM47.414 31.228a8.434 8.434 0 0 0 1.911-5.308 8.512 8.512 0 0 0-17.024 0 8.428 8.428 0 0 0 1.911 5.308 13.31 13.31 0 0 0-2.7 2.049 13.334 13.334 0 0 0-5.492-6.4A8.43 8.43 0 0 0 28 21.483a8.512 8.512 0 0 0-17.024 0 8.426 8.426 0 0 0 1.8 5.178A13.274 13.274 0 0 0 5.95 38.254V57h4.98V38.254a8.3 8.3 0 0 1 8.28-8.287c.095 0 .184.028.28.028h.01a8.283 8.283 0 0 1 8.008 8.26V57h5.018V42.719a8.289 8.289 0 0 1 16.577 0V57h4.98V42.719a13.264 13.264 0 0 0-6.669-11.491zm-27.823-6.223c-.125 0-.247-.019-.373-.019h-.011a3.462 3.462 0 1 1 .384.018zm21.222 4.447a3.532 3.532 0 1 1 3.532-3.532 3.536 3.536 0 0 1-3.532 3.532z"/></svg>