<svg xmlns="http://www.w3.org/2000/svg" viewBox="0 0 60 60"><path d="M40.99 17.345l-.433-.467a6.734 6.734 0 0 0-4.989-2.217 6.738 6.738 0 0 0-4.99 2.219L30 17.5l-.577-.623a6.736 6.736 0 0 0-4.99-2.219 6.734 6.734 0 0 0-4.989 2.217l-.433.467a7.782 7.782 0 0 0 0 10.377L30 39.621l10.99-11.9a7.782 7.782 0 0 0 0-10.376zm-3.856 8.037L30 33.107l-7.134-7.725a3.53 3.53 0 0 1 0-4.647l.372-.4a2.634 2.634 0 0 1 3.954 0L30 23.375l2.809-3.041a2.634 2.634 0 0 1 3.954 0l.372.4a3.53 3.53 0 0 1-.001 4.648z"/><path d="M48.5 39.047L30 50.967l-18.5-11.92V8h37zM6.5 3v38.7L30 57l23.5-15.3V3z"/></svg>