<svg xmlns="http://www.w3.org/2000/svg" viewBox="0 0 60 60"><path fill="none" d="M26.73 29.98c8.69-4.86 17.33-7.92 30.28-7.25V10.54H3.13v14.82c7.24-.01 14.45 1.22 21.04 3.61.86.31 1.71.65 2.56 1.01zM40.88 38.69c1.23 1.02 2.42 2.09 3.56 3.21 3.8-.96 8.2-1.34 12.56-1.11v-4.08c-6.74-.43-11.89.55-16.13 1.98zM3.13 49.29v7.54h20.96c-2.12-1.61-4.93-3.24-8.94-4.93-3.74-1.58-8.14-2.23-12.01-2.61zM32.23 32.72c1.33.75 2.64 1.57 3.92 2.43 6.77-2.77 13.42-3.92 20.86-3.48v-3.94c-10.46-.59-17.66 1.4-24.78 4.98zM17.96 42.53c-4.67-1.74-9.83-2.81-14.84-3.12v4.85c4.34.4 9.43 1.11 13.96 3.02 7.71 3.25 11.64 6.43 14.33 9.54h6.6C32.86 50.44 26 45.53 17.96 42.53z"/><path fill="none" d="M48.42 46.17a56.6 56.6 0 0 1 5.39 7.5l-4.29 2.56c-6.08-10.19-16.2-18.63-27.05-22.56-6.05-2.19-12.68-3.32-19.34-3.31v4.23c5.61.32 11.37 1.49 16.59 3.44C29.88 41.83 38.35 48.39 44.24 57h12.77V45.78c-2.92-.17-5.87-.05-8.59.38z"/><path d="M19.71 38.03C14.5 36.08 8.73 34.9 3.12 34.59v5.01c5.01.31 10.17 1.37 14.84 3.12 8.04 3 14.9 7.91 20.05 14.29h6.22c-5.89-8.62-14.37-15.18-24.52-18.97zM17.09 47.47c-4.53-1.91-9.62-2.62-13.96-3.02v5.02c3.87.37 8.28 1.03 12.01 2.61 4.01 1.69 6.82 3.32 8.94 4.93h7.33c-2.7-3.11-6.62-6.29-14.33-9.54zM26.55 29.71c-.29.17-.59.33-.89.5l2.49 4.34c1.31-.75 2.61-1.45 3.9-2.1 7.12-3.58 14.32-5.56 24.78-4.98v-5c-12.95-.67-21.6 2.39-30.28 7.25zM35.97 34.88c-.42.17-.84.34-1.26.52l2.01 4.58a45.52 45.52 0 0 1 3.99-1.56c4.24-1.43 9.39-2.41 16.13-1.98V31.4c-7.45-.44-14.09.7-20.86 3.48zM44.26 41.63c-.57.14-1.14.29-1.68.46l1.5 4.77c1.29-.41 2.69-.73 4.16-.96 2.72-.43 5.67-.55 8.59-.38v-5c-4.36-.22-8.77.15-12.56 1.11z"/><path fill="none" d="M1.48 16.29V53.5h46.28c-6.17-9.08-15.5-16.49-25.47-20.1-6.05-2.19-12.68-3.32-19.34-3.31v-5c7.24-.01 14.45 1.22 21.04 3.61.86.31 1.71.65 2.56 1.01-.29.17-.59.33-.89.5l2.49 4.34c1.31-.75 2.61-1.45 3.9-2.1 1.33.75 2.64 1.57 3.92 2.43-.42.17-.84.34-1.26.52l2.01 4.58a45.52 45.52 0 0 1 3.99-1.56c1.23 1.02 2.42 2.09 3.56 3.21-.57.14-1.14.29-1.68.46l1.5 4.77c1.29-.41 2.69-.73 4.16-.96a56.6 56.6 0 0 1 5.39 7.5l-.17.1h1.79V16.29H1.48z"/><path d="M48.24 45.89c-1.47.23-2.87.55-4.16.96l-1.5-4.77c.54-.17 1.11-.31 1.68-.46a63.63 63.63 0 0 0-3.56-3.21c-1.42.48-2.74 1.01-3.99 1.56l-2.01-4.58c.42-.18.84-.35 1.26-.52-1.28-.87-2.58-1.68-3.92-2.43-1.3.65-2.59 1.35-3.9 2.1l-2.49-4.34c.3-.17.59-.33.89-.5-.85-.36-1.7-.7-2.56-1.01-6.59-2.39-13.8-3.62-21.04-3.61v5c6.66-.01 13.29 1.11 19.34 3.31 9.97 3.61 19.3 11.02 25.47 20.1h5.71l.17-.1a56.6 56.6 0 0 0-5.39-7.5z"/></svg>