<svg xmlns="http://www.w3.org/2000/svg" viewBox="0 0 60 60"><path d="M40.558 22.962a6.735 6.735 0 0 0-4.989-2.218 6.738 6.738 0 0 0-4.99 2.219l-.579.624-.577-.624a6.736 6.736 0 0 0-4.99-2.219 6.735 6.735 0 0 0-4.99 2.218l-.433.467a7.784 7.784 0 0 0 0 10.377L30 45.705l10.99-11.9a7.782 7.782 0 0 0 0-10.377zm-3.423 8.5L30 39.191l-7.134-7.726a3.528 3.528 0 0 1 0-4.646l.372-.4a2.632 2.632 0 0 1 3.954 0L30 29.458l2.809-3.04a2.632 2.632 0 0 1 3.954 0l.372.4a3.528 3.528 0 0 1 0 4.647z"/><path d="M30 3a27 27 0 0 0-19.127 46.057l3.543-3.528A21.836 21.836 0 0 1 8.1 32.111h4.743v-5H8.2a21.887 21.887 0 0 1 4.622-10.827l3.3 3.3 3.535-3.536-3.293-3.293A21.885 21.885 0 0 1 27.5 8.146v4.322h5V8.146a21.9 21.9 0 0 1 11.049 4.54l-3.283 3.283 3.534 3.536 3.31-3.311a21.888 21.888 0 0 1 4.69 10.917h-4.644v5H51.9a21.865 21.865 0 0 1-6.047 13.145l3.6 3.469A27 27 0 0 0 30 3z"/></svg>