<svg id="Icons" xmlns="http://www.w3.org/2000/svg" viewBox="0 0 60 60"><polygon points="25.49 28.48 6.51 28.48 6.51 56.99 11.51 56.99 11.51 33.48 20.49 33.48 20.49 39.82 25.49 39.82 25.49 28.48"/><polygon points="25.49 56.99 20.49 56.99 20.49 56.99 25.49 56.99 25.49 44.81 25.49 44.81 25.49 56.99"/><rect x="20.49" y="39.82" height="17.17"/><polygon points="34.53 47.11 39.47 47.11 39.47 39.82 25.49 39.82 25.49 44.81 34.47 44.81 34.47 56.99 39.47 56.99 39.47 56.98 34.48 56.98 34.53 47.11"/><polygon points="20.49 39.82 20.49 56.99 25.49 56.99 25.49 44.81 25.49 44.81 25.49 39.82 20.49 39.82"/><polygon points="39.47 47.12 39.47 57 39.47 57 39.52 52.12 48.51 52.12 48.51 57 53.5 57 53.5 47.12 39.47 47.12"/><polygon points="34.53 47.11 34.48 56.98 39.47 56.98 39.47 47.11 34.53 47.11"/><polygon points="48.59 33.61 45.31 31.56 38.62 31.56 38.62 36.56 53.49 36.56 53.49 21.7 48.48 21.7 48.48 27.64 51.24 29.37 48.59 33.61"/><polygon points="48.48 31.56 48.48 27.64 9.15 3 6.5 7.24 45.31 31.56 48.48 31.56"/><polygon points="45.31 31.56 48.59 33.61 51.24 29.37 48.48 27.64 48.48 31.56 45.31 31.56"/></svg>