<svg xmlns="http://www.w3.org/2000/svg" viewBox="0 0 60 60"><g fill="#282b3e"><path d="M30.336 18.132a9.247 9.247 0 0 1 8.807 4.825L43.6 20.6a14.227 14.227 0 0 0-13.635-7.53 14.97 14.97 0 0 0-6.749 2.177l2.615 4.319a9.9 9.9 0 0 1 4.505-1.434zM44.357 41.179a42.71 42.71 0 0 0 .624-3.189 47.979 47.979 0 0 0 .573-9.718 7.956 7.956 0 0 0-.154-1.822 17.851 17.851 0 0 0-.422-2.295L40.071 25.4a14.161 14.161 0 0 1 .3 1.687 7.354 7.354 0 0 0 .065.856c.024.2.046.383.053.561a42.841 42.841 0 0 1-.519 8.696c-.152.962-.338 1.906-.557 2.851s-.354 1.451-.573 2.16l4.86 1.414c.252-.793.471-1.62.657-2.446zM16.13 28.036l5.061.236a13.392 13.392 0 0 1 .709-3.813 9.258 9.258 0 0 1 1.957-3.273l-3.695-3.375a14.31 14.31 0 0 0-3.02 4.927 17.775 17.775 0 0 0-1.012 5.298zM15.556 34.211a7.333 7.333 0 0 1-1.991 1.434l2.346 4.5a12.385 12.385 0 0 0 3.374-2.463 6.756 6.756 0 0 0 1.856-3.526 13.021 13.021 0 0 0 .118-2.565v-.4l-5.062.084v.455a8.417 8.417 0 0 1 0 1.6 2.184 2.184 0 0 1-.641.881zM31.7 37.3a18.57 18.57 0 0 1-.161.892c-.152.658-.321 1.3-.506 1.941a27.291 27.291 0 0 1-1.4 3.762 26.98 26.98 0 0 1-1.417 2.666l4.336 2.615A33.545 33.545 0 0 0 34.233 46a31.992 31.992 0 0 0 1.688-4.437c.219-.743.421-1.485.59-2.261a5.9 5.9 0 0 1 .113-.6A20.581 20.581 0 0 0 37 36.488l-5.061-.472c-.087.328-.169.823-.239 1.284z"/><path d="M36.46 24.375a6.123 6.123 0 0 0-5.905-3.206 6.613 6.613 0 0 0-5.8 4.252 13.894 13.894 0 0 0-.523 5.061v.641A13.978 13.978 0 0 1 23.756 36a10.644 10.644 0 0 1-2.3 3.762 14.761 14.761 0 0 1-3 2.43c-.371.236-.759.456-1.147.658l2.345 4.488a15.706 15.706 0 0 0 1.468-.844 20.686 20.686 0 0 0 4.015-3.256 15.783 15.783 0 0 0 3.375-5.584 18.684 18.684 0 0 0 .759-6.614v-.692a9.866 9.866 0 0 1 .236-3.222 1.55 1.55 0 0 1 1.384-.928 1.03 1.03 0 0 1 1.08.523 5.068 5.068 0 0 1 .438 2.109 33.8 33.8 0 0 1 0 4.15l5.062.388a40.609 40.609 0 0 0 .084-4.758 9.741 9.741 0 0 0-1.095-4.235zM42.265 3v5.002h9.899v9.899h5.002V3H42.265zM52.164 51.998h-9.899V57h14.901V42.099h-5.002v9.899zM8.164 42.099H3.162V57h14.901v-5.002H8.164v-9.899zM8.164 8.002h9.899V3H3.162v14.901h5.002V8.002z"/></g></svg>