<svg xmlns="http://www.w3.org/2000/svg" viewBox="0 0 60 60"><path d="M15.388 29.135a353.305 353.305 0 0 0-.864 3.924l-.314 1.354 1.2-.707a195.918 195.918 0 0 0 3.455-2.04c1.158.687 2.316 1.373 3.474 2.04l1.178.707-.294-1.354c-.295-1.295-.57-2.609-.864-3.924l3-2.648 1.041-.922-1.375-.118c-1.335-.137-2.669-.275-4-.392-.53-1.236-1.06-2.452-1.609-3.688l-.55-1.256-.55 1.256c-.53 1.236-1.06 2.452-1.589 3.688-1.335.117-2.67.255-4 .392l-1.374.118 1.041.922q1.492 1.323 2.994 2.648z"/><path d="M39.829 25.531a6.484 6.484 0 0 0-4.063-6.006V9.063A6.07 6.07 0 0 0 29.7 3H9.063A6.07 6.07 0 0 0 3 9.063v36.4a6.07 6.07 0 0 0 6.063 6.063h9.61L24.1 57l3.545-3.514-6.545-6.6a1.264 1.264 0 0 1 0-1.787 1.257 1.257 0 0 1 .895-.37 1.309 1.309 0 0 1 .937.41l8.931 8.513V25.531a1.486 1.486 0 1 1 2.972 0v17.315h4.991V40.43l5.98 4.331v12.152H50.8v-14.7l-10.971-7.946zm-9.054-5.94a6.486 6.486 0 0 0-3.9 5.94V42l-.455-.433a6.256 6.256 0 0 0-10.678 4.425c0 .182.011.362.026.54h-6.7a1.086 1.086 0 0 1-1.072-1.071V17.045h22.779zm0-7.537H7.991V9.063a1.086 1.086 0 0 1 1.072-1.072H29.7a1.086 1.086 0 0 1 1.071 1.072z"/><path d="M42.038 27.488l3.505 3.553a13.673 13.673 0 0 0 0-19.659l-3.507 3.552a8.683 8.683 0 0 1 0 12.554z"/><path d="M50.808 6.671l-3.5 3.556a15.183 15.183 0 0 1 0 21.971l3.5 3.556a20.172 20.172 0 0 0 0-29.083z"/></svg>