<svg xmlns="http://www.w3.org/2000/svg" viewBox="0 0 60 60"><path d="M56.987 45.841v-3.693H52l.022 6.345L39.918 36.4a10.073 10.073 0 0 0-7.373-11.791V12.538l4.469 4.5 3.527-3.526-2.612-2.612.009-.009L30.05 3l-3.536 3.538L19.55 13.5l3.536 3.535 4.459-4.5v12.072A10.057 10.057 0 0 0 20.16 36.32L7.978 48.493 8 42.148H3.013v3.693H3V57h14.849v-5l-6.331.027 11-10.988a10.033 10.033 0 0 0 15.02.048l10.948 10.94L42.151 52v5H57V45.841zm-26.942-6.4a5.08 5.08 0 1 1 5.08-5.08 5.085 5.085 0 0 1-5.08 5.079z"/></svg>