<svg xmlns="http://www.w3.org/2000/svg" viewBox="0 0 60 60"><path d="M53.24 16.39l-2.014 2.01-9.582-9.579 2.013-2.013-3.523-3.523L37.7 5.718a11.766 11.766 0 0 0-2.957 11.657 16.8 16.8 0 0 0-17.612 17.842 11.758 11.758 0 0 0-11.46 3.005l-2.434 2.433 3.524 3.523 2.013-2.013 9.583 9.583-2.013 2.013 3.523 3.524 2.433-2.433a11.771 11.771 0 0 0 2.942-11.7c.273.013.547.043.82.043a16.816 16.816 0 0 0 16.844-17.829 11.809 11.809 0 0 0 3.109.425 11.679 11.679 0 0 0 8.315-3.444l2.433-2.434zm-15.817 6.472a11.838 11.838 0 0 1 .258 5.993L31.43 22.6a11.849 11.849 0 0 1 5.993.262zm-4.265 13.023L24.4 27.126a11.168 11.168 0 0 1 2.229-2.278l8.808 8.809a11.131 11.131 0 0 1-2.278 2.228zm-14.381 5.86a6.762 6.762 0 0 1 1.955 5.33l-7.286-7.285a6.756 6.756 0 0 1 5.331 1.955zm3.823-4.061a11.893 11.893 0 0 1-.33-5.639l5.969 5.968a11.88 11.88 0 0 1-5.639-.329zm18.624-18.861a6.759 6.759 0 0 1-1.956-5.33l7.289 7.288a6.47 6.47 0 0 1-.542.027 6.732 6.732 0 0 1-4.791-1.985z"/></svg>