<svg xmlns="http://www.w3.org/2000/svg" viewBox="0 0 60 60"><switch><g><path d="M34.3 18.4l-3.1 1.3v1.4h-3.4v2.7h3.4v2.8c-.9-.8-1.6-1.4-2.9-1.4-1.7 0-4.3 1.5-4.3 5.9 0 5 2.2 6.4 4.6 6.4 1.3 0 2.1-.4 3-1.2v1h2.8V23.8h2.2v-2.7h-2.2v-2.7h-.1zm-3.1 15c-.5.8-1.1 1.3-2 1.3-1.9 0-2.1-2.3-2.1-3.7 0-1.3.4-3.5 2.1-3.5.9 0 1.6.6 2.1 1.3v4.6h-.1zM24.4 38.6h9.9V41h-9.9z"/><path d="M49.1 22.1V10.9H37.9L30 3l-7.9 7.9H10.9v11.2L3 30l7.9 7.9v11.2H22l8 7.9 7.9-7.9h11.2V38l7.9-8-7.9-7.9zm-5 13.8V44h-8.3L30 49.9l-5.8-5.8H16v-8.3L10.1 30l5.8-5.8V16h8.2l5.8-5.8 5.8 5.8H44v8.2l5.9 5.9-5.8 5.8z"/></g></switch></svg>