<svg xmlns="http://www.w3.org/2000/svg" viewBox="0 0 60 60"><switch><g><path d="M27.4 8.1V3C14.5 4.3 4.3 14.5 3.1 27.4h5C9.3 17.3 17.3 9.3 27.4 8.1zM32.4 52v5c13-1.2 23.3-11.4 24.5-24.4h-5C50.7 42.8 42.6 50.8 32.4 52zM51.8 27.4h5C55.7 14.4 45.4 4.2 32.4 3v5c10.2 1.2 18.3 9.2 19.4 19.4zM8.2 32.6h-5C4.3 45.5 14.5 55.7 27.4 57v-5C17.3 50.7 9.3 42.7 8.2 32.6zM26.5 20.3h4.9v4c-1.3-1.1-2.4-2-4.2-2-2.5 0-6.2 2.2-6.2 8.4 0 7.2 3.2 9.3 6.6 9.3 1.9 0 3-.6 4.3-1.8v1.4h4V20.3h3.2v-3.8h-3.2v-3.9l-4.5 1.8v2.1h-4.9v3.8zm4.9 13.8c-.7 1.1-1.6 1.9-2.9 1.9-2.7 0-3.1-3.2-3.1-5.3 0-1.9.5-5 3-5 1.3 0 2.2.9 3 1.8v6.6zM21.7 41.6h14.2v3.5H21.7z"/></g></switch></svg>