<svg xmlns="http://www.w3.org/2000/svg" viewBox="0 0 60 60"><switch><g><path d="M48.7 10.5C43.7 5.7 37 3 30 3 15.1 3 3 15.1 3 30c0 7.1 2.8 14 7.9 19.1l3.5-3.5c-8.6-8.6-8.6-22.5 0-31.1 7.9-7.9 20.5-8.6 29.2-1.6l-5 5 3.5 3.5 5-5c6.9 8.6 6.3 21-1.4 28.9l3.6 3.5c10.5-10.8 10.2-27.9-.6-38.3z"/><path d="M34.3 15.3L30.2 17v1.9h-4.5v3.5h4.5V26c-1.2-1-2.1-1.9-3.8-1.9-2.2 0-5.6 2-5.6 7.7 0 6.5 2.9 8.4 6 8.4 1.7 0 2.7-.5 3.9-1.6v1.3h3.6V22.4h2.9v-3.5h-2.9v-3.6zM30.2 35c-.6 1-1.4 1.8-2.6 1.8-2.5 0-2.8-3-2.8-4.8 0-1.7.5-4.6 2.7-4.6 1.2 0 2 .8 2.7 1.7V35zM21.4 41.7h12.9v3.2H21.4z"/></g></switch></svg>