<svg xmlns="http://www.w3.org/2000/svg" viewBox="0 0 60 60"><switch><g><path d="M11.1 22c1.3 0 2.1-.4 3-1.2v1h2.8V8.4H19V5.7h-2.2V3l-3.1 1.3v1.4h-3.4v2.7h3.4v2.8c-.9-.8-1.6-1.4-2.9-1.4-1.7 0-4.3 1.5-4.3 5.9 0 4.9 2.2 6.3 4.6 6.3zm.5-9.8c.9 0 1.6.6 2.1 1.3V18c-.5.8-1.1 1.3-2 1.3-1.9 0-2.1-2.3-2.1-3.7 0-1.2.3-3.4 2-3.4zM7 23.2h9.9v2.4H7zM37.4 18.2C26.7 18.2 18 26.9 18 37.6S26.7 57 37.4 57s19.4-8.7 19.4-19.4-8.7-19.3-19.4-19.4zm0 34.1c-8.1 0-14.7-6.6-14.7-14.7s6.6-14.7 14.7-14.7 14.7 6.6 14.7 14.7-6.6 14.7-14.7 14.7z"/><path d="M37 35l-3.6-3.6-3.5 3.5 7 7.2 10.8-10.8-3.5-3.5z"/></g></switch></svg>