<svg xmlns="http://www.w3.org/2000/svg" viewBox="0 0 60 60"><switch><g><path d="M50 12.7h-7.8C41 6.3 34.9 2 28.5 3.2c-4.8.9-8.6 4.6-9.5 9.5h-9l-7 41h54l-7-41zM30.6 8c2.9 0 5.5 1.9 6.4 4.7H24.2c.9-2.8 3.5-4.7 6.4-4.7zm-16.4 9.7h31.6l5.3 31H8.9l5.3-31z"/><path d="M34.8 19.4l-3.7 1.5v1.7h-4v3.1h4V29c-1-.9-1.9-1.7-3.4-1.7-2 0-5.1 1.8-5.1 6.9 0 5.9 2.6 7.6 5.4 7.6 1.6 0 2.4-.5 3.5-1.5v1.2h3.3V25.8h2.6v-3.1h-2.6v-3.3zm-3.7 17.7c-.5.9-1.3 1.6-2.4 1.6-2.2 0-2.5-2.7-2.5-4.3 0-1.5.4-4.1 2.4-4.1 1.1 0 1.8.7 2.4 1.5v5.3h.1zM23.2 43.2h11.6V46H23.2z"/></g></switch></svg>