<svg xmlns="http://www.w3.org/2000/svg" viewBox="0 0 60 60"><switch><g><path d="M27.5 16.7L24.4 18v1.4H21v2.7h3.4v2.8c-.9-.8-1.6-1.4-2.9-1.4-1.7 0-4.3 1.5-4.3 5.9 0 5 2.2 6.4 4.6 6.4 1.3 0 2.1-.4 3-1.2v1h2.8V22.1h2.2v-2.7h-2.2v-2.7h-.1zm-3.1 15c-.5.8-1.1 1.3-2 1.3-1.9 0-2.1-2.3-2.1-3.7 0-1.3.4-3.5 2.1-3.5.9 0 1.6.6 2.1 1.3v4.6h-.1zM17.7 36.9h9.9v2.4h-9.9z"/><path d="M44.7 3H17.3c-6 0-10.8 4.8-10.8 10.8v35.9l7.3 7.3 4.8-4.8 4.8 4.8 4.8-4.8L33 57l7.3-7.3.2-26.2h13.1V12c0-4.9-3.9-8.9-8.9-9zm-9.2 9l-.3 35.6-2.3 2.3-4.8-4.8-4.8 4.8-4.8-4.8-4.8 4.8-2.3-2.3V13.8c0-3.2 2.6-5.8 5.8-5.8h19.1c-.5 1.3-.8 2.6-.8 4zm13 6.5h-8.1V12c0-2.1 1.6-3.8 3.6-4h.4c2.2 0 4 1.8 4 4v6.5h.1z"/></g></switch></svg>