<svg xmlns="http://www.w3.org/2000/svg" viewBox="0 0 60 60"><switch><g><path d="M45 41.3c0 2-1.7 3.7-3.7 3.7H19.4l3.7-3.7-3.5-3.5-9.6 9.6 9.6 9.6 3.5-3.5-3.4-3.5h21.6c4.8 0 8.7-3.9 8.7-8.7v-8.4h-5v8.4zM15 18.7c0-2 1.7-3.7 3.7-3.7h21.9l-3.7 3.7 3.5 3.5 9.6-9.6L40.4 3l-3.5 3.5 3.5 3.5H18.7c-4.8 0-8.7 3.9-8.7 8.7V27h5v-8.3z"/><path d="M34.1 23.5h2.2v-2.7h-2.2v-2.7L31 19.4v1.4h-3.4v2.7H31v2.8c-.9-.8-1.6-1.4-2.9-1.4-1.7 0-4.3 1.5-4.3 5.9 0 5 2.2 6.4 4.6 6.4 1.3 0 2.1-.4 3-1.2v1h2.8V23.5h-.1zM31 33.1c-.5.8-1.1 1.3-2 1.3-1.9 0-2.1-2.3-2.1-3.7 0-1.3.4-3.5 2.1-3.5.9 0 1.6.6 2.1 1.3v4.6H31zM24.2 38.3h9.9v2.4h-9.9z"/></g></switch></svg>