<svg xmlns="http://www.w3.org/2000/svg" viewBox="0 0 60 60"><switch><g><path d="M39.9 14.4L44.4 3H15.6l4.5 11.4C12.7 18.1 7.6 25.7 7.6 34.5 7.6 46.9 17.6 57 30 57s22.4-10.1 22.4-22.4c0-8.9-5.1-16.5-12.5-20.2zM30.1 8h7l-1.8 4.7c-1.7-.4-3.5-.6-5.3-.6s-3.5.2-5.2.6L22.9 8h7.2zM30 52c-9.6 0-17.5-7.8-17.5-17.5C12.5 24.9 20.3 17 30 17c9.6 0 17.5 7.8 17.5 17.5S39.6 52 30 52z"/><path d="M34.1 22.7L30.9 24v1.4h-3.4v2.7h3.4v2.8c-.9-.8-1.6-1.4-2.9-1.4-1.7 0-4.3 1.5-4.3 5.9 0 5 2.2 6.4 4.6 6.4 1.3 0 2.1-.4 3-1.2v1h2.8V28.1h2.2v-2.7h-2.2v-2.7zm-3.2 15c-.5.8-1.1 1.3-2 1.3-1.9 0-2.1-2.3-2.1-3.7 0-1.3.4-3.5 2.1-3.5.9 0 1.6.6 2.1 1.3v4.6h-.1zM24.2 42.9h9.9v2.4h-9.9z"/></g></switch></svg>