<svg xmlns="http://www.w3.org/2000/svg" viewBox="0 0 60 60"><switch><g><path d="M52.6 9.1C49.8 6.2 46 4.5 41.9 4.5c-4 0-7.9 1.7-10.6 4.6L30 10.5l-1.3-1.4C23.1 3.2 13.9 3 8 8.5l-.6.6C1.7 15 1.5 24.3 6.9 30.4L30 56.9l23.1-26.4c5.4-6.2 5.2-15.5-.5-21.4zm-3.3 18.1L30 49.3 10.7 27.2C7 22.9 7.1 16.6 11 12.5l.4-.4c3.9-3.7 10-3.5 13.6.4l1.3 1.4 3.6 3.8 3.6-3.8 1.3-1.4c3.7-3.9 9.9-4 13.7-.3l.4.4c4 4 4.1 10.4.4 14.6z"/><path d="M34.1 18L31 19.3v1.4h-3.4v2.7H31v2.8c-.9-.8-1.6-1.4-2.9-1.4-1.7 0-4.3 1.5-4.3 5.9 0 5 2.2 6.4 4.6 6.4 1.3 0 2.1-.4 3-1.2v1h2.8V23.4h2.2v-2.7h-2.2V18h-.1zm-3.2 15c-.5.8-1.1 1.3-2 1.3-1.9 0-2.1-2.3-2.1-3.7 0-1.3.4-3.5 2.1-3.5.9 0 1.6.6 2.1 1.3V33h-.1zM24.2 38.2h9.9v2.4h-9.9z"/></g></switch></svg>