<svg xmlns="http://www.w3.org/2000/svg" viewBox="0 0 60 60"><switch><g><path d="M49.1 11.3V3.1H3v46.1h8.4v7.6H57V11.3h-7.9zM11.4 44.2H8V8.1h36.1v3.1H11.4v33zm32.7-28v28H16.4v-28h27.7zM16.4 51.9v-2.6h32.7v-33H52v35.6H16.4z"/><path d="M28.2 37.7c1.3 0 2.1-.4 3-1.2v1H34V24.1h2.2v-2.7H34v-2.7L30.9 20v1.4h-3.4v2.7h3.4v2.8c-.9-.9-1.7-1.5-2.9-1.5-1.7 0-4.3 1.5-4.3 5.9-.1 5 2.1 6.4 4.5 6.4zm.6-9.8c.9 0 1.6.6 2.1 1.3v4.5c-.5.8-1.1 1.3-2 1.3-1.9 0-2.1-2.3-2.1-3.7-.1-1.2.3-3.4 2-3.4zM24.1 38.9H34v2.4h-9.9z"/></g></switch></svg>