<svg xmlns="http://www.w3.org/2000/svg" viewBox="0 0 60 60"><switch><g><path d="M42.2 23.6H57V8.8h-5v5.6C43.4 2.2 26.5-.6 14.4 8 2.2 16.7-.6 33.5 8 45.7c8.6 12.1 25.5 15 37.6 6.3C52.8 46.9 57 38.7 57 30h-5c0 12.2-9.8 22-22 22.1-12.2 0-22-9.8-22.1-22 0-12.2 9.8-22 22-22.1 7.7 0 14.9 4 18.9 10.6h-6.7v5h.1z"/><path d="M34.8 21.8h2.9v-3.5h-2.9v-3.5l-4.1 1.7v1.9h-4.5v3.5h4.5v3.6c-1.2-1-2.1-1.9-3.8-1.9-2.2 0-5.6 2-5.6 7.7 0 6.5 2.9 8.4 6 8.4 1.7 0 2.7-.5 3.9-1.6v1.3h3.6V21.8zm-4.1 12.6c-.6 1-1.4 1.8-2.6 1.8-2.5 0-2.8-3-2.8-4.8 0-1.7.5-4.6 2.7-4.6 1.2 0 2 .8 2.7 1.7v5.9zM21.9 41.2h12.9v3.2H21.9z"/></g></switch></svg>