<svg xmlns="http://www.w3.org/2000/svg" viewBox="0 0 60 60"><switch><g><path d="M23.9 44.7c11.5 0 20.8-9.3 20.9-20.9C44.8 12.3 35.4 3 23.9 3S3 12.3 3 23.9c0 11.5 9.4 20.8 20.9 20.8zM8 23.9C8 15.1 15.1 8 23.9 8s15.9 7.1 15.9 15.9-7.1 15.9-15.9 15.9C15.1 39.7 8 32.6 8 23.9z"/><path d="M53.3 24.3c-1.5-2.1-3.3-3.9-5.4-5.4.3 1.6.5 3.3.5 4.9 0 .7 0 1.4-.1 2.1 5.6 6.7 4.7 16.7-2 22.3-5.9 4.9-14.4 4.9-20.3.1-.7.1-1.5.1-2.3.1-1.6 0-3.2-.2-4.8-.5 6.5 9.5 19.5 11.8 29 5.3 9.5-6.5 11.9-19.4 5.4-28.9zM22.1 31c1.3 0 2.1-.4 3-1.2v1h2.8V17.3H30v-2.7h-2.2V12l-3.1 1.3v1.4h-3.4v2.7h3.4v2.8c-.9-.8-1.6-1.4-2.9-1.4-1.7 0-4.3 1.5-4.3 5.9 0 4.8 2.2 6.3 4.6 6.3zm.5-9.9c.9 0 1.6.6 2.1 1.3V27c-.5.8-1.1 1.3-2 1.3-1.9 0-2.1-2.3-2.1-3.7 0-1.3.3-3.5 2-3.5zM18 32.2h9.9v2.4H18z"/></g></switch></svg>