<svg id="Icons" xmlns="http://www.w3.org/2000/svg" viewBox="0 0 60 60"><polygon points="15.25 37.92 3 37.92 3 57 8 57 8 42.92 15.25 42.92 15.25 57 20.25 57 20.25 56.91 15.25 56.91 15.25 37.92"/><polygon points="44.75 32.48 44.75 57 44.75 57 44.75 37.48 52 37.48 52 57 57 57 57 32.48 44.75 32.48"/><polygon points="32.5 17.14 32.5 6.48 15.25 6.48 15.25 37.92 20.25 37.92 20.25 56.91 20.25 56.91 20.25 11.48 27.5 11.48 27.5 56.91 27.5 56.91 27.5 17.14 32.5 17.14"/><rect x="15.25" y="37.92" width="5" height="18.99"/><polygon points="44.75 32.48 44.75 17.14 32.5 17.14 32.5 56.91 27.5 56.91 27.5 57 32.5 57 32.5 22.14 39.75 22.14 39.75 57 39.75 57 39.75 32.48 44.75 32.48"/><rect x="39.75" y="32.48" width="5" height="24.52"/><rect x="27.5" y="17.14" width="5" height="39.77"/></svg>