<svg xmlns="http://www.w3.org/2000/svg" viewBox="0 0 60 60"><path d="M37.846 57a19.159 19.159 0 0 1-19.139-19.127 32.6 32.6 0 0 1 9.253-22.744 14.317 14.317 0 0 1 19.243-.48c.9.732 9.781 8.285 9.781 23.213A19.159 19.159 0 0 1 37.846 57zm0-40.832a9.272 9.272 0 0 0-6.446 2.59 27.994 27.994 0 0 0-7.694 19.08v.024a14.139 14.139 0 0 0 28.278 0c0-12.861-7.606-19.071-7.931-19.329l-.092-.078a9.311 9.311 0 0 0-6.115-2.287z"/><path d="M22.157 48.832a19.162 19.162 0 0 1-19.14-19.139 32.572 32.572 0 0 1 9.254-22.732 14.316 14.316 0 0 1 19.24-.482 23.6 23.6 0 0 1 4.344 4.921l-4.127 2.822a19 19 0 0 0-3.354-3.846l-.1-.085a9.318 9.318 0 0 0-12.56.3A28 28 0 0 0 8.017 29.67a14.158 14.158 0 0 0 16.765 13.92l.918 4.91a19.352 19.352 0 0 1-3.543.332z"/></svg>