<svg xmlns="http://www.w3.org/2000/svg" viewBox="0 0 60 60"><path d="M6.5 3h47v5h-47zM6.5 52h47v5h-47zM10 30.605v17.821h5V30.6a4.487 4.487 0 0 1 8.974 0v17.826h5V30.6a9.431 9.431 0 0 0-2.781-6.709 9.74 9.74 0 0 0-.825-.728 7.365 7.365 0 1 0-11.763 0 9.674 9.674 0 0 0-.829.731A9.423 9.423 0 0 0 10 30.605zm9.486-14.218a2.365 2.365 0 1 1-2.364 2.365 2.368 2.368 0 0 1 2.364-2.365zM42.015 45.118L50 37.132l-3.535-3.535-4.448 4.447-4.442-4.446-3.537 3.533 7.977 7.987zM46.463 27.35L50 23.816l-7.977-7.985-7.985 7.984 3.535 3.536 4.448-4.448 4.442 4.447z"/></svg>