<svg xmlns="http://www.w3.org/2000/svg" viewBox="0 0 60 60"><path d="M13.462 3v12.199h5V8H48.5v44H18.462v-9.066h-5V57H53.5V3H13.462z"/><path d="M24.2 25.711a6.474 6.474 0 0 1 3.207-1.688 3.717 3.717 0 0 1 3.035 5.8l-9 9.065 10.819 10.817L35.8 46.17l-7.295-7.3 5.629-5.67.235-.274a8.764 8.764 0 0 0 .615-.983h9.882v-5h-8.825a8.555 8.555 0 0 0-.341-1.693c.167.011.334.025.5.025a7.4 7.4 0 1 0-7.249-6.1 8.459 8.459 0 0 0-1.529-.149H13.46v5h5.372l-5.975 6.029H6.5v5h8.441zm12-10.165a2.365 2.365 0 1 1-2.364 2.365 2.368 2.368 0 0 1 2.364-2.365z"/></svg>