<svg xmlns="http://www.w3.org/2000/svg" viewBox="0 0 60 60"><path d="M38.39 42.722a2.589 2.589 0 0 1-2.59-2.584h-4.99a7.578 7.578 0 0 0 15.156 0h-4.99a2.589 2.589 0 0 1-2.586 2.584z"/><path d="M40.116 19.768a18.608 18.608 0 1 0-20.232 20.464 18.608 18.608 0 1 0 20.232-20.464zM7.989 21.71a13.614 13.614 0 0 1 27.119-1.722 18.5 18.5 0 0 0-7.6 3.237 7.574 7.574 0 0 0-13.478 4.738h4.99a2.58 2.58 0 0 1 4.833-1.26 18.521 18.521 0 0 0-3.8 8.532A13.635 13.635 0 0 1 7.989 21.71zm30.4 30.2a13.62 13.62 0 1 1 13.62-13.62 13.636 13.636 0 0 1-13.618 13.619z"/></svg>