<svg xmlns="http://www.w3.org/2000/svg" viewBox="0 0 60 60"><path d="M36.85 44.92v-.37c-2.07.24-4.47.37-7.03.37h7.03zM22.96 44.92h6.86c-2.49 0-4.83-.13-6.86-.35v.35z"/><path fill="none" d="M29.82 34.28c2.47 0 4.86.12 7.03.34v-2.24c-2.14-.32-4.43-.49-6.81-.49s-4.86.19-7.09.53v2.18c2.13-.21 4.46-.33 6.86-.33zM15.67 42.1c0 .57.85 1.09 2.29 1.53v-3.06c-1.44.44-2.29.97-2.29 1.53zM29.82 44.92c2.56 0 4.95-.14 7.03-.37v-4.88c-2.07-.24-4.47-.37-7.03-.37s-4.83.13-6.86.35v4.92c2.03.23 4.37.35 6.86.35z"/><path fill="none" d="M48.97 42.1c0 4.55-4.57 6.08-7.12 6.67v1.14H17.96V48.8c-2.52-.57-7.29-2.07-7.29-6.71s4.77-6.14 7.29-6.71v-1.85c-5.95 1.78-9.88 4.85-9.88 8.33 0 5.51 9.83 9.97 21.96 9.97S52 47.36 52 41.86c0-3.53-4.05-6.64-10.16-8.41v1.97c2.55.59 7.12 2.13 7.12 6.67zM36.85 27.35v-.11c0-3.84-3.11-6.95-6.95-6.95s-6.95 3.11-6.95 6.95v.14c2.28-.32 4.66-.48 7.09-.48s4.61.16 6.81.45z"/><circle cx="29.9" cy="10.58" r="2.56" fill="none"/><path fill="none" d="M43.97 42.1c0-.54-.79-1.05-2.12-1.48v2.96c1.34-.43 2.12-.94 2.12-1.48z"/><path d="M47.64 30.27c-1.75-.8-3.7-1.46-5.79-1.98v5.18c6.11 1.77 10.16 4.87 10.16 8.41 0 5.51-9.83 9.97-21.96 9.97S8.09 47.38 8.09 41.88c0-3.48 3.93-6.54 9.88-8.33v-5.18c-1.98.51-3.84 1.14-5.51 1.9-8.15 3.7-9.37 8.86-9.37 11.6s1.22 7.9 9.37 11.6c4.78 2.17 11.03 3.37 17.6 3.37s12.81-1.2 17.6-3.37c8.15-3.7 9.37-8.86 9.37-11.6s-1.22-7.9-9.37-11.6z"/><path d="M18.84 35.21c1.23-.24 2.62-.44 4.12-.59v-2.18c-1.78.28-3.46.65-5 1.11v1.85c.34-.08.64-.14.88-.19zM22.96 27.24c0-3.84 3.11-6.95 6.95-6.95s6.95 3.11 6.95 6.95v.11c1.73.23 3.41.54 5 .94v-1.05c0-2.11-.56-4.1-1.52-5.82l-.64.64-3.54-3.54.86-.86c-.69-.51-1.43-.96-2.23-1.31a7.516 7.516 0 0 1-9.76 0c-.72.33-1.4.72-2.04 1.18l1 1-3.54 3.54-.84-.84a11.837 11.837 0 0 0-1.65 6.02v1.13c1.59-.41 3.26-.75 5-.99v-.14zM36.85 34.63c1.43.15 2.77.34 3.96.58.28.06.64.13 1.04.22v-1.97c-1.55-.45-3.22-.81-5-1.07v2.24z"/><path d="M36.85 32.39c1.78.26 3.45.63 5 1.07v-5.18c-1.59-.4-3.27-.71-5-.94v5.04zM22.96 32.43v-5.05c-1.74.24-3.41.57-5 .99v5.18c1.54-.46 3.22-.84 5-1.11zM41.85 40.62v-5.19c-.41-.09-.77-.17-1.04-.22a42.56 42.56 0 0 0-3.96-.58v5.03c2.04.23 3.76.57 5 .96zM22.96 39.64v-5.03c-1.49.15-2.89.35-4.12.59-.24.05-.54.11-.88.19v5.18c1.26-.39 2.97-.71 5-.93zM34.79 16.34a7.54 7.54 0 0 0 2.68-5.76c0-4.17-3.39-7.56-7.56-7.56s-7.56 3.39-7.56 7.56a7.51 7.51 0 0 0 2.68 5.76 11.868 11.868 0 0 1 9.76 0zm-7.44-5.76c0-1.42 1.15-2.56 2.56-2.56s2.56 1.15 2.56 2.56-1.15 2.56-2.56 2.56-2.56-1.15-2.56-2.56z"/><path d="M34.79 16.34a11.868 11.868 0 0 0-9.76 0 7.516 7.516 0 0 0 9.76 0zM39.47 21.41l9.38-9.38-3.54-3.54-9.16 9.16a11.94 11.94 0 0 1 3.31 3.76z"/><path d="M39.68 22.06l.64-.64c-.83-1.48-1.96-2.75-3.31-3.76l-.86.86 3.54 3.54zM23.78 17.52L14.76 8.5l-3.54 3.54 9.18 9.18c.85-1.46 2.01-2.72 3.38-3.69z"/><path d="M23.98 18.52l-1-1c-1.37.98-2.52 2.24-3.38 3.69l.84.84 3.54-3.54z"/><path fill="none" d="M30 38.91c-.86 0-1.69.03-2.48.08v5.85c.79.05 1.62.08 2.48.08.72 0 1.4-.02 2.07-.06v-5.89c-.67-.03-1.35-.06-2.07-.06zM43.61 41.91c-1.08-.75-3.31-1.72-6.54-2.35v4.71c3.23-.63 5.46-1.6 6.54-2.35zM16.39 41.91c1.04.72 3.12 1.64 6.13 2.27v-4.54c-3.01.63-5.1 1.55-6.13 2.27z"/><path d="M39.13 34.88v2.19h-2.06v2.49c3.23.63 5.46 1.6 6.54 2.35-1.08.75-3.31 1.72-6.54 2.35v2.48h-5v-1.89c-.67.03-1.35.06-2.07.06-.86 0-1.69-.03-2.48-.08v1.91h-5v-2.57c-3.01-.63-5.1-1.55-6.13-2.27 1.04-.72 3.12-1.64 6.13-2.27v-2.61h-2.06v-2.05c-5.74 1.38-9.61 3.97-9.61 6.93 0 4.42 8.57 8 19.15 8s19.15-3.58 19.15-8c0-3.04-4.05-5.68-10.02-7.04z"/><path d="M22.52 39.65v4.54c1.46.31 3.12.54 5 .66V39c-1.88.11-3.54.35-5 .66z"/><path d="M22.52 46.75h5v-1.91c-1.88-.11-3.54-.35-5-.66v2.57zM32.07 44.86a35.8 35.8 0 0 0 5-.59v-4.71c-1.46-.29-3.14-.5-5-.59v5.89z"/><path d="M32.07 46.75h5v-2.48c-1.46.29-3.14.5-5 .59v1.89zM22.52 35.37h5v7.23h-5zM31.99 35.37h5v7.23h-5z"/></svg>