<svg xmlns="http://www.w3.org/2000/svg" viewBox="0 0 60 60"><path d="M50 14.33h-7.8a11.78 11.78 0 0 0-23.17 0H10l-7 41h54zM30.62 9.68a6.78 6.78 0 0 1 6.44 4.65H24.18a6.79 6.79 0 0 1 6.44-4.65zM14.2 19.33h31.56l5.3 31H8.91z"/><path d="M37.44 37.5l-.11.24a7.66 7.66 0 0 1-13.08 1.55h9.48v-3.54h-11a7.11 7.11 0 0 1-.1-1.14 7.83 7.83 0 0 1 .12-1.29h11v-3.54h-9.37a7.61 7.61 0 0 1 5.95-2.84 7.7 7.7 0 0 1 7 4.47l.1.23h5.11l-.16-.51a12.51 12.51 0 0 0-23.57-1.35h-3.3v3.54h2.39c0 .42-.07.85-.07 1.29s0 .76.06 1.14h-2.41v3.54h3.24A12.52 12.52 0 0 0 42.38 38l.14-.52z"/></svg>