<svg xmlns="http://www.w3.org/2000/svg" viewBox="0 0 60 60"><path d="M49.1 11.25V3.14H3v46.09h8.4v7.63H57V11.25zM8 44.24V8.13h36.11v3.12H11.4v33zm36.12-28v28H16.4v-28zM52 51.87H16.4v-2.63h32.71v-33H52z"/><path d="M36.15 32.41l-.08.18a5.76 5.76 0 0 1-9.83 1.17h7.12V31.1h-8.25a6.11 6.11 0 0 1-.07-.86 5.23 5.23 0 0 1 .09-1h8.23v-2.63h-7a5.76 5.76 0 0 1 9.72 1.22l.08.18H40l-.11-.39a9.41 9.41 0 0 0-17.72-1h-2.52v2.66h1.8a7.77 7.77 0 0 0-.06 1 8.11 8.11 0 0 0 .05.86h-1.79v2.66h2.43a9.4 9.4 0 0 0 17.78-1l.11-.39z"/></svg>