<svg xmlns="http://www.w3.org/2000/svg" viewBox="0 0 60 60"><path fill="#231f20" d="M44.5 3H17.26A10.8 10.8 0 0 0 6.47 13.81v35.9L13.76 57l4.79-4.79L23.33 57l4.79-4.79L32.91 57l7.28-7.28.2-26.24h13.14V12a8.92 8.92 0 0 0-8.8-9zm-9 9l-.3 35.63-2.29 2.3-4.79-4.78-4.79 4.78-4.79-4.78-4.78 4.78-2.29-2.29V13.81A5.79 5.79 0 0 1 17.26 8H36.4a9.06 9.06 0 0 0-.93 4zm13.06 6.47h-8.14v-6.45a4 4 0 0 1 3.64-4h.39a4 4 0 0 1 4 4z"/><path fill="#231f20" d="M29.54 30.61l-.08.18a5.74 5.74 0 0 1-9.8 1.21h7.1v-2.7h-8.23a6 6 0 0 1-.07-.85 6.14 6.14 0 0 1 .09-1h8.21v-2.63h-7a5.75 5.75 0 0 1 9.68 1.23l.08.17h3.82l-.11-.38a9.38 9.38 0 0 0-17.66-1h-2.48v2.66h1.79c0 .32-.05.64-.05 1v.85h-1.74V32h2.42a9.38 9.38 0 0 0 17.73-1l.11-.39z"/></svg>