<svg xmlns="http://www.w3.org/2000/svg" viewBox="0 0 60 60"><path d="M39.94 14.42L44.43 3H15.57l4.54 11.39a22.44 22.44 0 1 0 19.83 0zM22.92 8h14.16l-1.83 4.68a23.28 23.28 0 0 0-5.25-.6 22.84 22.84 0 0 0-5.2.6zM30 52a17.46 17.46 0 1 1 17.46-17.46A17.48 17.48 0 0 1 30 52z"/><path d="M38 37.19l-.1.22a7 7 0 0 1-12 1.42h8.71v-3.25H24.49a7.17 7.17 0 0 1-.08-1 6.78 6.78 0 0 1 .11-1.2h10.07v-3.29H26a7 7 0 0 1 11.88 1.5l.09.21h4.69l-.14-.47a11.51 11.51 0 0 0-21.67-1.24h-3v3.25H20a11.9 11.9 0 0 0-.06 1.2c0 .35 0 .69.05 1h-2.18v3.25h3a11.5 11.5 0 0 0 21.74-1.17l.14-.47z"/></svg>