<svg xmlns="http://www.w3.org/2000/svg" viewBox="0 0 60 60"><path d="M44.76 23.86A20.86 20.86 0 1 0 23.9 44.71a20.87 20.87 0 0 0 20.86-20.85zM8 23.86a15.87 15.87 0 1 1 15.9 15.86A15.87 15.87 0 0 1 8 23.86z"/><path d="M47.86 18.94a24.58 24.58 0 0 1 .49 4.92c0 .71 0 1.41-.1 2.11A15.85 15.85 0 0 1 26 48.37c-.75.07-1.5.11-2.27.11A24.54 24.54 0 0 1 19 48a20.84 20.84 0 1 0 28.86-29.06zM30.24 26.15l-.09.2a6.46 6.46 0 0 1-11 1.31h8v-3h-9.31a6 6 0 0 1-.08-1 6.62 6.62 0 0 1 .1-1.1h9.24v-3h-7.89A6.48 6.48 0 0 1 30.12 21l.09.2h4.3l-.13-.44a10.56 10.56 0 0 0-19.89-1.14H11.7v3h2a10 10 0 0 0-.05 1.1v1h-2v3h2.74a10.56 10.56 0 0 0 20-1.07l.12-.44z"/></svg>