<svg xmlns="http://www.w3.org/2000/svg" viewBox="0 0 60 60"><path d="M15 18.71A3.7 3.7 0 0 1 18.7 15h21.85l-3.68 3.7 3.54 3.53L50 12.62 40.41 3l-3.54 3.53L40.33 10H18.7a8.72 8.72 0 0 0-8.7 8.7v8.35h5zm30 22.58A3.71 3.71 0 0 1 41.3 45H19.45l3.68-3.7-3.54-3.54L10 47.38 19.59 57l3.54-3.53L19.67 50H41.3a8.72 8.72 0 0 0 8.7-8.7v-8.36h-5z"/><path d="M36.14 32.32l-.09.2a6.24 6.24 0 0 1-10.66 1.26h7.72v-2.89h-8.95a7 7 0 0 1-.08-.92 6.24 6.24 0 0 1 .1-1.06h8.93V26h-7.62A6.24 6.24 0 0 1 36 27.36l.09.19h4.16l-.13-.42A10.21 10.21 0 0 0 20.92 26h-2.68v2.88h2a9.28 9.28 0 0 0-.11 1.12c0 .31 0 .62.05.92h-1.94v2.89h2.64a10.2 10.2 0 0 0 19.28-1l.12-.42z"/></svg>