<svg xmlns="http://www.w3.org/2000/svg" viewBox="0 0 60 60"><path fill="#231f20" d="M52.62 8.42a14.71 14.71 0 0 0-21.35 0L30 9.78l-1.33-1.36A14.64 14.64 0 0 0 8 7.8c-.21.2-.42.4-.61.61a15.85 15.85 0 0 0-.48 21.33L30 56.18l23.09-26.39a15.85 15.85 0 0 0-.47-21.37zm-3.3 18.07L30 48.59l-19.33-22.1A10.89 10.89 0 0 1 11 11.84l.4-.39a9.64 9.64 0 0 1 13.62.4l1.31 1.36L30 17l3.6-3.81 1.29-1.37a9.72 9.72 0 0 1 13.74-.34l.35.35a10.86 10.86 0 0 1 .34 14.63z"/><path fill="#231f20" d="M36 31.34l-.08.18A5.77 5.77 0 0 1 26 32.69h7.13V30H24.9a6 6 0 0 1-.07-.85 6.26 6.26 0 0 1 .09-1h8.25v-2.63h-7a5.77 5.77 0 0 1 9.73 1.23l.08.18h3.85l-.12-.39a9.43 9.43 0 0 0-17.76-1h-2.52v2.67h1.8a7.94 7.94 0 0 0-.05 1 8.06 8.06 0 0 0 0 .85h-1.75v2.67h2.43a9.43 9.43 0 0 0 17.83-1l.11-.39z"/></svg>