<svg xmlns="http://www.w3.org/2000/svg" viewBox="0 0 60 60"><path d="M37 35l-3.5-3.59-3.56 3.51L37 42.08l10.8-10.77-3.54-3.54z"/><path d="M37.49 18.24a19.38 19.38 0 1 0 19.38 19.38 19.38 19.38 0 0 0-19.38-19.38zm0 34.06a14.68 14.68 0 1 1 14.68-14.68 14.69 14.69 0 0 1-14.68 14.67zM20.81 15.41l-.09.2a6.16 6.16 0 0 1-10.53 1.24h7.63V14H9a5.5 5.5 0 0 1-.08-.91A6 6 0 0 1 9 12h8.82V9.2h-7.53a6.16 6.16 0 0 1 10.4 1.31l.09.19h4.1l-.12-.42a10.08 10.08 0 0 0-19-1.08H3.13V12h1.92v1.05a9.08 9.08 0 0 0 0 .91H3.13v2.85h2.61a10.07 10.07 0 0 0 19-1l.12-.42z"/></svg>