<svg xmlns="http://www.w3.org/2000/svg" viewBox="0 0 60 60"><path d="M36.38 32.19l-.08.18a5.8 5.8 0 1 1 0-4.79l.08.18h3.82l-.11-.39a9.48 9.48 0 1 0 0 5.21l.12-.39z"/><path stroke="#000" stroke-miterlimit="10" stroke-width="2.66" d="M19.78 27.72h13.79M19.78 32.2h13.79"/><path d="M49.06 22.08V10.92H37.92L30 3l-7.92 7.94h-11.2v11.21L3 30l7.94 7.92v11.21h11.14L30 57l7.92-7.94h11.21V38L57 30zm-5 13.81V44h-8.23L30 49.88l-5.83-5.79H16v-8.26L10.14 30l5.78-5.76V16h8.25L30 10.13 35.83 16H44v8.21L49.89 30z"/></svg>