<svg xmlns="http://www.w3.org/2000/svg" viewBox="0 0 60 60"><path d="M51.84 27.39h5A27 27 0 0 0 32.4 3v5a22 22 0 0 1 19.44 19.39zM27.4 8.06V3A27 27 0 0 0 3.12 27.39h5A22 22 0 0 1 27.4 8.06zM8.16 32.61h-5A27.06 27.06 0 0 0 27.4 57v-5.06A22 22 0 0 1 8.16 32.61zM32.4 52v5a27 27 0 0 0 24.48-24.39h-5A22 22 0 0 1 32.4 52zM37.78 32.56l-.1.24a7.62 7.62 0 0 1-13 1.54h9.41v-3.52H23.18a8.34 8.34 0 0 1-.09-1.13 6.88 6.88 0 0 1 .12-1.29h10.88v-3.51H24.8a7.61 7.61 0 0 1 12.84 1.62l.1.23h5.07l-.15-.51a12.43 12.43 0 0 0-23.42-1.34H16v3.51h2.38a11.15 11.15 0 0 0-.07 1.29 10.55 10.55 0 0 0 .06 1.13H16v3.52h3.22a12.43 12.43 0 0 0 23.5-1.27l.15-.51z"/></svg>