<svg xmlns="http://www.w3.org/2000/svg" viewBox="0 0 60 60"><path d="M41.394 36.644h6.317A20.306 20.306 0 0 1 29.878 47.6a19.652 19.652 0 0 1-6.561-1.116 10.5 10.5 0 1 0-2.848 4.3 24.641 24.641 0 0 0 9.409 1.853 25.359 25.359 0 0 0 22.05-13.195v7.35h5.035V31.608H41.394zM13.452 48.477a5.417 5.417 0 1 1 5.418-5.416 5.423 5.423 0 0 1-5.418 5.416zM18.606 23.356h-6.317A20.306 20.306 0 0 1 30.122 12.4a19.652 19.652 0 0 1 6.561 1.116 10.5 10.5 0 1 0 2.848-4.3 24.641 24.641 0 0 0-9.409-1.853 25.359 25.359 0 0 0-22.05 13.194v-7.35H3.037v15.185h15.569zm27.942-11.833a5.417 5.417 0 1 1-5.418 5.416 5.423 5.423 0 0 1 5.418-5.416z"/></svg>