<svg xmlns="http://www.w3.org/2000/svg" viewBox="0 0 60 60"><path d="M26.579 22.7a2.409 2.409 0 0 1 2.471 2.336h4.975a7.327 7.327 0 0 0-4.953-6.881V15.5H24.1v2.65a7.29 7.29 0 0 0 2.482 14.2 2.34 2.34 0 1 1-2.471 2.337h-4.978a7.329 7.329 0 0 0 4.967 6.882v2.648h4.975v-2.652a7.29 7.29 0 0 0-2.493-14.193 2.34 2.34 0 1 1 0-4.673z"/><path d="M26.575 48.459a18.6 18.6 0 1 1 16.544-27.108l4.422-2.28a23.572 23.572 0 1 0-9.729 31.517l-2.374-4.371a18.639 18.639 0 0 1-8.863 2.242z"/><path d="M53.482 39.279l-4.905 4.905V23.186h-4.975v21.012l-4.905-4.904-3.518 3.518 10.903 10.903L57 42.797l-3.518-3.518z"/></svg>