<svg xmlns="http://www.w3.org/2000/svg" viewBox="0 0 60 60"><path d="M30 33.608a4.016 4.016 0 1 1 4.016-4.017A4.021 4.021 0 0 1 30 33.608zm0-13.025a9.009 9.009 0 1 0 9.009 9.008A9.018 9.018 0 0 0 30 20.583z"/><path d="M51.318 30.3a23.646 23.646 0 0 1-21.172 13.181h-.1A23.945 23.945 0 0 1 8.678 30.159l-.11-.226.112-.226a23.76 23.76 0 0 1 31.879-10.692 23.912 23.912 0 0 1 10.762 10.832l.109.224-.112.225zm4.482-2.65a28.907 28.907 0 0 0-13.02-13.1A28.751 28.751 0 0 0 4.21 27.484L3 29.917l1.2 2.439a28.969 28.969 0 0 0 25.843 16.118h.114a28.616 28.616 0 0 0 25.63-15.952L57 30.089l-1.2-2.439z"/></svg>