<svg xmlns="http://www.w3.org/2000/svg" viewBox="0 0 60 60"><path d="M8.679 30.234l-.111-.226.113-.226a23.681 23.681 0 0 1 29.672-11.657l-3.8 3.8A8.9 8.9 0 0 0 30 20.644a9.025 9.025 0 0 0-9.009 9.022 8.934 8.934 0 0 0 1.273 4.549l-5.354 5.354a23.773 23.773 0 0 1-8.23-9.335zm17.38.185a3.994 3.994 0 0 1 4.7-4.7l-4.7 4.7zM12.686 50.862l5.085-5.085 3.8-3.8 4.329-4.324 3.978-3.977L34 29.546l3.978-3.978 5.048-5.048 3.6-3.6 4.245-4.245-3.531-3.537-5.188 5.187A28.64 28.64 0 0 0 4.21 27.556L3 29.992l1.194 2.444a28.752 28.752 0 0 0 9.119 10.728l-4.162 4.162 3.535 3.536zM55.8 27.722a28.724 28.724 0 0 0-5.4-7.509l-3.536 3.536a23.592 23.592 0 0 1 4.447 6.173l.11.224-.113.226a23.639 23.639 0 0 1-21.172 13.2h-.1a23.156 23.156 0 0 1-2.8-.192l-4.256 4.256a28.145 28.145 0 0 0 7.061.937h.113A28.611 28.611 0 0 0 55.787 32.6L57 30.164l-1.2-2.442z"/></svg>