<svg xmlns="http://www.w3.org/2000/svg" viewBox="0 0 60 60"><path d="M52.942 22.768A13.934 13.934 0 0 0 50 20.533a8.607 8.607 0 1 0-13.456-.161 13.921 13.921 0 0 0-3.216 2.4c-.251.252-.475.526-.706.8a8.506 8.506 0 0 0-5.158.081c-.253-.3-.5-.6-.777-.881a13.934 13.934 0 0 0-2.945-2.235 8.607 8.607 0 1 0-13.456-.161 13.94 13.94 0 0 0-3.215 2.4 13.784 13.784 0 0 0-4.061 9.809v20.928h5V32.581a8.871 8.871 0 0 1 15.14-6.276c.078.079.144.168.22.25a8.546 8.546 0 0 0 .008 10.524 13.94 13.94 0 0 0-3.215 2.4 13.782 13.782 0 0 0-4.06 9.808v4.226h5v-4.227a8.869 8.869 0 1 1 17.738 0v4.229h5v-4.231a13.824 13.824 0 0 0-7.01-12.045 8.581 8.581 0 0 0-.016-10.878c.017-.017.03-.036.047-.053a8.869 8.869 0 0 1 15.142 6.27v20.935h5V32.577a13.786 13.786 0 0 0-4.062-9.809zM43.329 11.5a3.6 3.6 0 1 1-3.6 3.6 3.607 3.607 0 0 1 3.6-3.6zm-9.561 20.312a3.6 3.6 0 1 1-3.6-3.6 3.606 3.606 0 0 1 3.6 3.6zM17.071 11.5a3.6 3.6 0 1 1-3.6 3.6 3.607 3.607 0 0 1 3.6-3.6z"/></svg>