<svg xmlns="http://www.w3.org/2000/svg" viewBox="0 0 60 60"><path d="M52.648 48.861a12.43 12.43 0 0 0-2.938-2.718l1.257-8.384-5.835-5.836V9.945H32.473v-7h-4.946v7H15.066v21.781l-6.033 6.033L10.8 49.546c-.21-.211-.429-.435-.679-.685A9.182 9.182 0 0 0 3 45.1v4.945c1.582 0 2.373.791 3.56 2.175 1.385 1.583 3.363 3.759 7.121 3.759s5.737-2.176 7.121-3.759c0 0 1.831-1.978 3.363-1.978h.395c1.583 0 2.176.594 3.561 2.176 1.579 1.582 3.362 3.761 7.121 3.761h.2c3.758 0 5.736-2.175 7.121-3.758 0 0 1.767-1.978 3.164-1.978h.4c1.582 0 2.176.593 3.56 2.176A9.394 9.394 0 0 0 57 56.377v-4.945a6.249 6.249 0 0 1-4.352-2.571zM20.011 14.89h20.176v12.088L30 16.792l-9.989 9.989zm18.4 33.971c-1.385 1.384-1.978 2.176-3.561 2.176h-.2c-1.385 0-1.979-.594-3.363-2.176S27.923 45.1 24.165 45.1a7.425 7.425 0 0 0-5.143 1.78c-1.077 1.019-2.1 2.18-3.082 3.019l-1.566-10.36L30 23.913l15.626 15.626-.873 5.774a10.947 10.947 0 0 0-6.346 3.548z"/></svg>