<svg xmlns="http://www.w3.org/2000/svg" viewBox="0 0 60 60"><path d="M30 25.565a1.4 1.4 0 0 1 1.4 1.394h5a6.405 6.405 0 0 0-3.9-5.884v-1.512h-5v1.512A6.395 6.395 0 0 0 30 33.356a1.4 1.4 0 1 1-1.4 1.4h-5a6.4 6.4 0 0 0 3.9 5.884v1.513h5v-1.517a6.394 6.394 0 0 0-2.5-12.28 1.4 1.4 0 1 1 0-2.791z"/><path d="M52.624 9.112A14.724 14.724 0 0 0 41.9 4.522a14.694 14.694 0 0 0-10.632 4.59l-1.284 1.36-1.31-1.36A14.637 14.637 0 0 0 7.977 8.5c-.211.2-.416.4-.609.61a15.857 15.857 0 0 0-.475 21.336l23.084 26.426 23.112-26.394a15.858 15.858 0 0 0-.465-21.366zm-3.3 18.072L29.981 49.278l-19.308-22.1a10.877 10.877 0 0 1 .341-14.643c.124-.132.256-.264.394-.393a9.638 9.638 0 0 1 13.659.439l1.31 1.361 3.636 3.777 3.6-3.811 1.287-1.364a9.719 9.719 0 0 1 14.093.006 10.869 10.869 0 0 1 .336 14.634z"/></svg>