<svg xmlns="http://www.w3.org/2000/svg" viewBox="0 0 60 60"><path d="M28.805 11.4a15.029 15.029 0 1 0 15.029 15.025A15.047 15.047 0 0 0 28.805 11.4zm0 25.058a10.029 10.029 0 1 1 10.029-10.033 10.041 10.041 0 0 1-10.029 10.029z"/><path d="M28.805 19.394a7.032 7.032 0 1 0 7.031 7.031 7.04 7.04 0 0 0-7.031-7.031zm0 9.063a2.032 2.032 0 1 1 2.031-2.032 2.036 2.036 0 0 1-2.031 2.032z"/><path d="M52.236 47.326V26.814h-.016c0-.13.009-.259.009-.389a23.466 23.466 0 1 0-4.993 14.431v6.47h-2.458v5h2.458V57h5v-4.674h2.385v-5zm-23.431-2.475a18.426 18.426 0 1 1 18.424-18.426 18.447 18.447 0 0 1-18.424 18.426z"/></svg>