<svg xmlns="http://www.w3.org/2000/svg" viewBox="0 0 60 60"><path d="M46.6 57H30a27 27 0 1 1 24.109-39.168l.644 1.277-.77 1.2c-.441.691-10.344 15.875-27.172 16.565a9.308 9.308 0 0 0 .822 1.262 9.021 9.021 0 0 0 14.429-.227l4.538-6.23zM30 8.017a21.983 21.983 0 0 0 0 43.966h11.582v-7.106a14.021 14.021 0 0 1-17.911-3.661 13.9 13.9 0 0 1-2.942-8.6v-.234a13.879 13.879 0 0 1 3.648-9.4l3.7 3.388a8.859 8.859 0 0 0-2.318 5.511c12.177-.106 20.566-9.7 23.155-13.1A21.882 21.882 0 0 0 30 8.017z"/><circle cx="33.356" cy="15.467" r="3.357"/><path d="M8.017 27.148H3V3h26.719v5.017H8.017v19.131z"/></svg>