<svg xmlns="http://www.w3.org/2000/svg" viewBox="0 0 60 60"><path d="M13.493 24l3.533-3.533-3.932-3.9h.7A13.717 13.717 0 0 1 25.1 22.534l3.564-3.564a18.682 18.682 0 0 0-14.876-7.4h-1.82l5.058-5.023L13.5 3.021l-2.61 2.61-.009-.009L3 13.505l3.533 3.533zM49.108 38.612L46.5 36l-3.524 3.524 4.518 4.487h-1.258a13.714 13.714 0 0 1-11.546-6.332l-3.59 3.587a18.689 18.689 0 0 0 15.136 7.744h1.211l-4.473 4.436 3.533 3.533 6.96-6.96L57 46.486 49.117 38.6zM32.512 30.289c0-.331-.033-.654-.05-.981l-4.59 4.59a18.551 18.551 0 0 0 1.858 5.208l3.76-3.759a13.618 13.618 0 0 1-.978-5.058zM27.515 30.289c0 .139.018.273.021.412l4.51-4.51a18.578 18.578 0 0 0-1.968-5.1l-3.714 3.714a13.636 13.636 0 0 1 1.151 5.484zM35.009 22.534a13.72 13.72 0 0 1 11.312-5.969h.585l-3.932 3.9L46.507 24l6.96-6.96L57 13.505l-7.883-7.883-.009.009-2.608-2.61-3.526 3.524 5.058 5.023h-1.711a18.682 18.682 0 0 0-14.876 7.4 18.108 18.108 0 0 1 2.214 5.679zM24.589 38.07a13.72 13.72 0 0 1-11.312 5.969h-.795l4.544-4.513L13.5 36l-2.61 2.61-.009-.009L3 46.486l3.533 3.533 6.96 6.96 3.533-3.533-4.447-4.411h.7a18.681 18.681 0 0 0 14.876-7.4 18.108 18.108 0 0 1-2.214-5.679z"/></svg>