<svg xmlns="http://www.w3.org/2000/svg" viewBox="0 0 60 60"><path d="M53.141 33.21l-3.329-3.329 3.373-3.374A13.852 13.852 0 0 0 33.556 6.966l-3.33 3.334-3.375-3.379a13.853 13.853 0 0 0-19.54 19.631l3.33 3.329L7.28 33.24a13.854 13.854 0 0 0 19.139 20.035c.152-.145.3-.3.4-.4l3.4-3.4L33.6 52.84a13.853 13.853 0 0 0 19.541-19.63zm-3.6 15.7a8.858 8.858 0 0 1-12.454.346L30.226 42.4l-6.981 6.982a9.068 9.068 0 0 1-.277.278 8.854 8.854 0 1 1-12.193-12.845l6.937-6.934-6.82-6.819A8.854 8.854 0 0 1 23.362 10.5l6.864 6.864 6.82-6.82a8.854 8.854 0 0 1 12.559 12.473l-6.863 6.864L49.56 36.7a8.846 8.846 0 0 1-.016 12.215z"/><path d="M30.226 20.953a8.928 8.928 0 1 0 8.927 8.928 8.938 8.938 0 0 0-8.927-8.928zm0 12.856a3.928 3.928 0 1 1 3.927-3.928 3.931 3.931 0 0 1-3.927 3.928z"/></svg>