<svg xmlns="http://www.w3.org/2000/svg" viewBox="0 0 60 60"><path d="M27.502 27.502h4.996v4.996h-4.996zM8.16 20.133v4.996h16.986v-.012h.004V8.131h-4.996V16.6L6.554 3 3.021 6.532l13.602 13.601H8.16zM25.155 34.871H8.169v4.996h8.469l-13.6 13.601L6.57 57l13.602-13.602v8.462h4.996V34.873h-.013v-.002zM43.376 39.863h8.463v-4.996H34.853v.014h-.003v16.986h4.996v-8.469l13.6 13.6 3.533-3.532-13.603-13.603zM34.856 25.139h16.987v-4.996h-8.471L56.974 6.542 53.441 3.01 39.84 16.61V8.148h-4.996v16.987h.012v.004z"/></svg>