<svg xmlns="http://www.w3.org/2000/svg" viewBox="0 0 60 60"><path d="M44.84 42.69H15.26l5.53-12.37h-5.71L30.06 2.99l14.87 27.35h-5.71l5.62 12.36zm-21.87-5h14.1l-5.62-12.36h5.07l-6.48-11.91-6.53 11.9h4.98l-5.53 12.37z"/><path d="M27.52 38.01h5V57h-5zM56.8 39.25H39.12v-5h9.92l-4.35-9.55h3.77l-3.99-7.08-2.37 4.11-1.71 3.41-4.47-2.25 1.81-3.59 6.78-11.78L57.03 29.7h-4.57l4.34 9.55z"/><path d="M41.967 35.076l5-.005.015 14.99-5 .005z"/><g><path d="M20.52 39.17H3.17l4.35-9.38H2.98L15.49 7.61l7.8 13.59-4.36 2.45-3.39-5.95-4 7.09h3.8L11 34.17h9.52v5z"/><path d="M13.04 35.16h5v14.91h-5z"/></g></svg>