<svg xmlns="http://www.w3.org/2000/svg" viewBox="0 0 60 60"><path d="M45 46.98c-2.07 0-4.06-.52-5.83-1.52-1.76.99-3.72 1.5-5.77 1.5-6.54 0-11.86-5.32-11.86-11.86 0-4.17 2.23-8.05 5.78-10.17 1.64-4.96 6.24-8.33 11.56-8.33 5 0 9.49 3.1 11.32 7.68 4.09 1.98 6.75 6.15 6.75 10.75 0 6.59-5.36 11.95-11.95 11.95zm-5.83-7.7l1.55 1.21c1.24.97 2.72 1.49 4.28 1.49 3.83 0 6.95-3.12 6.95-6.95a6.96 6.96 0 0 0-4.6-6.53l-1.21-.43-.35-1.24a7.206 7.206 0 0 0-6.91-5.23 7.15 7.15 0 0 0-7 5.58l-.27 1.19-1.1.52a6.88 6.88 0 0 0-3.96 6.21c0 3.78 3.08 6.86 6.86 6.86 1.54 0 3.01-.51 4.23-1.47l1.54-1.21z"/><path d="M36.86 28.6h5v28.3h-5z"/><path d="M37.39 39.53l7.205-7.205 3.536 3.536-7.206 7.205z"/><path d="M30.567 35.866l3.536-3.536 7.205 7.206-3.535 3.535z"/><g><path d="M22.62 31.27l-2.64-5.81h7.23v5H24.4l-1.78.81z"/><path d="M24.3 42.82H3.12l5.53-12.37H2.94L17.92 3.11l12.04 22.15-4.39 2.39-7.66-14.1-6.53 11.9h4.98l-5.53 12.37H24.3v5z"/><path d="M15.38 38.14h5v15.31h-5z"/></g></svg>