<svg xmlns="http://www.w3.org/2000/svg" viewBox="0 0 60 60"><path d="M56.969 25.35a22.35 22.35 0 1 0-43.581 6.991L3.031 35.25l1.353 4.82 10.735-3.015h10.389a1.292 1.292 0 1 1 0 2.584H16.2v5.007h7.159A22.287 22.287 0 0 0 34.62 47.7c.458 0 .911-.018 1.363-.045l-4.339 4.339H3.145V57h29.536a2.5 2.5 0 0 0 1.769-.733l11.614-11.615-.073-.072a22.357 22.357 0 0 0 10.978-19.23zm-29.521 0a7.172 7.172 0 1 1 7.172 7.171 7.18 7.18 0 0 1-7.172-7.171zm7.172 17.344a17.4 17.4 0 0 1-4.131-.506 6.226 6.226 0 0 0 1.2-5.032 12.185 12.185 0 1 0-7.229-5.108h-5.82a17.188 17.188 0 0 1-1.366-6.7A17.344 17.344 0 1 1 34.62 42.694z"/></svg>