<svg xmlns="http://www.w3.org/2000/svg" viewBox="0 0 60 60"><path d="M45.53 15.11C43.03 6.22 35.67 3 29.39 3c-8.36 0-14.82 5.07-16.5 12.75-5.76 2.69-9.53 8.54-9.54 14.97 0 4.42 1.71 8.57 4.83 11.7a16.39 16.39 0 0 0 11.69 4.85h.01c2.68 0 5.28-.66 7.61-1.86V57h5V45.41a16.49 16.49 0 0 0 7.61 1.86c9.12 0 16.54-7.42 16.54-16.54 0-7.13-4.5-13.35-11.12-15.63zm-5.42 27.16c-2.56 0-5.03-.86-7.03-2.4l6.34-6.12-3.52-3.55-3.4 3.2v-9.28h-5v9.29l-2.42-2.24-3.49 3.58 5.36 5.11a11.548 11.548 0 0 1-7.05 2.42c-3.08 0-5.98-1.21-8.16-3.39a11.417 11.417 0 0 1-3.37-8.16c0-4.84 3.06-9.2 7.61-10.84l1.42-.52.2-1.5C18.43 11.78 22.95 8 29.4 8c2.89 0 9.81.94 11.6 9.61l.32 1.55 1.54.37c5.18 1.26 8.8 5.87 8.8 11.21 0 6.36-5.18 11.54-11.54 11.54z"/><circle cx="18.28" cy="25.16" r="3.53"/><circle cx="29.67" cy="17.74" r="3.53"/><circle cx="41.24" cy="25.39" r="3.53"/></svg>