<svg xmlns="http://www.w3.org/2000/svg" viewBox="0 0 60 60"><path d="M32.511 44.276v-2.613A7.281 7.281 0 0 0 30 27.494a2.295 2.295 0 1 1 2.424-2.294h5.012a7.319 7.319 0 0 0-4.925-6.866v-2.61H27.5v2.61A7.281 7.281 0 0 0 30 32.506a2.295 2.295 0 1 1-2.424 2.294h-5.012a7.319 7.319 0 0 0 4.936 6.866v2.61zM51.841 27.388h5.039A27.039 27.039 0 0 0 32.4 3v5.034a22.023 22.023 0 0 1 19.441 19.354zM27.4 8.058V3.015A27.041 27.041 0 0 0 3.12 27.388h5.039A22.025 22.025 0 0 1 27.4 8.058zM8.159 32.613H3.12A27.041 27.041 0 0 0 27.4 56.985v-5.043A22.024 22.024 0 0 1 8.159 32.613zM32.4 51.966V57a27.039 27.039 0 0 0 24.48-24.387h-5.039A22.021 22.021 0 0 1 32.4 51.966z"/></svg>