<svg id="Icons" xmlns="http://www.w3.org/2000/svg" viewBox="0 0 20 20"><defs><style>.cls-1{fill:#272b3e;}</style></defs><path class="cls-1" d="M17.08088,9.16765a7.0559,7.0559,0,0,0-1.48175-3.58948l1.35334-1.35352L15.77534,3.04759,14.42366,4.39946a7.07465,7.07465,0,0,0-3.59137-1.49134V1H9.16743V2.90519A7.09983,7.09983,0,0,0,5.57313,4.396L4.22462,3.04759,3.04756,4.22465,4.39564,5.57286a7.09652,7.09652,0,0,0-1.4928,3.59479H1V10.8325H2.90614a7.0551,7.0551,0,0,0,1.49445,3.59009l-1.353,1.35284L4.22462,16.9525l1.35663-1.35639A7.05894,7.05894,0,0,0,9.16743,17.0756v1.92432h1.66486V17.07268a7.16652,7.16652,0,0,0,3.58-1.48322l1.363,1.363,1.17713-1.17707-1.36213-1.36212A7.05894,7.05894,0,0,0,17.078,10.8325H19V9.16765Zm-4.77465,3.137a3.25563,3.25563,0,0,1-2.31647.96H9.98848a3.27625,3.27625,0,1,1,2.31775-.96Z"/><path class="cls-1" d="M9.98774,8.21965a1.77051,1.77051,0,1,0,.00074,3.541h.001A1.7701,1.7701,0,0,0,11.24141,8.737,1.782,1.782,0,0,0,9.98774,8.21965Z"/></svg>