<svg xmlns="http://www.w3.org/2000/svg" viewBox="0 0 60 60"><path d="M36.588 50.978c2.989-4.444 4.968-11 5.332-18.472h9.921a22.045 22.045 0 0 1-15.253 18.472zM8.159 32.506h9.57c.36 7.388 2.3 13.878 5.233 18.319a22.041 22.041 0 0 1-14.8-18.319zm14.8-23.331c-2.933 4.441-4.872 10.93-5.232 18.319H8.159a22.04 22.04 0 0 1 14.8-18.319zm-.209 18.319c.493-9.166 3.631-16.078 7.074-18.511 3.442 2.433 6.582 9.345 7.074 18.511zm7.074 23.523c-3.443-2.433-6.581-9.345-7.074-18.511H36.9c-.492 9.166-3.632 16.078-7.074 18.511zm22.017-23.523H41.92c-.364-7.472-2.343-14.028-5.332-18.472a22.045 22.045 0 0 1 15.253 18.472zM30 3a27 27 0 1 0 27 27A27.03 27.03 0 0 0 30 3z"/></svg>