<svg xmlns="http://www.w3.org/2000/svg" viewBox="0 0 60 60"><path d="M23.264 30.024a2.295 2.295 0 1 1-2.424 2.291h-5.012a7.318 7.318 0 0 0 4.935 6.868v2.61h5.012V39.18a7.28 7.28 0 0 0-2.511-14.168 2.295 2.295 0 1 1 2.424-2.291H30.7a7.32 7.32 0 0 0-4.926-6.866v-2.613h-5.011v2.61a7.281 7.281 0 0 0 2.5 14.172z"/><path d="M44.5 3l-27.238.018A10.8 10.8 0 0 0 6.473 13.805v35.908L13.76 57l4.787-4.787L23.334 57l4.788-4.787L32.909 57l7.279-7.28.2-26.236h13.139V12.03A8.912 8.912 0 0 0 44.5 3zm-9.03 9.013l-.27 35.621-2.294 2.3-4.787-4.787-4.788 4.787-4.787-4.787-4.784 4.782-2.287-2.287V13.805a5.793 5.793 0 0 1 5.786-5.787h19.146a8.94 8.94 0 0 0-.938 3.995zm13.06 6.471h-8.109l.046-6.454a4.036 4.036 0 0 1 3.647-4.012h.1V8.01C44.306 8 44.4 8 44.5 8a4.035 4.035 0 0 1 4.03 4.03z"/></svg>