<svg xmlns="http://www.w3.org/2000/svg" viewBox="0 0 60 60"><path d="M38.465 57H3.11v-4.98h34.324L48.39 41.063H32.558v-4.98H54.4a2.489 2.489 0 0 1 1.76 4.25L40.225 56.27a2.485 2.485 0 0 1-1.76.73"/><path d="M29.88 42.212H18.74v-4.98h11.14a2.053 2.053 0 0 0 0-4.106H17.373L4.456 36.753 3.11 31.959l13.246-3.72a2.475 2.475 0 0 1 .674-.093h12.85a7.033 7.033 0 0 1 0 14.066M45.434 3s-9.77 10.577-9.77 18.219a9.776 9.776 0 0 0 19.552 0C55.216 13.577 45.434 3 45.434 3zm.006 23a4.824 4.824 0 0 1-4.821-4.9c0-3.841 4.818-10.147 4.818-10.147s4.825 6.306 4.825 10.147A4.792 4.792 0 0 1 45.44 26z"/></svg>