<svg xmlns="http://www.w3.org/2000/svg" viewBox="0 0 60 60"><path d="M48.8 30.292a5.643 5.643 0 0 0-3.364-7.977 5.909 5.909 0 0 0-4.412-7.353 5.741 5.741 0 0 0-7.507-6.008 5.59 5.59 0 0 0-2.033 1.191 5.867 5.867 0 0 0-1.216-.827 5.943 5.943 0 0 0-7.968 2.617L17.051 22.31a6.014 6.014 0 0 0-5.6-1.663 6 6 0 0 0-4.49 7.421L10.632 41.7 4.478 56.756H30.4l2.655-4.356 3.7-3.287a31.932 31.932 0 0 0 7.337-9.513zM33.518 45.467l-4.251 3.772-1.606 2.637H11.745l4.028-9.856-4.1-15.22a1.128 1.128 0 0 1 .124-.876 1.114 1.114 0 0 1 .716-.514 1.13 1.13 0 0 1 1.326.779l2.477 8.385 10.336-20.438a1.051 1.051 0 0 1 1.877.947l-2.429 4.8-3.037 6.007 4.356 2.2 5.465-10.809 1.65-3.263a.867.867 0 0 1 1.546.784l-.076.15h-.008l-7.04 13.922h.009l4.355 2.2 5.5-10.872a1.053 1.053 0 0 1 .569-.464 1.039 1.039 0 0 1 .8.06 1.053 1.053 0 0 1 .464 1.413l-5.465 10.813 4.355 2.2 3.47-6.86a.8.8 0 1 1 1.43.724L39.736 37.4a27.063 27.063 0 0 1-6.218 8.067zM18.183 7.958V3A15.2 15.2 0 0 0 3 18.184h4.958A10.237 10.237 0 0 1 18.183 7.958z"/><path d="M14.69 17.937a3.25 3.25 0 0 1 3.246-3.247V9.7A8.247 8.247 0 0 0 9.7 17.937zM52.042 41.816a10.237 10.237 0 0 1-10.225 10.226V57A15.2 15.2 0 0 0 57 41.816z"/><path d="M42.064 45.31v4.99a8.246 8.246 0 0 0 8.236-8.237h-4.99a3.25 3.25 0 0 1-3.246 3.247z"/></svg>