<svg xmlns="http://www.w3.org/2000/svg" viewBox="0 0 60 60"><path d="M31.816 22.874h6.965l4.125 3.75H57v-5H44.839l-4.125-3.75h-2.933a7.572 7.572 0 0 0 .145-1.716 6.179 6.179 0 0 0-6.438-6.1H18.212L7.629 21.907H3v5h6.866L20.45 15.062h11.038a1.212 1.212 0 0 1 1.44 1.235l.006.143a2.011 2.011 0 0 1-.341 1.149 1.24 1.24 0 0 1-.772.285h-6.2a6.178 6.178 0 0 0-6.437 6.1 6.917 6.917 0 0 0 1.671 4.826 6.242 6.242 0 0 0 4.769 1.9h8.584l9.328 8.363-14.119 5.509L12.764 38.1H3.017v5h8.809l17.593 6.843L48.7 42.42H57v-5h-7.812L36.121 25.7h-10.5a1.639 1.639 0 0 1-1.1-.3 2 2 0 0 1-.344-1.253 1.224 1.224 0 0 1 1.441-1.282h5.864v.017c.118.009.224-.004.334-.008z"/></svg>