<svg id="Icons" xmlns="http://www.w3.org/2000/svg" viewBox="0 0 60 60"><path d="M50.26,17.14a23.67,23.67,0,0,0-17.34-7.08C22.23,10.39,9.67,17,8.75,34.26c-3.18,2.21-6.33,5.2-5.64,8.09.31,1.29,1.39,2.89,4.82,3.24,7.43.76,44.81,4.31,45.19,4.35h.23A2.5,2.5,0,0,0,55,49.36a2.52,2.52,0,0,0,.89-1.71L57,33.56a.49.49,0,0,1,0-.12A22,22,0,0,0,50.26,17.14Zm.8,27.58c-8.4-.8-35.22-3.35-42.21-4.06a23.87,23.87,0,0,1,3.7-2.92,2.49,2.49,0,0,0,1.15-2.06C14,20.91,23.89,15.35,33.08,15.06a18.63,18.63,0,0,1,13.64,5.61A17.06,17.06,0,0,1,52,33.22Z"/><path d="M20.43,27.94l4.51,2.15a8.82,8.82,0,0,1,11.74-4.16l2.15-4.51A13.81,13.81,0,0,0,20.43,27.94Z"/></svg>