<svg xmlns="http://www.w3.org/2000/svg" viewBox="0 0 60 60"><path d="M30 3A27 27 0 0 0 3 30v8.367a6.276 6.276 0 0 0 6.27 6.271h9.14V24.757H9.271a5.973 5.973 0 0 0-.63.064 21.971 21.971 0 0 1 42.718 0 5.946 5.946 0 0 0-.63-.064h-9.138v19.88h4.06v3.375A3.992 3.992 0 0 1 41.664 52H30v5h11.664a9 9 0 0 0 8.987-8.988v-3.375h.078A6.277 6.277 0 0 0 57 38.366V30A27 27 0 0 0 30 3zM9.271 29.757h4.139v9.88H9.271A1.288 1.288 0 0 1 8 38.366v-7.338a1.288 1.288 0 0 1 1.271-1.271zM52 38.366a1.288 1.288 0 0 1-1.271 1.271h-4.138v-9.88h4.138A1.288 1.288 0 0 1 52 31.028z"/></svg>