<svg xmlns="http://www.w3.org/2000/svg" viewBox="0 0 60 60"><path d="M52.628 9.24A14.726 14.726 0 0 0 41.9 4.649 14.705 14.705 0 0 0 31.263 9.24l-1.284 1.36-1.31-1.361a14.643 14.643 0 0 0-20.7-.6c-.208.2-.411.4-.6.605a15.857 15.857 0 0 0-.479 21.332L29.977 57l23.117-26.394a15.86 15.86 0 0 0-.466-21.366zm-3.3 18.081L29.982 49.406 10.667 27.3A10.873 10.873 0 0 1 11 12.67a9.43 9.43 0 0 1 .4-.4 9.642 9.642 0 0 1 13.647.418l4.965 5.157 4.888-5.173a9.724 9.724 0 0 1 14.094 0 10.876 10.876 0 0 1 .33 14.649z"/><path d="M32.452 21.96h-5v5.75h-5.75v5h5.75v5.75h5v-5.75h5.75v-5h-5.75v-5.75z"/></svg>