<?xml version="1.0" encoding="utf-8"?>
<!-- Generator: Adobe Illustrator 25.2.1, SVG Export Plug-In . SVG Version: 6.00 Build 0)  -->
<svg version="1.1" id="Layer_1" xmlns="http://www.w3.org/2000/svg" xmlns:xlink="http://www.w3.org/1999/xlink" x="0px" y="0px"
	 viewBox="0 0 60 60" style="enable-background:new 0 0 60 60;" xml:space="preserve">
<style type="text/css">
	.st0{fill:#030304;}
	.st1{fill:#020203;}
	.st2{fill:#FFFFFF;}
	.st3{fill:#181F32;}
</style>
<g>
	<path class="st3" d="M45.7,9.9c1.6,0.7,2.9,1.6,4.3,2.7l0,0c2.7,2.2,4,5.5,4,8.7s-1.1,6.5-3.5,9L30,52.3l-20.5-22
		c-2.4-2.5-3.5-5.7-3.5-9s1.3-6.5,4-8.7c0.3-0.2,0.3-0.2,0.5-0.5c1.3-1,2.7-2,4.3-2.5s3.2-0.7,5-0.7c1.6,0,3.2,0.2,4.8,1
		s2.9,1.5,4.3,2.7l1.1,1l1.1-1.2c1.3-1.2,2.7-2.2,4.3-2.7c1.6-0.7,3.5-1,5-1C42.3,8.7,44.1,9.1,45.7,9.9z"/>
	<path class="st3" d="M52.5,8.9C49.8,6,45.9,4.3,41.8,4.3l0,0c-4,0-7.9,1.7-10.6,4.6l-1.3,1.4l-1.3-1.4c-2.8-3-6.6-4.6-10.7-4.6
		c-3.7,0-7.3,1.4-10,4C7.7,8.5,7.5,8.7,7.3,8.9c-5.6,6-5.8,15.1-0.5,21.3l23.1,26.5L53,30.3C58.4,24.1,58.2,14.9,52.5,8.9z M49.2,27
		L29.9,49.1L10.6,27C6.9,22.7,7,16.5,10.9,12.4c0.1-0.1,0.3-0.3,0.4-0.4c1.8-1.7,4.1-2.6,6.6-2.6c2.7,0,5.2,1.1,7,3l5,5.2l4.9-5.2
		c1.8-1.9,4.4-3,7.1-3c2.6,0,5.2,1.1,7,3C52.8,16.5,52.9,22.8,49.2,27z"/>
	<polygon class="st2" points="32.4,21.7 27.4,21.7 27.4,27.4 21.6,27.4 21.6,32.4 27.4,32.4 27.4,38.2 32.4,38.2 32.4,32.4 
		38.1,32.4 38.1,27.4 32.4,27.4 	"/>
</g>
</svg>
