<?xml version="1.0" encoding="utf-8"?>
<!-- Generator: Adobe Illustrator 23.0.1, SVG Export Plug-In . SVG Version: 6.00 Build 0)  -->
<svg version="1.1" id="Layer_1" xmlns="http://www.w3.org/2000/svg" xmlns:xlink="http://www.w3.org/1999/xlink" x="0px" y="0px"
	 viewBox="0 0 20 20" style="enable-background:new 0 0 20 20;" xml:space="preserve">
<style type="text/css">
	.st0{fill:#282B3E;}
</style>
<path class="st0" d="M15.9,2c0.6,0.3,1.1042,0.6319,1.6,1.1l0,0C18.5,4,19,5.3,19,6.6s-0.4,2.6-1.3,3.6L10,19l-7.7-8.8
	C1.4,9.2,1,7.9,1,6.6S1.5,4,2.5,3.1C2.6,3,2.6,3,2.7,2.9c0.5-0.4,1-0.8,1.6-1s1.2-0.3,1.9-0.3C6.8,1.6,7.4,1.7,8,2s1.1,0.6,1.6,1.1
	L10,3.5L10.4,3c0.5-0.5,1-0.9,1.6-1.1c0.6-0.3,1.3-0.4,1.9-0.4C14.6107,1.5389,15.3,1.7,15.9,2z"/>
</svg>
