<svg xmlns="http://www.w3.org/2000/svg" viewBox="0 0 60 60"><path d="M42.387 7.959a17.861 17.861 0 0 0-29 19.482l4.637-1.87a12.677 12.677 0 0 1-.916-5.01A13.023 13.023 0 0 1 29.387 8.014a12.826 12.826 0 0 1 9.546 3.56 12.666 12.666 0 0 1 3.959 9.236 12.868 12.868 0 0 1-.261 2.58 12.773 12.773 0 0 1-1.355 3.493L29.907 47.844c-1.556 2.687-3.222 4.044-5.092 4.15a3.665 3.665 0 0 1-3.647-5.136L16.6 44.832A8.661 8.661 0 0 0 24.6 57c.168 0 .336-.005.506-.014 3.631-.2 6.7-2.438 9.17-6.7l11.4-21.023a17.659 17.659 0 0 0 1.852-4.863 17.892 17.892 0 0 0 .364-3.587 17.62 17.62 0 0 0-5.505-12.854z"/><path d="M37.21 27.656a8.188 8.188 0 0 0 2.267-4.075 9.776 9.776 0 0 0 .2-1.965 9.649 9.649 0 0 0-3.014-7.039 9.767 9.767 0 0 0-16.113 9.956l4.668-1.9a4.773 4.773 0 0 1-.122-1.109 4.832 4.832 0 0 1 4.559-4.653 4.773 4.773 0 0 1 5.021 4.746 4.836 4.836 0 0 1-.1.969 3.238 3.238 0 0 1-.893 1.526L26.676 31a6.615 6.615 0 0 0-.041 9.4l.417.418 3.535-3.535-.417-.418a1.616 1.616 0 0 1 .01-2.3z"/></svg>