<svg xmlns="http://www.w3.org/2000/svg" viewBox="0 0 60 60"><path d="M49.324 27.337L29.981 49.422 10.666 27.316A10.875 10.875 0 0 1 11 12.686c.128-.136.261-.27.4-.4a9.641 9.641 0 0 1 13.647.419l4.965 5.156 4.888-5.173a9.723 9.723 0 0 1 14.093 0 10.876 10.876 0 0 1 .331 14.648zm3.3-18.081A14.724 14.724 0 0 0 41.9 4.666a14.7 14.7 0 0 0-10.633 4.59l-1.285 1.36-1.314-1.361a14.641 14.641 0 0 0-20.694-.609c-.211.2-.416.4-.609.61a15.855 15.855 0 0 0-.475 21.336l23.087 26.424 23.116-26.394a15.857 15.857 0 0 0-.466-21.366z"/></svg>