<svg xmlns="http://www.w3.org/2000/svg" viewBox="0 0 60 60"><path d="M53.867 40.837a10.676 10.676 0 0 0-2.367-1.778 6.882 6.882 0 1 0-10.171-.106 10.612 10.612 0 0 0-1.608 1.061 10.593 10.593 0 0 0-4.549-4.959 6.881 6.881 0 1 0-10.171-.1 10.673 10.673 0 0 0-4.73 5.063 10.589 10.589 0 0 0-1.427-.954 6.882 6.882 0 1 0-10.171-.106 10.685 10.685 0 0 0-5.664 9.422V57h5v-8.62a5.665 5.665 0 1 1 11.33 0V57h5V44.376a5.665 5.665 0 1 1 11.33 0V57h5v-8.62a5.665 5.665 0 1 1 11.329 0V57h5v-8.622a10.594 10.594 0 0 0-3.131-7.541zM13.81 36.27a1.884 1.884 0 1 1 1.884-1.884 1.885 1.885 0 0 1-1.884 1.884zm16.329-4a1.884 1.884 0 1 1 1.883-1.884 1.886 1.886 0 0 1-1.883 1.88zm16.328 4a1.884 1.884 0 1 1 1.883-1.884 1.886 1.886 0 0 1-1.883 1.884zM27.501 10.015h4.998v7.484h-4.998zM17.665 14.464l4.238-2.649 3.808 6.094-4.238 2.65zM34.284 17.91l3.808-6.095 4.239 2.65-3.809 6.093zM39.966 22.312l5.082-5.081 3.534 3.534-5.081 5.08zM11.386 20.764l3.534-3.534L20 22.312l-3.534 3.534z"/><path d="M29.991 7.814A22.175 22.175 0 0 1 51.366 24.1h4.958a26.981 26.981 0 0 0-52.666 0h4.958A22.175 22.175 0 0 1 29.991 7.814z"/></svg>