<svg xmlns="http://www.w3.org/2000/svg" viewBox="0 0 60 60"><path d="M30.248 3L6.536 26.659V57h46.928V26.609zm18.22 49H11.532V28.722l18.719-18.643 18.217 18.615z"/><path d="M29.423 26.887a6.736 6.736 0 0 0-4.99-2.219 6.737 6.737 0 0 0-4.989 2.217l-.433.468a7.782 7.782 0 0 0 0 10.377L30 49.629l10.99-11.9a7.782 7.782 0 0 0 0-10.377l-.433-.468a6.737 6.737 0 0 0-4.989-2.217 6.736 6.736 0 0 0-4.99 2.219l-.578.625zm3.386 3.455a2.633 2.633 0 0 1 3.954 0l.372.4a3.528 3.528 0 0 1 0 4.646L30 43.115l-7.134-7.726a3.528 3.528 0 0 1 0-4.646l.372-.4a2.633 2.633 0 0 1 3.954 0L30 33.382z"/></svg>