<svg xmlns="http://www.w3.org/2000/svg" viewBox="0 0 60 60"><switch><g><path d="M39.9 14.4L44.4 3H15.6l4.5 11.4C12.7 18.1 7.6 25.7 7.6 34.5 7.6 46.9 17.6 57 30 57s22.4-10.1 22.4-22.4c0-8.9-5.1-16.5-12.5-20.2zM30.1 8h7l-1.8 4.7c-1.7-.4-3.5-.6-5.3-.6s-3.5.2-5.2.6L22.9 8h7.2zM30 52c-9.6 0-17.5-7.8-17.5-17.5C12.5 24.9 20.3 17 30 17c9.6 0 17.5 7.8 17.5 17.5S39.6 52 30 52z"/><path d="M34.8 32.9c-1.2 0-2.1-.8-2.1-1.8 0-.5.1-1 .5-1.4.3-.4.8-.6 1.3-.6h.2c1 0 1.8.7 2 1.7h3.2c-.1-2.1-1.5-3.9-3.5-4.6l-.2-.1v-1.9H33v1.9c-1.3.4-2.3 1.4-2.9 2.6s-.7 2.6-.3 3.9c.7 2.1 2.7 3.5 4.8 3.5h.1c1.1.1 1.9 1 1.8 2 0 .5-.3 1-.6 1.3-.4.4-.9.6-1.4.6-.9-.1-1.7-.8-1.8-1.7h-3.2c.1 2.1 1.5 3.9 3.5 4.6l.2.1v1.9h3.2V43l.2-.1c1.3-.4 2.3-1.4 2.9-2.6.6-1.2.7-2.6.2-3.9-.7-2.1-2.7-3.5-4.9-3.5zM22.7 29.8h2v3.9h2.6V24h-2.6v3.4h-2V24H20v9.7h2.7zM27.8 35.3h-3.1l-2 2.8v-2.8H20V45h2.7v-3.1l.4-.5L25 45h3l-3.1-5.8z"/></g></switch></svg>