<svg xmlns="http://www.w3.org/2000/svg" viewBox="0 0 60 60"><switch><g><path d="M3 11.3v37.5h54V11.3H3zm49 32.4H8V16.3h44v27.4z"/><path d="M43.2 27.5h5.1v5h-5.1zM11.7 27.5h5.1v5h-5.1zM34.9 31.5c1.1.1 1.9.9 1.8 1.9 0 .5-.2.9-.6 1.2-.4.3-.8.5-1.3.5-.9-.1-1.6-.7-1.7-1.6h-3c.1 2 1.4 3.7 3.3 4.3l.2.1v1.7h3v-1.7l.2-.1c1.2-.4 2.2-1.3 2.8-2.4.6-1.2.6-2.5.2-3.7-.7-2-2.5-3.3-4.5-3.3h-.1c-1 0-1.8-.7-1.9-1.7 0-.5.1-.9.5-1.3.3-.4.8-.6 1.2-.6h.2c.9 0 1.7.7 1.8 1.6h3c-.1-1.9-1.4-3.7-3.2-4.3l-.2-.1v-1.7h-3V22l-.2.1c-1.2.4-2.2 1.3-2.8 2.4s-.6 2.5-.2 3.8c.7 1.9 2.5 3.2 4.5 3.2zM23.8 25.6h1.9v3.6h2.4v-9h-2.4v3.2h-1.9v-3.2h-2.5v9h2.5zM23.8 37l.3-.5 1.9 3.3h2.8l-3-5.4 2.8-3.6h-2.9l-1.9 2.6v-2.6h-2.5v9h2.5z"/></g></switch></svg>