<svg xmlns="http://www.w3.org/2000/svg" viewBox="0 0 60 60"><switch><g><path d="M3 3v5h7v49h40V8h7V3H3zm42 49H15V8h30v44z"/><path d="M35.9 25.5c1.3.1 2.3 1.1 2.2 2.3 0 .6-.3 1.1-.7 1.5s-1 .6-1.6.6c-1.1-.1-1.9-.9-2.1-1.9H30c.1 2.4 1.7 4.5 4 5.3l.2.1v2.1h3.7v-2.1l.2-.1c1.5-.5 2.7-1.6 3.4-3s.8-3 .3-4.5c-.8-2.4-3-4-5.6-4h-.1c-1.2.1-2.3-.9-2.3-2.1 0-.6.2-1.2.6-1.6.4-.4.9-.7 1.5-.7h.2c1.1 0 2.1.8 2.2 1.9H42c-.1-2.4-1.7-4.5-4-5.3h-.1v-2.1h-3.7V14l-.2.1c-1.5.5-2.7 1.6-3.4 3-.7 1.4-.8 3-.3 4.5.9 2.3 3.1 3.9 5.6 3.9zM22.3 18.3h2.3v4.5h3V11.7h-3v3.9h-2.3v-3.9h-3.1v11.1h3.1zM22.3 32.2l.4-.6 2.3 4.1h3.4l-3.6-6.6 3.4-4.5h-3.6l-2.3 3.2v-3.2h-3.1v11.1h3.1z"/></g></switch></svg>