<svg xmlns="http://www.w3.org/2000/svg" viewBox="0 0 60 60"><switch><g><path d="M49.3 3H10.7v54l10.4-5.9 8.8 5.8 8.9-5.8L49.3 57V3zM38.7 45.3L30 50.9l-8.7-5.7-5.6 3.2V8h28.6v40.4l-5.6-3.1z"/><path d="M35.5 25.4c-1.2.1-2.2-.8-2.2-1.9 0-.5.1-1.1.5-1.5s.8-.6 1.4-.7h.2c1 0 1.9.8 2 1.8h3.4c-.1-2.2-1.5-4.1-3.6-4.8H37v-1.9h-3.3v1.9l-.2.1c-1.4.5-2.4 1.4-3.1 2.7s-.7 2.7-.3 4.1c.7 2.2 2.8 3.6 5.1 3.6h.1c1.1.1 2 1 1.9 2.1 0 .5-.3 1-.7 1.4s-.9.5-1.5.5c-1-.1-1.8-.8-1.9-1.8h-3.4c.1 2.2 1.5 4.1 3.6 4.8l.2.1v1.9H37v-1.9l.2-.1c1.3-.5 2.4-1.4 3.1-2.7.6-1.3.7-2.7.3-4.1-.8-2.2-2.9-3.6-5.1-3.6zM22.8 22.2h2.1v4h2.8V16.1h-2.8v3.6h-2.1v-3.6H20v10.1h2.8zM28.2 27.9h-3.3l-2.1 2.9v-2.9H20V38h2.8v-3.2l.4-.5 2 3.7h3.2l-3.3-6z"/></g></switch></svg>