<svg xmlns="http://www.w3.org/2000/svg" viewBox="0 0 60 60"><switch><g><path d="M49.1 11.3V3.1H3v46.1h8.4v7.6H57V11.3h-7.9zM11.4 44.2H8V8.1h36.1v3.1H11.4v33zm32.7-28v28H16.4v-28h27.7zM16.4 51.9v-2.6h32.7v-33H52v35.6H16.4z"/><path d="M35 31.8c1.1.1 1.9.9 1.8 1.9 0 .5-.2.9-.6 1.2-.4.3-.8.5-1.3.5-.9-.1-1.6-.7-1.7-1.6h-3c.1 2 1.4 3.7 3.3 4.3l.2.1v1.7h3v-1.7l.2-.1c1.2-.4 2.2-1.3 2.8-2.4.6-1.2.6-2.5.2-3.7-.7-2-2.5-3.3-4.5-3.3h-.1c-1 0-1.8-.7-1.9-1.7 0-.5.1-.9.5-1.3.3-.4.8-.6 1.2-.6h.2c.9 0 1.7.7 1.8 1.6h3c-.1-1.9-1.4-3.7-3.2-4.3l-.2-.1v-1.7h-3v1.7l-.2.1c-1.2.4-2.2 1.3-2.8 2.4s-.7 2.5-.2 3.7c.6 2 2.4 3.3 4.5 3.3zM23.8 25.8h1.9v3.7h2.5v-9.1h-2.5v3.2h-1.9v-3.2h-2.5v9.1h2.5zM23.8 37.2l.4-.5 1.8 3.4h2.8l-3-5.4 2.8-3.7h-2.9l-1.9 2.6V31h-2.5v9.1h2.5z"/></g></switch></svg>