<svg xmlns="http://www.w3.org/2000/svg" viewBox="0 0 60 60"><switch><g><path d="M52.6 9.1C49.8 6.2 46 4.5 41.9 4.5c-4 0-7.9 1.7-10.6 4.6L30 10.5l-1.3-1.4C23.1 3.2 13.9 3 8 8.5l-.6.6C1.7 15 1.5 24.3 6.9 30.4L30 56.9l23.1-26.4c5.4-6.2 5.2-15.5-.5-21.4zm-3.3 18.1L30 49.3 10.7 27.2C7 22.9 7.1 16.6 11 12.5l.4-.4c3.9-3.7 10-3.5 13.6.4l1.3 1.4 3.6 3.8 3.6-3.8 1.3-1.4c3.7-3.9 9.9-4 13.7-.3l.4.4c4 4 4.1 10.4.4 14.6z"/><path d="M34.3 27.7c-.1 0-.1 0 0 0-.9 0-1.7-.6-1.7-1.4 0-.4.1-.8.4-1.1.3-.3.6-.5 1.1-.5h.2c.8 0 1.4.6 1.6 1.3h2.6c-.1-1.7-1.2-3.1-2.8-3.7h-.1v-1.5H33v1.5h-.1c-1 .4-1.9 1.1-2.3 2.1-.5 1-.6 2.1-.2 3.1.6 1.7 2.1 2.8 3.9 2.8h.1c.9 0 1.5.8 1.5 1.6 0 .4-.2.8-.5 1.1s-.7.4-1.1.4c-.8 0-1.4-.6-1.4-1.3H30c.1 1.7 1.2 3.1 2.8 3.7h.1v1.5h2.6v-1.5h.1c1-.4 1.9-1.1 2.3-2.1.5-1 .6-2.1.2-3.1-.5-1.8-2.1-2.9-3.8-2.9zM24.6 25.2h1.6v3.1h2.1v-7.7h-2.1v2.8h-1.6v-2.8h-2.1v7.7h2.1zM28.7 29.6h-2.5l-1.6 2.2v-2.2h-2.1v7.7h2.1v-2.4l.3-.4 1.5 2.8h2.4l-2.5-4.6z"/></g></switch></svg>