<svg xmlns="http://www.w3.org/2000/svg" viewBox="0 0 60 60"><switch><g><path d="M15 18.7c0-2 1.7-3.7 3.7-3.7h21.9l-3.7 3.7 3.5 3.5 9.6-9.6L40.4 3l-3.5 3.5 3.5 3.5H18.7c-4.8 0-8.7 3.9-8.7 8.7V27h5v-8.3zM45 41.3c0 2-1.7 3.7-3.7 3.7H19.4l3.7-3.7-3.5-3.5-9.6 9.6 9.6 9.6 3.5-3.5-3.4-3.5h21.6c4.8 0 8.7-3.9 8.7-8.7v-8.4h-5v8.4z"/><path d="M36.9 39.1v-1.6h.1c1.1-.4 2.1-1.2 2.6-2.3s.6-2.3.2-3.5c-.6-1.8-2.3-3.1-4.3-3.1h-.1c-.9 0-1.7-.7-1.8-1.6 0-.5.1-.9.4-1.2.3-.3.7-.5 1.2-.6h.2c.9 0 1.6.6 1.7 1.5H40c-.1-1.8-1.3-3.5-3.1-4.1h-.1V21H34v1.6h-.1c-1.1.4-2.1 1.2-2.6 2.3s-.6 2.3-.2 3.5c.6 1.9 2.3 3.1 4.3 3.1h.1c1 .1 1.7.9 1.6 1.8 0 .5-.2.9-.6 1.2-.3.3-.8.5-1.2.4-.8 0-1.5-.7-1.6-1.5h-2.9c.1 1.8 1.3 3.5 3.1 4.1h.1v1.6h2.9zM22.4 20.7v8.6h2.4v-3.5h1.8v3.5h2.3v-8.6h-2.3v3.1h-1.8v-3.1zM22.4 39.3h2.4v-2.7l.3-.5 1.8 3.2h2.6l-2.8-5.1 2.7-3.5h-2.8l-1.8 2.5v-2.5h-2.4z"/></g></switch></svg>