<svg xmlns="http://www.w3.org/2000/svg" viewBox="0 0 60 60"><switch><g><path d="M53.6 57l-.1-30.3L29.8 3 6.5 26.3 6.4 57h5V28.5L29.8 10l18.8 18.9V57z"/><path d="M35.9 37.1c-1 .1-1.8-.7-1.9-1.7-.1-1 .7-1.8 1.7-1.9h.2c1 0 1.8.8 1.9 1.8h3.8c0-2.4-1.5-4.5-3.8-5.3v-2H34v2c-2.9 1-4.5 4.2-3.5 7.1.8 2.3 3 3.8 5.4 3.8 1 .1 1.7.9 1.7 1.9s-.9 1.7-1.9 1.7c-.9-.1-1.7-.8-1.7-1.8h-3.8c0 2.4 1.5 4.5 3.8 5.3v2h3.9v-2c2.9-1 4.5-4.2 3.5-7.1-.9-2.3-3.1-3.8-5.5-3.8zM20.6 28.1v10.1h2.7v-4h2.2v4h2.7V28.1h-2.7v3.6h-2.2v-3.6zM28.7 39.9h-3.2l-2.2 2.9v-2.9h-2.7V50h2.7v-3.2l.5-.6 2 3.8h3.1l-3.3-6z"/></g></switch></svg>