<svg xmlns="http://www.w3.org/2000/svg" viewBox="0 0 60 60"><switch><g><path d="M39.8 3H6.5v54h47V16.7L39.8 3zm8.7 49h-37V8h26.2l10.8 10.8V52z"/><path d="M36.6 22.1v-1.9h-3.3v1.9l-.2.1c-1.4.5-2.4 1.4-3.1 2.7s-.7 2.7-.3 4.1c.7 2.2 2.8 3.6 5.1 3.6h.1c1.1.1 2 1 1.9 2.1 0 .5-.3 1-.7 1.4s-.9.5-1.5.5c-1-.1-1.8-.8-1.9-1.8h-3.4c.1 2.2 1.5 4.1 3.6 4.8l.2.1v1.9h3.3v-1.9l.2-.1c1.3-.5 2.4-1.4 3.1-2.7.6-1.3.7-2.7.3-4.1-.7-2.2-2.8-3.6-5-3.6h-.1c-1.1.1-2.1-.8-2.1-1.9 0-.5.1-1.1.5-1.5s.8-.6 1.4-.7h.2c1 0 1.9.8 2 1.8h3.4c-.1-2.2-1.5-4.1-3.6-4.8h-.1zM22.4 26h2.1v4h2.7V19.9h-2.7v3.6h-2.1v-3.6h-2.8V30h2.8zM27.8 31.7h-3.3l-2.1 2.9v-2.9h-2.8v10.1h2.8v-3.2l.4-.5 2 3.7H28l-3.4-6z"/></g></switch></svg>