<svg xmlns="http://www.w3.org/2000/svg" viewBox="0 0 60 60"><switch><g><path d="M50.9 22.1v-.5c-.1-5.2-3.6-9.6-8.7-10.8V6.4h-5.3v4.4c-5 1.1-8.6 5.6-8.7 10.8.1 6.2 5.1 11.1 11.3 11.1 3.2.1 5.7 2.8 5.6 6-.1 3.2-2.8 5.7-6 5.6-3.1-.1-5.6-2.7-5.6-5.8V38h-5.3v.5c0 5.2 3.6 9.6 8.7 10.8v4.4h5.3v-4.4c6-1.3 9.7-7.2 8.4-13.2-1.1-5.1-5.8-8.8-11-8.7-3.3.1-6-2.5-6-5.8.1-3.3 3-5.9 6.3-5.8 3.1.1 5.7 2.6 5.8 5.8v.5h5.2zM13 18.6h7.2v10.1h4.3V5.9h-4.3v8.9H13V5.9H8.6v22.8H13zM24.9 31.3h-5L13 40.5v-9.2H8.6V54H13v-7.3l2.3-3L20.7 54h4.9l-7.4-13.9z"/></g></switch></svg>