<svg xmlns="http://www.w3.org/2000/svg" viewBox="0 0 60 60"><switch><g><path d="M30 3C15.1 3 3 15.1 3 30s12.1 27 27 27 27-12.1 27-27S44.9 3 30 3zm0 49C17.9 52 8 42.1 8 30S17.9 8 30 8s22 9.8 22 22c0 12.1-9.9 22-22 22z"/><path d="M36.8 27.8c-1.3.1-2.4-.9-2.4-2.1 0-.6.2-1.2.6-1.6.4-.4.9-.7 1.5-.7h.2c1.1 0 2.1.8 2.2 1.9h3.7c-.1-2.4-1.7-4.5-4-5.3h-.1v-2.1h-3.7V20l-.2.1c-1.5.5-2.7 1.6-3.4 3s-.8 3-.3 4.5c.8 2.4 3 4 5.6 4h.1c1.2.1 2.2 1.1 2.1 2.3 0 .6-.3 1.1-.7 1.5s-1 .6-1.6.6c-1.1-.1-1.9-.9-2.1-1.9h-3.7c.1 2.4 1.7 4.5 4 5.3l.2.1v2.1h3.7v-2.1l.2-.1c1.5-.5 2.7-1.6 3.4-3s.8-3 .3-4.5c-.8-2.5-3.1-4.1-5.6-4.1zM22.9 24.3h2.3v4.4h3V17.6h-3v4h-2.3v-4h-3v11.1h3zM28.8 30.6h-3.6l-2.3 3.2v-3.2h-3v11.1h3v-3.5l.5-.6 2.2 4.1H29l-3.6-6.6z"/></g></switch></svg>