<svg xmlns="http://www.w3.org/2000/svg" viewBox="0 0 60 60"><switch><g><path d="M48.7 10.5C43.7 5.7 37 3 30 3 15.1 3 3 15.1 3 30c0 7.1 2.8 14 7.9 19.1l3.5-3.5c-8.6-8.6-8.6-22.5 0-31.1 7.9-7.9 20.5-8.6 29.2-1.6l-5 5 3.5 3.5 5-5c6.9 8.6 6.3 21-1.4 28.9l3.6 3.5c10.5-10.8 10.2-27.9-.6-38.3z"/><path d="M34.9 28.3c-1.2.1-2.2-.8-2.2-1.9 0-.5.1-1.1.5-1.5s.8-.6 1.4-.7h.2c1 0 1.9.8 2 1.8h3.4c-.1-2.2-1.5-4.1-3.6-4.8l-.2-.1v-1.9h-3.3v1.9l-.2.1c-1.4.5-2.4 1.4-3.1 2.7s-.7 2.7-.3 4.1c.7 2.2 2.8 3.6 5.1 3.6h.1c1.1.1 2 1 1.9 2.1 0 .5-.3 1-.7 1.4s-.9.5-1.5.5c-1-.1-1.8-.8-1.9-1.8h-3.4c.1 2.2 1.5 4.1 3.6 4.8l.2.1v1.9h3.3v-1.9l.2-.1c1.3-.5 2.4-1.4 3.1-2.7.6-1.3.7-2.7.3-4.1-.6-2-2.6-3.5-4.9-3.5zM19.5 19.1v10h2.7v-4h2.2v4h2.7v-10h-2.7v3.6h-2.2v-3.6zM27.6 30.8h-3.2l-2.2 2.9v-2.9h-2.7v10.1h2.7v-3.1l.5-.6 2 3.7h3.1l-3.3-6z"/></g></switch></svg>