<svg xmlns="http://www.w3.org/2000/svg" viewBox="0 0 60 60"><switch><g><path d="M35.1 28.6c-.1 0-.1 0 0 0-1 0-1.8-.6-1.8-1.5 0-.4.1-.9.4-1.2.3-.3.7-.5 1.1-.5h.2c.8 0 1.5.6 1.7 1.4h2.7c-.1-1.8-1.3-3.3-2.9-3.9h-.1v-1.6h-2.7v1.6h-.1c-1.1.4-2 1.2-2.5 2.2s-.6 2.2-.2 3.3c.6 1.8 2.2 2.9 4.1 2.9h.1c.9.1 1.6.8 1.6 1.7 0 .4-.2.8-.5 1.1s-.8.4-1.2.4c-.8 0-1.4-.7-1.5-1.4h-2.7c.1 1.8 1.3 3.3 2.9 3.9h.1v1.6h2.7V37h.1c1.1-.4 2-1.2 2.5-2.2s.6-2.2.2-3.3c-.7-1.7-2.4-2.9-4.2-2.9zM24.8 26h1.7v3.3h2.2v-8.2h-2.2V24h-1.7v-2.9h-2.3v8.2h2.3zM29.1 30.7h-2.6l-1.7 2.4v-2.4h-2.3v8.2h2.3v-2.6l.3-.4 1.6 3h2.6L26.6 34z"/><path d="M49.1 22.2V11.1H37.9L30 3.2l-7.9 7.9H10.9v11.2L3 30.2l7.9 7.9v11.2H22l7.9 7.9 7.9-7.9H49V38.1l7.9-8-7.8-7.9zm-5 13.8v8.1h-8.3L30 50l-5.8-5.8H16V36l-5.8-5.8 5.8-5.8v-8.3h8.2l5.8-5.8 5.8 5.8H44v8.2l5.9 5.9-5.8 5.8z"/></g></switch></svg>