<svg xmlns="http://www.w3.org/2000/svg" viewBox="0 0 60 60"><switch><g><path d="M19.2 23.6v-1.8l.2-.1c1.3-.4 2.3-1.4 2.9-2.6s.7-2.6.2-3.9c-.7-2.1-2.6-3.4-4.8-3.4h-.1c-1.1 0-2-.7-2-1.8 0-.5.1-1 .5-1.4.3-.3.8-.6 1.3-.6h.2c1 0 1.8.7 1.9 1.7h3.2c-.1-2.1-1.5-3.9-3.4-4.6l-.2-.1V3.2H16V5l-.2.1c-1.3.4-2.3 1.4-2.9 2.6s-.7 2.6-.3 3.9c.7 2.1 2.6 3.4 4.8 3.4h.1c1.1.1 1.9 1 1.8 2 0 .5-.3 1-.6 1.3-.4.3-.9.5-1.4.5-.9-.1-1.7-.8-1.8-1.7h-3.2c.1 2.1 1.5 3.9 3.4 4.6l.2.1v1.8h3.3zM5.7 8.8h2v3.8h2.6V3H7.7v3.4h-2V3H3.1v9.6h2.6zM10.8 14.2H7.7l-2 2.8v-2.8H3.1v9.6h2.6v-3l.4-.5L8 23.8h3l-3.1-5.7zM37.4 18.4C26.7 18.4 18 27.1 18 37.8s8.7 19.4 19.4 19.4 19.4-8.7 19.4-19.4-8.7-19.4-19.4-19.4zm0 34.1c-8.1 0-14.7-6.6-14.7-14.7s6.6-14.7 14.7-14.7 14.7 6.6 14.7 14.7-6.6 14.6-14.7 14.7z"/><path d="M37 35.2l-3.6-3.6-3.5 3.5 7 7.1 10.8-10.7-3.5-3.6z"/></g></switch></svg>