<svg xmlns="http://www.w3.org/2000/svg" viewBox="0 0 60 60"><switch><g><path d="M27.4 8.1V3C14.5 4.3 4.3 14.5 3.1 27.4h5C9.3 17.3 17.3 9.3 27.4 8.1zM51.8 27.4h5C55.7 14.4 45.4 4.2 32.4 3v5c10.2 1.2 18.3 9.2 19.4 19.4zM8.2 32.6h-5C4.3 45.5 14.5 55.7 27.4 57v-5C17.3 50.7 9.3 42.7 8.2 32.6zM32.4 52v5c13-1.2 23.3-11.4 24.5-24.4h-5C50.7 42.8 42.6 50.8 32.4 52zM34.3 39.3v2.1H38v-2.1l.2-.1c1.5-.5 2.7-1.6 3.4-3s.8-3 .3-4.5c-.8-2.4-3-4-5.6-4h-.1c-1.2.1-2.3-.9-2.3-2.1 0-.6.2-1.2.6-1.6.4-.4.9-.7 1.5-.7h.2c1.1 0 2.1.8 2.2 1.9h3.7c-.1-2.4-1.7-4.5-4-5.3l-.1.1v-2.1h-3.7V20l-.2.1c-1.5.5-2.7 1.6-3.4 3s-.8 3-.3 4.5c.8 2.4 3 4 5.6 4h.1c1.2.1 2.2 1.1 2.1 2.3 0 .6-.3 1.1-.7 1.5s-1 .6-1.6.6c-1.1-.1-1.9-1-2-2h-3.7c.1 2.4 1.7 4.5 4.1 5.3zM27.7 28.7V17.6h-3v4h-2.3v-4h-3.1v11.1h3.1v-4.4h2.3v4.4zM28.3 30.6h-3.6l-2.3 3.2v-3.2h-3.1v11.1h3.1v-3.5l.4-.6 2.3 4.1h3.4l-3.6-6.6z"/></g></switch></svg>