<svg xmlns="http://www.w3.org/2000/svg" viewBox="0 0 60 60"><switch><g><path d="M28.2 27.7h-.1c-1 0-1.8-.7-1.8-1.6 0-.5.1-.9.4-1.2.3-.3.7-.5 1.2-.6h.2c.9 0 1.6.7 1.8 1.5h2.9c-.1-1.9-1.3-3.5-3.1-4.1l-.1-.1V20h-2.9v1.7h-.1c-1.2.4-2.1 1.2-2.6 2.3-.5 1.1-.6 2.3-.2 3.5.6 1.9 2.4 3.1 4.3 3.1h.1c1 .1 1.7.9 1.6 1.8 0 .5-.2.9-.6 1.2-.3.3-.8.5-1.2.4-.8 0-1.5-.7-1.6-1.5h-2.9c.1 1.9 1.3 3.5 3.1 4.1h.1v1.7h2.9v-1.7h.1c1.2-.4 2.1-1.2 2.6-2.3s.6-2.3.2-3.5c-.7-1.8-2.4-3.1-4.3-3.1zM17.3 25h1.8v3.4h2.4v-8.6h-2.4v3.1h-1.8v-3.1h-2.4v8.6h2.4zM21.9 29.9h-2.8l-1.8 2.5v-2.5h-2.4v8.6h2.4v-2.7l.4-.4 1.7 3.1h2.7l-2.9-5.1z"/><path d="M44.7 3.2H17.3C11.3 3.2 6.5 8 6.5 14v35.9l7.3 7.3 4.8-4.8 4.8 4.8 4.8-4.8 4.8 4.8 7.3-7.3.2-26.2h13.1V12.2c0-4.9-3.9-9-8.9-9zm-9.2 9l-.3 35.6-2.3 2.3-4.8-4.8-4.8 4.8-4.8-4.8-4.8 4.8-2.3-2.3V14c0-3.2 2.6-5.8 5.8-5.8h19.1c-.5 1.2-.8 2.6-.8 4zm13 6.4h-8.1v-6.5c0-2.1 1.6-3.8 3.6-4h.4c2.2 0 4 1.8 4 4v6.5h.1z"/></g></switch></svg>