<svg xmlns="http://www.w3.org/2000/svg" viewBox="0 0 60 60"><switch><g><path d="M42.2 23.6H57V8.8h-5v5.6C43.4 2.2 26.5-.6 14.4 8 2.2 16.7-.6 33.5 8 45.7c8.6 12.1 25.5 15 37.6 6.3C52.8 46.9 57 38.7 57 30h-5c0 12.2-9.8 22-22 22.1-12.2 0-22-9.8-22.1-22 0-12.2 9.8-22 22-22.1 7.7 0 14.9 4 18.9 10.6h-6.7v5h.1z"/><path d="M36.6 40.7v-1.9l.2-.1c1.3-.5 2.4-1.4 3.1-2.7.6-1.3.7-2.7.3-4.1-.7-2.2-2.8-3.6-5-3.6h-.1c-1.1.1-2.1-.8-2.1-1.9 0-.5.1-1.1.5-1.5s.8-.6 1.4-.7h.2c1 0 1.9.8 2 1.8h3.4c-.1-2.2-1.5-4.1-3.6-4.8l-.2-.1v-1.9h-3.3v1.9l-.2.1c-1.4.5-2.4 1.4-3.1 2.7s-.7 2.7-.3 4.1c.7 2.2 2.8 3.6 5.1 3.6h.1c1.1.1 2 1 1.9 2.1 0 .5-.3 1-.7 1.4s-.9.5-1.5.5c-1-.1-1.8-.8-1.9-1.8h-3.4c.1 2.2 1.5 4.1 3.6 4.8l.2.1v1.9h3.4v.1zM19.6 19.1v10.1h2.8v-4.1h2.1v4.1h2.7V19.1h-2.7v3.6h-2.1v-3.6zM19.6 40.9h2.8v-3.1l.4-.6 2 3.7H28l-3.4-6 3.2-4h-3.3l-2.1 2.9v-2.9h-2.8z"/></g></switch></svg>