<svg xmlns="http://www.w3.org/2000/svg" viewBox="0 0 60 60"><switch><g><path d="M50 12.7h-7.8C41 6.3 34.9 2 28.5 3.2c-4.8.9-8.6 4.6-9.5 9.5h-9l-7 41h54l-7-41zM30.6 8c2.9 0 5.5 1.9 6.4 4.7H24.2c.9-2.8 3.5-4.7 6.4-4.7zm-16.4 9.7h31.6l5.3 31H8.9l5.3-31z"/><path d="M35.7 31.5c-1.2.1-2.2-.8-2.2-1.9 0-.5.1-1.1.5-1.5s.8-.6 1.4-.7h.2c1 0 1.9.8 2 1.8H41c-.1-2.2-1.5-4.1-3.6-4.8l-.2-.1v-1.9h-3.3v1.9l-.2.1c-1.4.5-2.4 1.4-3.1 2.7s-.7 2.7-.3 4.1c.7 2.2 2.8 3.6 5.1 3.6h.1c1.1.1 2 1 1.9 2.1 0 .5-.3 1-.7 1.4s-.9.5-1.5.5c-1-.1-1.8-.8-1.9-1.8h-3.4c.1 2.2 1.5 4.1 3.6 4.8l.2.1v1.9H37V42l.2-.1c1.3-.5 2.4-1.4 3.1-2.7.6-1.3.7-2.7.3-4.1-.6-2.1-2.7-3.6-4.9-3.6zM23 28.3h2.1v4.1h2.8V22.3h-2.8v3.6H23v-3.6h-2.8v10.1H23zM28.4 34h-3.3L23 37v-3h-2.8v10.1H23V41l.4-.6 2 3.7h3.2l-3.3-6z"/></g></switch></svg>