<svg xmlns="http://www.w3.org/2000/svg" viewBox="0 0 60 60"><path d="M51.594 27.5A21.742 21.742 0 0 0 32.489 8.4V3h-5v5.407A21.742 21.742 0 0 0 8.406 27.5H3v5h5.406A21.741 21.741 0 0 0 27.5 51.594V57h5v-5.406A21.741 21.741 0 0 0 51.594 32.5H57v-5zM39.39 43.86a16.705 16.705 0 0 1-18.8-.016c-.006-.127-.019-.253-.019-.381a9.42 9.42 0 1 1 18.839 0c-.001.137-.01.264-.02.397zM26.784 25.611a3.4 3.4 0 1 1 3.4 3.4 3.4 3.4 0 0 1-3.4-3.4zm17.042 13.824a14.479 14.479 0 0 0-7.049-8.688 8.393 8.393 0 1 0-13.3-.131 14.469 14.469 0 0 0-7.316 8.8 16.749 16.749 0 1 1 27.667.02z"/></svg>