<svg xmlns="http://www.w3.org/2000/svg" viewBox="0 0 60 60"><path d="M21.6 42l4.3-4.3 4-4 4.1-4.1 4-4 5-5 3.6-3.6 4.2-4.2-3.5-3.5-2.2 2.2c-.7-1.4-1.6-2.5-2.7-3.5-7.1-6.9-18.4-6.7-25.3.4-4.9 5.1-6.4 12.5-3.7 19.1l4.6-1.9c-.6-1.6-1-3.3-.9-5 .2-6.8 5.6-12.2 12.3-12.6 3.5-.2 7 1.1 9.5 3.6 1.1 1 1.9 2.2 2.5 3.4l-2.6 2.6c-.5-1.1-1.2-2.2-2.2-3.1-3.9-3.8-10.1-3.7-13.8.2-2.5 2.6-3.4 6.3-2.3 9.7l4.7-1.9c-.1-.4-.1-.7-.1-1.1.1-2.5 2.1-4.5 4.6-4.7 2.6-.1 4.9 1.9 5 4.5v.4L9.2 47.3l3.5 3.5 5.1-5.1 3.8-3.7zM41.3 28.9l-2.6 2.6-8.9 16.3c-1.6 2.7-3.2 4-5.1 4.2-1.8.1-3.4-1-3.8-2.7L17.2 53c.9 1.4 2.2 2.5 3.8 3.2 1.1.5 2.4.8 3.6.7h.5c3.6-.2 6.7-2.4 9.2-6.7l11.4-21c.9-1.5 1.5-3.2 1.9-4.9.1-.6.2-1.3.3-1.9l-1.4 1.4-5.2 5.1z"/></svg>