<svg xmlns="http://www.w3.org/2000/svg" viewBox="0 0 60 60"><path d="M54.481 36.014H36.869a7.144 7.144 0 0 0 .065-.907 7.064 7.064 0 0 0-7.056-7.056H16.987a2.489 2.489 0 0 0-.676.093l-13.29 3.733 1.351 4.809 12.959-3.639h12.547a2.06 2.06 0 1 1 0 4.119H18.7v5h11.178a7.015 7.015 0 0 0 3.854-1.153H48.45L37.457 52H3.021v5h35.471a2.5 2.5 0 0 0 1.767-.732l15.988-15.99a2.5 2.5 0 0 0-1.766-4.264z"/><path d="M41.58 32.631l13.046-14.126a9.238 9.238 0 0 0 0-12.318l-.514-.555A8 8 0 0 0 48.189 3a8 8 0 0 0-5.924 2.634l-.684.741-.681-.741A8 8 0 0 0 34.972 3a8 8 0 0 0-5.923 2.632l-.514.555a9.238 9.238 0 0 0 0 12.318zM32.173 9.484l.491-.53a3.471 3.471 0 0 1 5.212 0l3.7 4.009 3.7-4.009a3.471 3.471 0 0 1 5.212 0l.49.53a4.653 4.653 0 0 1 0 6.126L41.58 25.8l-9.406-10.19a4.654 4.654 0 0 1-.001-6.126z"/></svg>