<svg xmlns="http://www.w3.org/2000/svg" viewBox="0 0 60 60"><path d="M51.674 28.8a14.635 14.635 0 0 0-1.211-23.226C50.349 5.493 38.848-2.36 29.8 9.8l-.122.18a14.683 14.683 0 0 0-2.178 7.709v24.622a9.688 9.688 0 0 1-1.382 5c-5.99 7.952-12.945 3.548-13.738 3.006a9.634 9.634 0 0 1-.786-15.328l3.671-3.391v6.839h5V23.383H5.5v5h5.872L8.326 31.2a14.636 14.636 0 0 0 1.211 23.226A16.613 16.613 0 0 0 18.131 57c3.725 0 8.129-1.5 12.069-6.8l.122-.18a14.68 14.68 0 0 0 2.178-7.709V17.689a9.682 9.682 0 0 1 1.382-5c5.99-7.952 12.944-3.546 13.739-3a9.634 9.634 0 0 1 .785 15.327l-3.671 3.39v-6.839h-5v15.05H54.5v-5h-5.875l3.049-2.817z"/></svg>