<svg xmlns="http://www.w3.org/2000/svg" viewBox="0 0 60 60"><path d="M27.547 38.035h5v5.012h-5zM31.434 17.633a8.165 8.165 0 0 0-1.5-.139 7.972 7.972 0 0 0-7.957 7.989l5-.01a2.97 2.97 0 0 1 2.961-2.979 3.2 3.2 0 0 1 .6.059 3.049 3.049 0 0 1 2.418 2.486 2.912 2.912 0 0 1-1.456 3.094 7.214 7.214 0 0 0-3.925 6.346v.191h5v-.17a2.206 2.206 0 0 1 1.269-1.955 7.893 7.893 0 0 0 4.035-8.412 8 8 0 0 0-6.445-6.5z"/><path d="M30 3a27 27 0 1 0 27 27A27.03 27.03 0 0 0 30 3zm0 49a22 22 0 1 1 22-22 22.025 22.025 0 0 1-22 22z"/></svg>