<svg xmlns="http://www.w3.org/2000/svg" viewBox="0 0 60 60"><path d="M34.644 38.53l-7.37 7.361a3.2 3.2 0 0 1-4.519 0l-.442-.441a3.186 3.186 0 0 1-.537-3.77l8.533-8.506a3.26 3.26 0 0 1 3.893.4l.442.442a3.2 3.2 0 0 1 0 4.511zm2.6-24.52l8.728 8.716-9.665.936.937-9.652zm.306 16.224a7.417 7.417 0 0 0-2.173-1.465L57 26.674 33.291 3l-2.169 22.306-3.272 3.262-3.974-3.968-3.535 3.53 3.969 3.97L21 35.4l-3.966-3.961-3.534 3.526 3.963 3.958-8.019 7.992-2.908-2.905L3 47.541 12.472 57l3.536-3.531-3.027-3.022L17.24 46.2a7.874 7.874 0 0 0 1.725 2.592l.441.441a7.949 7.949 0 0 0 11.217 0l7.369-7.36a7.925 7.925 0 0 0 0-11.2l-.441-.441z"/></svg>