<svg xmlns="http://www.w3.org/2000/svg" viewBox="0 0 60 60"><path fill="#282b3e" d="M42.05 3v5.02h9.93v9.93H57V3H42.05zM51.98 51.98h-9.93V57H57V42.05h-5.02v9.93zM8.02 42.05H3V57h14.95v-5.02H8.02v-9.93zM8.02 8.02h9.93V3H3v14.95h5.02V8.02zM30 23.33A6.67 6.67 0 1 0 36.67 30 6.67 6.67 0 0 0 30 23.33zm0 8.34A1.67 1.67 0 1 1 31.67 30 1.67 1.67 0 0 1 30 31.67z"/><path fill="#282b3e" d="M50.06 30.93l.37-.93-.37-.94a22 22 0 0 0-19.94-13.44A21.42 21.42 0 0 0 10 29.05l-.4 1 .4.95a22.19 22.19 0 0 0 19.9 13.38c8.56 0 17.04-5.66 20.16-13.45zM29.9 39.38A17.1 17.1 0 0 1 15 30a16.52 16.52 0 0 1 15.09-9.35A17.16 17.16 0 0 1 45 30a17.32 17.32 0 0 1-15.1 9.38z"/></svg>