<svg xmlns="http://www.w3.org/2000/svg" viewBox="0 0 60 60"><path d="M46.153 23.53l-3.535-3.536L30 32.612 17.382 19.994l-3.535 3.536L27.5 37.183V53.5h5V37.183L46.153 23.53z"/><path d="M57 17.244a11.878 11.878 0 0 0-3.954-8.2 10.1 10.1 0 0 0-7.433-2.51c-5.2.4-9.347 4.769-9.848 10.388v7.1l4.992-4.993v-1.771c.322-3.126 2.512-5.534 5.242-5.744a5.126 5.126 0 0 1 3.768 1.3A6.838 6.838 0 0 1 52 17.484v14.534c-.322 3.125-2.512 5.533-5.242 5.743a5.118 5.118 0 0 1-3.768-1.3 6.843 6.843 0 0 1-2.24-4.672v-.207l-4.163 4.163a11.442 11.442 0 0 0 3.122 4.489 10.128 10.128 0 0 0 6.667 2.54q.383 0 .766-.029c5.2-.4 9.347-4.769 9.848-10.388L57 17.4zM19.25 31.791a6.84 6.84 0 0 1-2.241 4.672 5.106 5.106 0 0 1-3.767 1.3c-2.73-.21-4.92-2.618-5.242-5.744V17.484a6.841 6.841 0 0 1 2.24-4.672 5.1 5.1 0 0 1 3.768-1.3c2.73.21 4.92 2.618 5.242 5.744v1.709l5 5v-6.827l-.01-.222c-.5-5.618-4.643-9.987-9.848-10.387a10.107 10.107 0 0 0-7.433 2.51 11.878 11.878 0 0 0-3.954 8.2L3 32.136l.01.223c.5 5.618 4.643 9.987 9.848 10.387q.384.03.765.03a10.131 10.131 0 0 0 6.667-2.54 11.445 11.445 0 0 0 3.139-4.536l-4.179-4.177z"/></svg>