<svg xmlns="http://www.w3.org/2000/svg" viewBox="0 0 60 60"><switch><g><path d="M52.6 9.1C49.8 6.2 46 4.5 41.9 4.5c-4 0-7.9 1.7-10.6 4.6L30 10.5l-1.3-1.4C23.1 3.2 13.9 3 8 8.5l-.6.6C1.7 15 1.5 24.3 6.9 30.4L30 56.9l23.1-26.4c5.4-6.2 5.2-15.5-.5-21.4zm-3.3 18.1L30 49.3 10.7 27.2C7 22.9 7.1 16.6 11 12.5l.4-.4c3.9-3.7 10-3.5 13.6.4l1.3 1.4 3.6 3.8 3.6-3.8 1.3-1.4c3.7-3.9 9.9-4 13.7-.3l.4.4c4 4 4.1 10.4.4 14.6z"/><path d="M36.9 19.6h-4l-5.2 7.2v-7.2h-3.5v17.3h3.5v-5.4l1.7-2.3 4.2 7.7h4l-5.8-10.5z"/></g></switch></svg>