<svg xmlns="http://www.w3.org/2000/svg" viewBox="0 0 60 60"><path d="M51.961 26.543a18.607 18.607 0 0 1-4.031 11.543 18.451 18.451 0 0 1-25.574 3.251l14.372-14.369-3.563-3.568-14.409 14.41a5.951 5.951 0 0 1-.125-.158 18.6 18.6 0 0 1-3.709-11.107 18.526 18.526 0 0 1 18.5-18.506h18.539v18.5zM33.418 3A23.565 23.565 0 0 0 9.883 26.546 23.662 23.662 0 0 0 14.6 40.671c.006.008.219.29.577.721L3.127 53.436 6.69 57l12.063-12.06.043.034a23.356 23.356 0 0 0 14.666 5.131 23.4 23.4 0 0 0 18.413-8.883A23.664 23.664 0 0 0 57 26.541V3z"/></svg>