<svg xmlns="http://www.w3.org/2000/svg" viewBox="0 0 60 60"><path d="M54.488 36H36.862a6.952 6.952 0 0 0 .065-.907 7.069 7.069 0 0 0-7.061-7.062h-12.9a2.5 2.5 0 0 0-.676.093L2.99 31.86l1.35 4.812 12.968-3.643h12.558a2.062 2.062 0 0 1 0 4.123H18.681v5h11.185A7.009 7.009 0 0 0 33.723 41h14.729l-11 11H2.988v5h35.5a2.5 2.5 0 0 0 1.768-.733l16-16A2.5 2.5 0 0 0 54.488 36zM45 3a11.976 11.976 0 0 0-10.05 18.5l-3.886 3.887 3.536 3.537 3.886-3.887a11.976 11.976 0 0 0 18.5-10.05V3zm6.989 11.986a6.964 6.964 0 0 1-9.828 6.372l4.606-4.606-3.531-3.532-4.606 4.606A6.964 6.964 0 0 1 45 8h6.989z"/></svg>