<?xml version="1.0" encoding="utf-8"?>
<!-- Generator: Adobe Illustrator 25.2.1, SVG Export Plug-In . SVG Version: 6.00 Build 0)  -->
<svg version="1.1" id="Layer_1" xmlns="http://www.w3.org/2000/svg" xmlns:xlink="http://www.w3.org/1999/xlink" x="0px" y="0px"
	 viewBox="0 0 60 60" style="enable-background:new 0 0 60 60;" xml:space="preserve">
<style type="text/css">
	.st0{fill:#030304;}
	.st1{fill:#020203;}
	.st2{fill:#FFFFFF;}
	.st3{fill:#181F32;}
</style>
<g id="Icons_2_">
	<path class="st3" d="M37.9,22.4v-11c0-4.6-3.7-8.3-8.3-8.3s-8.3,3.7-8.3,8.3v11H6.5V57h37.7l9.3-9.4V22.4H37.9z M26.2,11.3
		c0-1.8,1.5-3.3,3.3-3.3s3.3,1.5,3.3,3.3v11h-6.7V11.3z M14.7,52h-3.2V27.4h3.2V52z M48.5,45.6L42.1,52H19.7V27.4h28.8L48.5,45.6
		L48.5,45.6z"/>
	<rect x="24" y="6.3" class="st3" width="10.9" height="17.3"/>
</g>
<path class="st3" d="M9.1,54.1c2,0,7.8,0,7.8,0v-29H9.1V54.1z"/>
<polygon class="st3" points="19.7,25.1 50.1,25.1 50.1,46.5 43.4,54.1 19.7,54.1 "/>
<rect x="18.7" y="27.4" class="st2" width="2.5" height="24.6"/>
</svg>
