<svg xmlns="http://www.w3.org/2000/svg" viewBox="0 0 60 60"><path d="M44.751 9.326A21.072 21.072 0 0 0 29.753 3h-.2a21.073 21.073 0 0 0-14.986 6.322c-7.972 8.122-7.96 21.19.027 30.4L29.582 57l15.1-17.24.007-.008c8.003-9.225 8.03-22.308.062-30.426zm-3.839 27.146L29.6 49.39 18.371 36.442c-6.264-7.22-6.365-17.373-.231-23.622A16.059 16.059 0 0 1 29.573 8h.2a16.035 16.035 0 0 1 11.407 4.823c6.126 6.245 6.012 16.411-.268 23.649z"/><path d="M29.651 15.379a8.433 8.433 0 1 0 8.433 8.433 8.443 8.443 0 0 0-8.433-8.433zm0 11.866a3.433 3.433 0 1 1 3.433-3.433 3.437 3.437 0 0 1-3.433 3.433z"/></svg>