<svg xmlns="http://www.w3.org/2000/svg" viewBox="0 0 60 60"><path d="M16.75 46.69c-1.97 0-3.92-.84-5.28-2.47-2.41-2.91-2.01-7.23.9-9.64a6.862 6.862 0 0 1 9.65.9 6.862 6.862 0 0 1-.9 9.65 6.834 6.834 0 0 1-4.37 1.58zm0-8.69a1.852 1.852 0 0 0-1.42 3.03c.65.79 1.82.89 2.6.24s.89-1.82.24-2.6a1.85 1.85 0 0 0-1.42-.67z"/><path d="M16.76 53.55c-.43 0-.86-.02-1.29-.06-3.65-.34-6.94-2.08-9.28-4.89s-3.44-6.38-3.1-10.02c.34-3.65 2.08-6.94 4.89-9.28 5.82-4.83 14.47-4.02 19.3 1.79s4.02 14.47-1.79 19.3a13.597 13.597 0 0 1-8.73 3.16zm-.03-22.41c-1.96 0-3.93.66-5.55 2a8.66 8.66 0 0 0-3.11 5.89c-.21 2.32.48 4.58 1.97 6.37a8.66 8.66 0 0 0 5.89 3.11 8.67 8.67 0 0 0 6.37-1.97c3.69-3.07 4.2-8.57 1.14-12.26a8.691 8.691 0 0 0-6.71-3.14zM29.63 23.6c-1.97 0-3.92-.84-5.28-2.47a6.862 6.862 0 0 1 .9-9.65 6.862 6.862 0 0 1 9.65.9 6.862 6.862 0 0 1-.9 9.65 6.834 6.834 0 0 1-4.37 1.58zm-1.43-5.66c.65.78 1.82.89 2.6.24s.89-1.82.24-2.6-1.82-.89-2.6-.24-.89 1.82-.24 2.6z"/><path d="M29.64 30.45c-3.94 0-7.85-1.68-10.56-4.95-4.83-5.82-4.02-14.47 1.79-19.3 5.82-4.83 14.47-4.02 19.3 1.79a13.61 13.61 0 0 1 3.1 10.02c-.34 3.65-2.08 6.94-4.89 9.28a13.637 13.637 0 0 1-8.74 3.15zm-.02-22.4c-1.96 0-3.93.66-5.55 2-3.69 3.07-4.2 8.56-1.14 12.26a8.66 8.66 0 0 0 5.89 3.11c2.32.21 4.58-.48 6.37-1.97a8.66 8.66 0 0 0 3.11-5.89c.21-2.32-.48-4.58-1.97-6.37a8.691 8.691 0 0 0-6.71-3.14zM43.28 46.69c-1.97 0-3.92-.84-5.28-2.47-2.41-2.91-2.01-7.23.9-9.64a6.862 6.862 0 0 1 9.65.9 6.862 6.862 0 0 1-.9 9.65 6.834 6.834 0 0 1-4.37 1.58zm-1.43-5.67c.65.78 1.82.89 2.6.24s.89-1.82.24-2.6-1.82-.89-2.6-.24-.89 1.82-.24 2.6z"/><path d="M43.3 53.55c-.43 0-.86-.02-1.29-.06-3.65-.34-6.94-2.08-9.28-4.89a13.61 13.61 0 0 1-3.1-10.02c.34-3.65 2.08-6.94 4.89-9.28 5.81-4.83 14.47-4.02 19.3 1.79s4.02 14.47-1.79 19.3a13.597 13.597 0 0 1-8.73 3.16zm-.04-22.41c-2.02 0-3.97.7-5.54 2.01a8.66 8.66 0 0 0-3.11 5.89c-.21 2.32.48 4.58 1.97 6.37a8.66 8.66 0 0 0 5.89 3.11c2.32.21 4.58-.48 6.37-1.97 3.69-3.07 4.2-8.57 1.14-12.26a8.66 8.66 0 0 0-5.89-3.11c-.27-.03-.55-.04-.82-.04z"/></svg>