<svg xmlns="http://www.w3.org/2000/svg" viewBox="0 0 60 60"><path d="M54.294 9.971l-.591-.64a9.2 9.2 0 0 0-6.812-3.026 9.206 9.206 0 0 0-6.816 3.028l-.788.852-.787-.854a9.184 9.184 0 0 0-13.629 0l-.59.636a10.63 10.63 0 0 0-1.64 11.662 9.771 9.771 0 0 0-1.141 1.009l-.79.854-.787-.852a9.2 9.2 0 0 0-6.814-3.03A9.2 9.2 0 0 0 6.3 22.638l-.592.639a10.627 10.627 0 0 0 0 14.169L20.713 53.7l15.009-16.252c.144-.157.246-.34.38-.505l3.183 3.445 15.009-16.247a10.628 10.628 0 0 0 0-14.17zM32.046 34.053l-11.333 12.27L9.381 34.052a5.607 5.607 0 0 1 0-7.381l.592-.639a4.183 4.183 0 0 1 6.279 0l4.462 4.83 4.466-4.832a4.275 4.275 0 0 1 6.28 0l.587.634a5.609 5.609 0 0 1-.001 7.389zm18.572-13.3L39.285 33.015l-1-1.079a10.535 10.535 0 0 0-2.569-8.663l-.588-.633a9.206 9.206 0 0 0-6.815-3.03 9.076 9.076 0 0 0-1.072.113 5.63 5.63 0 0 1 .709-6.359l.589-.637a4.279 4.279 0 0 1 6.279 0l4.464 4.833 4.463-4.833a4.184 4.184 0 0 1 6.279 0l.591.641a5.607 5.607 0 0 1 .003 7.38z"/></svg>