<svg xmlns="http://www.w3.org/2000/svg" viewBox="0 0 60 60"><path d="M29.891 44.079l-7.839 1.247.839-3.166-10.93-4.139.758-.816-1.883-6.772 7.213.766.077-2.618 9.019 6.82L23.6 18.13l3.783 2.176 2.566-6.582 2.713 6.558L36.4 18.13 32.855 35.4l9.021-6.821.077 2.619 7.213-.766-1.883 6.768.758.817-10.929 4.143.84 3.177-8.061-1.258zm12.022.55l13.12-4.968-3.287-3.542 2.865-10.3-8.776.932-.176-6.061-6.735 5.092 3.2-15.57-7.5 4.314-4.786-11.557-4.5 11.537-7.46-4.29 3.2 15.57-6.737-5.093-.174 6.062-8.776-.932 2.864 10.3-3.288 3.538 13.121 4.968-1.488 5.625 10.9-1.734v8.511h5.011v-8.486l10.892 1.7-1.485-5.615z"/></svg>