<svg id="Icons" xmlns="http://www.w3.org/2000/svg" viewBox="0 0 60 60"><polygon points="12.46 27.17 19.88 34.94 27.57 27.13 35.33 34.88 40.32 29.88 47.51 29.91 49.96 27.46 47.41 24.91 38.26 24.88 35.33 27.81 27.54 20.03 19.93 27.76 12.51 19.99 3.02 29.61 6.58 33.13 12.46 27.17"/><polygon points="51.6 29.93 47.51 29.91 41.66 35.76 45.19 39.29 57.03 27.46 45.19 15.63 41.66 19.16 47.41 24.91 51.62 24.93 51.6 29.93"/><polygon points="47.51 29.91 51.6 29.93 51.62 24.93 47.41 24.91 49.96 27.46 47.51 29.91"/><rect x="3" y="52" width="54.01" height="5"/></svg>