<svg xmlns="http://www.w3.org/2000/svg" viewBox="0 0 60 60"><path d="M41.578 41.59a16.411 16.411 0 0 1-11.555 4.8h-.072a16.422 16.422 0 1 1 11.627-4.8zm9.664-14.09A21.157 21.157 0 0 0 46.8 16.734l4.06-4.06-3.534-3.531L43.27 13.2A21.219 21.219 0 0 0 32.5 8.724V3h-5v5.716a21.3 21.3 0 0 0-10.783 4.472l-4.043-4.045-3.531 3.531 4.044 4.045A21.278 21.278 0 0 0 8.709 27.5H3v5h5.719A21.181 21.181 0 0 0 13.2 43.268l-4.057 4.058 3.531 3.531 4.069-4.069A21.187 21.187 0 0 0 27.5 51.227V57h5v-5.782a21.514 21.514 0 0 0 10.74-4.449l4.089 4.088 3.531-3.531-4.086-4.087a21.165 21.165 0 0 0 4.46-10.739H57v-5z"/><path d="M27.784 26.857l5.494 3.172-5.494 3.171v-6.343zm-4.995 15l20.479-11.828-20.479-11.823v23.647z"/></svg>