<svg xmlns="http://www.w3.org/2000/svg" viewBox="0 0 60 60"><path d="M54.059 5.974a10.164 10.164 0 0 0-7.731-2.938A11.666 11.666 0 0 0 38.6 6.5l3.534 3.534a6.682 6.682 0 0 1 4.415-2 5.237 5.237 0 0 1 3.978 1.478c2.169 2.17 1.934 5.934-.524 8.393L35.141 3.041 3.057 35.156l3.38 3.38a11.721 11.721 0 0 0-3.426 7.71A10.12 10.12 0 0 0 13.25 56.974a11.71 11.71 0 0 0 8.2-3.43l3.378 3.378 32.08-32.115-3.373-3.373c4.407-4.407 4.642-11.343.524-15.46zM9.5 50.483A5.268 5.268 0 0 1 8 46.466a6.728 6.728 0 0 1 1.967-4.4l7.941 7.94c-2.479 2.431-6.236 2.65-8.408.477zm15.325-.63l-14.7-14.7 25.018-25.042 14.7 14.7z"/><path d="M22.684 39.441l16.761-16.76 3.534 3.533-16.762 16.76zM16.33 33.602L33.09 16.84l3.533 3.533-16.76 16.761z"/></svg>