<svg xmlns="http://www.w3.org/2000/svg" viewBox="0 0 60 60"><path d="M56.927 22.762l-.054-2.269-2.27-.012a36.184 36.184 0 0 0-14.612 3.391 36.3 36.3 0 0 0-8.364-13.563L30 8.727l-1.628 1.582a36.286 36.286 0 0 0-8.364 13.567A37.63 37.63 0 0 0 5.4 20.481l-2.27.012-.054 2.269c-.014.573-.235 14.117 8.371 22.08 3.978 3.679 9.123 5.535 15.331 5.535 1.044 0 2.123-.065 3.225-.17 1.1.1 2.182.17 3.226.17 6.207 0 11.354-1.856 15.33-5.535 8.603-7.963 8.382-21.507 8.368-22.08zM14.635 41.427C9.53 36.719 8.2 29.175 7.862 25.316a30.65 30.65 0 0 1 11.144 3.309 21.154 21.154 0 0 0-.128 3.306 21.336 21.336 0 0 0 6.134 13.7 16.635 16.635 0 0 1-10.377-4.204zM30 44.023c-4.062-3.694-6.23-7.822-6.452-12.293-.344-6.941 4-13.256 6.456-16.248 2.456 2.979 6.784 9.264 6.449 16.224-.216 4.481-2.385 8.617-6.453 12.317zm15.383-2.611a16.608 16.608 0 0 1-10.394 4.216 21.337 21.337 0 0 0 6.132-13.7 21.146 21.146 0 0 0-.128-3.3 30.664 30.664 0 0 1 11.153-3.311c-.336 3.844-1.646 11.362-6.764 16.095z"/></svg>