<svg xmlns="http://www.w3.org/2000/svg" viewBox="0 0 60 60"><path d="M49.607 25.865L49.6 25.7A23.3 23.3 0 0 0 9.4 10.256 23.142 23.142 0 0 0 3 26.906a23.437 23.437 0 0 0 9.69 18.313l.294.211V57h5V42.869l-2.372-1.708a18.408 18.408 0 0 1-7.606-14.383A18.308 18.308 0 0 1 25.831 8.006C26 8 26.157 8 26.317 8A18.2 18.2 0 0 1 44.6 25.831l.034 1.317 3.226 6.2h-3.247v13.141h-9.29V57h5v-5.511h9.29V38.348H56.1z"/><path d="M41.341 20.65h-6.007l-6.427-9.029-5.046 9.99-3.763-8.572-4.694 7.61h-4.022v5h6.812l1.156-1.874 4.193 9.552 6.093-12.06 3.12 4.383h8.585v-5z"/></svg>