<svg xmlns="http://www.w3.org/2000/svg" viewBox="0 0 60 60"><path d="M56.99 56.83h-5V46.34L38.37 34.89l3.21-3.83 15.41 12.95v12.82z"/><path fill="none" d="M8.13 7.92v43.89h9.14l-1.23-1.27c-2.87-3.04-2.87-7.96-.02-10.98 1.42-1.51 3.33-2.34 5.37-2.34s3.95.83 5.37 2.34l.28.3V22.5c0-3.18 1.88-5.9 4.54-7.05V7.92H8.13z"/><path fill="none" d="M19.66 42.99c-1.05 1.11-1.05 2.99 0 4.1l4.55 4.72h7.23l-8.32-8.83c-.93-.99-2.53-.99-3.46 0z"/><path d="M27.04 22.5v17.36l-.28-.3c-1.42-1.51-3.33-2.34-5.37-2.34s-3.95.83-5.37 2.34c-2.85 3.02-2.85 7.94.02 10.98l1.23 1.27h6.94l-4.55-4.72c-1.05-1.11-1.05-2.99 0-4.1.93-.99 2.53-.99 3.46 0l8.32 8.83h.14V15.45c-2.66 1.15-4.54 3.87-4.54 7.05zM36.58 15.22v6.45c.08.26.13.54.13.83v20.47h5V22.5c0-3.41-2.16-6.3-5.13-7.28z"/><path d="M8.13 51.81V7.92h23.45v7.52a7.084 7.084 0 0 1 5-.23V2.92H3.13v53.89h18.96l-4.82-5H8.13z"/><path d="M17.27 51.81l4.82 5h6.94l-4.82-5h-6.94zM34.38 14.87c-.99 0-1.93.21-2.8.58v36.36h-.14l.6.64V22.5c0-1.45 1.05-2.63 2.33-2.63 1.03 0 1.89.76 2.2 1.8v-6.45c-.7-.23-1.44-.35-2.2-.35zM18.15 24.05l-5.86-6.21 3.64-3.43 2.22 2.35 5.59-5.92 3.63 3.43-9.22 9.78z"/></svg>