<svg xmlns="http://www.w3.org/2000/svg" viewBox="0 0 60 60"><path d="M30 27.459a2.36 2.36 0 0 1 2.421 2.288h5.007a7.311 7.311 0 0 0-4.92-6.857v-2.61H27.5v2.607A7.272 7.272 0 0 0 30 37.042a2.292 2.292 0 1 1-2.421 2.288h-5.007a7.311 7.311 0 0 0 4.93 6.861V48.8h5.006v-2.61A7.273 7.273 0 0 0 30 32.035a2.292 2.292 0 1 1 0-4.576z"/><path d="M39.945 14.411L44.443 3H15.557L20.1 14.4a22.445 22.445 0 1 0 19.842.008zm-9.822-6.417h6.958l-1.823 4.687a23.362 23.362 0 0 0-5.258-.6 22.92 22.92 0 0 0-5.207.6l-1.881-4.687zM30 52.006a17.467 17.467 0 1 1 17.467-17.467A17.487 17.487 0 0 1 30 52.006z"/></svg>