<svg xmlns="http://www.w3.org/2000/svg" viewBox="0 0 60 60"><path d="M40.283 46.655A5.35 5.35 0 0 1 34.939 52h-9.878a5.35 5.35 0 0 1-5.344-5.344V26.318a5.35 5.35 0 0 1 5.344-5.343h9.878a5.35 5.35 0 0 1 5.344 5.343v20.337zm-5.344-30.68H32.5v-3.5h.114a5.7 5.7 0 0 0 5.7-5.7V3h-5v3.777a.7.7 0 0 1-.7.7h-1.161a3.956 3.956 0 0 0-3.953 3.949v4.549h-2.44a10.356 10.356 0 0 0-10.343 10.343v20.337A10.357 10.357 0 0 0 25.061 57h9.878a10.357 10.357 0 0 0 10.344-10.345V26.318a10.356 10.356 0 0 0-10.344-10.343z"/><path d="M27.501 31.839h5v-6.392h-5v6.392z"/></svg>