<?xml version="1.0" encoding="utf-8"?>
<!-- Generator: Adobe Illustrator 24.3.0, SVG Export Plug-In . SVG Version: 6.00 Build 0)  -->
<svg version="1.1" id="Layer_1" xmlns="http://www.w3.org/2000/svg" xmlns:xlink="http://www.w3.org/1999/xlink" x="0px" y="0px"
	 viewBox="0 0 20 20" style="enable-background:new 0 0 20 20;" xml:space="preserve">
<style type="text/css">
	.st0{fill-rule:evenodd;clip-rule:evenodd;fill:#282B3E;}
</style>
<path class="st0" d="M17.4,1.8c-0.6-0.6-1.5-0.6-2.1,0C15.2,1.8,10,8,10,8S4.6,1.8,4.6,1.8C4,1.2,3,1.2,2.4,1.8C2.1,2.1,2,2.4,2,2.8
	v0v15c0,0.8,0.7,1.5,1.5,1.5S5,18.7,5,17.8v-11c0,0,3.9,4.5,3.9,4.5c0.6,0.6,1.5,0.6,2.1,0c0,0,3.8-4.5,3.8-4.5v10.9
	c0,0.8,0.7,1.5,1.5,1.5c0.8,0,1.5-0.7,1.5-1.5v-15C17.9,2.5,17.7,2.1,17.4,1.8z"/>
</svg>
