<?xml version="1.0" encoding="utf-8"?>
<!-- Generator: Adobe Illustrator 24.3.0, SVG Export Plug-In . SVG Version: 6.00 Build 0)  -->
<svg version="1.1" id="Layer_1" xmlns="http://www.w3.org/2000/svg" xmlns:xlink="http://www.w3.org/1999/xlink" x="0px" y="0px"
	 viewBox="0 0 20 20" style="enable-background:new 0 0 20 20;" xml:space="preserve">
<style type="text/css">
	.st0{fill-rule:evenodd;clip-rule:evenodd;fill:#282B3E;}
</style>
<path class="st0" d="M16.4,19c0.7,0,1.2-0.5,1.2-1.2V2.2c0-0.3-0.1-0.6-0.3-0.8C17,1.1,16.7,1,16.4,1c-0.3,0-0.6,0.1-0.8,0.4
	c0,0-5.7,6.8-5.7,6.8S4.1,1.4,4,1.4c-0.5-0.5-1.2-0.5-1.7,0C2.1,1.6,2,1.9,2,2.2l0,15.6C2,18.4,2.5,19,3.2,19c0.7,0,1.2-0.5,1.2-1.2
	V5.4c0,0,4.6,5.4,4.7,5.4c0.2,0.2,0.5,0.4,0.8,0.4c0.3,0,0.6-0.1,0.8-0.4c0,0,4.5-5.4,4.5-5.4v12.3C15.2,18.4,15.8,19,16.4,19"/>
</svg>
