<svg xmlns="http://www.w3.org/2000/svg" viewBox="0 0 60 60"><switch><g><path d="M50.3 11.1V3H4.2v46.1h8.4v7.6h45.6V11.1h-7.9zm-37.7 33H9.2V8h36.1v3.1H12.6v33zm32.7-28v28H17.6v-28h27.7zM17.6 51.7v-2.6h32.7v-33h2.9v35.6H17.6z"/><path d="M24.7 23.7l3 5.4h2.1v-9.5h-2.2v5.2l-2.9-5.2h-2.2v9.5h2.2zM22.9 32.5h2.2v7.6h2.2v-7.6h2.3v-2h-6.7zM34.9 38v1.9h2.6V38c1.2-.3 2.2-1 2.9-2.1s.9-2.4.6-3.7c-.5-2.2-2.5-3.8-4.7-3.8h-.2c-1.2 0-2.3-1-2.3-2.2.1-1.3 1.1-2.2 2.3-2.2h.1c1.2 0 2.2 1 2.2 2.2v.4H41v-.4c0-2.2-1.5-4.1-3.7-4.7v-1.9h-2.6v1.9c-2.1.6-3.6 2.5-3.7 4.7 0 2.7 2.2 4.9 4.9 4.9.6 0 1.2.3 1.6.7.4.4.6 1 .6 1.6s-.3 1.2-.7 1.6c-.4.4-1 .6-1.6.6-1.2 0-2.2-1-2.2-2.2V33H31v.4c.3 2.1 1.8 4 3.9 4.6z"/></g></switch></svg>