<svg xmlns="http://www.w3.org/2000/svg" viewBox="0 0 60 60"><switch><g><path d="M50.5 2.8H11.9v54l10.4-5.9 8.8 5.8 8.9-5.8 10.4 5.9.1-54zM39.9 45.1l-8.7 5.7-8.7-5.7-5.6 3.2V7.9h28.6v40.4l-5.6-3.2z"/><path d="M27.5 22.9l-3.1-5.5h-2.3v10h2.3v-5.7l3.2 5.7h2.2v-10h-2.3zM22.5 30.9h2.4v8h2.3v-8h2.4v-2h-7.1zM37.9 19.4v-2h-2.8v2c-2.2.6-3.8 2.6-3.8 4.9 0 2.8 2.4 5.1 5.2 5.1.6 0 1.2.3 1.6.8.4.5.6 1.1.6 1.7s-.3 1.2-.8 1.6-1 .7-1.7.6c-1.3-.1-2.3-1.1-2.3-2.4v-.4h-2.8v.4c0 2.3 1.6 4.3 3.8 4.9v2h2.8v-2c1.3-.3 2.3-1.1 3-2.2.7-1.2 1-2.5.7-3.8-.5-2.3-2.6-4-5-4h-.2c-1.3 0-2.4-1-2.4-2.3.1-1.3 1.1-2.4 2.5-2.4h.1c1.3.1 2.3 1.1 2.4 2.3v.4h2.8v-.4c.1-2.2-1.5-4.3-3.7-4.8z"/></g></switch></svg>