<svg xmlns="http://www.w3.org/2000/svg" viewBox="0 0 60 60"><switch><g><path d="M53.6 56.8l-.1-30.3L29.8 2.8 6.5 26.1l-.1 30.7h5V28.4L29.8 9.9l18.8 18.9v28z"/><path d="M25 33.5l-3.9-6.9h-2.8v12.6h2.8V32l4.1 7.2h2.7V26.6H25zM18.7 43.6h3.1v10.1h2.8V43.6h3.1V41h-9zM38.1 29.1v-2.5h-3.5v2.5c-2.8.7-4.8 3.3-4.8 6.2 0 3.6 3 6.4 6.5 6.4h.1c.8 0 1.5.4 2.1.9.5.6.8 1.3.8 2.1s-.4 1.5-.9 2.1c-.6.5-1.3.8-2.1.8-1.6-.1-2.8-1.4-2.8-3V44H30v.6c0 2.9 2 5.5 4.8 6.2v2.5h3.5v-2.5c1.6-.4 2.9-1.4 3.8-2.8.9-1.4 1.2-3.2.9-4.8-.6-2.9-3.3-5-6.3-5h-.2c-1.6 0-3-1.3-3-2.9.1-1.7 1.4-3 3.1-3h.1c1.6.1 2.9 1.4 3 3v.5h3.5v-.6c-.3-2.9-2.2-5.4-5.1-6.1z"/></g></switch></svg>