<svg xmlns="http://www.w3.org/2000/svg" viewBox="0 0 60 60"><switch><g><path d="M53.8 9C51 6 47.1 4.4 43.1 4.4S35.2 6.1 32.5 9l-1.3 1.4L29.9 9c-5.6-5.9-14.8-6.2-20.7-.7-.2.2-.4.4-.6.7-5.6 5.9-5.8 15.2-.5 21.3l23.1 26.4 23.1-26.4c5.4-6.2 5.2-15.4-.5-21.3zm-3.3 18L31.2 49.1 11.9 27c-3.7-4.2-3.5-10.6.3-14.6l.4-.4c3.9-3.7 10-3.5 13.6.4l1.3 1.4 3.6 3.8 3.6-3.8 1.3-1.4c3.7-3.9 9.9-4 13.7-.3l.4.4c4 4 4.1 10.3.4 14.5z"/><path d="M27.8 25l-2.5-4.5h-1.9v8.1h1.9V24l2.6 4.6h1.7v-8.1h-1.8zM23.7 31.4h2v6.5h1.8v-6.5h2v-1.6h-5.8zM36.2 22.1v-1.6H34v1.6c-1.8.5-3.1 2.1-3.1 4 0 2.3 1.9 4.1 4.2 4.1.5 0 1 .2 1.3.6s.5.9.5 1.4-.2 1-.6 1.3c-.4.3-.8.5-1.4.5-1 0-1.8-.9-1.8-1.9v-.4h-2.2v.4c0 1.9 1.3 3.5 3.1 4v1.6h2.2v-1.6c1-.3 1.9-.9 2.4-1.8.6-.9.8-2 .5-3.1-.4-1.9-2.1-3.2-4-3.2H35c-1 0-1.9-.8-1.9-1.9s.9-1.9 2-1.9h.1c1 0 1.9.9 1.9 1.9v.4h2.2v-.4c-.1-1.9-1.3-3.5-3.1-4z"/></g></switch></svg>