<svg xmlns="http://www.w3.org/2000/svg" viewBox="0 0 60 60"><switch><g><path d="M3 2.8v5h7v49h40v-49h7v-5H3zm42 49H15v-44h30v44z"/><path d="M22.2 14.5l3.4 5.9h2.2V10h-2.4v5.7L22.2 10h-2.3v10.4h2.3zM20.2 24.1h2.5v8.3h2.4v-8.3h2.5v-2.2h-7.4zM33.4 30v2.1h2.9V30a4.8 4.8 0 0 0 3.1-2.3c.8-1.2 1-2.6.7-4-.5-2.4-2.7-4.2-5.2-4.2h-.2c-1.4 0-2.5-1.1-2.5-2.4.1-1.4 1.2-2.4 2.5-2.4h.1c1.3.1 2.4 1.1 2.4 2.4v.5h2.9v-.5c0-2.4-1.7-4.5-4-5.1v-2h-2.9v2c-2.3.6-4 2.7-4 5.1 0 2.9 2.4 5.3 5.4 5.3.7 0 1.3.3 1.7.8s.7 1.1.6 1.8c0 .7-.3 1.3-.8 1.7-.5.4-1.1.7-1.8.6-1.3-.1-2.3-1.1-2.3-2.4v-.5h-2.9v.5c.3 2.5 2 4.5 4.3 5.1z"/></g></switch></svg>