<svg xmlns="http://www.w3.org/2000/svg" viewBox="0 0 60 60"><switch><g><path d="M19.8 20.4L12 6.5H7.7v21.7h4.1V13.8l8.1 14.4h4V6.5h-4.1zM8.5 36.4h5.4v18h4.2v-18h5.5v-3.7H8.5zM51 22.1v-.5c-.1-5.2-3.6-9.6-8.7-10.8V6.5H37v4.4c-5 1.1-8.6 5.6-8.7 10.8.1 6.2 5.1 11.1 11.3 11.1 3.2.1 5.7 2.8 5.6 6s-2.8 5.7-6 5.6c-3.1-.1-5.6-2.7-5.6-5.8V38h-5.3v.5c0 5.2 3.6 9.6 8.7 10.8v4.4h5.3v-4.4c6-1.3 9.7-7.2 8.4-13.2-1.1-5.1-5.8-8.8-11-8.7-3.3.1-6-2.5-6-5.8.1-3.3 2.9-5.9 6.3-5.8 3.1.1 5.7 2.6 5.8 5.8v.5H51z"/></g></switch></svg>