<svg xmlns="http://www.w3.org/2000/svg" viewBox="0 0 60 60"><switch><g><path d="M30 2.8c-14.9 0-27 12.1-27 27s12.1 27 27 27 27-12.1 27-27-12.1-26.9-27-27zm0 49c-12.1 0-22-9.8-22-22 0-12.1 9.8-22 22-22 12.1 0 22 9.8 22 22s-9.9 22-22 22z"/><path d="M25 24.1l-3.6-6.3h-2.6v11.4h2.6v-6.5l3.7 6.5h2.4V17.8H25zM19.2 33.2H22v9.1h2.6v-9.1h2.7v-2.3h-8.1zM36.8 20v-2.3h-3.2V20c-2.6.7-4.3 3-4.4 5.6 0 3.2 2.7 5.8 5.9 5.8h.1c.7 0 1.4.3 1.9.9.5.5.7 1.2.7 1.9s-.3 1.4-.9 1.9c-.5.5-1.2.7-1.9.7-1.4-.1-2.6-1.2-2.6-2.7v-.5h-3.1v.5c0 2.7 1.8 4.9 4.4 5.6V42h3.2v-2.3c1.4-.4 2.7-1.3 3.5-2.5.8-1.3 1.1-2.9.8-4.4-.6-2.7-3-4.6-5.7-4.6h-.2c-1.5 0-2.7-1.2-2.7-2.7.1-1.5 1.3-2.7 2.8-2.7h.1c1.4.1 2.6 1.2 2.7 2.7v.5h3.1v-.5c-.1-2.5-1.9-4.8-4.5-5.5z"/></g></switch></svg>