<svg xmlns="http://www.w3.org/2000/svg" viewBox="0 0 60 60"><switch><g><path d="M50.7 12.5h-7.8C41.8 6.1 35.6 1.9 29.2 3c-4.8.9-8.6 4.6-9.5 9.5h-9.1l-7 41h54l-6.9-41zM31.4 7.8c2.9 0 5.5 1.9 6.4 4.7H24.9c.9-2.8 3.5-4.7 6.5-4.7zm-16.5 9.7h31.6l5.3 31H9.7l5.2-31z"/><path d="M27.1 27.9L24 22.4h-2.3v10H24v-5.7l3.2 5.7h2.2v-10h-2.3zM22.1 35.9h2.4v8h2.3v-8h2.4v-2h-7.1zM37.5 24.4v-2h-2.8v2c-2.2.6-3.8 2.6-3.8 4.9 0 2.8 2.4 5.1 5.2 5.1.6 0 1.2.3 1.6.8.4.5.6 1.1.6 1.7 0 .6-.3 1.2-.8 1.6-.5.4-1 .7-1.7.6-1.3-.1-2.3-1.1-2.3-2.4v-.4h-2.8v.4c0 2.3 1.6 4.3 3.8 4.9v2h2.8v-2c1.3-.3 2.3-1.1 3-2.2.7-1.2 1-2.5.7-3.8-.5-2.3-2.6-4-5-4h-.2c-1.3 0-2.4-1-2.4-2.3.1-1.3 1.1-2.4 2.5-2.4h.1c1.3.1 2.3 1.1 2.4 2.3v.4h2.8v-.4c.2-2.2-1.4-4.3-3.7-4.8z"/></g></switch></svg>