<svg xmlns="http://www.w3.org/2000/svg" viewBox="0 0 60 60"><switch><g><path d="M42.1 23.5H57V8.6h-5v5.6C43.4 2.1 26.5-.8 14.4 7.9 2.2 16.5-.6 33.4 8 45.5s25.5 15 37.6 6.3c7.1-5.1 11.3-13.3 11.3-22h-5c0 12.2-9.8 22-22 22.1-12.2 0-22-9.8-22.1-22 0-12.2 9.8-22 22-22.1 7.7 0 14.9 4 18.9 10.6H42v5.1h.1z"/><path d="M27.5 17.7H25V24l-3.6-6.3h-2.6v11.5h2.6v-6.6l3.7 6.6h2.4zM24.6 42.3v-9.1h2.7v-2.3h-8.1v2.3H22v9.1zM41.2 26.1v-.5c0-2.7-1.8-4.9-4.4-5.6v-2.3h-3.2V20c-2.6.7-4.3 3-4.4 5.6 0 3.2 2.7 5.8 5.9 5.8h.1c.7 0 1.4.3 1.9.9.5.5.7 1.2.7 1.9s-.3 1.4-.9 1.9c-.5.5-1.2.7-1.9.7-1.4-.1-2.6-1.2-2.6-2.7v-.5h-3.1v.5c0 2.7 1.8 4.9 4.4 5.6V42h3.2v-2.3c1.4-.4 2.7-1.3 3.5-2.5.8-1.3 1.1-2.9.8-4.4-.6-2.7-3-4.6-5.7-4.6h-.2c-1.5 0-2.7-1.2-2.7-2.7.1-1.5 1.3-2.7 2.8-2.7h.1c1.4.1 2.6 1.2 2.7 2.7v.5l3 .1z"/></g></switch></svg>