<svg xmlns="http://www.w3.org/2000/svg" viewBox="0 0 60 60"><switch><g><path d="M41.1 14.3l4.5-11.4H16.8l4.5 11.4C13.9 17.9 8.7 25.6 8.7 34.4c0 12.4 10.1 22.4 22.4 22.4s22.4-10.1 22.4-22.4c.1-8.8-5-16.5-12.4-20.1zm-9.8-6.4h7l-1.8 4.7c-1.7-.4-3.5-.6-5.3-.6s-3.5.2-5.2.6l-1.9-4.7h7.2zm-.1 43.9c-9.6 0-17.5-7.8-17.5-17.5 0-9.6 7.8-17.5 17.5-17.5 9.6 0 17.5 7.8 17.5 17.5s-7.9 17.5-17.5 17.5z"/><path d="M27.3 29.8l-3-5.3h-2.2v9.7h2.2v-5.5l3.1 5.5h2.1v-9.7h-2.2zM22.5 37.6h2.3v7.8H27v-7.8h2.4v-2h-6.9zM37.4 26.4v-1.9h-2.7v1.9c-2.2.6-3.7 2.5-3.7 4.8 0 2.7 2.3 5 5 5 .6 0 1.2.3 1.6.7.4.4.6 1 .6 1.6s-.3 1.2-.7 1.6c-.4.4-1 .6-1.6.6-1.2 0-2.2-1-2.2-2.3V38H31v.4c0 2.3 1.5 4.2 3.7 4.8v1.9h2.7v-1.9c1.2-.3 2.3-1.1 2.9-2.1.7-1.1.9-2.4.7-3.7-.5-2.3-2.5-3.9-4.8-3.9H36c-1.3 0-2.3-1-2.3-2.3.1-1.3 1.1-2.3 2.4-2.3h.1c1.2.1 2.2 1.1 2.3 2.3v.4h2.7v-.4c-.1-2.3-1.6-4.2-3.8-4.8z"/></g></switch></svg>