<svg xmlns="http://www.w3.org/2000/svg" viewBox="0 0 60 60"><switch><g><path d="M3 11.1v37.5h54V11.1H3zm49 32.5H8V16.1h44v27.5z"/><path d="M43.2 27.4h5.1v5h-5.1zM11.7 27.4h5.1v5h-5.1zM23.3 24.3l2.9 5.1h1.9v-8.9h-2v4.9l-2.8-4.9h-2v8.9h2zM21.6 32.6h2.2v7.1h2v-7.1h2.1v-1.9h-6.3zM32.9 37.7v1.8h2.5v-1.8c1.1-.3 2.1-1 2.7-1.9.7-1 .9-2.2.6-3.4-.5-2.1-2.3-3.6-4.4-3.6h-.1c-1.2 0-2.1-.9-2.1-2.1s1-2.1 2.2-2.1h.1c1.1 0 2 1 2.1 2.1v.4H39v-.4c0-2.1-1.4-3.8-3.4-4.4v-1.8h-2.5v1.8c-2 .5-3.4 2.3-3.4 4.4 0 2.5 2.1 4.5 4.6 4.5.6 0 1.1.3 1.4.7.4.4.6.9.6 1.5s-.3 1.1-.7 1.5-.9.6-1.5.6c-1.1 0-2-1-2-2.1V33h-2.5v.4c-.1 2 1.3 3.7 3.3 4.3z"/></g></switch></svg>