<svg xmlns="http://www.w3.org/2000/svg" viewBox="0 0 60 60"><switch><g><path d="M44.7 3H17.3c-6 0-10.8 4.8-10.8 10.8v35.9l7.3 7.3 4.8-4.8 4.8 4.8 4.8-4.8L33 57l7.3-7.3.2-26.2h13.1V12c0-4.9-3.9-8.9-8.9-9zm-9.2 9l-.3 35.6-2.3 2.3-4.8-4.8-4.8 4.8-4.8-4.8-4.8 4.8-2.3-2.3V13.8c0-3.2 2.6-5.8 5.8-5.8h19.1c-.5 1.3-.8 2.6-.8 4zm13 6.5h-8.1V12c0-2.1 1.6-3.8 3.6-4h.4c2.2 0 4 1.8 4 4v6.5h.1z"/><path d="M19.3 24.7l-2.9-5.3h-2.2V29h2.1v-5.5l3.1 5.5h2.1v-9.6h-2.2zM14.5 32.4h2.3V40H19v-7.6h2.3v-2h-6.8zM29.2 21.3v-1.9h-2.6v1.9c-2.1.6-3.6 2.5-3.7 4.7 0 2.7 2.2 4.9 4.9 4.9.6 0 1.2.3 1.6.7.4.4.6 1 .6 1.6 0 .6-.3 1.2-.7 1.6-.4.4-1 .6-1.6.6-1.2 0-2.2-1-2.2-2.2v-.4h-2.6v.4c0 2.2 1.5 4.1 3.7 4.7v1.9h2.6v-1.9c1.2-.3 2.2-1 2.9-2.1.7-1.1.9-2.4.6-3.7-.5-2.2-2.5-3.8-4.7-3.8h-.2c-1.2 0-2.3-1-2.3-2.2.1-1.3 1.1-2.2 2.3-2.2h.1c1.2 0 2.2 1 2.2 2.2v.4h2.6V26c.2-2.2-1.3-4.1-3.5-4.7z"/></g></switch></svg>