<svg xmlns="http://www.w3.org/2000/svg" viewBox="0 0 60 60"><switch><g><path d="M53.5 24.9L31.9 46.4l-7.5-7.6-3.6 3.5 11.1 11.2 25.1-25zM12.3 14.5L8.9 8.6H6.5v10.7h2.4v-6.1l3.5 6.1h2.3V8.6h-2.4zM6.9 23.1h2.6v8.5h2.4v-8.5h2.6v-2.2H6.9zM23.4 31.3v-2.1c1.3-.3 2.5-1.2 3.2-2.3.8-1.2 1-2.7.7-4.1-.6-2.5-2.8-4.3-5.3-4.3h-.2c-1.4 0-2.5-1.1-2.6-2.5.1-1.4 1.2-2.5 2.6-2.5h.1c1.4.1 2.5 1.2 2.5 2.5v.5h3V16c0-2.5-1.7-4.6-4.1-5.3V8.6h-3v2.1c-2.4.6-4.1 2.8-4.1 5.3 0 3 2.5 5.5 5.5 5.5h.1c.7 0 1.3.3 1.7.8.5.5.7 1.1.7 1.8s-.3 1.3-.8 1.7c-.5.5-1.1.7-1.8.7-1.4-.1-2.4-1.2-2.4-2.5v-.5h-3v.5c0 2.5 1.7 4.6 4.1 5.3v2.1h3.1v-.1z"/></g></switch></svg>