<svg xmlns="http://www.w3.org/2000/svg" viewBox="0 0 60 60"><switch><g><path d="M23.9 44.6c11.5 0 20.8-9.3 20.9-20.9 0-11.5-9.3-20.9-20.9-20.9C12.4 2.8 3 12.2 3 23.7s9.4 20.9 20.9 20.9zM8 23.7c0-8.8 7.1-15.9 15.9-15.9s15.9 7.1 15.9 15.9-7.1 15.9-15.9 15.9S8 32.5 8 23.7z"/><path d="M53.3 24.1c-1.5-2.1-3.3-3.9-5.4-5.4.3 1.6.5 3.3.5 4.9 0 .7 0 1.4-.1 2.1 5.6 6.7 4.7 16.7-2 22.3-5.9 5-14.4 5.1-20.3.2-.7.1-1.5.1-2.3.1-1.6 0-3.2-.2-4.8-.5 6.5 9.5 19.5 11.8 29 5.3s11.9-19.5 5.4-29zM20.5 19.5l-2.7-4.9h-2v8.9h2v-5.1l2.8 5.1h2v-8.9h-2.1zM16.1 26.6h2.1v7.1h2.1v-7.1h2.1v-1.8h-6.3zM27.3 31.7v1.8h2.5v-1.8c1.1-.3 2.1-1 2.7-1.9.7-1 .9-2.2.6-3.4-.5-2.1-2.3-3.6-4.4-3.6h-.1c-1.2 0-2.1-.9-2.1-2.1s1-2.1 2.2-2.1h.1c1.1 0 2 1 2.1 2.1v.4h2.5v-.4c0-2.1-1.4-3.8-3.4-4.4v-1.8h-2.5v1.8c-2 .5-3.4 2.3-3.4 4.4 0 2.5 2.1 4.5 4.6 4.5.6 0 1.1.3 1.4.7.4.4.6.9.6 1.5s-.3 1.1-.7 1.5c-.4.4-.9.6-1.5.6-1.1 0-2-1-2-2.1V27H24v.4c-.1 2 1.3 3.8 3.3 4.3z"/></g></switch></svg>