<svg xmlns="http://www.w3.org/2000/svg" viewBox="0 0 60 60"><switch><g><path d="M8.2 32.5h-5c1.2 12.9 11.4 23.1 24.3 24.4v-5C17.3 50.6 9.3 42.6 8.2 32.5zM27.4 7.9v-5C14.5 4.1 4.3 14.3 3.1 27.2h5C9.3 17.1 17.3 9.1 27.4 7.9zM51.8 27.2h5C55.7 14.3 45.4 4 32.4 2.8v5C42.6 9 50.7 17 51.8 27.2zM32.4 51.8v5c13-1.2 23.3-11.4 24.5-24.4h-5c-1.2 10.2-9.3 18.3-19.5 19.4zM25 24.1l-3.6-6.3h-2.6v11.4h2.6v-6.5l3.7 6.5h2.4V17.8H25zM24.6 42.3v-9.1h2.7v-2.3h-8.1v2.3H22v9.1zM33.7 42h3.2v-2.3c1.4-.4 2.7-1.3 3.5-2.5.8-1.3 1.1-2.9.8-4.4-.6-2.7-3-4.6-5.7-4.6h-.2c-1.5 0-2.7-1.2-2.7-2.7.1-1.5 1.3-2.7 2.8-2.7h.1c1.4.1 2.6 1.2 2.7 2.7v.5h3.1v-.5c0-2.7-1.8-4.9-4.4-5.6v-2.3h-3.2V20c-2.6.7-4.3 3-4.4 5.6 0 3.2 2.7 5.8 5.9 5.8h.1c.7 0 1.4.3 1.9.9.5.5.7 1.2.7 1.9s-.3 1.4-.9 1.9c-.5.5-1.2.7-1.9.7-1.4-.1-2.6-1.2-2.6-2.7v-.5h-3.1v.5c0 2.7 1.8 4.9 4.4 5.6l-.1 2.3z"/></g></switch></svg>