<svg xmlns="http://www.w3.org/2000/svg" viewBox="0 0 60 60"><switch><g><path d="M41 2.9H7.7v54h47V16.5L41 2.9zm8.7 48.9h-37v-44h26.2l10.8 10.8v33.2z"/><path d="M26.1 24l-3.5-6.3H20v11.5h2.6v-6.6l3.7 6.6h2.4V17.7h-2.6zM20.4 33.2h2.8v9.1h2.6v-9.1h2.7v-2.3h-8.1zM38 17.8h-3.2V20c-2.6.7-4.3 3-4.4 5.6 0 3.2 2.7 5.8 5.9 5.8h.1c.7 0 1.4.3 1.9.9.5.5.7 1.2.7 1.9s-.3 1.4-.9 1.9c-.5.5-1.2.7-1.9.7-1.4-.1-2.6-1.2-2.6-2.7v-.5h-3.1v.5c0 2.7 1.8 4.9 4.4 5.6V42H38v-2.3c1.4-.4 2.7-1.3 3.5-2.5.8-1.3 1.1-2.9.8-4.4-.6-2.7-3-4.6-5.7-4.6h-.2c-1.5 0-2.7-1.2-2.7-2.7.1-1.5 1.3-2.7 2.8-2.7h.1c1.4.1 2.6 1.2 2.7 2.7v.5h3.1v-.5c0-2.7-1.8-4.9-4.4-5.6v-2.1z"/></g></switch></svg>