<svg xmlns="http://www.w3.org/2000/svg" viewBox="0 0 60 60"><switch><g><path d="M16.2 18.6c0-2 1.7-3.7 3.7-3.7h21.9l-3.7 3.7 3.5 3.5 9.6-9.6-9.6-9.6-3.5 3.5 3.5 3.5H19.9c-4.8 0-8.7 3.9-8.7 8.7v8.3h5v-8.3zM46.2 41.1c0 2-1.7 3.7-3.7 3.7H20.6l3.7-3.7-3.5-3.5-9.6 9.6 9.6 9.6 3.5-3.5-3.5-3.5h21.6c4.8 0 8.7-3.9 8.7-8.7v-8.4h-5l.1 8.4z"/><path d="M30.5 21.1h-1.9v4.6L26 21.1h-1.9v8.3H26v-4.8l2.7 4.8h1.8zM28.3 39v-6.7h2v-1.7h-5.9v1.7h2V39zM40.4 27.2v-.4c0-1.9-1.3-3.6-3.2-4.1v-1.6H35v1.6c-1.9.5-3.2 2.2-3.2 4.1 0 2.4 2 4.2 4.3 4.2.5 0 1 .2 1.4.6s.5.9.5 1.4-.2 1-.6 1.4c-.4.4-.9.6-1.5.6-1.1 0-1.9-.9-1.9-2v-.4h-2.3v.4c0 1.9 1.3 3.6 3.2 4.1v1.6h2.3v-1.6c1-.3 1.9-.9 2.5-1.8.6-1 .8-2.1.6-3.2-.4-1.9-2.2-3.3-4.1-3.3h-.1c-1.1 0-2-.9-2-1.9 0-1.1 1-2 2-2h.1c1.1 0 1.9.9 2 1.9v.4h2.2z"/></g></switch></svg>