<svg xmlns="http://www.w3.org/2000/svg" viewBox="0 0 60 60"><switch><g><path d="M49.1 22.1V10.9H37.9L30 3l-7.9 7.9H10.9v11.2L3 30l7.9 7.9v11.2H22l8 7.9 7.9-7.9h11.2V38l7.9-8-7.9-7.9zm-5 13.8V44h-8.3L30 49.9l-5.8-5.8H16v-8.3L10.1 30l5.8-5.8V16h8.2l5.8-5.8 5.8 5.8H44v8.2l5.9 5.9-5.8 5.8z"/><path d="M26.6 25l-3-5.3h-2.1v9.6h2.1v-5.5l3.1 5.5h2.1v-9.6h-2.2zM21.8 32.7h2.3v7.6h2.2v-7.6h2.3v-2h-6.8zM36.5 21.6v-1.9h-2.6v1.9c-2.1.6-3.6 2.5-3.7 4.7 0 2.7 2.2 4.9 4.9 4.9.6 0 1.2.3 1.6.7.4.4.6 1 .6 1.6s-.3 1.2-.7 1.6c-.4.4-1 .6-1.6.6-1.2 0-2.2-1-2.2-2.2V33h-2.6v.4c0 2.2 1.5 4.1 3.7 4.7V40h2.6v-1.9c1.2-.3 2.2-1 2.9-2.1s.9-2.4.6-3.7c-.5-2.2-2.5-3.8-4.7-3.8h-.2c-1.2 0-2.3-1-2.3-2.2.1-1.3 1.1-2.2 2.3-2.2h.1c1.2 0 2.2 1 2.2 2.2v.4H40v-.4c.1-2.2-1.3-4.1-3.5-4.7z"/></g></switch></svg>