<svg xmlns="http://www.w3.org/2000/svg" viewBox="0 0 60 60"><switch><g><path d="M37.4 18.2C26.7 18.2 18 26.9 18 37.6S26.7 57 37.4 57s19.4-8.7 19.4-19.4-8.7-19.3-19.4-19.4zm0 34.1c-8.1 0-14.7-6.6-14.7-14.7s6.6-14.7 14.7-14.7 14.7 6.6 14.7 14.7-6.6 14.7-14.7 14.7z"/><path d="M37 35l-3.6-3.6-3.5 3.5 7 7.2 10.8-10.8-3.5-3.5zM8.2 8.4L5.2 3H3v9.7h2.2V7.2l3.1 5.5h2.1V3H8.2zM3.4 16.2h2.3v7.7h2.2v-7.7h2.4v-2H3.4zM18.3 23.7v-1.9c1.2-.3 2.3-1.1 2.9-2.1.7-1.1.9-2.4.7-3.7-.5-2.3-2.5-3.9-4.8-3.9h-.2c-1.3 0-2.3-1-2.3-2.3.1-1.3 1.1-2.3 2.4-2.3h.1c1.2.1 2.2 1.1 2.3 2.3v.4h2.7v-.5c0-2.3-1.5-4.2-3.7-4.8V3h-2.7v1.9c-2.2.6-3.7 2.5-3.7 4.8 0 2.7 2.3 5 5 5 .6 0 1.2.3 1.6.7s.6 1 .6 1.6c0 .6-.3 1.2-.7 1.6-.4.4-1 .6-1.6.6-1.2 0-2.2-1-2.2-2.3v-.4H12v.4c0 2.3 1.5 4.2 3.7 4.8v1.9h2.6v.1z"/></g></switch></svg>