<svg xmlns="http://www.w3.org/2000/svg" viewBox="0 0 60 60"><path d="M3 38.45h54.02v5H3z"/><path d="M42.04 41.33l-4.69-1.72s-.05.07-.08.27c.02-.09.34-2.33-1.91-10.4-1.71-6.12-7.2-10.36-11.2-12.72l5.05 22.81-4.88 1.08-7.18-32.44 4.32 1.63c.62.23 15.25 5.88 18.71 18.29 1.87 6.7 2.53 11.38 1.86 13.2z"/><path d="M16.84 40.35l-4.83-22.34h3.11c6.46.04 8.92 1.51 9.84 2.74l-4 3c.09.11.16.17.16.17-.38-.26-1.5-.52-2.87-.69l3.47 16.06-4.89 1.06z"/><path d="M10.31 42.24L5.93 22.01l3.17.07c.46.01 4.6.13 7.46 1.19l-1.73 4.69c-.74-.27-1.69-.46-2.63-.6l2.99 13.82-4.89 1.06zM26.9 37.28l-3.19-3.85c.32-.26 7.85-6.49 13.37-9.16 6.87-3.33 15.69-3.13 16.07-3.12l3.98.11-7.56 14.62-4.44-2.3 3.74-7.24c-2.79.27-6.51.92-9.61 2.42-4.97 2.41-12.29 8.45-12.36 8.51z"/><path d="M51.17 40.28l-4.99-.34 2.49.17-2.5-.15s.11-2.71-1.76-4.46c-2.96-2.77-5.82-3.48-5.85-3.48l1.09-4.88c.17.04 4.15.95 8.17 4.71 3.63 3.4 3.34 8.23 3.33 8.43zM20.8 53.37c-1.81 0-3.61-.51-5.17-1.52l-.98-.63a5.045 5.045 0 0 0-4.59-.45l-2.23.88L5.99 47l2.23-.88c3.01-1.19 6.43-.85 9.15.91l.98.63c1.33.86 3.04.96 4.47.25l2.78-1.39c2.87-1.44 6.3-1.42 9.15.05l2.52 1.29c1.42.73 3.12.63 4.44-.25l.98-.65a9.568 9.568 0 0 1 10.62-.03l.48.32-2.76 4.17-.48-.32a4.597 4.597 0 0 0-5.09.01l-.98.65a9.376 9.376 0 0 1-9.51.54l-2.52-1.29a5.116 5.116 0 0 0-4.62-.02l-2.78 1.39c-1.34.67-2.8 1-4.25 1z"/></svg>