<svg xmlns="http://www.w3.org/2000/svg" viewBox="0 0 60 60"><path d="M32.809 23.472L10.3 23.34l.356-2.8a11 11 0 0 1 10.906-9.6h.07a11 11 0 0 1 10.852 9.723zM16.74 18.378l9.688.056a6 6 0 0 0-4.828-2.488 6.1 6.1 0 0 0-4.86 2.432z"/><path d="M27.194 23.472l.324-2.8a11 11 0 0 1 10.853-9.722h.07a11 11 0 0 1 10.9 9.6l.357 2.8zm11.247-7.526H38.4a6 6 0 0 0-4.827 2.488l9.689-.056a6 6 0 0 0-4.821-2.432z"/><path d="M19.6 37.047l-1.9-2.089a11 11 0 0 1 1.853-16.4l2.866 4.1a6.127 6.127 0 0 0-1.106 1 6 6 0 0 0-1.308 5.277l8.681-10.046 3.783 3.269z"/><path d="M40.12 37.047L27.248 22.152l3.783-3.269 8.682 10.046a6.021 6.021 0 0 0-2.413-6.276l2.866-4.1a11 11 0 0 1 1.853 16.4z"/><path d="M27.5 18.446h5V57h-5z"/><path d="M31.1 24.357l-2.215-1.749A11 11 0 0 1 40.256 3.974l2.568 1.169zM35.218 8.01a6 6 0 0 0-5.046 8.271z"/></svg>