<svg xmlns="http://www.w3.org/2000/svg" viewBox="0 0 60 60"><path d="M3 26.693h6.684v5H3zM6.83 18.135l3.535-3.536 4.726 4.726-3.535 3.536zM19.075 11.105h5v6.686h-5zM29 18.422l4.727-4.728 3.535 3.535-4.728 4.728zM5.33 40.254l4.727-4.728 3.535 3.535-4.728 4.727z"/><path d="M48.1 32.212h-.041A11.366 11.366 0 0 0 31.5 24.186a10.518 10.518 0 1 0-15.623 13.743A7.183 7.183 0 0 0 21.151 50H48.1a8.894 8.894 0 1 0 0-17.788zm-25.428-7.834a5.526 5.526 0 1 1-5.525 5.522 5.532 5.532 0 0 1 5.525-5.522zM48.1 45H21.151a2.186 2.186 0 0 1-.8-4.222l-.278-.687.278.686a2.217 2.217 0 0 1 .58-.147l1.853-.206A10.535 10.535 0 0 0 33.2 29.9c0-.294-.02-.582-.044-.87a6.316 6.316 0 0 1 3.7-1.2 6.386 6.386 0 0 1 6.38 6.377v3H48.1a3.894 3.894 0 1 1 0 7.793z"/></svg>