<svg xmlns="http://www.w3.org/2000/svg" viewBox="0 0 60 60"><path d="M46.7 35.762h-7.237a2.136 2.136 0 0 1 0-4.223h2.679v-5h-2.679a7.118 7.118 0 0 0 0 14.223H46.7a5.385 5.385 0 0 1 5.1 5.619A5.385 5.385 0 0 1 46.7 52H21.437l5.733-6.484c5.259-6 5.226-14.557-.071-19.9a14.073 14.073 0 0 0-9.966-4.168h-.122a14.08 14.08 0 0 0-9.963 4.166c-5.3 5.346-5.342 13.892-.1 19.878l10.073 11.5V57H46.7a10.381 10.381 0 0 0 10.1-10.619 10.381 10.381 0 0 0-10.1-10.619zM10.712 42.2c-3.494-3.988-3.542-9.6-.108-13.068a9.049 9.049 0 0 1 6.407-2.681h.122a9.048 9.048 0 0 1 6.409 2.682c3.432 3.462 3.375 9.089-.125 13.081l-6.377 7.209zM46.316 16.037a2.591 2.591 0 1 0-1.836-.757 2.587 2.587 0 0 0 1.837.757z"/><path d="M46.28 29.944L54 21.213c3.971-4.529 3.935-11-.08-15.052A10.724 10.724 0 0 0 46.276 3a10.673 10.673 0 0 0-7.557 3.159 10.937 10.937 0 0 0-.1 15.038zM42.274 9.673a5.72 5.72 0 0 1 8.09 0 6 6 0 0 1-.117 8.233l-3.947 4.47-3.921-4.476a5.992 5.992 0 0 1-.105-8.227zM17.072 31.535a3.672 3.672 0 1 0 2.6 1.072 3.662 3.662 0 0 0-2.6-1.072z"/></svg>