<svg xmlns="http://www.w3.org/2000/svg" viewBox="0 0 60 60"><path d="M10.623 14.769a2.363 2.363 0 0 1-2.423-2.29 2.363 2.363 0 0 1 2.424-2.291 2.364 2.364 0 0 1 2.424 2.291h5.012a7.319 7.319 0 0 0-4.925-6.866V3H8.122v2.61a7.318 7.318 0 0 0-4.936 6.869 7.38 7.38 0 0 0 7.437 7.3 2.294 2.294 0 1 1 0 4.581A2.362 2.362 0 0 1 8.2 22.073H3.186a7.318 7.318 0 0 0 4.936 6.868v2.61h5.012v-2.613a7.281 7.281 0 0 0-2.511-14.169zM37.437 18.246a19.377 19.377 0 1 0 19.377 19.377 19.4 19.4 0 0 0-19.377-19.377zm0 34.057a14.68 14.68 0 1 1 14.68-14.68A14.7 14.7 0 0 1 37.437 52.3z"/><path d="M36.959 34.997l-3.515-3.586-3.558 3.519 7.047 7.159 10.808-10.773-3.533-3.545-7.249 7.226z"/></svg>