<svg xmlns="http://www.w3.org/2000/svg" viewBox="0 0 60 60"><g fill="#282b3e"><path d="M42.15 23.617H57V8.768h-5v5.604A26.981 26.981 0 1 0 57 30h-5a22.025 22.025 0 1 1-3.185-11.383h-6.664z"/><path d="M40.183 25.336v-8.469h4.323a19.765 19.765 0 1 0 4.498 8.469zM30 27.494a7.281 7.281 0 0 1 2.511 14.169v2.613H27.5v-2.61a7.319 7.319 0 0 1-4.935-6.869h5.012A2.428 2.428 0 1 0 30 32.507a7.28 7.28 0 0 1-2.501-14.172v-2.61h5.012v2.612a7.32 7.32 0 0 1 4.925 6.866h-5.012A2.428 2.428 0 1 0 30 27.494z"/></g></svg>