<svg xmlns="http://www.w3.org/2000/svg" viewBox="0 0 60 60"><path d="M46.472 22.25a1.884 1.884 0 1 1-1.884 1.884 1.886 1.886 0 0 1 1.884-1.884zm-16.333-4a1.885 1.885 0 1 1-1.884 1.885 1.885 1.885 0 0 1 1.884-1.885zm-16.334 4a1.884 1.884 0 1 1-1.883 1.884 1.886 1.886 0 0 1 1.883-1.884zm40.07 8.337a10.7 10.7 0 0 0-2.364-1.778 6.884 6.884 0 1 0-10.174-.109 10.514 10.514 0 0 0-1.608 1.061 10.605 10.605 0 0 0-4.551-4.96A6.884 6.884 0 1 0 25 24.7a10.641 10.641 0 0 0-4.732 5.066 10.565 10.565 0 0 0-1.427-.955A6.884 6.884 0 1 0 8.67 28.7 10.69 10.69 0 0 0 3 38.134v8.621h5v-8.623a5.667 5.667 0 1 1 11.334 0v8.625h5V34.128a5.666 5.666 0 1 1 11.332 0v12.627h5v-8.621A5.667 5.667 0 1 1 52 38.13v8.625h5V38.13a10.6 10.6 0 0 0-3.125-7.543z"/></svg>