<svg xmlns="http://www.w3.org/2000/svg" viewBox="0 0 60 60"><switch><g><path d="M48.7 10.5C43.7 5.7 37 3 30 3 15.1 3 3 15.1 3 30c0 7.1 2.8 14 7.9 19.1l3.5-3.5c-8.6-8.6-8.6-22.5 0-31.1 7.9-7.9 20.5-8.6 29.2-1.6l-5 5 3.5 3.5 5-5c6.9 8.6 6.3 21-1.4 28.9l3.6 3.5c10.5-10.8 10.2-27.9-.6-38.3z"/><path d="M31.7 19.8h-8v4.4h-2.5V27h2.5v2.1h-2.5v2.8h2.5v11H27v-6.6h3.6c2.7 0 5.5-1.6 6.9-4.4H40v-2.8h-1.6c0-.3.1-.7.1-1 0-.4 0-.7-.1-1.1H40v-2.8h-2.5c-1.2-2.4-3.2-4.4-5.8-4.4zM27 22.4h3.9c1.3 0 2.2.7 2.9 1.7H27v-1.7zm3.2 11.3H27V32h6.6c-.8 1-2 1.7-3.4 1.7zm4.8-5.6c0 .3 0 .6-.1 1H27V27h7.9c0 .4.1.8.1 1.1z"/></g></switch></svg>