<svg xmlns="http://www.w3.org/2000/svg" viewBox="0 0 60 60"><switch><g><path d="M27.4 8.1V3C14.5 4.3 4.3 14.5 3.1 27.4h5C9.3 17.3 17.3 9.3 27.4 8.1zM51.8 27.4h5C55.7 14.4 45.4 4.2 32.4 3v5c10.2 1.2 18.3 9.2 19.4 19.4zM32.4 52v5c13-1.2 23.3-11.4 24.5-24.4h-5C50.7 42.8 42.6 50.8 32.4 52zM8.2 32.6h-5C4.3 45.5 14.5 55.7 27.4 57v-5C17.3 50.7 9.3 42.7 8.2 32.6zM38.4 31.1h2.7V28h-1.8c0-.4.1-.8.1-1.1 0-.4 0-.8-.1-1.3h1.8v-3.2h-2.8c-1.3-2.7-3.6-4.9-6.5-4.9h-9v4.9H20v3.2h2.8V28H20v3.2h2.8v12.3h3.7V36h4c3.1 0 6.3-1.8 7.9-4.9zM26.6 20.5H31c1.4 0 2.5.8 3.3 1.9h-7.6l-.1-1.9zm3.6 12.6h-3.6v-1.9H34c-.9 1.1-2.2 1.9-3.8 1.9zm5.3-5.1h-8.9v-2.4h8.8c.1.5.1.9.1 1.3.1.3 0 .7 0 1.1z"/></g></switch></svg>