<svg xmlns="http://www.w3.org/2000/svg" viewBox="0 0 60 60"><switch><g><path d="M15 18.7c0-2 1.7-3.7 3.7-3.7h21.9l-3.7 3.7 3.5 3.5 9.6-9.6L40.4 3l-3.5 3.5 3.5 3.5H18.7c-4.8 0-8.7 3.9-8.7 8.7V27h5v-8.3zM45 41.3c0 2-1.7 3.7-3.7 3.7H19.4l3.7-3.7-3.5-3.5-9.6 9.6 9.6 9.6 3.5-3.5-3.4-3.5h21.6c4.8 0 8.7-3.9 8.7-8.7v-8.4h-5v8.4z"/><path d="M40 24.2h-2.2c-1-2.1-2.9-3.9-5.2-3.9h-7.2v3.9H23v2.5h2.3v1.9H23v2.5h2.3V41h3v-6h3.2c2.4 0 5-1.5 6.2-3.9H40v-2.5h-1.4c0-.3.1-.6.1-.9s0-.7-.1-1H40v-2.5zm-11.7-1.6h3.5c1.1 0 2 .7 2.6 1.6h-6.1v-1.6zm2.9 10.2h-2.9v-1.6h6c-.8 1-1.9 1.6-3.1 1.6zm4.2-4.1h-7.1v-1.9h7.1c.1.4.1.7.1 1.1 0 .2 0 .5-.1.8z"/></g></switch></svg>