<svg xmlns="http://www.w3.org/2000/svg" viewBox="0 0 60 60"><switch><g><path d="M52.6 9.1C49.8 6.2 46 4.5 41.9 4.5c-4 0-7.9 1.7-10.6 4.6L30 10.5l-1.3-1.4C23.1 3.2 13.9 3 8 8.5l-.6.6C1.7 15 1.5 24.3 6.9 30.4L30 56.9l23.1-26.4c5.4-6.2 5.2-15.5-.5-21.4zm-3.3 18.1L30 49.3 10.7 27.2C7 22.9 7.1 16.6 11 12.5l.4-.4c3.9-3.7 10-3.5 13.6.4l1.3 1.4 3.6 3.8 3.6-3.8 1.3-1.4c3.7-3.9 9.9-4 13.7-.3l.4.4c4 4 4.1 10.4.4 14.6z"/><path d="M31.9 19.6h-7.1v3.9h-2.2V26h2.2v1.9h-2.2v2.5h2.2V40h2.9v-5.8h3.2c2.4 0 4.9-1.4 6.1-3.9h2.2v-2.5h-1.4c0-.3.1-.6.1-.9s0-.7-.1-1h1.4v-2.5H37c-1-2.1-2.8-3.8-5.1-3.8zm-4.2 2.3h3.4c1.1 0 2 .6 2.6 1.5h-6v-1.5zm2.8 10h-2.8v-1.5h5.9c-.8.8-1.8 1.5-3.1 1.5zm4.2-4.1h-7v-1.9h7c.1.4.1.7.1 1 0 .4 0 .6-.1.9z"/></g></switch></svg>