<svg xmlns="http://www.w3.org/2000/svg" viewBox="0 0 60 60"><switch><g><path d="M49.1 22.1V10.9H37.9L30 3l-7.9 7.9H10.9v11.2L3 30l7.9 7.9v11.2H22l8 7.9 7.9-7.9h11.2V38l7.9-8-7.9-7.9zm-5 13.8V44h-8.3L30 49.9l-5.8-5.8H16v-8.3L10.1 30l5.8-5.8V16h8.2l5.8-5.8 5.8 5.8H44v8.2l5.9 5.9-5.8 5.8z"/><path d="M31.8 19.6h-7.1v3.9h-2.2V26h2.2v1.9h-2.2v2.5h2.2V40h2.9v-5.8h3.2c2.4 0 4.9-1.4 6.1-3.9h2.2v-2.5h-1.4c0-.3.1-.6.1-.9s0-.7-.1-1h1.4v-2.5h-2.2c-1-2.1-2.8-3.8-5.1-3.8zm-4.2 2.3H31c1.1 0 2 .6 2.6 1.5h-6v-1.5zm2.8 10h-2.8v-1.5h5.9c-.8.8-1.8 1.5-3.1 1.5zm4.3-4.9c0 .3 0 .6-.1.9h-7V26h7c.1.3.1.6.1 1z"/></g></switch></svg>