<svg xmlns="http://www.w3.org/2000/svg" viewBox="0 0 60 60"><switch><g><path d="M30 3C15.1 3 3 15.1 3 30s12.1 27 27 27 27-12.1 27-27S44.9 3 30 3zm0 49C17.9 52 8 42.1 8 30S17.9 8 30 8s22 9.8 22 22c0 12.1-9.9 22-22 22z"/><path d="M31.9 17.5h-9v4.9h-2.8v3.2h2.8V28h-2.8v3.2h2.8v12.3h3.7V36h4c3 0 6.2-1.8 7.8-4.9h2.7V28h-1.8c0-.4.1-.8.1-1.1 0-.4 0-.8-.1-1.3h1.8v-3.2h-2.8c-1.2-2.7-3.5-4.9-6.4-4.9zm-5.3 3H31c1.4 0 2.5.8 3.3 1.9h-7.6l-.1-1.9zm3.6 12.6h-3.6v-1.9H34c-.9 1.1-2.2 1.9-3.8 1.9zm5.4-6.2c0 .4 0 .7-.1 1.1h-8.9v-2.4h8.8c.1.4.2.9.2 1.3z"/></g></switch></svg>