<svg xmlns="http://www.w3.org/2000/svg" viewBox="0 0 60 60"><switch><g><path d="M37.4 18.2C26.7 18.2 18 26.9 18 37.6S26.7 57 37.4 57s19.4-8.7 19.4-19.4-8.7-19.3-19.4-19.4zm0 34.1c-8.1 0-14.7-6.6-14.7-14.7s6.6-14.7 14.7-14.7 14.7 6.6 14.7 14.7-6.6 14.7-14.7 14.7z"/><path d="M37 35l-3.6-3.6-3.5 3.5 7 7.2 10.8-10.8-3.5-3.5zM19.5 14.8H22V12h-1.6c0-.3.1-.7.1-1 0-.4 0-.7-.1-1.1H22V7h-2.5c-1.1-2.4-3.2-4.4-5.8-4.4H5.5V7H3v2.8h2.5V12H3v2.8h2.5v11.1h3.4v-6.7h3.6c2.7.1 5.6-1.6 7-4.4zM8.9 5.2h3.9c1.3 0 2.2.7 2.9 1.8H8.9V5.2zm3.2 11.4H8.9v-1.8h6.7c-.9 1.1-2.1 1.8-3.5 1.8zm4.8-4.6h-8V9.8h7.9c.1.4.1.8.1 1.2.1.4 0 .7 0 1z"/></g></switch></svg>