<svg xmlns="http://www.w3.org/2000/svg" viewBox="0 0 60 60"><switch><g><path d="M23.9 44.7c11.5 0 20.8-9.3 20.9-20.9C44.8 12.3 35.4 3 23.9 3S3 12.3 3 23.9s9.4 20.8 20.9 20.8zM8 23.9C8 15.1 15.1 8 23.9 8s15.9 7.1 15.9 15.9-7.1 15.9-15.9 15.9C15.1 39.7 8 32.6 8 23.9z"/><path d="M53.3 24.3c-1.5-2.1-3.3-3.9-5.4-5.4.3 1.6.5 3.3.5 4.9 0 .7 0 1.4-.1 2.1 5.6 6.7 4.7 16.7-2 22.3-5.9 4.9-14.4 4.9-20.3.1-.7.1-1.5.1-2.3.1-1.6 0-3.2-.2-4.8-.5 6.5 9.5 19.5 11.8 29 5.3 9.5-6.5 11.9-19.4 5.4-28.9zM30.8 24.5H33V22h-1.4c0-.3.1-.6.1-.9s0-.7-.1-1H33v-2.5h-2.2c-1-2.1-2.8-3.9-5.1-3.9h-7.1v3.9h-2.2v2.5h2.2V22h-2.2v2.5h2.2v9.7h2.9v-5.8h3.2c2.4 0 4.9-1.5 6.1-3.9zm-9.2-8.4H25c1.1 0 2 .6 2.6 1.5h-6v-1.5zm0 4h7c.1.4.1.7.1 1s0 .6-.1.9h-7v-1.9zm0 5.9v-1.5h5.9c-.7.9-1.8 1.5-3 1.5h-2.9z"/></g></switch></svg>