<svg xmlns="http://www.w3.org/2000/svg" viewBox="0 0 60 60"><switch><g><path d="M49.3 3H10.7v54l10.4-5.9 8.8 5.8 8.9-5.8L49.3 57V3zM38.7 45.3L30 50.9l-8.7-5.7-5.6 3.2V8h28.6v40.4l-5.6-3.1z"/><path d="M31.4 14.7h-8v4.4h-2.5v2.8h2.5V24h-2.5v2.8h2.5v11h3.3v-6.6h3.6c2.7 0 5.5-1.6 6.9-4.4h2.5V24h-1.6c0-.3.1-.7.1-1 0-.4 0-.7-.1-1.1h1.6v-2.8h-2.5c-1.1-2.4-3.2-4.4-5.8-4.4zm-4.7 2.6h3.9c1.3 0 2.2.7 2.9 1.7h-6.8v-1.7zm3.2 11.3h-3.2v-1.7h6.6c-.8 1-2 1.7-3.4 1.7zm4.7-4.6h-7.9v-2.1h7.9c.1.4.1.8.1 1.2 0 .3 0 .6-.1.9z"/></g></switch></svg>