<svg xmlns="http://www.w3.org/2000/svg" viewBox="0 0 60 60"><switch><g><path d="M42.2 23.6H57V8.8h-5v5.6C43.4 2.2 26.5-.6 14.4 8S-.6 33.5 8 45.7c8.6 12.1 25.5 15 37.6 6.3C52.8 46.9 57 38.7 57 30h-5c0 12.2-9.8 22-22 22.1-12.2 0-22-9.8-22.1-22 0-12.2 9.8-22 22-22.1 7.7 0 14.9 4 18.9 10.6h-6.7v5h.1z"/><path d="M40.4 23h-2.6c-1.2-2.5-3.3-4.5-6-4.5h-8.3V23h-2.6v2.9h2.6v2.2h-2.6V31h2.6v11.4H27v-6.9h3.7c2.8 0 5.7-1.7 7.2-4.5h2.6v-2.9h-1.7c0-.3.1-.7.1-1.1s0-.8-.1-1.2h1.7V23h-.1zm-13.5-1.8h4c1.3 0 2.3.8 3 1.8h-7.1l.1-1.8zm3.3 11.7h-3.3v-1.8h6.9c-.9 1-2.1 1.8-3.6 1.8zm4.9-4.8h-8.2v-2.2h8.2c.1.4.1.8.1 1.2 0 .4 0 .7-.1 1z"/></g></switch></svg>