<svg xmlns="http://www.w3.org/2000/svg" viewBox="0 0 60 60"><switch><g><path d="M44.7 3H17.3c-6 0-10.8 4.8-10.8 10.8v35.9l7.3 7.3 4.8-4.8 4.8 4.8 4.8-4.8L33 57l7.3-7.3.2-26.2h13.1V12c0-4.9-3.9-8.9-8.9-9zm-9.2 9l-.3 35.6-2.3 2.3-4.8-4.8-4.8 4.8-4.8-4.8-4.8 4.8-2.3-2.3V13.8c0-3.2 2.6-5.8 5.8-5.8h19.1c-.5 1.3-.8 2.6-.8 4zm13 6.5h-8.1V12c0-2.1 1.6-3.8 3.6-4h.4c2.2 0 4 1.8 4 4v6.5h.1z"/><path d="M24.9 19.6h-7.1v3.9h-2.2V26h2.2v1.9h-2.2v2.5h2.2V40h2.9v-5.8h3.2c2.4 0 4.9-1.4 6.1-3.9h2.2v-2.5h-1.4c0-.3.1-.6.1-.9s0-.7-.1-1h1.4v-2.5H30c-1-2.1-2.8-3.8-5.1-3.8zm-4.2 2.3h3.4c1.1 0 2 .6 2.6 1.5h-6v-1.5zm2.8 10h-2.8v-1.5h5.9c-.8.8-1.8 1.5-3.1 1.5zm4.2-4.1h-7v-1.9h7c.1.4.1.7.1 1 0 .4 0 .6-.1.9z"/></g></switch></svg>