<svg xmlns="http://www.w3.org/2000/svg" viewBox="0 0 60 60"><switch><g><path d="M49.1 11.3V3.1H3v46.1h8.4v7.6H57V11.3h-7.9zM11.4 44.2H8V8.1h36.1v3.1H11.4v33zm32.7-28v28H16.4v-28h27.7zM16.4 51.9v-2.6h32.7v-33H52v35.6H16.4z"/><path d="M24.8 40h2.9v-5.8h3.2c2.4 0 4.9-1.4 6.1-3.9h2.2v-2.5h-1.4c0-.3.1-.6.1-.9s0-.7-.1-1h1.4v-2.5H37c-1-2.1-2.8-3.9-5.1-3.9h-7.1v3.9h-2.2v2.5h2.2v1.9h-2.2v2.5h2.2V40zm2.9-18.1h3.4c1.1 0 2 .6 2.6 1.5h-6v-1.5zm0 4h7c.1.4.1.7.1 1s0 .6-.1.9h-7v-1.9zm0 4.4h5.9c-.7.9-1.8 1.5-3 1.5h-2.8v-1.5h-.1z"/></g></switch></svg>