<svg xmlns="http://www.w3.org/2000/svg" viewBox="0 0 60 60"><switch><g><path d="M39.9 14.4L44.4 3H15.6l4.5 11.4C12.7 18.1 7.6 25.7 7.6 34.5 7.6 46.9 17.6 57 30 57s22.4-10.1 22.4-22.4c0-8.9-5.1-16.5-12.5-20.2zM30.1 8h7l-1.8 4.7c-1.7-.4-3.5-.6-5.3-.6s-3.5.2-5.2.6L22.9 8h7.2zM30 52c-9.6 0-17.5-7.8-17.5-17.5C12.5 24.9 20.3 17 30 17c9.6 0 17.5 7.8 17.5 17.5S39.6 52 30 52z"/><path d="M32.6 24.1h-7.2V28h-2.3v2.5h2.3v1.9h-2.3V35h2.3v10h3v-6h3.2c2.4 0 5-1.5 6.3-3.9h2.2v-2.5h-1.4c0-.3.1-.6.1-.9s0-.7-.1-1h1.5V28H38c-1.2-2.1-3-3.9-5.4-3.9zm-4.2 2.3h3.5c1.1 0 2 .7 2.6 1.6h-6.1v-1.6zm2.9 10.2h-2.9V35h6c-.8 1-1.9 1.6-3.1 1.6zm4.2-4.1h-7.1v-1.9h7.1c.1.4.1.7.1 1.1 0 .2 0 .5-.1.8z"/></g></switch></svg>