<svg xmlns="http://www.w3.org/2000/svg" viewBox="0 0 60 60"><path d="M56.81 34.041A2.5 2.5 0 0 0 54.5 32.5H36.874a6.98 6.98 0 0 0 .065-.908 7.069 7.069 0 0 0-7.061-7.062h-12.9a2.483 2.483 0 0 0-.675.094L3 28.357l1.352 4.813 12.969-3.642h12.557a2.062 2.062 0 0 1 0 4.123H18.694v5h11.184a7.017 7.017 0 0 0 3.857-1.151h14.73l-11 11H3v5h35.5a2.5 2.5 0 0 0 1.768-.732l16-16a2.5 2.5 0 0 0 .542-2.727zM21.05 22.535h16.936a8.018 8.018 0 1 0 0-16.035H21.05a8.018 8.018 0 0 0 0 16.035zM41 14.517a3.022 3.022 0 0 1-3.018 3.018h-5.867V11.5h5.871A3.021 3.021 0 0 1 41 14.517zM21.05 11.5h6.065v6.035H21.05a3.018 3.018 0 0 1 0-6.035z"/></svg>