<svg xmlns="http://www.w3.org/2000/svg" viewBox="0 0 60 60"><path d="M55.082 20.891a6.544 6.544 0 0 0-8.071-.957 23.99 23.99 0 0 0-17.246-7.58C26.7 6.944 19.651 6.609 19.325 6.6l-2.6-.1v8.769a15.952 15.952 0 0 0-7.451 8.592H3v17.5h5.643V53.5h16.173v-5.529a29.335 29.335 0 0 0 4.115.314 25.25 25.25 0 0 0 3.739-.271V53.5h16.172V38.611a17.243 17.243 0 0 0 2.443-7.949 15.332 15.332 0 0 0-1.494-6.54 1.563 1.563 0 0 1 1.754 2.533l-.127.126 3.535 3.536.129-.129a6.593 6.593 0 0 0 0-9.297zM44.2 36.644l-.36.6V48.5h-6.171v-6.846l-3.16.865a20.29 20.29 0 0 1-5.579.766 25.571 25.571 0 0 1-5.986-.775l-3.129-.81v6.8h-6.172V36.356H8v-7.5h5.13l.449-1.936a11.165 11.165 0 0 1 6.689-7.847l1.461-.667v-6.282a6.049 6.049 0 0 1 4.064 3.541l.6 1.739 1.837-.052c9.862-.3 18.057 5.785 18.057 13.31a12.669 12.669 0 0 1-2.087 5.982z"/><path d="M16.561 24.154h5.158v5h-5.158zM26.741 19.554h8.347v5h-8.347z"/></svg>