<svg xmlns="http://www.w3.org/2000/svg" viewBox="0 0 60 60"><path d="M21.34 56.25c-3.76 0-7.59-1.46-10.78-4.15-4.35-3.67-6.9-9.12-7-14.95-.17-9.72 14.02-23.79 21.55-29.87C29.7 3.57 35.93 2.74 41.36 5.1l2.48 1.08-12.18 22.94 23.31-10.78.79 2.83c.13.47 3.12 11.62-4.66 19.2-6.47 6.3-17.59 14.2-27.61 15.73-.71.11-1.42.16-2.14.16zM35.01 8.77c-2.42 0-4.81.81-6.76 2.39C20 17.82 8.44 30.26 8.56 37.06c.08 4.39 1.98 8.48 5.23 11.22 2.7 2.28 5.96 3.32 8.94 2.87 8.29-1.26 18.46-8.12 24.87-14.37 3.56-3.47 3.96-8.23 3.77-11.28l-31.1 14.39L36.72 8.91c-.57-.09-1.14-.14-1.71-.14z"/><path d="M49.27 24.78l-4.99-.29.44-7.5-8.12-.84.52-4.97 12.87 1.33-.72 12.27z"/></svg>