<svg xmlns="http://www.w3.org/2000/svg" viewBox="0 0 60 60"><path d="M29.994 3a27 27 0 0 0-19.127 46.057l3.542-3.529a21.992 21.992 0 0 1 29.265-32.739l-5.04 5.039 3.536 3.536 5.039-5.039a21.969 21.969 0 0 1-1.364 28.931l3.6 3.468A27 27 0 0 0 29.994 3z"/><path d="M30.027 23a2.364 2.364 0 0 1 2.424 2.291h5.012a7.321 7.321 0 0 0-4.925-6.866v-2.613h-5.013v2.61a7.281 7.281 0 0 0 2.5 14.172 2.295 2.295 0 1 1-2.425 2.291h-5.01a7.321 7.321 0 0 0 4.935 6.869v2.61h5.013v-2.613a7.281 7.281 0 0 0-2.511-14.169 2.295 2.295 0 1 1 0-4.582z"/></svg>