<svg xmlns="http://www.w3.org/2000/svg" viewBox="0 0 60 60"><path d="M51.315 38.6a1.775 1.775 0 0 1-1.535.754c-.688 0-.886-.185-1.538-.892a4.931 4.931 0 0 0-3.7-1.942 5.23 5.23 0 0 0-4.982 5.054V52H8l-.02-10.181.031.033a6.575 6.575 0 0 0 5.213 2.5 6.761 6.761 0 0 0 5.545-2.766 9.009 9.009 0 0 0 1.675-5.365c0-4.711-3.037-8.13-7.22-8.13a6.572 6.572 0 0 0-5.213 2.5L8 30.605V20.444h10.427a5.23 5.23 0 0 0 5.054-4.982 4.93 4.93 0 0 0-1.942-3.7c-.707-.652-.892-.851-.892-1.538 0-2.2 3-2.22 3.13-2.22s3.131.025 3.131 2.22c0 .687-.184.887-.891 1.538a4.93 4.93 0 0 0-1.943 3.7 5.23 5.23 0 0 0 5.054 4.982h10.428v10.427a5.231 5.231 0 0 0 4.982 5.055 4.929 4.929 0 0 0 3.7-1.943c.652-.706.85-.891 1.538-.891 2.2 0 2.22 3 2.22 3.13a4.057 4.057 0 0 1-.685 2.377zM49.78 28.092a6.575 6.575 0 0 0-5.213 2.5l-.011.012v-15.16l-15.181.02.032-.031a6.572 6.572 0 0 0 2.5-5.213c0-4.183-3.419-7.22-8.131-7.22s-8.13 3.037-8.13 7.22a6.573 6.573 0 0 0 2.5 5.213l.012.011H3v15.427a5.231 5.231 0 0 0 4.983 5.055 4.925 4.925 0 0 0 3.7-1.943c.652-.706.851-.891 1.538-.891 2.2 0 2.22 3 2.22 3.13a4.057 4.057 0 0 1-.685 2.377 1.775 1.775 0 0 1-1.535.754c-.687 0-.886-.185-1.538-.891a4.925 4.925 0 0 0-3.7-1.943A5.231 5.231 0 0 0 3 41.573V57h41.556V41.84l.011.012a6.575 6.575 0 0 0 5.213 2.5 6.76 6.76 0 0 0 5.545-2.766A9.009 9.009 0 0 0 57 36.222c0-4.711-3.037-8.13-7.22-8.13z"/></svg>