<svg xmlns="http://www.w3.org/2000/svg" data-name="Layer 3" viewBox="0 0 60 60"><g fill="#0d0e0e"><path d="M56.87 17.71h-5V7.99H39.64v-5h17.23v14.72zM8.06 17.71h-5V2.99h17.22v5H8.06v9.72zM56.87 56.99H39.64v-5h12.23v-9.73h5v14.73zM20.28 56.99H3.06V42.26h5v9.73h12.22v5z"/><path d="M49.15 28.05H31.78V10.63h17.37v17.42zm-12.37-5h7.37v-7.43h-7.37v7.43zM28.09 28.05H10.72V10.63h17.37v17.42zm-12.37-5h7.37v-7.43h-7.37v7.43zM27.94 49.48H10.57V32.05h17.37v17.43zm-12.37-5h7.37v-7.43h-7.37v7.43z"/></g><g fill="#0d0e0e"><path d="M31.77 32.08h5.78v5.79h-5.78zM31.77 43.67h5.78v5.79h-5.78zM37.54 37.87h5.78v5.79h-5.78zM43.33 43.66h5.78v5.79h-5.78zM43.33 32.08h5.78v5.79h-5.78z"/></g></svg>