<svg xmlns="http://www.w3.org/2000/svg" viewBox="0 0 60 60"><path d="M51.593 13.808a29.316 29.316 0 0 0-4.808-4.925A26.762 26.762 0 0 0 29.977 3a26.808 26.808 0 0 0-21.1 10.184A27.133 27.133 0 0 0 3 30.014V57h27.027a26.987 26.987 0 0 0 21.566-43.192zM30.026 52H8V30.012a22.115 22.115 0 0 1 4.788-13.718 21.958 21.958 0 0 1 30.927-3.465A24.731 24.731 0 0 1 47.6 16.81 21.988 21.988 0 0 1 30.026 52z"/><path d="M26.457 38.036h5v5.01h-5zM30.345 17.634a8.1 8.1 0 0 0-1.5-.14 7.97 7.97 0 0 0-7.958 7.988l5-.009a2.972 2.972 0 0 1 2.961-2.979 3.316 3.316 0 0 1 .6.059 3.048 3.048 0 0 1 2.417 2.485 2.91 2.91 0 0 1-1.462 3.095 7.216 7.216 0 0 0-3.926 6.346v.191h5v-.17a2.211 2.211 0 0 1 1.272-1.955 7.9 7.9 0 0 0 4.034-8.411 8 8 0 0 0-6.438-6.5z"/></svg>