<?xml version="1.0" encoding="utf-8"?>
<!-- Generator: Adobe Illustrator 24.3.0, SVG Export Plug-In . SVG Version: 6.00 Build 0)  -->
<svg version="1.1" id="Layer_1" xmlns="http://www.w3.org/2000/svg" xmlns:xlink="http://www.w3.org/1999/xlink" x="0px" y="0px"
	 viewBox="0 0 24 24" style="enable-background:new 0 0 24 24;" xml:space="preserve">
<style type="text/css">
	.st0{fill:#FFFFFF;}
	.st1{fill:#282B3E;}
</style>
<path class="st0" d="M12,2L12,2c5.5,0,10,4.5,10,10l0,0c0,5.5-4.5,10-10,10l0,0C6.5,22,2,17.5,2,12l0,0C2,6.5,6.5,2,12,2z"/>
<path class="st1" d="M12,24C5.4,24,0,18.6,0,12C0,5.4,5.4,0,12,0c6.6,0,12,5.4,12,12C24,18.6,18.6,24,12,24z M12,2C6.5,2,2,6.5,2,12
	c0,5.5,4.5,10,10,10c5.5,0,10-4.5,10-10C22,6.5,17.5,2,12,2z"/>
</svg>
