<svg xmlns="http://www.w3.org/2000/svg" viewBox="0 0 60 60"><path d="M6.5 51.841l12.185-12.185 3.535 3.535-12.185 12.185zM22.14 51.841l12.184-12.184 3.535 3.535-12.184 12.184zM37.78 51.842l12.185-12.184 3.535 3.535-12.184 12.184zM46.261 15.078h-.669A13.929 13.929 0 0 0 18.8 11.892a11.376 11.376 0 0 0-10 8.03 8.539 8.539 0 0 0 2.747 16.627h34.714a10.736 10.736 0 1 0 0-21.471zm0 16.471H11.546a3.542 3.542 0 0 1-.365-7.065l1.945-.218.256-1.94a6.337 6.337 0 0 1 6.288-5.467 6.083 6.083 0 0 1 .692.037l2.227.252.493-2.186a8.926 8.926 0 0 1 17.633 1.971v3.145h5.546a5.736 5.736 0 1 1 0 11.471z"/></svg>