<svg xmlns="http://www.w3.org/2000/svg" viewBox="0 0 60 60"><path d="M33.02 9.71l5.42 8.47-.03.03-6.04-1.39-1.11 4.86 9.59 2.18 4.87 1.1 2.46-10.86h-.02l.82-3.6-4.85-1.1-1.41 6.31-5.53-8.6a8.44 8.44 0 0 0-7.17-3.99c-2.91.01-5.6 1.52-7.14 3.99l-4.73 7.41 4.06 2.91 4.87-7.63a3.445 3.445 0 0 1 2.93-1.7c1.21-.02 2.35.58 2.99 1.61zM55.67 35.96l-5.16-8.07-4.13 2.8 5.09 7.98c1.04 1.62.57 3.78-1.05 4.83a3.5 3.5 0 0 1-1.94.55H39.4v-.02l4.51-4.47-3.52-3.53-6.96 6.96-3.52 3.52 7.87 7.87 2.61 2.59 3.51-3.51-4.46-4.44h9.08c4.69 0 8.49-3.79 8.49-8.48 0-1.63-.47-3.22-1.34-4.59zM8.51 42.22a3.45 3.45 0 0 1 .12-3.56l5.68-8.88 1.06 5.9 4.91-.9-1.78-9.67-.91-4.91-10.95 2.02-3.62.68.9 4.9 6.52-1.23-5.99 9.41c-2.52 3.96-1.35 9.21 2.6 11.73 1.35.86 2.92 1.32 4.52 1.33h12.97v-4.99H11.57c-1.28 0-2.46-.69-3.06-1.82z"/></svg>