<svg xmlns="http://www.w3.org/2000/svg" viewBox="0 0 60 60"><switch><g><path d="M48.7 10.5C43.7 5.7 37 3 30 3 15.1 3 3 15.1 3 30c0 7.1 2.8 14 7.9 19.1l3.5-3.5c-8.6-8.6-8.6-22.5 0-31.1 7.9-7.9 20.5-8.6 29.2-1.6l-5 5 3.5 3.5 5-5c6.9 8.6 6.3 21-1.4 28.9l3.6 3.5c10.5-10.8 10.2-27.9-.6-38.3z"/><path d="M33 25.3h-.3l-4-1.6c-.5-.2-.7-.8-.6-1.3.1-.3.3-.5.5-.7.3-.2.6-.2.9-.1l6.5 2.8 1.4-3.2-6.2-2.7-.2-.1c-.2-.1-.4-.1-.6-.2-1.2-.3-2.4-.2-3.5.5-1.1.6-1.8 1.6-2.1 2.8-.5 2 .4 4.1 2.1 5.2l2.4 1V29h-2.8v3.7h2.8v7c0 1.3-1.1 2.4-2.5 2.4s-2.5-1.1-2.5-2.5 1.1-2.5 2.5-2.5h.3v-3.7h-.3c-3.4 0-6.2 2.8-6.2 6.2s2.8 6.2 6.2 6.2c3.3 0 6-2.6 6.2-5.8v-7.3h4.3V29H33v-3.7z"/></g></switch></svg>