<svg xmlns="http://www.w3.org/2000/svg" viewBox="0 0 60 60"><switch><g><path d="M30 3C15.1 3 3 15.1 3 30s12.1 27 27 27 27-12.1 27-27S44.9 3 30 3zm0 49C17.9 52 8 42.1 8 30S17.9 8 30 8s22 9.8 22 22c0 12.1-9.9 22-22 22z"/><path d="M34 22.5h-.4l-4.4-1.7c-.5-.3-.8-.9-.6-1.4.1-.3.3-.6.6-.8.3-.2.6-.2.9-.1l7.1 3.1 1.5-3.5-6.8-2.9-.2-.2c-.2-.1-.4-.2-.6-.2-1.3-.3-2.7-.2-3.8.5-1.2.7-2 1.8-2.4 3.1-.6 2.2.4 4.5 2.4 5.7v.1l2.7 1.1v1.5h-3.1v4.1H30v7.7c0 1.5-1.2 2.7-2.7 2.7s-2.7-1.2-2.7-2.7 1.2-2.7 2.7-2.7h.4v-4.1h-.4c-3.7 0-6.8 3-6.8 6.8 0 3.7 3 6.8 6.8 6.8 3.6 0 6.6-2.8 6.8-6.4v-8.1h4.7v-4.1H34v-4.3z"/></g></switch></svg>