<svg xmlns="http://www.w3.org/2000/svg" viewBox="0 0 60 60"><switch><g><path d="M39.9 14.4L44.4 3H15.6l4.5 11.4C12.7 18.1 7.6 25.7 7.6 34.5 7.6 46.9 17.6 57 30 57s22.4-10.1 22.4-22.4c0-8.9-5.1-16.5-12.5-20.2zM30.1 8h7l-1.8 4.7c-1.7-.4-3.5-.6-5.3-.6s-3.5.2-5.2.6L22.9 8h7.2zM30 52c-9.6 0-17.5-7.8-17.5-17.5C12.5 24.9 20.3 17 30 17c9.6 0 17.5 7.8 17.5 17.5S39.6 52 30 52z"/><path d="M33.6 28.5h-.3l-3.6-1.4c-.4-.2-.6-.7-.5-1.2.1-.3.2-.5.5-.6.2-.1.5-.2.8-.1l5.8 2.5 1.3-2.9-5.5-2.4-.2-.1c-.2-.1-.3-.1-.5-.2-1.1-.3-2.2-.1-3.1.4-1 .6-1.6 1.4-1.9 2.5-.5 1.8.3 3.7 1.9 4.6l2.2.9v1.2H28v3.4h2.5v6.3c0 1.2-1 2.2-2.2 2.2s-2.2-1-2.2-2.2 1-2.2 2.2-2.2h.3v-3.3h-.3c-3.1 0-5.6 2.5-5.6 5.6s2.5 5.6 5.6 5.6c2.9 0 5.4-2.3 5.5-5.2v-6.6h3.9v-3.4h-3.9v-3.4h-.2z"/></g></switch></svg>