<svg xmlns="http://www.w3.org/2000/svg" viewBox="0 0 60 60"><switch><g><path d="M50 12.7h-7.8C41 6.3 34.9 2 28.5 3.2c-4.8.9-8.6 4.6-9.5 9.5h-9l-7 41h54l-7-41zM30.6 8c2.9 0 5.5 1.9 6.4 4.7H24.2c.9-2.8 3.5-4.7 6.4-4.7zm-16.4 9.7h31.6l5.3 31H8.9l5.3-31z"/><path d="M29.7 23.9c.2-.1.3-.1.5-.1l6.1 2.6 1.5-3.3-5.8-2.5-.2-.1c-.2-.1-.4-.1-.5-.2-1.1-.3-2.3-.1-3.3.4-1 .6-1.7 1.5-2 2.7-.5 1.8.3 3.8 1.9 4.8v.1l2.3.9v.8h-2.5v3.9H30v6c0 1.1-.9 1.9-2 1.9s-2-.9-2-2 .9-2 2-2h.5V34H28c-3.2 0-5.8 2.6-5.8 5.8s2.6 5.8 5.8 5.8c3.1 0 5.6-2.4 5.8-5.5v-6.4h3.9V30h-3.9v-3.4h-.5l-3.6-1.4c-.3-.2-.5-.5-.4-.9l.4-.4z"/></g></switch></svg>