<svg xmlns="http://www.w3.org/2000/svg" viewBox="0 0 60 60"><switch><g><path d="M22.5 19.4c.1-.1.3-.1.5-.1l5.7 2.5 1.4-3.1-5.4-2.4-.2-.1c-.2-.1-.3-.1-.5-.2-1.1-.3-2.2-.1-3.1.4-.9.5-1.6 1.4-1.9 2.5-.5 1.7.3 3.5 1.7 4.5v.1l2.1.8v.7h-2.3v3.6h2.3v5.6c0 1-.8 1.8-1.8 1.8s-1.8-.8-1.8-1.8.8-1.8 1.8-1.8h.5v-3.6H21c-3 0-5.4 2.4-5.4 5.4s2.4 5.4 5.4 5.4c2.9 0 5.2-2.2 5.4-5.1v-6H30v-3.6h-3.6v-3.2h-.5l-3.3-1.3c-.3-.1-.5-.5-.4-.8 0 .1.1-.1.3-.2z"/><path d="M44.7 3.1H17.3c-6 0-10.8 4.8-10.8 10.8v35.9l7.3 7.3 4.8-4.8 4.8 4.8 4.8-4.8 4.8 4.8 7.3-7.3.2-26.2h13.1V12.1c-.1-4.9-4-9-8.9-9zm-9.3 9l-.3 35.6-2.3 2.3-4.8-4.8-4.7 4.8-4.8-4.8-4.8 4.8-2.3-2.3V13.9c0-3.2 2.6-5.8 5.8-5.8h19.1c-.6 1.2-.9 2.6-.9 4zm13.1 6.5h-8.1v-6.5c0-2.1 1.6-3.8 3.6-4h.4c2.2 0 4 1.8 4 4v6.5h.1z"/></g></switch></svg>