<svg xmlns="http://www.w3.org/2000/svg" viewBox="0 0 60 60"><switch><g><path d="M8.2 32.6h-5C4.3 45.5 14.5 55.7 27.4 57v-5C17.3 50.7 9.3 42.7 8.2 32.6zM51.8 27.4h5C55.7 14.4 45.4 4.2 32.4 3v5c10.2 1.2 18.3 9.2 19.4 19.4zM27.4 8.1V3C14.5 4.3 4.3 14.5 3.1 27.4h5C9.3 17.3 17.3 9.3 27.4 8.1zM32.4 52v5c13-1.2 23.3-11.4 24.5-24.4h-5C50.7 42.8 42.6 50.8 32.4 52zM34 30.7h4.7v-4.1H34v-4.1h-.4l-4.4-1.7c-.5-.3-.8-.9-.6-1.4.1-.3.3-.6.6-.8.3-.2.6-.2.9-.1l7.1 3.1 1.5-3.5-6.7-3-.3-.1c-.2-.1-.4-.2-.6-.2-1.3-.3-2.7-.2-3.8.5-1.2.7-2 1.8-2.4 3.1-.6 2.2.4 4.5 2.4 5.7v.1l2.7 1.1v1.5h-3.1v4.1H30v7.7c0 1.5-1.2 2.7-2.7 2.7s-2.7-1.2-2.7-2.7 1.2-2.7 2.7-2.7h.4v-4.1h-.4c-3.7 0-6.8 3-6.8 6.8 0 3.7 3 6.8 6.8 6.8 3.6 0 6.6-2.8 6.8-6.4l-.1-8.3z"/></g></switch></svg>