<svg xmlns="http://www.w3.org/2000/svg" viewBox="0 0 60 60"><switch><g><path d="M3 11.3v37.5h54V11.3H3zm49 32.4H8V16.3h44v27.4z"/><path d="M43.2 27.5h5.1v5h-5.1zM11.7 27.5h5.1v5h-5.1zM28.3 41.1c2.6 0 4.8-2 4.9-4.6v-5.4h3.3v-3.3h-3.3v-2.9h-.4l-3-1.2c-.3-.1-.4-.4-.3-.7 0-.2.2-.3.3-.4.1-.1.3-.1.5-.1l5.1 2.2 1.2-2.8-4.9-2.1-.2-.1c-.2-.1-.3-.1-.5-.2-1-.3-2-.1-2.8.4-.9.5-1.5 1.3-1.7 2.3-.4 1.6.2 3.2 1.6 4.1v.1l1.9.8v.7h-2.1V31H30v5.1c0 .9-.8 1.6-1.7 1.6-.9 0-1.7-.7-1.7-1.7s.7-1.7 1.7-1.7h.5V31h-.5c-2.7 0-4.9 2.2-4.9 4.9 0 3 2.2 5.2 4.9 5.2z"/></g></switch></svg>