<svg xmlns="http://www.w3.org/2000/svg" viewBox="0 0 60 60"><switch><g><path d="M49.1 11.3V3.1H3v46.1h8.4v7.6H57V11.3h-7.9zM11.4 44.2H8V8.1h36.1v3.1H11.4v33zm32.7-28v28H16.4v-28h27.7zM16.4 51.9v-2.6h32.7v-33H52v35.6H16.4z"/><path d="M28.1 42.6c2.9 0 5.2-2.2 5.4-5.1v-6h3.6V28h-3.6v-3.2H33l-3.3-1.3c-.3-.1-.5-.5-.4-.8 0-.2.2-.3.3-.4.1-.1.3-.1.5-.1l5.7 2.5 1.4-3.1-5.4-2.4-.2-.1c-.2-.1-.3-.1-.5-.2-1.1-.3-2.2-.1-3.1.4s-1.6 1.4-1.9 2.5c-.5 1.7.3 3.5 1.7 4.5v.1l2.1.8v.8h-2.3v3.6h2.3v5.6c0 1-.8 1.8-1.8 1.8s-1.8-.8-1.8-1.8.8-1.8 1.8-1.8h.5v-3.6h-.5c-3 0-5.4 2.4-5.4 5.4-.1 3 2.4 5.4 5.4 5.4z"/></g></switch></svg>