<svg xmlns="http://www.w3.org/2000/svg" viewBox="0 0 60 60"><switch><g><path d="M49.3 3H10.7v54l10.4-5.9 8.8 5.8 8.9-5.8L49.3 57V3zM38.7 45.3L30 50.9l-8.7-5.7-5.6 3.2V8h28.6v40.4l-5.6-3.1z"/><path d="M33.8 20.3h-.3l-4-1.6c-.5-.2-.7-.8-.6-1.3.1-.3.3-.5.5-.7.3-.2.6-.2.9-.1l6.5 2.8 1.4-3.2-6.2-2.7-.2-.1c-.2-.1-.4-.1-.6-.2-1.2-.3-2.4-.2-3.5.5-1.1.6-1.8 1.6-2.1 2.8-.5 2 .4 4.1 2.1 5.2l2.4 1V24h-2.8v3.7H30v7c0 1.3-1.1 2.4-2.5 2.4S25 36 25 34.6s1.1-2.5 2.5-2.5h.3v-3.7h-.3c-3.4 0-6.2 2.8-6.2 6.2s2.8 6.2 6.2 6.2c3.3 0 6-2.6 6.2-5.8v-7.3H38V24h-4.3l.1-3.7z"/></g></switch></svg>