<svg xmlns="http://www.w3.org/2000/svg" viewBox="0 0 60 60"><switch><g><path d="M39.8 3H6.5v54h47V16.7L39.8 3zm8.7 49h-37V8h26.2l10.8 10.8V52z"/><path d="M37.6 22l1.5-3.5-6.8-2.9-.3-.1c-.2-.1-.4-.2-.6-.2-1.3-.3-2.7-.2-3.8.5-1.2.7-2 1.8-2.4 3.1-.6 2.2.4 4.5 2.4 5.7v.1l2.7 1.1V27h-3.1v4.1h3.1v7.7c0 1.5-1.2 2.7-2.7 2.7s-2.7-1.2-2.7-2.7 1.2-2.7 2.7-2.7h.4V32h-.4c-3.7 0-6.8 3-6.8 6.8 0 3.7 3 6.8 6.8 6.8 3.6 0 6.6-2.8 6.8-6.4v-8.1h4.7V27h-4.7v-4.1H34l-4.4-1.7c-.5-.3-.8-.9-.6-1.4.1-.3.3-.6.6-.8.3-.2.6-.2.9-.1l7.1 3.1z"/></g></switch></svg>