<svg xmlns="http://www.w3.org/2000/svg" viewBox="0 0 60 60"><switch><g><g fill="#010100"><path d="M15 18.7c0-2 1.7-3.7 3.7-3.7h21.9l-3.7 3.7 3.5 3.5 9.6-9.6L40.4 3l-3.5 3.5 3.5 3.5H18.7c-4.8 0-8.7 3.9-8.7 8.7V27h5v-8.3zM45 41.3c0 2-1.7 3.7-3.7 3.7H19.4l3.7-3.7-3.5-3.5-9.6 9.6 9.6 9.6 3.5-3.5-3.4-3.5h21.6c4.8 0 8.7-3.9 8.7-8.7v-8.4h-5v8.4z"/><path d="M30.1 22.3c.1-.1.3-.1.5-.1l5.1 2.2 1.2-2.8-4.9-2.1-.2-.1c-.2-.1-.3-.1-.5-.2-1-.3-2-.1-2.8.4-.9.5-1.5 1.3-1.7 2.3-.4 1.6.2 3.2 1.6 4.1v.1l1.9.8v.7h-2.1v3.3h2.1V36c0 .9-.8 1.6-1.7 1.6-.9 0-1.7-.7-1.7-1.7s.7-1.7 1.7-1.7h.5V31h-.5c-2.7 0-4.9 2.2-4.9 4.9s2.2 4.9 4.9 4.9c2.6 0 4.8-2 4.9-4.6v-5.4h3.3v-3.3h-3.3v-2.9h-.4l-3-1.2c-.3-.1-.4-.4-.3-.7.1-.1.2-.3.3-.4z"/></g></g></switch></svg>