<svg xmlns="http://www.w3.org/2000/svg" viewBox="0 0 60 60"><switch><g><path d="M24.2 14.5h-4.5v-3.9h-.5L15.1 9c-.4-.2-.7-.7-.5-1.2.1-.3.2-.5.5-.6.2-.1.5-.2.7-.1l6.9 3 1.6-3.6-6.6-2.9-.2-.1c-.2-.1-.4-.2-.6-.2-1.3-.3-2.6-.2-3.8.5-1.1.7-2 1.7-2.3 3-.6 2.1.3 4.3 2.1 5.4l.1.1v.1l2.6 1v1.1h-2.9v4.2h2.9v7.1c0 1.3-1.1 2.4-2.4 2.4s-2.4-1.1-2.4-2.4 1.1-2.4 2.4-2.4h.5v-4.2h-.5c-3.6 0-6.6 3-6.6 6.6s3 6.6 6.6 6.6c3.5 0 6.4-2.7 6.6-6.2v-7.5h4.5v-4.2h-.1zM53.4 21.6L31.9 43.1l-7.6-7.7-3.5 3.5 11.1 11.2 25-25z"/></g></switch></svg>