<svg xmlns="http://www.w3.org/2000/svg" viewBox="0 0 60 60"><switch><g><path d="M20.7 14.5h-4.5v-3.9h-.5L11.6 9c-.4-.2-.7-.7-.5-1.2.1-.3.2-.5.5-.6.2-.1.5-.2.7-.1l7 3 1.6-3.7-6.8-3c-.2-.1-.4-.2-.6-.2-1.5-.2-2.8-.1-4 .6-1.1.7-2 1.7-2.3 3-.6 2.1.3 4.3 2.1 5.5l.1.1v.1l2.6 1v1.1H9.1v4.2H12v7.1c0 1.3-1.1 2.4-2.4 2.4s-2.4-1.1-2.4-2.4 1.1-2.4 2.4-2.4h.5v-4.2h-.5c-3.7 0-6.6 3-6.6 6.6s3 6.6 6.6 6.6c3.5 0 6.4-2.7 6.6-6.2v-7.5h4.5v-4.3zM37.4 18.3C26.7 18.3 18 27 18 37.7s8.7 19.4 19.4 19.4 19.4-8.7 19.4-19.4c-.1-10.7-8.7-19.4-19.4-19.4zm0 34.1c-8.1 0-14.7-6.6-14.7-14.7S29.3 23 37.4 23s14.7 6.6 14.7 14.7c-.1 8.1-6.6 14.7-14.7 14.7z"/><path d="M36.9 35.1l-3.5-3.6-3.6 3.5 7.1 7.2 10.8-10.8-3.6-3.6z"/></g></switch></svg>