<svg xmlns="http://www.w3.org/2000/svg" viewBox="0 0 60 60"><switch><g><path d="M29.7 21.9c.1-.1.3-.1.5-.1l5.7 2.5 1.4-3.1-5.4-2.4-.2-.1c-.2-.1-.3-.1-.5-.2-1.2-.2-2.3 0-3.2.5s-1.6 1.4-1.9 2.5c-.5 1.7.3 3.5 1.7 4.5v.1l2.1.8v.7h-2.3v3.6h2.3v5.6c0 1-.8 1.8-1.8 1.8s-1.8-.8-1.8-1.8.8-1.8 1.8-1.8h.5v-3.6h-.5c-3 0-5.4 2.4-5.4 5.4s2.4 5.4 5.4 5.4c2.9 0 5.2-2.2 5.4-5.1v-6h3.6v-3.6h-3.6v-3.2H33L29.7 23c-.3-.1-.5-.5-.4-.8.1 0 .2-.2.4-.3z"/><path d="M49 22.1V11H37.9L30 3.1 22 11H10.8v11.2L2.9 30l7.9 7.9v11.2H22l7.9 7.9 7.9-7.9H49V38l7.9-8-7.9-7.9zM44 36v8.1h-8.3L29.9 50l-5.8-5.8h-8.2v-8.3l-5.8-5.8 5.8-5.8V16h8.2l5.8-5.8 5.8 5.8H44v8.2l5.9 5.9L44 36z"/></g></switch></svg>