<svg xmlns="http://www.w3.org/2000/svg" viewBox="0 0 60 60"><switch><g><path d="M42.2 23.6H57V8.8h-5v5.6C43.4 2.2 26.5-.6 14.4 8S-.6 33.5 8 45.7c8.6 12.1 25.5 15 37.6 6.3C52.8 46.9 57 38.7 57 30h-5c0 12.2-9.8 22-22 22.1-12.2 0-22-9.8-22.1-22 0-12.2 9.8-22 22-22.1 7.7 0 14.9 4 18.9 10.6h-6.7v5h.1z"/><path d="M26.6 35.8h.4v-4.1h-.4c-3.7 0-6.8 3-6.8 6.8 0 3.7 3 6.8 6.8 6.8 3.6 0 6.6-2.8 6.8-6.4v-8.1h4.7v-4.1h-4.7v-4.1H33l-4.4-1.7c-.5-.3-.8-.9-.6-1.4.1-.3.3-.6.6-.8.3-.2.6-.2.9-.1l7.1 3.1 1.5-3.5-6.8-2.9-.3-.1c-.2-.1-.4-.2-.6-.2-1.3-.3-2.7-.2-3.8.5-1.2.7-2 1.8-2.4 3.1-.6 2.2.4 4.5 2.4 5.7v.1l2.7 1.1V27h-3.1v4.1h3.1v7.7c0 1.5-1.2 2.7-2.7 2.7s-2.7-1.2-2.7-2.7c0-1.8 1.2-3 2.7-3z"/></g></switch></svg>