<svg xmlns="http://www.w3.org/2000/svg" viewBox="0 0 60 60"><switch><g><path d="M53.6 57l-.1-30.3L29.8 3 6.5 26.3 6.4 57h5V28.5L29.8 10l18.8 18.9V57z"/><path d="M33.2 32.5h-.3l-4-1.6c-.5-.2-.7-.8-.6-1.3.1-.3.3-.5.5-.7.3-.2.6-.2.9-.1l6.5 2.8 1.4-3.2-6.2-2.7-.2-.1c-.2-.1-.4-.1-.6-.2-1.2-.3-2.4-.2-3.5.5-1.1.6-1.8 1.6-2.1 2.8-.5 2 .4 4.1 2.1 5.2l2.4 1v1.3h-2.8V40h2.8v7c0 1.3-1.1 2.4-2.5 2.4s-2.5-1.1-2.5-2.5 1.1-2.5 2.5-2.5h.3v-3.7H27c-3.4 0-6.2 2.8-6.2 6.2s2.8 6.2 6.2 6.2c3.3 0 6-2.6 6.2-5.8V40h4.3v-3.7h-4.3v-3.8z"/></g></switch></svg>