<svg xmlns="http://www.w3.org/2000/svg" viewBox="0 0 60 60"><switch><g><path d="M48.7 10.6C43.7 5.7 37 3 30 3 15.1 3 3 15.1 3 30c0 7.1 2.8 14 7.9 19.1l3.5-3.5c-8.6-8.6-8.6-22.5 0-31.1 7.9-7.9 20.5-8.6 29.2-1.6l-5 5 3.5 3.5 5-5c6.9 8.6 6.3 21-1.4 28.9l3.6 3.5c10.5-10.8 10.2-27.9-.6-38.2z"/><path d="M27.1 27.5c0-1.9-1.4-4.8-5.2-4.8h-6.3v15.8h3.7v-6.2h1.8l2.7 6.2h3.9l-3.1-7c1.7-.7 2.6-2.2 2.5-4zm-5.9 1.6h-1.9v-3.2h2.3c1.1 0 1.8.6 1.8 1.7s-.7 1.5-2.2 1.5zM36.1 28.7l-3.7-6h-4v15.9h3.7v-10L36 35l4-6.4v10h3.6V22.7h-3.9z"/></g></switch></svg>