<svg xmlns="http://www.w3.org/2000/svg" viewBox="0 0 60 60"><switch><g><path d="M28.5 27.4c0-1.4-1-3.4-3.7-3.4h-4.5v11.2H23v-4.4h1.3l1.9 4.4H29l-2.2-4.9c1.1-.6 1.7-1.6 1.7-2.9zm-4.2 1.2H23v-2.3h1.6c.8 0 1.2.4 1.2 1.2 0 .7-.4 1.1-1.5 1.1zM34.8 28.2L32.2 24h-2.8v11.2H32v-7l2.7 4.4 2.8-4.4v7h2.6V24h-2.7z"/><path d="M49.1 22.1V10.9H37.9L30 3l-7.9 7.9H10.9v11.2L3 30l7.9 7.9v11.2H22l8 7.9 7.9-7.9h11.2V38l7.9-8-7.9-7.9zm-5 13.8V44h-8.3L30 49.9l-5.8-5.8H16v-8.3L10.1 30l5.8-5.8V16h8.2l5.8-5.8 5.8 5.8H44v8.2l5.9 5.9-5.8 5.8z"/></g></switch></svg>