<svg xmlns="http://www.w3.org/2000/svg" viewBox="0 0 60 60"><switch><g><path d="M21.8 26.9c0-1.3-.9-3.2-3.5-3.2h-4.2v10.6h2.4v-4.1h1.2l1.8 4.1h2.6L20 29.7c1.3-.6 1.8-1.6 1.8-2.8zM17.9 28h-1.3v-2.2h1.5c.8 0 1.2.4 1.2 1.1 0 .8-.4 1.1-1.4 1.1zM27.8 27.7l-2.5-4h-2.6v10.6h2.4v-6.7l2.7 4.3 2.6-4.3v6.7h2.4V23.7h-2.6z"/><path d="M44.7 3H17.3c-6 0-10.8 4.8-10.8 10.8v35.9l7.3 7.3 4.8-4.8 4.8 4.8 4.8-4.8L33 57l7.3-7.3.2-26.2h13.1V12c0-4.9-3.9-8.9-8.9-9zm-9.2 9l-.3 35.6-2.3 2.3-4.8-4.8-4.8 4.8-4.8-4.8-4.8 4.8-2.3-2.3V13.8c0-3.2 2.6-5.8 5.8-5.8h19.1c-.5 1.3-.8 2.6-.8 4zm13 6.5h-8.1V12c0-2.1 1.6-3.8 3.6-4h.4c2.2 0 4 1.8 4 4v6.5h.1z"/></g></switch></svg>