<svg xmlns="http://www.w3.org/2000/svg" viewBox="0 0 60 60"><switch><g><path d="M50 12.7h-7.8C41 6.3 34.9 2 28.5 3.2c-4.8.9-8.6 4.6-9.5 9.5h-9l-7 41h54l-7-41zM30.6 8c2.9 0 5.5 1.9 6.4 4.7H24.2c.9-2.8 3.5-4.7 6.4-4.7zm-16.4 9.7h31.6l5.3 31H8.9l5.3-31z"/><path d="M27.8 31.5c0-1.7-1.2-4.2-4.5-4.2h-5.5v13.8H21v-5.4h1.6l2.4 5.4h3.4L25.7 35c1.4-.7 2.1-1.9 2.1-3.5zm-5.1 1.4H21v-2.8h2c1 0 1.5.5 1.5 1.4 0 1-.5 1.4-1.8 1.4zM35.6 32.5l-3.2-5.2h-3.5v13.8h3.2v-8.7l3.5 5.6 3.4-5.6v8.7h3.2V27.3h-3.4z"/></g></switch></svg>