<svg xmlns="http://www.w3.org/2000/svg" viewBox="0 0 60 60"><switch><g><path d="M8.2 32.6h-5C4.3 45.5 14.5 55.7 27.4 57v-5C17.3 50.7 9.3 42.7 8.2 32.6zM27.4 8.1V3C14.5 4.3 4.3 14.5 3.1 27.4h5C9.3 17.3 17.3 9.3 27.4 8.1zM51.8 27.4h5C55.7 14.4 45.4 4.2 32.4 3v5c10.2 1.2 18.3 9.2 19.4 19.4zM32.4 52v5c13-1.2 23.3-11.4 24.5-24.4h-5C50.7 42.8 42.6 50.8 32.4 52zM27 27.1c0-1.9-1.4-4.8-5.2-4.8h-6.3v15.8h3.7v-6.2H21l2.7 6.2h3.9l-3.1-7c1.6-.8 2.5-2.2 2.5-4zm-5.9 1.6h-1.9v-3.2h2.3c1.1 0 1.7.6 1.7 1.7.1 1.1-.6 1.5-2.1 1.5zM39.8 28.2v9.9h3.7V22.3h-3.9l-3.7 6-3.6-6h-4v15.8H32v-9.9l3.9 6.3z"/></g></switch></svg>