<svg xmlns="http://www.w3.org/2000/svg" viewBox="0 0 60 60"><switch><g><path d="M42.2 23.6H57V8.8h-5v5.6C43.4 2.2 26.5-.6 14.4 8 2.2 16.7-.6 33.5 8 45.7c8.6 12.1 25.5 15 37.6 6.3C52.8 46.9 57 38.7 57 30h-5c0 12.2-9.8 22-22 22.1s-22-9.8-22.1-22c0-12.2 9.8-22 22-22.1 7.7 0 14.9 4 18.9 10.6h-6.7v5h.1z"/><path d="M27.1 27.8c0-1.7-1.2-4.3-4.7-4.3h-5.7v14.3H20v-5.6h1.6l2.5 5.6h3.5l-2.8-6.3c1.5-.7 2.3-2 2.3-3.7zm-5.3 1.5h-1.7v-2.9h2.1c1 0 1.6.5 1.6 1.5-.1 1-.7 1.4-2 1.4zM41.9 37.8V23.5h-3.5l-3.3 5.4-3.3-5.4h-3.5v14.3h3.3v-9l3.5 5.7 3.5-5.7v9z"/></g></switch></svg>