<svg xmlns="http://www.w3.org/2000/svg" viewBox="0 0 60 60"><switch><g><path d="M11.5 10c0-1.4-1-3.5-3.8-3.5H3v11.7h2.7v-4.6H7l2 4.6h3L9.7 13c1.2-.5 1.8-1.6 1.8-3zm-4.4 1.3H5.7V8.9h1.7c.8 0 1.3.4 1.3 1.2s-.4 1.2-1.6 1.2zM21 10.8v7.4h2.7V6.5h-2.9l-2.7 4.4-2.7-4.4h-2.9v11.7h2.7v-7.4l2.9 4.8zM37.4 18.2C26.7 18.2 18 26.9 18 37.6S26.7 57 37.4 57s19.4-8.7 19.4-19.4-8.7-19.3-19.4-19.4zm0 34.1c-8.1 0-14.7-6.6-14.7-14.7s6.6-14.7 14.7-14.7 14.7 6.6 14.7 14.7-6.6 14.7-14.7 14.7z"/><path d="M37 35l-3.6-3.6-3.5 3.5 7 7.2 10.8-10.8-3.5-3.5z"/></g></switch></svg>