<svg xmlns="http://www.w3.org/2000/svg" viewBox="0 0 60 60"><switch><g><path d="M52.6 9.1C49.8 6.2 46 4.5 41.9 4.5c-4 0-7.9 1.7-10.6 4.6L30 10.5l-1.3-1.4C23.1 3.2 13.9 3 8 8.5l-.6.6C1.7 15 1.5 24.3 6.9 30.4L30 56.9l23.1-26.4c5.4-6.2 5.2-15.5-.5-21.4zm-3.3 18.1L30 49.3 10.7 27.2C7 22.9 7.1 16.6 11 12.5l.4-.4c3.9-3.7 10-3.5 13.6.4l1.3 1.4 3.6 3.8 3.6-3.8 1.3-1.4c3.7-3.9 9.9-4 13.7-.3l.4.4c4 4 4.1 10.4.4 14.6z"/><path d="M27.9 25.1c0-1.4-1-3.5-3.8-3.5h-4.7v11.7h2.7v-4.6h1.3l2 4.6h2.9L26 28.1c1.2-.6 1.9-1.7 1.9-3zm-4.4 1.2h-1.4v-2.4h1.7c.8 0 1.3.4 1.3 1.2 0 .8-.5 1.2-1.6 1.2zM34.5 26l-2.7-4.5h-3v11.8h2.8v-7.4l2.9 4.7 2.8-4.7v7.4h2.8V21.5h-2.9z"/></g></switch></svg>