<svg xmlns="http://www.w3.org/2000/svg" viewBox="0 0 60 60"><switch><g><path d="M15 18.7c0-2 1.7-3.7 3.7-3.7h21.9l-3.7 3.7 3.5 3.5 9.6-9.6L40.4 3l-3.5 3.5 3.5 3.5H18.7c-4.8 0-8.7 3.9-8.7 8.7V27h5v-8.3zM45 41.3c0 2-1.7 3.7-3.7 3.7H19.4l3.7-3.7-3.5-3.5-9.6 9.6 9.6 9.6 3.5-3.5-3.4-3.5h21.6c4.8 0 8.7-3.9 8.7-8.7v-8.4h-5v8.4z"/><path d="M28.4 28.3c0-1.4-1-3.5-3.8-3.5h-4.7v11.7h2.7v-4.6h1.3l2 4.6h2.9l-2.3-5.2c1.2-.6 1.9-1.6 1.9-3zM24 29.5h-1.4v-2.4h1.7c.8 0 1.3.4 1.3 1.2 0 .9-.5 1.2-1.6 1.2zM40.6 36.5V24.8h-2.9L35 29.2l-2.7-4.4h-3v11.7h2.8v-7.4l2.9 4.7 2.9-4.7v7.4z"/></g></switch></svg>