<svg xmlns="http://www.w3.org/2000/svg" viewBox="0 0 60 60"><switch><g><path d="M23.9 44.7c11.5 0 20.8-9.3 20.9-20.9C44.8 12.3 35.4 3 23.9 3S3 12.3 3 23.9c0 11.5 9.4 20.8 20.9 20.8zM8 23.9C8 15.1 15.1 8 23.9 8s15.9 7.1 15.9 15.9-7.1 15.9-15.9 15.9C15.1 39.7 8 32.6 8 23.9z"/><path d="M53.3 24.3c-1.5-2.1-3.3-3.9-5.4-5.4.3 1.6.5 3.3.5 4.9 0 .7 0 1.4-.1 2.1 5.6 6.7 4.7 16.7-2 22.3-5.9 4.9-14.4 4.9-20.3.1-.7.1-1.5.1-2.3.1-1.6 0-3.2-.2-4.8-.5 6.5 9.5 19.5 11.8 29 5.3 9.5-6.5 11.9-19.4 5.4-28.9zM22.4 21.3c0-1.4-1-3.5-3.8-3.5h-4.7v11.7h2.7v-4.6H18l2 4.6h2.9l-2.3-5.2c1.2-.6 1.8-1.7 1.8-3zM18 22.5h-1.4v-2.4h1.7c.8 0 1.3.4 1.3 1.2 0 .8-.4 1.2-1.6 1.2zM26.1 22.1l2.9 4.7 2.9-4.7v7.3h2.7V17.7h-2.9L29 22.1l-2.7-4.4h-2.9v11.7h2.7z"/></g></switch></svg>