<svg xmlns="http://www.w3.org/2000/svg" viewBox="0 0 60 60"><path d="M50.75 37.331a21.912 21.912 0 0 1-2.415 4.816V21.58H27.646v-5.163A13.1 13.1 0 0 0 16.641 3.484L13.7 3 3 14.71v11.984h8.981v15.792a21.9 21.9 0 0 1-2.651-5.155H4.091a26.952 26.952 0 0 0 51.9 0zM7.972 21.723v-5.084l7.58-8.3.282.046a8.14 8.14 0 0 1 6.84 8.034v10.132h20.689v20.913a21.894 21.894 0 0 1-5.721 3.161V37.331H22.659v13.377a21.955 21.955 0 0 1-5.706-3.06V21.723zm19.659 30.129V42.3h5.04v9.524a19.834 19.834 0 0 1-5.04.026z"/></svg>