<svg xmlns="http://www.w3.org/2000/svg" viewBox="0 0 60 60"><path d="M24.911 51.81a293.19 293.19 0 0 0-.879-10.068l16.211-1.489.951 10.872a60.36 60.36 0 0 1-16.283.685zm14.9-16.538L23.52 36.7c-.22-1.787-.5-3.486-.685-5.131l16.574-1.523zm10.2 13.767c-1.335.412-2.662.746-3.988 1.075l-1.797-20.508 2.3-.211-.438-4.981-24.01 2.2A176.181 176.181 0 0 0 16.472 3L11.8 4.467c4.15 13.215 6.81 28.519 8.147 46.633a57.288 57.288 0 0 1-9.665-2.724l-1.736 4.578A61.717 61.717 0 0 0 30.585 57a70.548 70.548 0 0 0 20.869-3.283l-1.446-4.678z"/></svg>