<svg xmlns="http://www.w3.org/2000/svg" viewBox="0 0 60 60"><path d="M27.496 31.547h5.029v-4.913h-5.029v4.913z"/><path d="M44.792 36.152l2.362 7.321-3.937-1.049a36.583 36.583 0 0 0 .683-6.656l.892.384zM36.387 47.71l-3.862-1.141v-8.511H27.5v8.686l-3.9 1.024a33.24 33.24 0 0 1-.242-24.624H36.7a33.5 33.5 0 0 1-.317 24.566zm-6.348-36.839a47.9 47.9 0 0 1 4.506 7.244h-8.989a53.181 53.181 0 0 1 4.483-7.244zm-17.193 32.6l2.362-7.321.864-.371a37 37 0 0 0 .692 6.648l-3.918 1.044zm41.925 7.233l-5.9-18.269-5.325-2.294C41.561 15.581 31.937 5.26 31.8 5.112L29.786 3 27.7 5.662c-6.39 7.937-10.176 16.25-11.289 24.5l-5.289 2.278-5.893 18.266 12.829-3.417a39.953 39.953 0 0 0 1.852 4.543l.9 1.869 6.69-1.758V57h5.029v-5.188l6.583 1.945.931-1.915a39.769 39.769 0 0 0 1.88-4.559l12.852 3.423z"/></svg>