<svg xmlns="http://www.w3.org/2000/svg" data-name="Layer 6" viewBox="0 0 60 60"><path d="M48.147 22.2a8.863 8.863 0 0 0-8.861 8.7h-4.247c-7.6 0-7.6-2.99-7.6-4.6a8.659 8.659 0 0 0-.839-3.707h8.246v-2.5c0-3.24-.867-10.713-8.757-11.032V3h-3.967A12.136 12.136 0 0 0 10 15.114l-.045 9.132a9.641 9.641 0 0 0-6.936 9.14v4.643h6.038a6.366 6.366 0 0 0-.464 6.4 6.5 6.5 0 0 0 5.007 3.579c2.034 4.545 7.148 8.981 16.119 8.981h.31c13.088 0 19.724-7.747 19.724-23.026V30.9h-5.46a3.863 3.863 0 0 1 7.723.148v8.483h5v-8.485a8.867 8.867 0 0 0-8.869-8.846zM15 15.126a7.136 7.136 0 0 1 6.091-7.051v5.976h4.47c1.252 0 3.407.03 4.08 3.543H18.716a8.69 8.69 0 0 0-3.736.833zm.925 26.926a1.538 1.538 0 0 1-2.737.145c-.441-.908.538-2.077 1.5-2.92.912.867 1.564 1.86 1.234 2.775zM44.714 35.9c-.461 11.109-5.045 16.091-14.685 16.091h-.31c-6.024 0-9.574-2.511-11.17-5.268a6.4 6.4 0 0 0 2.176-2.937c.713-1.98 1.077-5.886-4.505-9.812l-1.341-.943H8.032a4.652 4.652 0 0 1 4.41-4.142h2.5v-2.5a3.84 3.84 0 0 1 3.774-3.8 3.724 3.724 0 0 1 3.722 3.711c0 4.378 2.186 9.6 12.6 9.6z"/><path d="M26.945 39.117h10.347v5H26.945z"/></svg>