<svg xmlns="http://www.w3.org/2000/svg" viewBox="0 0 60 60"><switch><g><path d="M49.1 11.3V3.1H3v46.1h8.4v7.6H57V11.3h-7.9zM11.4 44.2H8V8.1h36.1v3.1H11.4v33zm32.7-28v28H16.4v-28h27.7zM16.4 51.9v-2.6h32.7v-33H52v35.6H16.4z"/><path d="M22.4 29.9h2l2.8 6.3H31l-3.1-7c1.6-.8 2.5-2.3 2.5-4.1 0-1.9-1.4-4.8-5.2-4.8h-6.3v15.9h3.6l-.1-6.3zm0-6.5h2.4c1.2 0 1.8.6 1.8 1.8 0 1.1-.7 1.7-2.3 1.7h-2v-3.5h.1zM35 35.8c.7.5 1.5.8 2.3.8 1.7 0 4.6-.8 4.6-6.4 0-4.3-2.6-5.8-4.4-5.8-1.1 0-1.8.5-2.5 1.1v-.8h-3.5v15.6H35v-4.5zm0-7.3c.5-.6 1-1.1 1.7-1.1 1.6 0 1.7 2.4 1.7 3.1 0 1.5-.3 3.3-1.8 3.3-.8 0-1.3-.6-1.7-1.2l.1-4.1z"/></g></switch></svg>