<svg xmlns="http://www.w3.org/2000/svg" viewBox="0 0 60 60"><switch><g><path d="M50 12.7h-7.8C41 6.3 34.9 2 28.5 3.2c-4.8.9-8.6 4.6-9.5 9.5h-9l-7 41h54l-7-41zM30.6 8c2.9 0 5.5 1.9 6.4 4.7H24.2c.9-2.8 3.5-4.7 6.4-4.7zm-16.4 9.7h31.6l5.3 31H8.9l5.3-31z"/><path d="M30.4 28c0-2.3-1.6-5.6-6.1-5.6h-7.4v18.7h4.2v-7.4h2.3l3.3 7.4h4.4l-3.7-8.2c1.9-1 3-2.7 3-4.9zm-7 2h-2.3v-4h2.8c1.4 0 2.2.7 2.2 2.1 0 1.3-.9 1.9-2.7 1.9zM38.9 27.1c-1.3 0-2.1.6-3 1.3v-1h-4.1v18.3h4.1v-5.1c.8.6 1.7.9 2.7.9 2 0 5.4-1 5.4-7.5 0-5.1-3.1-6.9-5.1-6.9zm-1 11.3c-.9 0-1.5-.7-2-1.4v-4.9c.6-.7 1.2-1.3 2-1.3 1.9 0 2 2.8 2 3.6.1 1.8-.3 4-2 4z"/></g></switch></svg>