<svg xmlns="http://www.w3.org/2000/svg" viewBox="0 0 60 60"><switch><g><path d="M18.3 11.7c0-2-1.4-4.9-5.3-4.9H6.4v16.4h3.7v-6.5h2l2.9 6.5h3.9L15.7 16c1.7-.9 2.6-2.4 2.6-4.3zm-6.1 1.8h-2.1V10h2.5c1.2 0 1.9.6 1.9 1.8s-.7 1.7-2.3 1.7zM23.2 22.8c.7.5 1.5.8 2.4.8 1.8 0 4.8-.9 4.8-6.6 0-4.4-2.7-6-4.5-6-1.1 0-1.9.5-2.6 1.1v-.8h-3.6v16.1h3.6v-4.6h-.1zm0-7.5c.5-.6 1.1-1.1 1.8-1.1 1.7 0 1.8 2.5 1.8 3.2 0 1.6-.3 3.4-1.9 3.4-.8 0-1.3-.6-1.7-1.2v-4.3zM53.4 21.5L31.9 43l-7.6-7.6-3.5 3.5 11.1 11.2 25-25z"/></g></switch></svg>