<svg xmlns="http://www.w3.org/2000/svg" viewBox="0 0 60 60"><switch><g><path d="M57 8.8h-5v5.6C43.4 2.2 26.5-.6 14.4 8 2.2 16.7-.6 33.5 8 45.7c8.6 12.1 25.5 15 37.6 6.3C52.8 46.9 57 38.7 57 30h-5c0 12.2-9.8 22-22 22.1-12.2 0-22-9.8-22.1-22 0-12.2 9.8-22 22-22.1 7.7 0 14.9 4 18.9 10.6h-6.7v5H57V8.8z"/><path d="M31.4 25.6c0-2.3-1.6-5.6-6.1-5.6h-7.4v18.7h4.2v-7.4h2.3l3.3 7.4h4.4l-3.7-8.2c1.9-1 3-2.7 3-4.9zm-7 2h-2.3v-4h2.8c1.4 0 2.2.7 2.2 2.1 0 1.3-.8 1.9-2.7 1.9zM32.9 25v18.3H37v-5.1c.8.6 1.7.9 2.7.9 2 0 5.4-1 5.4-7.5 0-5-3.1-6.9-5.1-6.9-1.3 0-2.1.6-3 1.3v-1h-4.1zm6.1 3.4c1.9 0 2 2.8 2 3.6 0 1.8-.4 3.9-2.1 3.9-.9 0-1.5-.7-2-1.4v-4.9c.6-.6 1.2-1.2 2.1-1.2z"/></g></switch></svg>