<svg xmlns="http://www.w3.org/2000/svg" viewBox="0 0 60 60"><switch><g><path d="M3 3v5h7v49h40V8h7V3H3zm42 49H15V8h30v44z"/><path d="M21.8 21.1H24l3 6.9h4.2l-3.4-7.7c1.8-.9 2.8-2.5 2.8-4.5 0-2.1-1.5-5.2-5.7-5.2H18V28h3.9v-6.9h-.1zm0-7.1h2.7c1.3 0 2 .7 2 1.9 0 1.3-.8 1.8-2.5 1.8h-2.2V14zM35.7 27.6c.8.6 1.6.8 2.5.8 1.9 0 5-.9 5-7 0-4.7-2.9-6.4-4.8-6.4-1.2 0-2 .5-2.8 1.2v-.9h-3.8v17.1h3.8l.1-4.8zm0-8c.5-.6 1.1-1.2 1.9-1.2 1.8 0 1.9 2.6 1.9 3.4 0 1.7-.3 3.7-2 3.7-.8 0-1.4-.6-1.8-1.3v-4.6z"/></g></switch></svg>