<svg xmlns="http://www.w3.org/2000/svg" viewBox="0 0 60 60"><switch><g><path d="M25.7 28.5c3.2-1.6 5-4.5 5-8.1 0-3.8-2.7-9.4-10.3-9.4H7.5v32.8h5.8V30h5.9l6.1 13.7h6.1L24.8 29l.9-.5zm-7-3.3h-5.3v-9.5h6.3c3.2 0 5 1.8 5 4.8 0 4.7-4.5 4.7-6 4.7zM47.5 19.8c-2 0-3.3.8-4.9 2.1L41 23.3v-2.9h-5.6v32.1H41V41.9l1.6 1.2c1.3 1 2.9 1.5 4.4 1.5 3.4 0 9.1-1.7 9.1-13-.1-8.7-5.2-11.8-8.6-11.8zm-1.9 20.9c-2.2 0-3.6-1.6-4.5-3l-.2-.3v-9.8l.2-.3c1.1-1.3 2.5-2.7 4.6-2.7 4.5 0 4.8 5.9 4.8 7.8.1 6.9-2.6 8.3-4.9 8.3z"/></g></switch></svg>