<svg xmlns="http://www.w3.org/2000/svg" viewBox="0 0 60 60"><switch><g><path d="M45 41.3c0 2-1.7 3.7-3.7 3.7H19.4l3.7-3.7-3.5-3.5-9.6 9.6 9.6 9.6 3.5-3.5-3.4-3.5h21.6c4.8 0 8.7-3.9 8.7-8.7v-8.4h-5v8.4zM15 18.7c0-2 1.7-3.7 3.7-3.7h21.9l-3.7 3.7 3.5 3.5 9.6-9.6L40.4 3l-3.5 3.5 3.5 3.5H18.7c-4.8 0-8.7 3.9-8.7 8.7V27h5v-8.3z"/><path d="M31.7 24.9c0-1.9-1.4-4.8-5.2-4.8h-6.3V36h3.6v-6.3h2l2.8 6.3h3.8l-3.1-7c1.5-.8 2.4-2.3 2.4-4.1zm-6 1.7h-2v-3.4h2.4c1.2 0 1.8.6 1.8 1.8.1 1.1-.6 1.6-2.2 1.6zM32.9 24.4V40h3.5v-4.4c.7.5 1.5.8 2.3.8 1.7 0 4.6-.8 4.6-6.4 0-4.3-2.6-5.8-4.4-5.8-1.1 0-1.8.5-2.5 1.1v-.8l-3.5-.1zm5.2 2.9c1.6 0 1.7 2.4 1.7 3.1 0 1.5-.3 3.3-1.8 3.3-.8 0-1.3-.6-1.7-1.2v-4.2c.6-.5 1.1-1 1.8-1z"/></g></switch></svg>