<svg xmlns="http://www.w3.org/2000/svg" viewBox="0 0 60 60"><switch><g><path d="M27.4 8.1V3C14.5 4.3 4.3 14.5 3.1 27.4h5C9.3 17.3 17.3 9.3 27.4 8.1zM51.8 27.4h5C55.7 14.4 45.4 4.2 32.4 3v5c10.2 1.2 18.3 9.2 19.4 19.4zM32.4 52v5c13-1.2 23.3-11.4 24.5-24.4h-5C50.7 42.8 42.6 50.8 32.4 52zM8.2 32.6h-5C4.3 45.5 14.5 55.7 27.4 57v-5C17.3 50.7 9.3 42.7 8.2 32.6zM31.3 24.8c0-2.3-1.6-5.6-6.1-5.6h-7.4v18.7H22v-7.4h2.3l3.3 7.4H32l-3.7-8.2c2-1 3-2.7 3-4.9zm-6.9 2H22v-4h2.8c1.4 0 2.2.7 2.2 2.1.1 1.3-.8 1.9-2.6 1.9zM32.8 24.2v18.3h4.1v-5.1c.8.6 1.7.9 2.7.9 2 0 5.4-1 5.4-7.5 0-5-3.1-6.9-5.1-6.9-1.3 0-2.1.6-3 1.3v-1h-4.1zm6.1 3.4c1.9 0 2 2.8 2 3.6 0 1.8-.4 3.9-2.1 3.9-.9 0-1.5-.7-2-1.4v-4.9c.7-.6 1.3-1.2 2.1-1.2z"/></g></switch></svg>