<svg xmlns="http://www.w3.org/2000/svg" viewBox="0 0 60 60"><switch><g><path d="M52.6 9.1C49.8 6.2 46 4.5 41.9 4.5c-4 0-7.9 1.7-10.6 4.6L30 10.5l-1.3-1.4C23.1 3.2 13.9 3 8 8.5l-.6.6C1.7 15 1.5 24.3 6.9 30.4L30 56.9l23.1-26.4c5.4-6.2 5.2-15.5-.5-21.4zm-3.3 18.1L30 49.3 10.7 27.2C7 22.9 7.1 16.6 11 12.5l.4-.4c3.9-3.7 10-3.5 13.6.4l1.3 1.4 3.6 3.8 3.6-3.8 1.3-1.4c3.7-3.9 9.9-4 13.7-.3l.4.4c4 4 4.1 10.4.4 14.6z"/><path d="M30.4 23.2c0-1.9-1.4-4.8-5.2-4.8h-6.3v15.9h3.6V28h2l2.8 6.3H31l-3.1-7c1.6-.8 2.5-2.2 2.5-4.1zM24.5 25h-2v-3.4h2.4c1.2 0 1.8.6 1.8 1.8 0 1.1-.7 1.6-2.2 1.6zM37.6 22.5c-1.1 0-1.8.5-2.5 1.1v-.8h-3.5v15.6h3.5V34c.7.5 1.5.8 2.3.8 1.7 0 4.6-.8 4.6-6.4 0-4.4-2.6-5.9-4.4-5.9zm-.8 9.5c-.8 0-1.3-.6-1.7-1.2v-4.2c.5-.6 1-1.1 1.7-1.1 1.6 0 1.7 2.4 1.7 3.1.1 1.6-.2 3.4-1.7 3.4z"/></g></switch></svg>