<svg xmlns="http://www.w3.org/2000/svg" viewBox="0 0 60 60"><switch><g><path d="M48.7 10.5C43.7 5.7 37 3 30 3 15.1 3 3 15.1 3 30c0 7.1 2.8 14 7.9 19.1l3.5-3.5c-8.6-8.6-8.6-22.5 0-31.1 7.9-7.9 20.5-8.6 29.2-1.6l-5 5 3.5 3.5 5-5c6.9 8.6 6.3 21-1.4 28.9l3.6 3.5c10.5-10.8 10.2-27.9-.6-38.3z"/><path d="M30.8 25.6c0-2.3-1.6-5.6-6.1-5.6h-7.4v18.7h4.2v-7.4h2.3l3.3 7.4h4.4l-3.7-8.2c1.9-1 3-2.7 3-4.9zm-7 2.1h-2.3v-4h2.8c1.4 0 2.2.7 2.2 2.1 0 1.3-.8 1.9-2.7 1.9zM39.3 24.7c-1.3 0-2.1.6-3 1.3v-1h-4.1v18.3h4.1v-5.1c.8.6 1.7.9 2.7.9 2 0 5.4-1 5.4-7.5 0-5-3.1-6.9-5.1-6.9zm-1 11.3c-.9 0-1.5-.7-2-1.4v-4.9c.6-.7 1.2-1.3 2-1.3 1.9 0 2 2.8 2 3.6.1 1.9-.3 4-2 4z"/></g></switch></svg>