<svg xmlns="http://www.w3.org/2000/svg" viewBox="0 0 60 60"><switch><g><path d="M30.8 26c0-1.6-1.2-4.1-4.4-4.1H21v13.7h3v-5.4h1.7l2.4 5.4h3.3l-2.7-6c1.3-.8 2.1-2 2.1-3.6zm-5.1 1.5H24v-2.9h2.1c1 0 1.6.5 1.6 1.5-.1 1-.7 1.4-2 1.4zM37 25.4c-.9 0-1.6.4-2.2.9v-.7h-3V39h3v-3.8c.6.4 1.3.7 2 .7 1.5 0 4-.7 4-5.5-.1-3.7-2.3-5-3.8-5zm-.7 8.2c-.7 0-1.1-.5-1.4-1V29c.4-.5.9-.9 1.5-.9 1.4 0 1.5 2 1.5 2.7-.1 1.2-.3 2.8-1.6 2.8z"/><path d="M49 22.1V11H37.9l-8-8-7.9 8H10.8v11.2L2.9 30l7.9 7.9v11.2H22l7.9 7.9 7.9-7.9H49V38l7.9-8-7.9-7.9zm-5 13.8V44h-8.3l-5.8 5.9-5.8-5.8h-8.2v-8.3L10.1 30l5.8-5.8V16h8.2l5.8-5.8 5.8 5.8H44v8.2l5.9 5.9-5.9 5.8z"/></g></switch></svg>