<svg xmlns="http://www.w3.org/2000/svg" viewBox="0 0 60 60"><switch><g><path d="M49.3 3H10.7v54l10.4-5.9 8.8 5.8 8.9-5.8L49.3 57V3zM38.7 45.3L30 50.9l-8.7-5.7-5.6 3.2V8h28.6v40.4l-5.6-3.1z"/><path d="M30.1 23.2c0-1.8-1.3-4.5-4.8-4.5h-5.9v14.9h3.3v-5.9h1.8l2.6 5.9h3.5L27.7 27c1.6-.7 2.4-2 2.4-3.8zm-5.6 1.7h-1.9v-3.2H25c1.1 0 1.7.6 1.7 1.6 0 1.1-.7 1.6-2.2 1.6zM36.9 22.5c-1 0-1.7.5-2.4 1v-.8h-3.2v14.6h3.2v-4.1c.6.5 1.4.7 2.1.7 1.6 0 4.3-.8 4.3-6 .1-3.9-2.4-5.4-4-5.4zm-.8 9c-.7 0-1.2-.5-1.6-1.1v-3.9c.5-.5 1-1 1.6-1 1.5 0 1.6 2.2 1.6 2.9.1 1.4-.2 3.1-1.6 3.1z"/></g></switch></svg>