<svg xmlns="http://www.w3.org/2000/svg" viewBox="0 0 60 60"><switch><g><path d="M13 7.2C13 5.5 11.8 3 8.5 3H2.9v14H6v-5.5h1.7l2.4 5.5h3.3l-2.7-6.2c1.5-.7 2.3-2 2.3-3.6zM7.8 8.7H6.1v-3h2.1c1.1 0 1.6.5 1.6 1.5 0 1.1-.6 1.5-2 1.5zM23.2 11.7c0-3.8-2.3-5.1-3.8-5.1-1 0-1.6.4-2.2.9v-.7h-3v13.7h3v-3.9c.6.4 1.3.7 2 .7 1.5 0 4-.7 4-5.6zm-6 2.2v-3.7c.4-.5.9-.9 1.5-.9 1.4 0 1.5 2.1 1.5 2.7 0 1.3-.3 2.9-1.6 2.9-.6.1-1.1-.4-1.4-1zM37.4 18.3C26.7 18.3 18 27 18 37.7S26.7 57 37.4 57s19.4-8.7 19.4-19.4c-.1-10.6-8.7-19.3-19.4-19.3zm0 34c-8.1 0-14.7-6.6-14.7-14.7s6.6-14.7 14.7-14.7 14.7 6.6 14.7 14.7c-.1 8.2-6.6 14.7-14.7 14.7z"/><path d="M36.9 35l-3.5-3.5-3.6 3.5 7.1 7.1 10.8-10.7-3.6-3.6z"/></g></switch></svg>