<svg xmlns="http://www.w3.org/2000/svg" viewBox="0 0 60 60"><switch><g><path d="M30 3C15.1 3 3 15.1 3 30s12.1 27 27 27 27-12.1 27-27S44.9 3 30 3zm0 49C17.9 52 8 42.1 8 30S17.9 8 30 8s22 9.8 22 22c0 12.1-9.9 22-22 22z"/><path d="M31.4 24.8c0-2.3-1.6-5.6-6.1-5.6h-7.4v18.7H22v-7.4h2.3l3.3 7.4H32l-3.7-8.2c2-1 3.1-2.7 3.1-4.9zm-7 2H22v-4h2.8c1.4 0 2.2.7 2.2 2.1.1 1.3-.8 1.9-2.6 1.9zM39.8 23.9c-1.3 0-2.1.6-3 1.3v-1h-4.1v18.3h4.1v-5.1c.8.6 1.7.9 2.7.9 2 0 5.4-1 5.4-7.5.1-5.1-3-6.9-5.1-6.9zm-.9 11.3c-.9 0-1.5-.7-2-1.4v-4.9c.6-.7 1.2-1.3 2-1.3 1.9 0 2 2.8 2 3.6.1 1.8-.3 4-2 4z"/></g></switch></svg>