<svg xmlns="http://www.w3.org/2000/svg" viewBox="0 0 60 60"><switch><g><path d="M39.8 3H6.5v54h47V16.7L39.8 3zm8.7 49h-37V8h26.2l10.8 10.8V52z"/><path d="M29.9 25.7c0-2.3-1.6-5.6-6.1-5.6h-7.4v18.7h4.2v-7.4h2.3l3.3 7.4h4.4L27 30.5c1.9-1 2.9-2.7 2.9-4.8zm-6.9 2h-2.3v-4h2.8c1.4 0 2.2.7 2.2 2.1 0 1.3-.9 1.9-2.7 1.9zM35.5 25.1h-4.1v18.3h4.1v-5.1c.8.6 1.7.9 2.7.9 2 0 5.4-1 5.4-7.5 0-5-3.1-6.9-5.1-6.9-1.3 0-2.1.6-3 1.3v-1zm2 3.4c1.9 0 2 2.8 2 3.6 0 1.8-.4 3.9-2.1 3.9-.9 0-1.5-.7-2-1.4v-4.9c.7-.6 1.3-1.2 2.1-1.2z"/></g></switch></svg>