<svg xmlns="http://www.w3.org/2000/svg" viewBox="0 0 60 60"><switch><g><path d="M39.9 14.4L44.4 3H15.6l4.5 11.4C12.7 18.1 7.6 25.7 7.6 34.5 7.6 46.9 17.6 57 30 57s22.4-10.1 22.4-22.4c0-8.9-5.1-16.5-12.5-20.2zM30.1 8h7l-1.8 4.7c-1.7-.4-3.5-.6-5.3-.6s-3.5.2-5.2.6L22.9 8h7.2zM30 52c-9.6 0-17.5-7.8-17.5-17.5C12.5 24.9 20.3 17 30 17c9.6 0 17.5 7.8 17.5 17.5S39.6 52 30 52z"/><path d="M31 29.4c0-1.9-1.4-4.8-5.2-4.8h-6.3v15.9H23v-6.3h2l2.8 6.3h3.8l-3.1-7c1.6-.8 2.5-2.3 2.5-4.1zm-6 1.7h-2v-3.4h2.4c1.2 0 1.8.6 1.8 1.8.1 1.1-.6 1.6-2.2 1.6zM38.2 28.6c-1.1 0-1.8.5-2.5 1.1v-.8h-3.5v15.6h3.5v-4.4c.7.5 1.5.8 2.3.8 1.7 0 4.6-.8 4.6-6.4-.1-4.3-2.7-5.9-4.4-5.9zm-.9 9.6c-.8 0-1.3-.6-1.7-1.2v-4.2c.5-.6 1-1.1 1.7-1.1 1.6 0 1.7 2.4 1.7 3.1.1 1.6-.2 3.4-1.7 3.4z"/></g></switch></svg>