<svg xmlns="http://www.w3.org/2000/svg" viewBox="0 0 60 60"><switch><g><path d="M23.5 24.6c0-1.6-1.2-4.1-4.4-4.1h-5.4v13.7h3.1v-5.4h1.7l2.4 5.4H24l-2.7-6c1.4-.8 2.2-2 2.2-3.6zm-5.1 1.5h-1.7v-2.9h2.1c1 0 1.6.5 1.6 1.5 0 .9-.6 1.4-2 1.4zM29.7 23.9c-.9 0-1.6.4-2.2.9v-.7h-3v13.4h3v-3.8c.6.4 1.3.7 2 .7 1.5 0 4-.7 4-5.5 0-3.6-2.3-5-3.8-5zm-.7 8.3c-.7 0-1.1-.5-1.4-1v-3.6c.4-.5.9-.9 1.5-.9 1.4 0 1.5 2 1.5 2.7 0 1.2-.3 2.8-1.6 2.8z"/><path d="M44.7 3H17.3c-6 0-10.8 4.8-10.8 10.8v35.9l7.3 7.3 4.8-4.8 4.8 4.8 4.8-4.8L33 57l7.3-7.3.2-26.2h13.1V12.1c-.1-4.9-4-9-8.9-9.1zm-9.3 9.1l-.3 35.6-2.3 2.3-4.8-4.8-4.7 4.8-4.8-4.8-4.8 4.8-2.3-2.3V13.8c0-3.2 2.6-5.8 5.8-5.8h19.1c-.6 1.3-.9 2.7-.9 4.1zm13.1 6.4h-8.1V12c0-2.1 1.6-3.8 3.6-4h.4c2.2 0 4 1.8 4 4v6.5h.1z"/></g></switch></svg>