<svg xmlns="http://www.w3.org/2000/svg" viewBox="0 0 60 60"><switch><g><path d="M53.6 57l-.1-30.3L29.8 3 6.5 26.3 6.4 57h5V28.5L29.8 10l18.8 18.9V57z"/><path d="M30.7 33.7c0-2.3-1.6-5.6-6.1-5.6h-7.4v18.7h4.2v-7.4h2.3l3.3 7.4h4.4l-3.7-8.2c2-1.1 3-2.8 3-4.9zm-7 2h-2.3v-4h2.8c1.4 0 2.2.7 2.2 2.1 0 1.3-.8 1.9-2.7 1.9zM39.2 32.8c-1.3 0-2.1.6-3 1.3v-1h-4.1v18.3h4.1v-5.1c.8.6 1.7.9 2.7.9 2 0 5.4-1 5.4-7.5 0-5.1-3-6.9-5.1-6.9zm-1 11.2c-.9 0-1.5-.7-2-1.4v-4.9c.6-.7 1.2-1.3 2-1.3 1.9 0 2 2.8 2 3.6.1 1.9-.2 4-2 4z"/></g></switch></svg>