<svg xmlns="http://www.w3.org/2000/svg" viewBox="0 0 60 60"><path d="M32.34 38.7c-.04-1.04-.03-2.09-.01-3.33.03-2.02 1.27-4.36 2.93-6.79h.02l1.78-2.55.97-1.33c1.8.69 3.74.88 5.64.54 2.78-.5 5.19-2.05 6.81-4.36s2.23-5.12 1.73-7.9l-1.86-10.4-10.4 1.86c-2.78.5-5.19 2.05-6.81 4.36s-2.23 5.12-1.73 7.9c.34 1.91 1.2 3.68 2.49 5.13l-.82 1.18c-1.91 2.63-3.58 5.02-4.61 7.38l-1.87-1.87c1.01-1.66 1.54-3.55 1.54-5.49 0-5.82-4.74-10.56-10.56-10.56H7.01v10.56c0 5.82 4.74 10.56 10.56 10.56 1.94 0 3.83-.53 5.49-1.54l1.69 1.68c1.49 1.86 2.16 3.1 2.39 4.96H3.05v5.01h54.07v-5.01H32.35zm4.89-27.03a5.52 5.52 0 0 1 3.58-2.3l5.48-.98.98 5.48c.26 1.46-.06 2.94-.91 4.16a5.52 5.52 0 0 1-3.58 2.3c-.58.11-1.17.11-1.77.02l3.05-4.38-4.1-2.85-3.05 4.38c-.29-.53-.49-1.08-.59-1.67-.26-1.46.06-2.94.91-4.16zM22.84 24.78L19.06 21l-3.53 3.53 3.78 3.78c-.57.19-1.15.29-1.74.29-3.07 0-5.56-2.5-5.56-5.57v-5.56h5.56c3.07 0 5.57 2.5 5.57 5.56 0 .59-.1 1.18-.29 1.74z"/><circle cx="8.29" cy="47.66" r="2.62"/><circle cx="23.45" cy="47.65" r="2.62"/><circle cx="51.81" cy="47.59" r="2.62"/><circle cx="16.06" cy="54.33" r="2.62"/><circle cx="31.45" cy="54.35" r="2.62"/><circle cx="45.54" cy="54.35" r="2.62"/><circle cx="38.46" cy="47.52" r="2.62"/></svg>