<svg xmlns="http://www.w3.org/2000/svg" viewBox="0 0 60 60"><path d="M56.06 15.31l-2.11-11.8-11.8 2.11c-6.52 1.17-10.85 7.4-9.68 13.91.42 2.37 1.52 4.44 3.05 6.07l-1.17 1.68c-2.47 3.41-4.48 6.31-5.62 9.2l-2.92-2.92c1.22-1.88 1.94-4.11 1.94-6.52 0-6.62-5.37-11.99-11.99-11.99H3.77v11.99c0 6.62 5.37 11.99 11.99 11.99 2.41 0 4.64-.72 6.52-1.94l2.27 2.27c2.74 3.42 3.22 5.12 2.96 10.63-6.39 1.17-8.72 6.92-8.72 6.92h22.24s-2.3-5.52-8.46-6.85c.03-2 .07-4.74.12-8.5.03-2.61 1.51-5.32 3.77-8.61l.02.02 1.85-2.65c.28-.39.57-.79.87-1.2l.47-.64c2.05.86 4.36 1.16 6.71.74 6.52-1.17 10.85-7.4 9.68-13.91zM22.13 29.89l-4.61-4.61-3.53 3.53 4.61 4.61c-.87.39-1.83.62-2.84.62-3.85 0-6.99-3.14-6.99-6.99v-6.99h6.99c3.85 0 6.99 3.14 6.99 6.99 0 1.01-.23 1.97-.62 2.84zm23.36-5.59c-1 .18-1.98.12-2.9-.11l3.72-5.35-4.1-2.85-3.72 5.35c-.54-.79-.93-1.69-1.11-2.69-.68-3.79 1.85-7.43 5.65-8.11l6.88-1.23 1.23 6.88c.68 3.79-1.85 7.43-5.65 8.11z"/></svg>