<svg xmlns="http://www.w3.org/2000/svg" viewBox="0 0 60 60"><switch><g><path d="M27.4 8.1V3C14.5 4.3 4.3 14.5 3.1 27.4h5C9.3 17.3 17.3 9.3 27.4 8.1zM51.8 27.4h5C55.7 14.4 45.4 4.2 32.4 3v5c10.2 1.2 18.3 9.2 19.4 19.4zM8.2 32.6h-5C4.3 45.5 14.5 55.7 27.4 57v-5C17.3 50.7 9.3 42.7 8.2 32.6zM32.4 52v5c13-1.2 23.3-11.4 24.5-24.4h-5C50.7 42.8 42.6 50.8 32.4 52zM37.3 35.8c-1.1-.1-2-.9-2.2-2h-3.4c.2 2.3 1.7 4.2 3.9 5l.3.1V41h3.4v-2l.3-.1c1.5-.5 2.6-1.5 3.3-2.9s.8-3 .3-4.4c-.8-2.4-3.1-4-5.6-3.9-.6 0-1.2-.2-1.7-.6s-.8-1-.8-1.7c0-.6.2-1.3.6-1.7.4-.5 1-.8 1.7-.8h.3c1.2-.1 2.2.8 2.5 2h3.4c-.2-2.3-1.7-4.2-3.9-5l-.3-.1v-2.1H36v2.1l-.3.1c-1.5.5-2.6 1.5-3.3 2.9s-.8 2.9-.3 4.4c.8 2.4 3.1 4 5.6 3.9.7 0 1.3.3 1.7.8s.7 1.1.6 1.7c0 .6-.3 1.2-.8 1.7-.6.3-1.2.6-1.9.5zM23.8 27.7c-1.9-.6-3.6-1.2-3.6-3 0-1.4 1.1-2.4 2.6-2.4 1.6 0 2.6 1.5 2.9 3l3-1.4c-.5-2.7-2.7-4.3-5.7-4.3-3.4 0-6 2.4-6 5.6 0 3.5 2.8 4.5 5.3 5.3 1.9.6 3.8 1.3 3.8 3.1 0 1.6-1.2 2.7-3 2.7s-3-1.2-3.2-3.2l-3.2 1.6c.8 2.8 3.1 4.3 6.5 4.3 4.6 0 6.3-3.3 6.3-5.5-.3-4-3.1-5-5.7-5.8z"/></g></switch></svg>