<svg xmlns="http://www.w3.org/2000/svg" viewBox="0 0 60 60"><switch><g><path d="M22.1 29.1v2.1h3.3v-2.1l.3-.1c1.4-.5 2.6-1.5 3.3-2.9.7-1.4.8-2.9.3-4.4-.8-2.4-3-3.9-5.5-3.9-.6 0-1.2-.2-1.7-.6s-.8-1-.8-1.6.2-1.2.6-1.7 1-.8 1.6-.8h.3c1.2-.1 2.2.8 2.4 1.9h3.4c-.2-2.3-1.7-4.2-3.8-4.9l-.3-.1V8h-3.3v2.1l-.3.1c-1.4.5-2.6 1.5-3.3 2.9-.7 1.4-.8 2.9-.3 4.4.8 2.4 3 3.9 5.5 3.9.7 0 1.2.3 1.7.8.4.5.6 1.1.6 1.7s-.3 1.2-.8 1.6-1.1.6-1.7.6c-1.1-.1-2-.9-2.2-1.9H18c.2 2.3 1.7 4.2 3.8 4.9h.3zM10.2 18.1c-1.8-.6-3.6-1.2-3.6-2.9 0-1.4 1.1-2.4 2.5-2.4 1.6 0 2.6 1.4 2.8 3l2.9-1.4c-.5-2.6-2.7-4.2-5.6-4.2-3.4 0-5.9 2.4-5.9 5.5 0 3.5 2.8 4.4 5.2 5.2 1.9.6 3.7 1.2 3.7 3.1 0 1.6-1.2 2.6-3 2.6-1.7 0-3-1.2-3.2-3.2l-3 1.5c.8 2.7 3 4.2 6.4 4.2 4.5 0 6.2-3.2 6.2-5.4 0-3.9-2.9-4.8-5.4-5.6zM53.5 24.9L31.9 46.4l-7.5-7.6-3.6 3.5 11.1 11.2 25.1-25z"/></g></switch></svg>