<svg xmlns="http://www.w3.org/2000/svg" viewBox="0 0 60 60"><switch><g><path d="M35.1 25.7h.2c.7-.1 1.3.5 1.4 1.2v.2h2.8v-.3c-.1-1.7-1.3-3.1-2.9-3.7v-1.5h-2.9v1.5c-1.1.4-2 1.1-2.5 2.2-.5 1-.6 2.2-.2 3.3.6 1.8 2.3 2.9 4.1 2.9.4 0 .8.2 1 .5.3.3.4.7.4 1 0 .4-.2.7-.5 1s-.6.4-1 .4c-.7 0-1.2-.5-1.3-1.2V33h-2.8v.3c.1 1.7 1.3 3.1 2.9 3.7v1.5h2.9V37c1.1-.4 1.9-1.1 2.5-2.2.5-1 .6-2.2.2-3.3-.6-1.7-2.2-2.9-4.1-2.9h-.1c-.4 0-.7-.1-1-.4s-.5-.6-.5-1 .1-.7.4-1c.3-.3.6-.5 1-.5zM25.8 28.7c-1.3-.4-2.3-.8-2.3-1.8 0-.8.7-1.5 1.5-1.5 1 0 1.6.9 1.7 1.9l.1.3 2.5-1.2v-.2c-.4-2-2-3.2-4.2-3.2-2.5 0-4.4 1.8-4.4 4.1 0 2.6 2.1 3.4 3.8 3.9 1.3.4 2.5.8 2.5 1.9 0 1-.7 1.6-1.8 1.6s-1.9-.8-2-2v-.4l-2.7 1.4.1.2c.6 2.1 2.2 3.1 4.7 3.1 3.4 0 4.6-2.4 4.6-4.1-.2-2.7-2.3-3.5-4.1-4z"/><path d="M49.1 22.1V10.9H37.9L30 3l-7.9 7.9H10.9v11.2L3 30l7.9 7.9v11.2H22l8 7.9 7.9-7.9h11.2V38l7.9-8-7.9-7.9zm-5 13.8V44h-8.3L30 49.9l-5.8-5.8H16v-8.3L10.1 30l5.8-5.8V16h8.2l5.8-5.8 5.8 5.8H44v8.2l5.9 5.9-5.8 5.8z"/></g></switch></svg>