<svg xmlns="http://www.w3.org/2000/svg" viewBox="0 0 60 60"><switch><g><path d="M3 11.3v37.5h54V11.3H3zm49 32.4H8V16.3h44v27.4z"/><path d="M11.7 27.5h5.1v5h-5.1zM43.2 27.5h5.1v5h-5.1zM35.3 30.4c.5 0 .9.2 1.2.6.3.3.5.8.4 1.2 0 .4-.2.9-.6 1.2-.3.3-.8.5-1.2.4-.8 0-1.4-.6-1.6-1.4h-2.4c.1 1.6 1.2 3 2.7 3.5l.2.1v1.5h2.4V36l.2-.1c1-.3 1.8-1.1 2.3-2 .5-1 .5-2.1.2-3.1-.6-1.7-2.1-2.8-3.9-2.7-.4 0-.9-.1-1.2-.4s-.5-.7-.6-1.2c0-.4.1-.9.4-1.2.3-.3.7-.5 1.2-.6h.2c.8 0 1.5.5 1.7 1.4h2.4c-.1-1.6-1.2-2.9-2.7-3.5l-.2-.1V21H34v1.5l-.2.1c-1 .3-1.8 1.1-2.3 2-.5 1-.5 2.1-.2 3.1.7 1.7 2.2 2.8 4 2.7zM25.1 34.1c-1.2 0-2.1-.9-2.3-2.2L20.6 33c.6 1.9 2.1 3 4.5 3 3.2 0 4.4-2.3 4.4-3.8 0-2.8-2-3.4-3.8-4-1.3-.4-2.5-.8-2.5-2.1 0-1 .8-1.7 1.8-1.7 1.1 0 1.8 1 2 2.1l2.1-1c-.4-1.8-1.9-3-4-3-2.4 0-4.2 1.7-4.2 3.9 0 2.5 1.9 3.1 3.7 3.7 1.4.5 2.6.9 2.6 2.2 0 1.1-.8 1.8-2.1 1.8z"/></g></switch></svg>