<svg xmlns="http://www.w3.org/2000/svg" viewBox="0 0 60 60"><switch><g><path d="M49.3 3H10.7v54l10.4-5.9 8.8 5.8 8.9-5.8L49.3 57V3zM38.7 45.3L30 50.9l-8.7-5.7-5.6 3.2V8h28.6v40.4l-5.6-3.1z"/><path d="M36.6 24.6c-.6 0-1.1-.2-1.5-.5-.4-.4-.7-.9-.7-1.4 0-.6.2-1.1.5-1.5.4-.4.9-.7 1.4-.7h.2c1-.1 1.9.7 2.1 1.7h3c-.2-2-1.5-3.7-3.4-4.3l-.3-.1V16H35v1.8l-.3.1c-1.3.4-2.3 1.3-2.9 2.5s-.7 2.6-.2 3.8c.7 2.1 2.7 3.5 4.9 3.4.6 0 1.1.3 1.5.7.4.4.6 1 .5 1.5 0 .6-.3 1.1-.7 1.4-.4.4-1 .6-1.5.5-1-.1-1.8-.8-1.9-1.7h-3c.2 2 1.5 3.7 3.4 4.3l.3.1v1.8H38v-1.8l.3-.1c1.3-.4 2.3-1.3 2.9-2.5.6-1.2.7-2.6.2-3.8-.7-2.1-2.6-3.5-4.8-3.4zM24.6 24.6c-1.6-.5-3.1-1-3.1-2.6 0-1.2 1-2.1 2.2-2.1 1.4 0 2.3 1.3 2.5 2.6l2.6-1.2c-.5-2.3-2.4-3.7-5-3.7-3 0-5.2 2.1-5.2 4.8 0 3.1 2.4 3.9 4.6 4.6 1.7.6 3.3 1.1 3.3 2.7 0 1.4-1 2.3-2.6 2.3-1.5 0-2.6-1.1-2.8-2.8l-2.8 1.4c.7 2.4 2.7 3.7 5.6 3.7 4 0 5.5-2.9 5.5-4.8-.1-3.3-2.6-4.1-4.8-4.9z"/></g></switch></svg>