<svg xmlns="http://www.w3.org/2000/svg" viewBox="0 0 60 60"><switch><g><path d="M48.7 10.5C43.7 5.7 37 3 30 3 15.1 3 3 15.1 3 30c0 7.1 2.8 14 7.9 19.1l3.5-3.5c-8.6-8.6-8.6-22.5 0-31.1 7.9-7.9 20.5-8.6 29.2-1.6l-5 5 3.5 3.5 5-5c6.9 8.6 6.3 21-1.4 28.9l3.6 3.5c10.5-10.8 10.2-27.9-.6-38.3z"/><path d="M35.1 29c-.5 0-1-.1-1.3-.5-.4-.3-.6-.8-.6-1.3s.1-1 .5-1.4c.3-.4.8-.6 1.3-.6h.2c.9-.1 1.7.6 1.9 1.5h2.7c-.2-1.8-1.3-3.3-3-3.9l-.2-.1v-1.6H34v1.6l-.2.1c-1.1.4-2.1 1.2-2.6 2.3-.5 1.1-.6 2.3-.2 3.4.6 1.9 2.4 3.1 4.4 3 .5 0 1 .3 1.3.6.3.4.5.9.5 1.4s-.3 1-.6 1.3c-.4.3-.9.5-1.4.5-.9 0-1.6-.7-1.7-1.5h-2.6c.2 1.8 1.3 3.3 3 3.9l.2.1v1.6h2.6v-1.6l.2-.1c1.1-.4 2.1-1.2 2.6-2.3s.6-2.3.2-3.4c-.9-1.8-2.7-3-4.6-3zM25 29.1c-1.4-.5-2.8-.9-2.8-2.3 0-1.1.9-1.9 2-1.9 1.3 0 2 1.1 2.2 2.3l2.3-1.1c-.4-2.1-2.1-3.3-4.4-3.3-2.7 0-4.7 1.9-4.7 4.3 0 2.8 2.2 3.5 4.1 4.1 1.5.5 3 1 3 2.4 0 1.3-.9 2.1-2.3 2.1s-2.3-1-2.5-2.5l-2.5 1.3c.6 2.2 2.4 3.3 5 3.3 3.6 0 4.9-2.6 4.9-4.3 0-3-2.3-3.7-4.3-4.4z"/></g></switch></svg>