<svg xmlns="http://www.w3.org/2000/svg" viewBox="0 0 60 60"><switch><g><path d="M39.9 14.4L44.4 3H15.6l4.5 11.4C12.7 18.1 7.6 25.7 7.6 34.5 7.6 46.9 17.6 57 30 57s22.4-10.1 22.4-22.4c0-8.9-5.1-16.5-12.5-20.2zM30.1 8h7l-1.8 4.7c-1.7-.4-3.5-.6-5.3-.6s-3.5.2-5.2.6L22.9 8h7.2zM30 52c-9.6 0-17.5-7.8-17.5-17.5C12.5 24.9 20.3 17 30 17c9.6 0 17.5 7.8 17.5 17.5S39.6 52 30 52z"/><path d="M35.9 33.2c-.5 0-1-.1-1.3-.5-.4-.3-.6-.8-.6-1.3s.1-1 .5-1.4c.3-.4.8-.6 1.3-.6h.2c.9-.1 1.7.6 1.9 1.5h2.6c-.2-1.8-1.3-3.3-3-3.9h-.3v-1.6h-2.6V27l-.2.1c-1.1.4-2 1.2-2.6 2.3-.5 1.1-.6 2.3-.2 3.4.6 1.9 2.4 3.1 4.3 3 .5 0 1 .2 1.3.6.3.4.5.9.5 1.4s-.2 1-.6 1.3c-.4.3-.9.5-1.4.5-.9 0-1.6-.7-1.7-1.5h-2.6c.2 1.8 1.3 3.3 3 3.9l.2.1v1.6h2.6V42l.2-.1c1.1-.4 2-1.2 2.6-2.3.5-1.1.6-2.3.2-3.4-.6-1.8-2.4-3-4.3-3zM25.2 33.3c-1.4-.5-2.8-.9-2.8-2.3 0-1.1.9-1.9 2-1.9 1.3 0 2 1.1 2.2 2.3l2.3-1.1c-.4-2.1-2.1-3.3-4.4-3.3-2.7 0-4.7 1.9-4.7 4.3 0 2.8 2.2 3.5 4.1 4.1 1.5.5 2.9 1 2.9 2.4 0 1.3-.9 2.1-2.3 2.1s-2.3-1-2.5-2.5l-2.5 1.3c.6 2.2 2.4 3.3 5 3.3 3.6 0 4.9-2.5 4.9-4.3 0-3-2.2-3.8-4.2-4.4z"/></g></switch></svg>