<svg xmlns="http://www.w3.org/2000/svg" viewBox="0 0 60 60"><switch><g><path d="M50 12.7h-7.8C41 6.3 34.9 2 28.5 3.2c-4.8.9-8.6 4.6-9.5 9.5h-9l-7 41h54l-7-41zM30.6 8c2.9 0 5.5 1.9 6.4 4.7H24.2c.9-2.8 3.5-4.7 6.4-4.7zm-16.4 9.7h31.6l5.3 31H8.9l5.3-31z"/><path d="M36.3 32.5c-.5 0-1-.1-1.4-.5-.4-.4-.6-.8-.7-1.4 0-.5.1-1 .5-1.4s.8-.6 1.4-.7h.2c1-.1 1.8.7 2 1.6h2.8c-.2-1.9-1.4-3.5-3.2-4.1l-.3-.1v-1.7h-2.8v1.7l-.2.1c-1.2.4-2.2 1.3-2.8 2.4-.6 1.1-.6 2.4-.2 3.7.7 2 2.6 3.3 4.6 3.2.6 0 1.1.3 1.4.7.4.4.5.9.5 1.4s-.3 1-.7 1.4-.9.5-1.4.5c-.9-.1-1.7-.7-1.9-1.6h-2.8c.2 1.9 1.4 3.5 3.2 4.1l.3.1v1.7h2.8V42l.3-.1c1.2-.4 2.2-1.3 2.8-2.4.6-1.1.6-2.4.2-3.7-.6-2-2.5-3.3-4.6-3.3zM24.9 32.6c-1.5-.5-3-1-3-2.4 0-1.1.9-2 2.1-2 1.3 0 2.2 1.2 2.4 2.5l2.5-1.2c-.4-2.2-2.2-3.6-4.7-3.6-2.8 0-5 2-5 4.6 0 2.9 2.3 3.7 4.4 4.4 1.6.5 3.1 1 3.1 2.6 0 1.3-1 2.2-2.5 2.2s-2.5-1-2.7-2.7l-2.6 1.3c.7 2.3 2.5 3.5 5.4 3.5 3.8 0 5.2-2.7 5.2-4.6-.1-3.1-2.5-3.9-4.6-4.6z"/></g></switch></svg>