<svg xmlns="http://www.w3.org/2000/svg" viewBox="0 0 60 60"><switch><g><path d="M20.2 21.7V20l.2-.1c1.2-.4 2.1-1.2 2.7-2.4.5-1.1.6-2.4.2-3.6-.7-1.9-2.4-3.2-4.4-3.2h-.1c-.5 0-.9-.1-1.3-.4-.4-.3-.6-.8-.6-1.2 0-.5.1-.9.4-1.3.3-.4.8-.6 1.2-.6H18.8c.8 0 1.5.6 1.7 1.4v.1h2.9v-.1c-.2-1.8-1.4-3.4-3.1-4l-.2-.1V2.9h-2.9v1.7l-.2.1C16 5 15 5.9 14.5 7c-.6 1.1-.6 2.4-.2 3.6.7 2 2.5 3.2 4.5 3.2.5 0 .9.2 1.3.6.3.4.5.8.5 1.3s-.2.9-.6 1.2c-.4.3-.8.5-1.3.4-.8 0-1.5-.6-1.6-1.4v-.1H14v.1c.2 1.9 1.4 3.4 3.2 4l.2.1v1.7h2.8zM8.8 10.9C7.4 10.4 6 10 6 8.7c0-1 .8-1.8 1.9-1.8 1.2 0 2 1.1 2.1 2.3v.2l2.6-1.2v-.1C12.2 6 10.4 4.6 8 4.6 5.3 4.5 3.2 6.5 3.2 9c0 2.9 2.2 3.6 4.2 4.3 1.5.5 2.9 1 2.9 2.3 0 1.2-.9 2-2.3 2-1.3 0-2.3-.9-2.4-2.4V15l-2.8 1.4v.1c.7 2.3 2.5 3.5 5.3 3.5 3.7 0 5.1-2.7 5.1-4.5 0-3.2-2.3-3.9-4.4-4.6zM37.4 18.2C26.7 18.2 18 26.9 18 37.6S26.7 57 37.4 57s19.4-8.7 19.4-19.4-8.7-19.3-19.4-19.4zm0 34.1c-8.1 0-14.7-6.6-14.7-14.7s6.6-14.7 14.7-14.7 14.7 6.6 14.7 14.7-6.6 14.7-14.7 14.7z"/><path d="M37 35l-3.6-3.6-3.5 3.5 7 7.2 10.8-10.8-3.5-3.5z"/></g></switch></svg>