<svg xmlns="http://www.w3.org/2000/svg" viewBox="0 0 60 60"><switch><g><path d="M30 3C15.1 3 3 15.1 3 30s12.1 27 27 27 27-12.1 27-27S44.9 3 30 3zm0 49C17.9 52 8 42.1 8 30S17.9 8 30 8s22 9.8 22 22c0 12.1-9.9 22-22 22z"/><path d="M37.6 27.6c-.6 0-1.2-.2-1.7-.6s-.8-1-.8-1.7c0-.6.2-1.3.6-1.7.4-.5 1-.8 1.7-.8h.3c1.2-.1 2.2.8 2.5 2h3.4c-.2-2.3-1.7-4.2-3.9-5l-.3-.1v-2.1H36v2.1l-.3.1c-1.5.5-2.6 1.5-3.3 2.9s-.8 2.9-.3 4.4c.8 2.4 3.1 4 5.6 3.9.7 0 1.3.3 1.7.8.4.5.7 1.1.6 1.7 0 .6-.3 1.2-.8 1.7-.5.4-1.1.7-1.7.6-1.1-.1-2-.9-2.2-2h-3.4c.2 2.3 1.7 4.2 3.9 5l.3.1V41h3.4v-2l.3-.1c1.5-.5 2.6-1.5 3.3-2.9s.8-3 .3-4.4c-1-2.5-3.3-4-5.8-4zM23.8 27.7c-1.9-.6-3.6-1.2-3.6-3 0-1.4 1.1-2.4 2.6-2.4 1.6 0 2.6 1.5 2.9 3l3-1.4c-.5-2.7-2.7-4.3-5.7-4.3-3.4 0-6 2.4-6 5.6 0 3.5 2.8 4.5 5.3 5.3 1.9.6 3.8 1.3 3.8 3.1 0 1.6-1.2 2.7-3 2.7s-3-1.2-3.2-3.2l-3.2 1.6c.8 2.8 3.1 4.3 6.5 4.3 4.6 0 6.3-3.3 6.3-5.5-.3-4-3.1-5-5.7-5.8z"/></g></switch></svg>