<svg xmlns="http://www.w3.org/2000/svg" viewBox="0 0 60 60"><switch><g><path d="M3 3v5h7v49h40V8h7V3H3zm42 49H15V8h30v44z"/><path d="M36.1 21.2c.6 0 1.1.3 1.5.7.4.4.6 1 .5 1.5 0 .6-.3 1.1-.7 1.4-.4.4-1 .6-1.5.5-1-.1-1.8-.8-1.9-1.7h-3c.2 2 1.5 3.7 3.4 4.3l.3.1v1.8h2.9V28l.3-.1c1.3-.4 2.3-1.3 2.9-2.5.6-1.2.7-2.6.2-3.8-.7-2.1-2.7-3.4-4.9-3.4-.6 0-1.1-.2-1.5-.5-.4-.4-.7-.9-.7-1.4 0-.6.2-1.1.5-1.5.4-.4.9-.7 1.4-.7h.2c1-.1 1.9.7 2.1 1.7h3c-.2-2-1.5-3.7-3.4-4.3l-.3-.1V9.5h-2.9v1.8l-.3.1c-1.3.4-2.3 1.3-2.9 2.5s-.7 2.6-.2 3.8c.8 2.2 2.8 3.5 5 3.5zM23.4 25.8c-1.5 0-2.6-1.1-2.8-2.8l-2.8 1.4c.7 2.4 2.7 3.7 5.6 3.7 4 0 5.5-2.9 5.5-4.8 0-3.5-2.5-4.3-4.7-5-1.6-.5-3.1-1-3.1-2.6 0-1.2 1-2.1 2.2-2.1 1.4 0 2.3 1.3 2.5 2.6l2.6-1.2c-.5-2.3-2.4-3.7-5-3.7-3 0-5.2 2.1-5.2 4.8 0 3.1 2.4 3.9 4.6 4.6 1.7.6 3.3 1.1 3.3 2.7-.1 1.5-1.1 2.4-2.7 2.4z"/></g></switch></svg>