<svg xmlns="http://www.w3.org/2000/svg" viewBox="0 0 60 60"><switch><g><path d="M49.1 11.3V3.1H3v46.1h8.4v7.6H57V11.3h-7.9zM11.4 44.2H8V8.1h36.1v3.1H11.4v33zm32.7-28v28H16.4v-28h27.7zM16.4 51.9v-2.6h32.7v-33H52v35.6H16.4z"/><path d="M35.3 31.9c.5 0 .9.2 1.2.6.3.3.5.8.4 1.2 0 .4-.2.9-.6 1.2-.3.3-.8.5-1.2.4-.8 0-1.4-.6-1.6-1.4h-2.4c.1 1.6 1.2 2.9 2.7 3.5l.2.1V39h2.4v-1.5l.2-.1c1-.3 1.8-1.1 2.3-2 .5-1 .5-2.1.2-3.1-.6-1.7-2.1-2.7-3.9-2.7-.4 0-.9-.1-1.2-.4s-.5-.7-.6-1.2c0-.4.1-.9.4-1.2.3-.3.7-.5 1.2-.6h.2c.8 0 1.5.5 1.7 1.4h2.4c-.1-1.6-1.2-2.9-2.7-3.5l-.2-.1v-1.5H34V24h-.1c-1 .3-1.8 1.1-2.3 2-.5 1-.5 2.1-.2 3.1.5 1.7 2.1 2.8 3.9 2.8zM25.1 35.6c-1.2 0-2.1-.9-2.3-2.2l-2.2 1.1c.6 1.9 2.1 3 4.5 3 3.2 0 4.4-2.3 4.4-3.8 0-2.8-2-3.4-3.8-4-1.3-.4-2.5-.8-2.5-2.1 0-1 .8-1.7 1.8-1.7 1.1 0 1.8 1 2 2.1l2.1-1c-.4-1.8-1.9-3-4-3-2.4 0-4.2 1.7-4.2 3.9 0 2.5 1.9 3.1 3.7 3.7 1.4.5 2.6.9 2.6 2.2 0 1-.8 1.8-2.1 1.8z"/></g></switch></svg>