<svg xmlns="http://www.w3.org/2000/svg" viewBox="0 0 60 60"><switch><g><path d="M15 18.7c0-2 1.7-3.7 3.7-3.7h21.9l-3.7 3.7 3.5 3.5 9.6-9.6L40.4 3l-3.5 3.5 3.5 3.5H18.7c-4.8 0-8.7 3.9-8.7 8.7V27h5v-8.3zM45 41.3c0 2-1.7 3.7-3.7 3.7H19.4l3.7-3.7-3.5-3.5-9.6 9.6 9.6 9.6 3.5-3.5-3.4-3.5h21.6c4.8 0 8.7-3.9 8.7-8.7v-8.4h-5v8.4z"/><path d="M36.2 37.9v-1.4l.2-.1c1-.3 1.8-1 2.2-1.9.5-.9.5-2 .2-2.9-.5-1.6-2-2.6-3.7-2.6-.4 0-.8-.1-1.1-.4s-.5-.7-.5-1.1.1-.8.4-1.2c.3-.3.7-.5 1.1-.5h.2c.8 0 1.5.5 1.6 1.3h2.3c-.1-1.5-1.1-2.8-2.6-3.3l-.2-.1v-1.4h-2.2v1.4l-.2.1c-1 .3-1.8 1-2.2 1.9-.5.9-.5 2-.2 2.9.5 1.6 2 2.6 3.7 2.6.4 0 .8.2 1.1.5s.4.7.4 1.2c0 .4-.2.8-.5 1.1s-.7.4-1.2.4c-.7 0-1.3-.6-1.5-1.3h-2.3c.1 1.5 1.1 2.8 2.6 3.3l.2.1v1.4h2.2zM25.3 34.7c-1.2 0-2-.8-2.2-2.1l-2.1 1c.5 1.8 2 2.8 4.3 2.8 3.1 0 4.2-2.2 4.2-3.6 0-2.6-1.9-3.3-3.6-3.8-1.2-.4-2.4-.8-2.4-2 0-.9.8-1.6 1.7-1.6 1.1 0 1.7 1 1.9 2l2-.9c-.4-1.8-1.8-2.8-3.8-2.8-2.3 0-4 1.6-4 3.7 0 2.4 1.9 3 3.5 3.5 1.3.4 2.5.8 2.5 2.1 0 1-.8 1.7-2 1.7z"/></g></switch></svg>