<svg xmlns="http://www.w3.org/2000/svg" viewBox="0 0 60 60"><switch><g><path d="M52.6 22.1v-.5c-.1-5.2-3.6-9.6-8.7-10.8V6.4h-5.3v4.4c-5 1.1-8.6 5.6-8.7 10.8.1 6.2 5.1 11.1 11.3 11.1 3.2.1 5.7 2.8 5.6 6s-2.8 5.7-6 5.6c-3.1-.1-5.6-2.7-5.6-5.8V38H30v.5c0 5.2 3.6 9.6 8.7 10.8v4.4H44v-4.4c6-1.3 9.7-7.2 8.4-13.2-1.1-5.1-5.8-8.8-11-8.7-3.3.1-6-2.5-6-5.8.1-3.3 2.9-5.9 6.3-5.8 3.1.1 5.7 2.6 5.8 5.8v.5h5.1zM10.2 20.7c0-3.2 2.6-5.4 5.7-5.4 3.6 0 5.9 3.1 6.3 6.7l5-2.6c-1-5.5-5.4-8.8-11.1-8.8-6.3 0-11.6 4.3-11.6 10.6 0 12.5 18 9.1 18 17.5 0 3.8-2.9 5.9-6.4 5.9-4 0-6.9-3.1-7.3-7.5L3.5 40c1.6 6.3 6.3 9.3 12.7 9.3 8.2 0 12.1-5.5 12.1-10.8-.1-13.1-18.1-9.4-18.1-17.8z"/></g></switch></svg>