<svg xmlns="http://www.w3.org/2000/svg" viewBox="0 0 60 60"><switch><g><path d="M28.7 25.4h.2c.7-.1 1.3.5 1.4 1.2v.2h2.8v-.3c-.1-1.7-1.3-3.1-2.9-3.7v-1.5h-2.9v1.5c-1.1.4-2 1.1-2.5 2.2-.5 1-.6 2.2-.2 3.3.6 1.8 2.3 2.9 4.1 2.9.4 0 .8.2 1 .5.3.3.4.7.4 1 0 .4-.2.7-.5 1s-.6.4-1 .4c-.7 0-1.2-.5-1.3-1.2v-.2h-2.8v.3c.1 1.7 1.3 3.1 2.9 3.7v1.5h2.9v-1.5c1.1-.4 1.9-1.1 2.5-2.2.5-1 .6-2.2.2-3.3-.6-1.7-2.2-2.9-4.1-2.9h-.1c-.4 0-.7-.1-1-.4s-.5-.6-.5-1 .1-.7.4-1c.3-.3.6-.5 1-.5zM19.4 28.4c-1.3-.4-2.3-.8-2.3-1.8 0-.8.7-1.5 1.5-1.5 1 0 1.6.9 1.7 1.9l.1.3 2.5-1.2v-.2c-.4-2-2-3.2-4.2-3.2-2.5 0-4.4 1.8-4.4 4.1 0 2.6 2.1 3.4 3.8 3.9 1.3.4 2.5.8 2.5 1.9 0 1-.7 1.6-1.8 1.6s-1.9-.8-2-2v-.4l-2.7 1.4.1.2c.6 2.1 2.2 3.1 4.7 3.1 3.4 0 4.6-2.4 4.6-4.1-.2-2.8-2.4-3.5-4.1-4z"/><path d="M44.7 3H17.3c-6 0-10.8 4.8-10.8 10.8v35.9l7.3 7.3 4.8-4.8 4.8 4.8 4.8-4.8L33 57l7.3-7.3.2-26.2h13.1V12c0-4.9-3.9-8.9-8.9-9zm-9.2 9l-.3 35.6-2.3 2.3-4.8-4.8-4.8 4.8-4.8-4.8-4.8 4.8-2.3-2.3V13.8c0-3.2 2.6-5.8 5.8-5.8h19.1c-.5 1.3-.8 2.6-.8 4zm13 6.5h-8.1V12c0-2.1 1.6-3.8 3.6-4h.4c2.2 0 4 1.8 4 4v6.5h.1z"/></g></switch></svg>