<svg xmlns="http://www.w3.org/2000/svg" viewBox="0 0 60 60"><switch><g><path d="M23.9 44.7c11.5 0 20.8-9.3 20.9-20.9C44.8 12.3 35.4 3 23.9 3S3 12.3 3 23.9s9.4 20.8 20.9 20.8zM8 23.9C8 15.1 15.1 8 23.9 8s15.9 7.1 15.9 15.9-7.1 15.9-15.9 15.9C15.1 39.7 8 32.6 8 23.9z"/><path d="M53.3 24.3c-1.5-2.1-3.3-3.9-5.4-5.4.3 1.6.5 3.3.5 4.9 0 .7 0 1.4-.1 2.1 5.6 6.7 4.7 16.7-2 22.3-5.9 4.9-14.4 4.9-20.3.1-.7.1-1.5.1-2.3.1-1.6 0-3.2-.2-4.8-.5 6.5 9.5 19.5 11.8 29 5.3s11.9-19.4 5.4-28.9zM28.8 24.7c.5 0 .9.2 1.2.6.3.3.5.8.4 1.2 0 .4-.2.9-.6 1.2-.3.3-.8.5-1.2.4-.8 0-1.4-.6-1.6-1.4h-2.4c.1 1.6 1.2 2.9 2.7 3.5l.2.1v1.5H30v-1.5l.2-.1c1-.3 1.8-1.1 2.3-2 .5-1 .5-2.1.2-3.1-.6-1.7-2.1-2.7-3.9-2.7-.4 0-.9-.1-1.2-.4-.3-.3-.5-.7-.6-1.2 0-.4.1-.9.4-1.2.3-.3.7-.5 1.2-.6h.2c.8 0 1.5.5 1.7 1.4h2.4c-.1-1.6-1.2-2.9-2.7-3.5l-.2-.1v-1.5h-2.4v1.5l-.2.1c-1 .3-1.8 1.1-2.3 2-.5 1-.5 2.1-.2 3.1.6 1.7 2.2 2.8 3.9 2.7zM19.3 22.4c-1.3-.4-2.5-.8-2.5-2.1 0-1 .8-1.7 1.8-1.7 1.1 0 1.8 1 2 2.1l2.1-1c-.4-1.8-1.9-3-4-3-2.4 0-4.2 1.7-4.2 3.9 0 2.5 1.9 3.1 3.7 3.7 1.4.5 2.6.9 2.6 2.2 0 1.1-.8 1.9-2.1 1.9-1.2 0-2.1-.9-2.3-2.2l-2.2 1.1c.6 1.9 2.1 3 4.5 3 3.2 0 4.4-2.3 4.4-3.8-.1-2.8-2.1-3.5-3.8-4.1z"/></g></switch></svg>