<svg xmlns="http://www.w3.org/2000/svg" viewBox="0 0 60 60"><switch><g><path d="M52.6 9.1C49.8 6.2 46 4.5 41.9 4.5c-4 0-7.9 1.7-10.6 4.6L30 10.5l-1.3-1.4C23.1 3.2 13.9 3 8 8.5l-.6.6C1.7 15 1.5 24.3 6.9 30.4L30 56.9l23.1-26.4c5.4-6.2 5.2-15.5-.5-21.4zm-3.3 18.1L30 49.3 10.7 27.2C7 22.9 7.1 16.6 11 12.5l.4-.4c3.9-3.7 10-3.5 13.6.4l1.3 1.4 3.6 3.8 3.6-3.8 1.3-1.4c3.7-3.9 9.9-4 13.7-.3l.4.4c4 4 4.1 10.4.4 14.6z"/><path d="M35.8 26.7c-.4 0-.9-.1-1.2-.4s-.5-.7-.6-1.2c0-.4.1-.9.4-1.2.3-.3.7-.5 1.2-.6h.2c.8 0 1.5.5 1.7 1.4h2.4c-.1-1.6-1.2-2.9-2.7-3.5H37v-1.5h-2.4v1.5l-.2.1c-1 .3-1.8 1.1-2.3 2-.5 1-.5 2.1-.2 3.1.6 1.7 2.1 2.8 3.9 2.7.5 0 .9.2 1.2.6.3.3.5.8.4 1.2 0 .4-.2.9-.6 1.2-.3.3-.8.5-1.2.4-.8 0-1.4-.6-1.6-1.4h-2.4c.1 1.6 1.2 3 2.7 3.5l.2.1v1.5H37v-1.5l.2-.1c1-.3 1.8-1.1 2.3-2 .5-1 .5-2.1.2-3.1-.6-1.7-2.1-2.8-3.9-2.8zM26.2 26.8c-1.3-.4-2.5-.8-2.5-2.1 0-1 .8-1.7 1.8-1.7 1.1 0 1.8 1 2 2.1l2.1-1c-.4-1.8-1.9-3-4-3-2.4 0-4.2 1.7-4.2 3.9 0 2.5 1.9 3.1 3.7 3.7 1.4.5 2.6.9 2.6 2.2 0 1.1-.8 1.9-2.1 1.9-1.2 0-2.1-.9-2.3-2.2l-2.2 1.1c.6 1.9 2.1 3 4.5 3 3.2 0 4.4-2.3 4.4-3.8 0-2.9-2-3.5-3.8-4.1z"/></g></switch></svg>