<svg xmlns="http://www.w3.org/2000/svg" viewBox="0 0 60 60"><path d="M3 52h32.688v5H3zM30.4 17.78h.021a6.018 6.018 0 0 1 4.162 1.655L45.208 30.2H57v-5h-9.7l-9.2-9.32a11.137 11.137 0 0 0-2.641-1.883l5.381-5.482-3.565-3.506-7.686 7.814a11 11 0 0 0-2.671.533 8.212 8.212 0 1 0-7.056 7.133 11.088 11.088 0 0 0-.513 2.747H3v5h17.176a11.176 11.176 0 0 0 1.324 2.331L47.568 57l3.558-3.513-25.7-26.028A6.152 6.152 0 0 1 30.4 17.78zm-11.571-2.218a3.149 3.149 0 1 1 3.148-3.149 3.152 3.152 0 0 1-3.148 3.149z"/></svg>