<svg xmlns="http://www.w3.org/2000/svg" viewBox="0 0 60 60"><path d="M57 26.417l-3.566-3.566-4.618 4.616H36.088l8.985-8.985 6.56-.001v-5.043h-5.067V8.372l-5.043-.001-.001 6.53-9.011 9.011V11.205l4.638-4.639L33.583 3 30 6.583 26.417 3l-3.566 3.566 4.616 4.617v12.708l-8.989-8.99-.001-6.53-5.043.001v5.066H8.367v5.043l6.56.001 8.985 8.985H11.184l-4.618-4.616L3 26.417 6.583 30 3 33.582l3.566 3.567 4.639-4.638h12.729l-9.007 9.007h-6.56v5.044l5.067-.001v5.067l5.043.001.001-6.53 8.989-8.99v12.708l-4.616 4.617L26.417 57 30 53.416 33.583 57l3.566-3.566-4.638-4.639V36.088l9.011 9.011.001 6.53 5.043-.001v-5.067l5.067.001v-5.044h-6.56l-9.007-9.007h12.729l4.639 4.638L57 33.582 53.417 30 57 26.417z"/></svg>