<svg xmlns="http://www.w3.org/2000/svg" viewBox="0 0 60 60"><path d="M30 3a27 27 0 1 0 27 27A27.03 27.03 0 0 0 30 3zm2.506 5.159A22.033 22.033 0 0 1 49.916 20.7l-8.673 3.149-8.737-6.349zm5.445 19.491L34.913 37h-9.827l-3.038-9.35L30 21.873zM27.493 8.16v9.34l-8.968 6.517-8.456-3.287A22.036 22.036 0 0 1 27.493 8.16zM8.012 30a21.975 21.975 0 0 1 .468-4.51l8.694 3.377 3.311 10.192-5.229 7.241A21.937 21.937 0 0 1 8.012 30zM30 51.988a21.842 21.842 0 0 1-10.669-2.772l5.205-7.206h10.812l5.305 7.216A21.844 21.844 0 0 1 30 51.988zm14.731-5.68l-5.252-7.142 3.444-10.6 8.588-3.118a21.948 21.948 0 0 1-6.78 20.857z"/></svg>