<svg id="Icons" xmlns="http://www.w3.org/2000/svg" viewBox="0 0 20 20"><defs><style>.cls-1{fill:#282b3e;}</style></defs><polygon class="cls-1" points="4.941 1.009 2.822 1.009 2.822 8.944 1.009 8.944 1.009 11.063 2.822 11.063 2.822 18.991 4.941 18.991 4.941 11.063 6.75 11.063 6.75 8.944 4.941 8.944 4.941 1.009"/><polygon class="cls-1" points="17.178 13.513 17.178 1.009 15.06 1.009 15.06 13.513 13.231 13.513 13.231 15.632 15.06 15.632 15.06 18.991 17.178 18.991 17.178 15.632 18.991 15.632 18.991 13.513 17.178 13.513"/><polygon class="cls-1" points="11.06 1.009 8.941 1.009 8.941 4.375 7.128 4.375 7.128 6.493 8.941 6.493 8.941 18.991 11.06 18.991 11.06 6.493 12.87 6.493 12.87 4.375 11.06 4.375 11.06 1.009"/></svg>