<svg xmlns="http://www.w3.org/2000/svg" viewBox="0 0 60 60"><path d="M3 19.334V40.66h11.253l17.482 12.785V6.555L14.081 19.334zM26.711 16.4v27.2l-11.1-7.967H8.024V24.36h7.685zM37.781 20.906l-.3-.3-3.561 3.55.306.306a7.84 7.84 0 0 1 0 11.071l-.306.3 3.556 3.554.3-.3a12.874 12.874 0 0 0 .005-18.181z"/><path d="M43.05 15.637l-.3-.3-3.556 3.554.306.3a15.3 15.3 0 0 1 0 21.608l-.306.3 3.556 3.554.3-.3a20.33 20.33 0 0 0 0-28.72z"/><path d="M49.129 8.63l-.3-.359-4.441 4.443.3.306a24.037 24.037 0 0 1 0 33.954l-.3.306 4.441 4.441.3-.358a32.935 32.935 0 0 0 0-42.733z"/></svg>