<svg xmlns="http://www.w3.org/2000/svg" viewBox="0 0 60 60"><path d="M18.22 56.97c-6.2 0-12.97-3-13.27-3.13l-1.69-.75.23-1.83c.02-.12.38-2.97 1.74-6.77.15-.42.3-.86.45-1.33 1.24-3.73 3.1-9.36 9.21-10.44 3.95-.7 4.07-1.24 4.52-3.27l.1-.48c.42-1.98 1.12-5.3 4.31-7.96l.08-.07c1.94-1.48 3.63-2.14 4.86-2.62.64-.25 1.2-.47 1.44-.67.72-.61.88-1.3 1.19-2.8.37-1.81.87-4.28 3.13-6.89 3.11-3.61 9.72-4.03 16.1-4.44 1.14-.07 2.27-.15 3.35-.24l2.35-.2.33 2.34c.21 1.51 1.89 14.9-4.43 20.51-3 2.67-3.72 4.65-4 6.08-.9 4.53-2.79 10.04-9.42 12.44-3.3 1.2-3.73 1.81-4.86 3.46-.35.5-.73 1.06-1.22 1.7l-.26.34c-2.3 3-5.16 6.74-13.66 7.01h-.59zM8.82 50c2.29.83 6.32 2.07 9.83 1.97 6.13-.2 7.77-2.34 9.85-5.05l.27-.35c.43-.56.76-1.04 1.07-1.48 1.57-2.28 2.69-3.66 7.27-5.32 4.01-1.46 5.39-4.54 6.22-8.72.64-3.22 2.42-6.03 5.58-8.84 3-2.66 3.26-9.59 3.02-13.75l-.98.06c-4.85.31-10.89.7-12.64 2.72-1.4 1.62-1.69 3.01-2.01 4.62-.35 1.73-.79 3.88-2.87 5.63-.88.74-1.88 1.13-2.85 1.51-1.1.43-2.24.87-3.6 1.9-1.82 1.54-2.22 3.44-2.58 5.12l-.12.53c-.86 3.86-2.41 6.02-8.53 7.1-2.94.52-4.07 3.27-5.34 7.09-.17.5-.33.99-.49 1.44-.54 1.51-.9 2.84-1.13 3.83z"/><ellipse cx="33.61" cy="31.26" rx="6.2" ry="4.73" transform="rotate(-45.84 33.606 31.257)"/><ellipse cx="43.35" cy="17.42" rx="5.64" ry="4.3" transform="rotate(-56.99 43.336 17.42)"/><ellipse cx="20.26" cy="43.36" rx="5.64" ry="4.3" transform="rotate(-29.09 20.263 43.35)"/></svg>