<svg xmlns="http://www.w3.org/2000/svg" viewBox="0 0 60 60"><path d="M56.877 34.194a8.527 8.527 0 1 0-11.307 8.052A12.648 12.648 0 0 1 33.3 52a12.578 12.578 0 0 1-12.565-12.6v-4.685c.25-.027.5-.044.748-.08l.189-.034a15.4 15.4 0 0 0 11.99-14.941V3H23.155v5h5.507v11.66a10.372 10.372 0 0 1-7.981 10.04 17.446 17.446 0 0 1-2.354.163 12.233 12.233 0 0 1-2.031-.147 10.358 10.358 0 0 1-8.173-10.06V8h5.336V3H3.123v16.659a15.386 15.386 0 0 0 12.139 14.948c.042.009.21.042.473.081V39.4A17.58 17.58 0 0 0 33.315 57a17.651 17.651 0 0 0 17.307-14.595 8.535 8.535 0 0 0 6.255-8.211zm-8.527 3.527a3.527 3.527 0 1 1 3.527-3.527 3.531 3.531 0 0 1-3.527 3.527z"/></svg>