<svg xmlns="http://www.w3.org/2000/svg" viewBox="0 0 60 60"><path d="M30.085 15.6A14.324 14.324 0 1 0 44.41 29.926 14.34 14.34 0 0 0 30.085 15.6zm0 23.648a9.324 9.324 0 1 1 9.325-9.318 9.335 9.335 0 0 1-9.325 9.321zM3 27.505h9.816v5H3zM47.184 27.505H57v5h-9.816zM9.14 12.68l3.535-3.535 6.942 6.942-3.535 3.535zM40.383 43.924l3.535-3.535 6.942 6.942-3.535 3.534zM27.441 3h5v9.82h-5zM27.441 47.18h5V57h-5zM40.321 16.084l6.944-6.944 3.535 3.535-6.944 6.944zM9.081 47.324l6.944-6.944 3.535 3.535-6.944 6.944z"/></svg>