<svg xmlns="http://www.w3.org/2000/svg" viewBox="0 0 60 60"><path d="M53.321 46.314a9.794 9.794 0 0 0-7.479-3.75l-.013-2V3h-5v10.244H19.012V3h-5v43.487c.032 1.323.032 2.013.032 2.013-1.537 0-2.5-.7-3.826-2.155C8.938 44.942 6.8 42.593 3 42.593v5c1.512 0 2.324.806 3.524 2.122 1.457 1.6 3.454 3.785 7.266 3.785s5.818-2.187 7.28-3.79l.607-.668a4.559 4.559 0 0 1 2.588-1.449h.3c1.52 0 2.216.689 3.524 2.122 1.527 1.674 3.428 3.758 7.1 3.758h.132c3.822 0 5.819-2.188 7.28-3.789l.607-.668a4.357 4.357 0 0 1 2.588-1.45h.3c1.519 0 2.215.689 3.526 2.125 1.446 1.584 3.612 3.753 7.369 3.753v-5c-1.476-.002-2.357-.691-3.67-2.13zm-12.492-28.07V28.82H19.012V18.244zm-1.921 28.072c-1.328 1.455-2.035 2.155-3.583 2.155h-.132c-1.406 0-2.06-.653-3.407-2.129-1.445-1.583-3.425-3.751-7.217-3.751h-.335a7.312 7.312 0 0 0-4.893 1.822c-.114.094-.217.2-.328.3V33.82h21.816v10.609c-.414.346-.819.713-1.2 1.095z"/></svg>