<svg xmlns="http://www.w3.org/2000/svg" viewBox="0 0 60 60"><path d="M23.735 6.535l3.972 3.972A21.847 21.847 0 0 0 7.541 32.26v10.582A7.359 7.359 0 0 0 10.365 57h.011a7.358 7.358 0 0 0 2.165-14.382V32.26A16.83 16.83 0 0 1 28.73 15.47l-5 4.994L27.27 24l10.5-10.5L27.27 3zM12.017 51.313a2.33 2.33 0 0 1-1.641.687h-.011A2.354 2.354 0 0 1 8 49.644a2.344 2.344 0 0 1 .688-1.667 2.356 2.356 0 0 1 3.332 0 2.36 2.36 0 0 1-.003 3.336zM37.749 46.236l-3.546-3.526-3.588 3.609-3.609-3.588-3.525 3.546 3.609 3.589-3.588 3.609L27.048 57l3.588-3.609 3.609 3.588 3.526-3.546-3.61-3.588 3.588-3.609zM56.771 46.236l-3.546-3.526-3.588 3.609-3.609-3.588-3.526 3.546 3.61 3.588-3.589 3.61L46.069 57l3.588-3.609 3.61 3.588 3.525-3.546-3.609-3.588 3.588-3.609zM49.658 20.345h.011a7.4 7.4 0 1 0-.011 0zm-1.678-9.022a2.357 2.357 0 0 1 3.333 0 2.359 2.359 0 0 1 0 3.336 2.329 2.329 0 0 1-1.64.686h-.011a2.358 2.358 0 0 1-1.678-4.022z"/></svg>