<svg xmlns="http://www.w3.org/2000/svg" viewBox="0 0 60 60"><path d="M52 39.809a12.3 12.3 0 0 1-24.609 0V22.626H52v17.183zm-31.773-2.435a12.22 12.22 0 0 1-12.215-12.2V7.994H32.62v9.638H22.389v6.374A7.529 7.529 0 0 0 12.2 31.1h5a2.594 2.594 0 0 1 5.187 0v6.1a13.263 13.263 0 0 1-2.162.179zm17.394-19.742V3H3v4.994h.011v17.182a17.2 17.2 0 0 0 19.565 17.03A17.3 17.3 0 0 0 57 39.809V17.632z"/><path d="M39.976 47.79a7.6 7.6 0 0 0 7.594-7.583h-5a2.593 2.593 0 0 1-5.186 0h-5a7.6 7.6 0 0 0 7.594 7.583z"/></svg>