<svg xmlns="http://www.w3.org/2000/svg" viewBox="0 0 60 60"><path d="M46.261 15.078h-.669A13.929 13.929 0 0 0 18.8 11.892a11.373 11.373 0 0 0-10 8.03 8.539 8.539 0 0 0 2.746 16.627h14.861l-11.681 11.68h15.6l-5.236 5.236L28.625 57 42.4 43.229H26.8l6.68-6.68h12.781a10.736 10.736 0 1 0 0-21.471zm0 16.471H11.546A3.549 3.549 0 0 1 8 28.006a3.6 3.6 0 0 1 3.182-3.522l1.944-.218.256-1.94a6.337 6.337 0 0 1 6.288-5.467 6.083 6.083 0 0 1 .692.037l2.227.252.493-2.186a8.926 8.926 0 0 1 17.633 1.971v3.145h5.546a5.736 5.736 0 1 1 0 11.471z"/></svg>