<svg xmlns="http://www.w3.org/2000/svg" viewBox="0 0 60 60"><path d="M21.6 53.12l-8.27-3.16-9.31-10.63 9.67-15.61 33.19.19 9.36 15.31-9.12 10.76-8.8 3.03-1.62-4.73 7.49-2.58 5.89-6.96-6.02-9.84-27.6-.17-6.24 10.08 6.06 6.92 7.11 2.72-1.79 4.67z"/><path d="M30.23 56.89c-6.86 0-12.44-5.58-12.44-12.44s5.58-12.44 12.44-12.44 12.44 5.58 12.44 12.44-5.58 12.44-12.44 12.44zm0-19.88c-4.1 0-7.44 3.34-7.44 7.44s3.34 7.44 7.44 7.44 7.44-3.34 7.44-7.44-3.34-7.44-7.44-7.44z"/><path d="M30.23 50.61c-3.4 0-6.16-2.76-6.16-6.16s2.76-6.16 6.16-6.16 6.16 2.76 6.16 6.16-2.76 6.16-6.16 6.16zm0-7.31a1.16 1.16 0 1 0 .002 2.322 1.16 1.16 0 0 0-.002-2.322zM32.73 24.64h-5V12.72L10.14 7.98l1.3-4.83 21.29 5.74v15.75z"/></svg>