<svg xmlns="http://www.w3.org/2000/svg" viewBox="0 0 60 60"><path d="M56.97 49.72H3.07V9.89h5v34.83h43.9V9.89h5v39.83z"/><path d="M15.06 47.9h5v8.99h-5zM39.85 47.9h5v8.99h-5zM15.22 44.68c-.27 0-.53-.01-.8-.04a7.412 7.412 0 0 1-4.91-2.65c-2.59-3.12-2.21-7.73.85-10.27 3.06-2.54 7.66-2.06 10.25 1.06a7.364 7.364 0 0 1 1.7 5.31 7.1 7.1 0 0 1-2.55 4.95 7.053 7.053 0 0 1-4.54 1.64zm-.31-9.6c-.49 0-.97.16-1.36.48-.94.78-1.02 2.22-.19 3.23.41.5.98.81 1.6.87.6.06 1.16-.1 1.6-.47.44-.37.71-.9.76-1.49.05-.62-.15-1.24-.56-1.74-.48-.58-1.17-.89-1.85-.89zM30.04 44.72a7.204 7.204 0 0 1-4.61-12.75 7.144 7.144 0 0 1 5.27-1.63c1.92.18 3.65 1.09 4.88 2.57 2.54 3.06 2.12 7.61-.94 10.15a7.21 7.21 0 0 1-4.6 1.66zm0-9.41c-.51 0-1.01.18-1.41.51-.45.38-.73.91-.79 1.49-.05.59.12 1.16.5 1.61.38.45.91.73 1.49.79.59.05 1.16-.12 1.61-.5.94-.78 1.07-2.17.29-3.11-.38-.45-.91-.73-1.49-.79h-.21z"/><path d="M44.8 44.72a7.204 7.204 0 0 1-4.61-12.75 7.144 7.144 0 0 1 5.27-1.63c1.92.18 3.65 1.09 4.88 2.57s1.81 3.35 1.63 5.27a7.166 7.166 0 0 1-2.57 4.88 7.21 7.21 0 0 1-4.6 1.66zm-.01-9.41c-.51 0-1.01.18-1.41.51-.45.38-.73.91-.79 1.49-.05.59.12 1.16.5 1.61.38.45.91.73 1.49.79.59.05 1.16-.12 1.61-.5.45-.38.73-.91.79-1.49a2.18 2.18 0 0 0-.5-1.61c-.38-.45-.91-.73-1.49-.79h-.21z"/><g><path d="M15.22 30.37c-.27 0-.53-.01-.8-.04a7.412 7.412 0 0 1-4.91-2.65c-2.59-3.12-2.21-7.73.85-10.27 3.06-2.54 7.66-2.06 10.25 1.06a7.364 7.364 0 0 1 1.7 5.31 7.08 7.08 0 0 1-2.55 4.95 7.053 7.053 0 0 1-4.54 1.64zm-1.86-5.89c.41.5.98.81 1.6.87.6.07 1.16-.1 1.6-.47.44-.37.71-.9.76-1.49.05-.62-.15-1.24-.56-1.74-.83-1-2.27-1.18-3.21-.4-.94.78-1.02 2.22-.19 3.23zM30.04 30.42c-2.07 0-4.13-.89-5.55-2.6a7.144 7.144 0 0 1-1.63-5.27 7.166 7.166 0 0 1 2.57-4.88c3.06-2.54 7.61-2.11 10.15.94 2.54 3.06 2.12 7.61-.94 10.15a7.21 7.21 0 0 1-4.6 1.66zm0-9.41c-.51 0-1.01.18-1.41.51-.45.38-.73.91-.79 1.49-.05.59.12 1.16.5 1.61.38.45.91.73 1.49.79.59.05 1.16-.12 1.61-.5.94-.78 1.07-2.17.29-3.11-.38-.45-.91-.73-1.49-.79h-.21z"/><path d="M44.8 30.42c-2.07 0-4.13-.89-5.55-2.6a7.144 7.144 0 0 1-1.63-5.27 7.166 7.166 0 0 1 2.57-4.88 7.144 7.144 0 0 1 5.27-1.63c1.92.18 3.65 1.09 4.88 2.57 2.54 3.06 2.12 7.61-.94 10.15a7.21 7.21 0 0 1-4.6 1.66zm-.01-9.41c-.51 0-1.01.18-1.41.51-.45.38-.73.91-.79 1.49-.05.59.12 1.16.5 1.61.38.45.91.73 1.49.79.59.05 1.16-.12 1.61-.5s.73-.91.79-1.49a2.18 2.18 0 0 0-.5-1.61c-.38-.45-.91-.73-1.49-.79h-.21z"/></g></svg>