<svg xmlns="http://www.w3.org/2000/svg" viewBox="0 0 60 60"><path d="M40.14 13.609a2.1 2.1 0 1 1 2.1 2.1 2.107 2.107 0 0 1-2.1-2.1zm7.905 4.1a7.11 7.11 0 1 0-11.556.063L27.6 44.078h7.509v9.432h5.005V39.072h-5.537l6.247-18.5a7.073 7.073 0 0 0 1.42.143 6.985 6.985 0 0 0 1.484-.159l6.286 18.512h-5.535V53.51h5.005v-9.432H57L48.045 17.7zM14.231 11.505a2.1 2.1 0 1 1-2.1 2.1 2.107 2.107 0 0 1 2.1-2.1zm5.1 7.045a7.112 7.112 0 1 0-10.293-.1A11.081 11.081 0 0 0 3 28.319v15.772h3.774v9.4h5.005v-14.4H8.005V28.319a6.08 6.08 0 0 1 12.16 0v10.7h-4.094v14.49h5v-9.488h4.099v-15.7a11.013 11.013 0 0 0-3.247-7.839 11.136 11.136 0 0 0-2.59-1.928z"/></svg>