<svg xmlns="http://www.w3.org/2000/svg" viewBox="0 0 60 60"><path d="M48.963 28.517v-9.552l4.053-4.465L51.108 3h-9.262l-2.113 11.541L43.964 19v9.521h-4.686V57h14.373V28.517zM46.014 8h.857l.817 4.934-1.264 1.39-1.314-1.384zm2.637 44h-4.373V33.517h4.373zM27.779 4.375L24.349 3v15.281l-2.377 1.373-2.372-1.373V3l-3.43 1.375a15.555 15.555 0 0 0-9.817 14.5 15.737 15.737 0 0 0 8.44 13.88V57h14.37V32.759a15.738 15.738 0 0 0 8.437-13.88 15.558 15.558 0 0 0-9.821-14.504zM25.771 28.81l-1.607.615V52h-4.375V29.425l-1.607-.615a10.69 10.69 0 0 1-6.834-9.931 10.572 10.572 0 0 1 3.252-7.652v9.941l7.376 4.26 7.376-4.26V11.22a10.572 10.572 0 0 1 3.248 7.659 10.69 10.69 0 0 1-6.829 9.931z"/></svg>