<svg xmlns="http://www.w3.org/2000/svg" viewBox="0 0 60 60"><path d="M50.014 7.09a13.062 13.062 0 0 0-18.467-.519c-.177.168-.352.342-.521.521l-1.063.991-.956-.993a13.062 13.062 0 0 0-18.461-.525c-.181.17-.356.346-.524.525A13.939 13.939 0 0 0 6.3 18.13L13.078 57l16.908-13.727L46.977 57l6.685-38.308.04-.619A13.941 13.941 0 0 0 50.014 7.09zm-1.285 10.467l-5.213 30.3L29.98 36.815 16.537 47.861l-5.271-30.336a8.94 8.94 0 0 1 2.4-7.007c.1-.105.2-.207.312-.313a8.062 8.062 0 0 1 11.415.336l4.381 4.55 4.711-4.382.185-.189c.1-.108.207-.213.315-.315a8.063 8.063 0 0 1 11.391.31 8.944 8.944 0 0 1 2.353 7.042z"/></svg>