<svg xmlns="http://www.w3.org/2000/svg" viewBox="0 0 60 60"><path d="M26.4 36.142v-2.514a6.383 6.383 0 0 0-2.5-12.258 1.394 1.394 0 1 1 1.4-1.395h4.99A6.394 6.394 0 0 0 26.4 14.1v-2.527h-4.99V14.1a6.383 6.383 0 0 0 2.5 12.259 1.393 1.393 0 1 1-1.393 1.394h-4.995a6.392 6.392 0 0 0 3.888 5.873v2.514z"/><path d="M44.763 23.858a20.858 20.858 0 1 0-20.857 20.857 20.88 20.88 0 0 0 20.857-20.857zm-36.724 0a15.867 15.867 0 1 1 15.867 15.866A15.885 15.885 0 0 1 8.039 23.858z"/><path d="M47.861 18.937a24.694 24.694 0 0 1 .493 4.921c0 .713-.037 1.417-.1 2.115A15.855 15.855 0 0 1 26 48.372c-.747.068-1.5.108-2.266.108a24.668 24.668 0 0 1-4.764-.465 20.845 20.845 0 1 0 28.891-29.078z"/></svg>