<svg id="Icons" xmlns="http://www.w3.org/2000/svg" viewBox="0 0 20 20"><defs><style>.cls-1{fill:#272b3e;}</style></defs><path class="cls-1" d="M14.92114,7.95253a6.95262,6.95262,0,1,0-6.95255,6.95253A6.96033,6.96033,0,0,0,14.92114,7.95253ZM5.8405,9.25159H7.50422a.46435.46435,0,1,0,.46433-.46469A2.1277,2.1277,0,0,1,7.1367,4.70071V3.85763H8.80042v.84308A2.131,2.131,0,0,1,10.09663,6.6585H8.43291a.46435.46435,0,1,0-.46436.46468,2.12769,2.12769,0,0,1,.83187,4.08619v.8381H7.1367v-.8381A2.13084,2.13084,0,0,1,5.8405,9.25159Z"/><path class="cls-1" d="M16.11184,6.43039a8.84985,8.84985,0,0,1,.14256,1.52218c.05768,5.01914-3.12078,8.31866-8.28583,8.28583a8.57739,8.57739,0,0,1-1.58675-.15414,6.945,6.945,0,1,0,9.73-9.65387Z"/></svg>