<svg xmlns="http://www.w3.org/2000/svg" viewBox="0 0 60 60"><path d="M45.605 15.11C43.1 6.216 35.748 3 29.466 3c-8.357 0-14.818 5.065-16.5 12.754a16.6 16.6 0 0 0-9.541 14.972 16.537 16.537 0 0 0 16.526 16.55h.013a16.549 16.549 0 0 0 7.609-1.864V57h5V45.41a16.535 16.535 0 1 0 13.032-30.3zm-5.423 27.165a11.543 11.543 0 0 1-7.03-2.4l10.9-10.834-3.525-3.547-7.954 7.906V17.58h-5v15.828L19.6 25.622 16.108 29.2l10.909 10.655a11.546 11.546 0 0 1-7.053 2.421h-.009a11.538 11.538 0 0 1-3.919-22.388l1.422-.515.2-1.5C18.489 11.784 23.012 8 29.466 8c2.892 0 9.814.936 11.6 9.605l.319 1.55 1.537.374a11.538 11.538 0 0 1-2.743 22.746z"/></svg>