<svg xmlns="http://www.w3.org/2000/svg" viewBox="0 0 60 60"><path d="M45.888 53.5H14.154V28.724l-4.847 1.882-6.264-15.875L22.836 6.5l.986 2.242a6.783 6.783 0 0 0 12.429.011l.986-2.236L57 14.731l-6.263 15.875-4.849-1.882zm-26.737-5h21.741V21.422l7.02 2.728 2.639-6.688L39.6 12.911a11.776 11.776 0 0 1-19.131-.011L9.492 17.462l2.639 6.688 7.02-2.728z"/><path d="M45.846 53.5H14.111V28.724l-4.848 1.882L3 14.731 22.794 6.5l.985 2.243a6.783 6.783 0 0 0 12.429.01l.986-2.236 19.762 8.211-6.263 15.878-4.847-1.882zm-26.739-5h21.742V21.422l7.02 2.728 2.638-6.688-10.952-4.551a11.775 11.775 0 0 1-19.128-.011L9.449 17.462l2.639 6.688 7.019-2.728z"/></svg>