<svg xmlns="http://www.w3.org/2000/svg" viewBox="0 0 60 60"><path d="M43.382 41.77a5.412 5.412 0 0 1-6.572 0c-3.5-3.382-10.118-3.381-13.618 0a5.413 5.413 0 0 1-6.573 0c-3.5-3.38-10.119-3.383-13.619 0l3.524 3.646a5.41 5.41 0 0 1 6.572 0c3.5 3.383 10.118 3.381 13.619 0a5.409 5.409 0 0 1 6.571 0 9.825 9.825 0 0 0 6.81 2.537 9.828 9.828 0 0 0 6.81-2.537 5.41 5.41 0 0 1 6.572 0L57 41.769c-3.5-3.382-10.12-3.381-13.618.001zM43.382 28.176a5.406 5.406 0 0 1-6.573 0c-3.5-3.379-10.118-3.38-13.618 0a5.409 5.409 0 0 1-6.572 0C13.117 24.8 6.5 24.8 3 28.176l3.522 3.646a5.415 5.415 0 0 1 6.573 0c3.5 3.38 10.115 3.381 13.619 0a5.409 5.409 0 0 1 6.571 0 9.82 9.82 0 0 0 6.81 2.537 9.824 9.824 0 0 0 6.81-2.537 5.412 5.412 0 0 1 6.572 0L57 28.175c-3.5-3.375-10.12-3.375-13.618.001zM13.1 18.229c3.5 3.379 10.115 3.381 13.619 0a5.409 5.409 0 0 1 6.571 0 9.821 9.821 0 0 0 6.81 2.538 9.825 9.825 0 0 0 6.81-2.538 5.413 5.413 0 0 1 6.572 0L57 14.582c-3.5-3.379-10.12-3.376-13.618 0a5.406 5.406 0 0 1-6.573 0c-3.5-3.379-10.118-3.38-13.618 0a5.41 5.41 0 0 1-6.572 0C13.117 11.2 6.5 11.2 3 14.583l3.522 3.646a5.416 5.416 0 0 1 6.578 0z"/></svg>