<svg xmlns="http://www.w3.org/2000/svg" viewBox="0 0 60 60"><path d="M29.9 34.183A7.909 7.909 0 0 0 29.916 50h.013a7.909 7.909 0 1 0-.029-15.817zm2.071 9.959a2.886 2.886 0 0 1-2.043.858h-.012a2.914 2.914 0 0 1-2.909-2.9 2.908 2.908 0 0 1 4.964-2.061 2.844 2.844 0 0 1 .853 2.053 2.88 2.88 0 0 1-.85 2.05zM29.9 11.66A37.921 37.921 0 0 0 2.889 22.842l3.535 3.531a33.229 33.229 0 0 1 46.934-.026l3.531-3.535A37.925 37.925 0 0 0 29.9 11.66z"/><path d="M11.251 31.153l3.535 3.532a21.457 21.457 0 0 1 30.22-.1l3.512-3.554a26.456 26.456 0 0 0-37.267.119z"/></svg>