<svg xmlns="http://www.w3.org/2000/svg" viewBox="0 0 60 60"><path d="M53.092 35.967C48.569 27.74 38.87 25 36.906 24.522a8.113 8.113 0 0 0-.98-1.3c.665-3.331 1.7-11.7-2.8-18.539A3.727 3.727 0 0 0 30 3a3.731 3.731 0 0 0-3.126 1.679c-4.5 6.841-3.465 15.208-2.8 18.539a8.113 8.113 0 0 0-.98 1.3C21.131 25 11.432 27.74 6.908 35.967a3.749 3.749 0 0 0 2.923 5.527 19.066 19.066 0 0 0 3.765-.02 27.156 27.156 0 0 0 13.028-5.467 8.008 8.008 0 0 0 .791.318V57h5V36.387a8 8 0 0 0 .961-.38A27.156 27.156 0 0 0 46.4 41.474a19.066 19.066 0 0 0 3.765.02 3.749 3.749 0 0 0 2.923-5.527zm-19.929-7.284A3.163 3.163 0 1 1 30 25.521a3.165 3.165 0 0 1 3.163 3.162zM30 9.13c1.926 4.128 1.739 8.78 1.356 11.6a7.539 7.539 0 0 0-2.718 0c-.389-2.811-.58-7.455 1.362-11.6zM12.307 36.647c2.788-3.684 7.07-5.7 9.734-6.661a8 8 0 0 0 .9 2.611 21.363 21.363 0 0 1-10.634 4.05zm24.75-4.05a8 8 0 0 0 .9-2.611c2.665.964 6.946 2.978 9.735 6.661A21.349 21.349 0 0 1 37.057 32.6z"/></svg>