<svg xmlns="http://www.w3.org/2000/svg" viewBox="0 0 60 60"><path d="M57 30a27 27 0 0 0-54 0v27h5V45.623a26.959 26.959 0 0 0 44 0V57h5V30.07 30zm-8.987-12.607H33.42A10.96 10.96 0 0 1 22.836 9.2a21.955 21.955 0 0 1 25.177 8.189zM30 52a21.991 21.991 0 0 1-11.73-40.6 15.969 15.969 0 0 0 15.15 10.993h17.223A22 22 0 0 1 30 52z"/><path d="M18.861 24.079h4.778v5h-4.778zM36.258 24.079h4.778v5h-4.778zM29.949 41.513a6.094 6.094 0 0 1-6.088-6.087h-5a11.088 11.088 0 0 0 22.175 0h-5a6.094 6.094 0 0 1-6.087 6.087z"/></svg>