<svg xmlns="http://www.w3.org/2000/svg" viewBox="0 0 60 60"><path d="M57 30a27 27 0 0 0-54 0v27h5V45.623a26.959 26.959 0 0 0 44 0V57h5V30.07 30zm-8.986-12.606H33.42A10.961 10.961 0 0 1 22.836 9.2a21.956 21.956 0 0 1 25.178 8.19zM30 52a21.991 21.991 0 0 1-11.731-40.6A15.972 15.972 0 0 0 33.42 22.394h17.223A22 22 0 0 1 30 52z"/><path d="M40.569 23.107a9.259 9.259 0 0 0-8.9 6.75h-3.333a9.25 9.25 0 1 0 0 5h3.336a9.246 9.246 0 1 0 8.9-11.75zm-21.13 13.5a4.25 4.25 0 1 1 4.25-4.25 4.255 4.255 0 0 1-4.25 4.25zm21.13 0a4.25 4.25 0 1 1 4.25-4.25 4.255 4.255 0 0 1-4.25 4.25z"/></svg>