<svg xmlns="http://www.w3.org/2000/svg" viewBox="0 0 60 60"><path d="M52.6 8.4C47 2.5 37.7 2.3 31.8 7.9l-.6.6L30 9.8l-1.3-1.4C23.1 2.6 13.9 2.3 8 7.8l-.6.6c-5.6 5.9-5.8 15.2-.5 21.3L30 56.2l23.1-26.4c5.4-6.2 5.2-15.4-.5-21.4zm-3.3 18.1L30 48.6 10.7 26.5C7 22.3 7.1 15.9 11 11.8l.4-.4c3.9-3.6 10-3.5 13.6.4l1.3 1.4L30 17l3.6-3.8 1.3-1.4c3.7-3.9 9.9-4 13.7-.3l.3.4c4 4 4.1 10.3.4 14.6z"/><path d="M37.6 19.9h-4.2L30 26.5l-3.2-6.6h-4.4L28 30h-4.4v2.9H28v1.2h-4.4V37H28v1.8h4V37h4.3v-2.9H32v-1.2h4.3V30H32z"/></svg>