<svg xmlns="http://www.w3.org/2000/svg" viewBox="0 0 60 60"><path d="M25.3 30.4l5.6-10.1h-4.2l-3.4 6.6-3.3-6.6h-4.3l5.6 10.1v.1H17v2.9h4.3v1.2H17v2.9h4.3v1.8h4v-1.8h4.4v-2.9h-4.4v-1.2h4.4v-2.9h-4.4z"/><path d="M44.5 2.9L17.3 3C11.4 3 6.5 7.8 6.5 13.7v35.9l7.3 7.3 4.8-4.8 4.8 4.8 4.8-4.8 4.8 4.8 7.3-7.3.2-26.2h13.1V12c.1-4.9-3.9-8.9-8.8-9l-.3-.1zm-9 9l-.3 35.6-2.2 2.4-4.8-4.8-4.8 4.8-4.8-4.8-4.8 4.8-2.3-2.3V13.7c0-3.2 2.6-5.7 5.8-5.7h19.1c-.6 1.2-.9 2.6-.9 3.9zm13.1 6.5h-8.1V12c0-2.1 1.6-3.8 3.7-4h.4c2.2 0 4 1.8 4 4v6.4z"/></svg>