<svg xmlns="http://www.w3.org/2000/svg" viewBox="0 0 60 60"><path d="M47.9 18.9c.3 1.6.5 3.3.5 4.9 0 .7 0 1.4-.1 2.1 5.6 6.7 4.8 16.7-1.9 22.3-5.9 4.9-14.4 5-20.3.1-.8.1-1.5.1-2.3.1-1.6 0-3.2-.2-4.7-.5 6.5 9.5 19.5 11.9 29 5.4s11.9-19.5 5.4-29c-1.6-2.1-3.5-3.9-5.6-5.4z"/><path d="M44.8 23.9C44.8 12.3 35.4 3 23.9 3S3 12.3 3 23.8s9.3 20.9 20.8 20.9c11.6 0 20.9-9.3 21-20.8zM8 23.9C8 15.1 15.1 8 23.9 8s15.9 7.1 15.9 15.9S32.7 39.8 24 39.8c-8.9-.1-16-7.2-16-15.9z"/><path d="M25.9 28.5h4.3v-2.9h-4.3l5.6-10.1h-4.2l-3.4 6.6-3.3-6.6h-4.3l5.6 10.1h-4.4v2.9h4.4v1.2h-4.4v2.9h4.4v1.9h4v-1.9h4.4v-2.9h-4.4z"/></svg>